<svg xmlns="http://www.w3.org/2000/svg" xmlns:xlink="http://www.w3.org/1999/xlink" viewBox="0 0 500 500" width="500" height="500" preserveAspectRatio="xMidYMid meet" style="width: 100%; height: 100%; transform: translate3d(0px, 0px, 0px); content-visibility: visible;"><defs><clipPath id="__lottie_element_854"><rect width="500" height="500" x="0" y="0"></rect></clipPath></defs><g clip-path="url(#__lottie_element_854)"><g transform="matrix(1,0,0,1,215.16700744628906,248.9248809814453)" opacity="1" style="display: block;"><g opacity="1" transform="matrix(1,0,0,1,-0.2709999978542328,44.9109992980957)"><path fill="rgb(255,255,255)" fill-opacity="1" d=" M147.87899780273438,-15.619000434875488 C147.87899780273438,-15.619000434875488 150.89599609375,-29.948999404907227 150.89599609375,-29.948999404907227 C150.89599609375,-29.948999404907227 150.70700073242188,-28.81800079345703 150.70700073242188,-28.81800079345703 C150.70700073242188,-28.81800079345703 150.3300018310547,-27.875 150.3300018310547,-27.875 C147.69000244140625,-21.464000701904297 142.78799438476562,-17.12700080871582 136,-13.92199993133545 C136,-13.92199993133545 134.67999267578125,-13.545000076293945 134.67999267578125,-13.545000076293945 C134.67999267578125,-13.545000076293945 -46.516998291015625,56.40700149536133 -46.516998291015625,56.40700149536133 C-46.516998291015625,56.40700149536133 -47.83700180053711,56.972999572753906 -47.83700180053711,56.972999572753906 C-60.09299850463867,60.93299865722656 -74.80000305175781,58.858001708984375 -82.15299987792969,48.487998962402344 C-82.15299987792969,48.487998962402344 -82.90699768066406,47.54499816894531 -82.90699768066406,47.54499816894531 C-82.90699768066406,47.54499816894531 -145.69400024414062,-62.00299835205078 -145.69400024414062,-62.00299835205078 C-147.57899475097656,-65.39700317382812 -148.14500427246094,-68.2239990234375 -147.76800537109375,-72.18399810791016 C-147.76800537109375,-72.18399810791016 -147.5800018310547,-73.12699890136719 -147.5800018310547,-73.12699890136719 C-147.5800018310547,-73.12699890136719 -150.5970001220703,-58.797000885009766 -150.5970001220703,-58.797000885009766 C-150.5970001220703,-58.797000885009766 -150.78500366210938,-57.854000091552734 -150.78500366210938,-57.854000091552734 C-151.16200256347656,-53.89400100708008 -150.5959930419922,-51.06700134277344 -148.71099853515625,-47.67300033569336 C-148.71099853515625,-47.67300033569336 -85.92400360107422,61.875 -85.92400360107422,61.875 C-85.92400360107422,61.875 -85.35800170898438,62.81800079345703 -85.35800170898438,62.81800079345703 C-77.43900299072266,73.75399780273438 -61.97800064086914,75.26200103759766 -49.534000396728516,70.73699951171875 C-49.534000396728516,70.73699951171875 131.66299438476562,0.7850000262260437 131.66299438476562,0.7850000262260437 C131.66299438476562,0.7850000262260437 132.7949981689453,0.40799999237060547 132.7949981689453,0.40799999237060547 C140.5260009765625,-3.1740000247955322 145.80499267578125,-8.07699966430664 147.87899780273438,-15.619000434875488z"></path><path stroke-linecap="butt" stroke-linejoin="bevel" fill-opacity="0" stroke="rgb(0,0,0)" stroke-opacity="1" stroke-width="4" d=" M147.87899780273438,-15.619000434875488 C147.87899780273438,-15.619000434875488 150.89599609375,-29.948999404907227 150.89599609375,-29.948999404907227 C150.89599609375,-29.948999404907227 150.70700073242188,-28.81800079345703 150.70700073242188,-28.81800079345703 C150.70700073242188,-28.81800079345703 150.3300018310547,-27.875 150.3300018310547,-27.875 C147.69000244140625,-21.464000701904297 142.78799438476562,-17.12700080871582 136,-13.92199993133545 C136,-13.92199993133545 134.67999267578125,-13.545000076293945 134.67999267578125,-13.545000076293945 C134.67999267578125,-13.545000076293945 -46.516998291015625,56.40700149536133 -46.516998291015625,56.40700149536133 C-46.516998291015625,56.40700149536133 -47.83700180053711,56.972999572753906 -47.83700180053711,56.972999572753906 C-60.09299850463867,60.93299865722656 -74.80000305175781,58.858001708984375 -82.15299987792969,48.487998962402344 C-82.15299987792969,48.487998962402344 -82.90699768066406,47.54499816894531 -82.90699768066406,47.54499816894531 C-82.90699768066406,47.54499816894531 -145.69400024414062,-62.00299835205078 -145.69400024414062,-62.00299835205078 C-147.57899475097656,-65.39700317382812 -148.14500427246094,-68.2239990234375 -147.76800537109375,-72.18399810791016 C-147.76800537109375,-72.18399810791016 -147.5800018310547,-73.12699890136719 -147.5800018310547,-73.12699890136719 C-147.5800018310547,-73.12699890136719 -150.5970001220703,-58.797000885009766 -150.5970001220703,-58.797000885009766 C-150.5970001220703,-58.797000885009766 -150.78500366210938,-57.854000091552734 -150.78500366210938,-57.854000091552734 C-151.16200256347656,-53.89400100708008 -150.5959930419922,-51.06700134277344 -148.71099853515625,-47.67300033569336 C-148.71099853515625,-47.67300033569336 -85.92400360107422,61.875 -85.92400360107422,61.875 C-85.92400360107422,61.875 -85.35800170898438,62.81800079345703 -85.35800170898438,62.81800079345703 C-77.43900299072266,73.75399780273438 -61.97800064086914,75.26200103759766 -49.534000396728516,70.73699951171875 C-49.534000396728516,70.73699951171875 131.66299438476562,0.7850000262260437 131.66299438476562,0.7850000262260437 C131.66299438476562,0.7850000262260437 132.7949981689453,0.40799999237060547 132.7949981689453,0.40799999237060547 C140.5260009765625,-3.1740000247955322 145.80499267578125,-8.07699966430664 147.87899780273438,-15.619000434875488z"></path></g><g opacity="1" transform="matrix(1,0,0,1,40.41699981689453,66.4990005493164)"><path fill="rgb(255,255,255)" fill-opacity="1" d=" M107.19100189208984,-37.20800018310547 C107.19100189208984,-37.20800018310547 110.20800018310547,-51.53799819946289 110.20800018310547,-51.53799819946289 C110.20800018310547,-51.53799819946289 110.01899719238281,-50.40700149536133 110.01899719238281,-50.40700149536133 C110.01899719238281,-50.40700149536133 109.64199829101562,-49.4640007019043 109.64199829101562,-49.4640007019043 C107.00199890136719,-43.053001403808594 102.0999984741211,-38.715999603271484 95.31199645996094,-35.51100158691406 C95.31199645996094,-35.51100158691406 93.99199676513672,-35.13399887084961 93.99199676513672,-35.13399887084961 C93.99199676513672,-35.13399887084961 -87.20500183105469,34.81800079345703 -87.20500183105469,34.81800079345703 C-87.20500183105469,34.81800079345703 -88.52400207519531,35.38399887084961 -88.52400207519531,35.38399887084961 C-94.55799865722656,37.26900100708008 -101.15699768066406,37.834999084472656 -107.19100189208984,36.51499938964844 C-107.19100189208984,36.51499938964844 -110.20800018310547,50.845001220703125 -110.20800018310547,50.845001220703125 C-103.7969970703125,52.165000915527344 -96.63200378417969,51.5989990234375 -90.22100067138672,49.14799880981445 C-90.22100067138672,49.14799880981445 90.97599792480469,-20.804000854492188 90.97599792480469,-20.804000854492188 C90.97599792480469,-20.804000854492188 92.10700225830078,-21.180999755859375 92.10700225830078,-21.180999755859375 C99.83799743652344,-24.76300048828125 105.11699676513672,-29.666000366210938 107.19100189208984,-37.20800018310547z"></path><path stroke-linecap="butt" stroke-linejoin="bevel" fill-opacity="0" stroke="rgb(0,0,0)" stroke-opacity="1" stroke-width="4" d=" M107.19100189208984,-37.20800018310547 C107.19100189208984,-37.20800018310547 110.20800018310547,-51.53799819946289 110.20800018310547,-51.53799819946289 C110.20800018310547,-51.53799819946289 110.01899719238281,-50.40700149536133 110.01899719238281,-50.40700149536133 C110.01899719238281,-50.40700149536133 109.64199829101562,-49.4640007019043 109.64199829101562,-49.4640007019043 C107.00199890136719,-43.053001403808594 102.0999984741211,-38.715999603271484 95.31199645996094,-35.51100158691406 C95.31199645996094,-35.51100158691406 93.99199676513672,-35.13399887084961 93.99199676513672,-35.13399887084961 C93.99199676513672,-35.13399887084961 -87.20500183105469,34.81800079345703 -87.20500183105469,34.81800079345703 C-87.20500183105469,34.81800079345703 -88.52400207519531,35.38399887084961 -88.52400207519531,35.38399887084961 C-94.55799865722656,37.26900100708008 -101.15699768066406,37.834999084472656 -107.19100189208984,36.51499938964844 C-107.19100189208984,36.51499938964844 -110.20800018310547,50.845001220703125 -110.20800018310547,50.845001220703125 C-103.7969970703125,52.165000915527344 -96.63200378417969,51.5989990234375 -90.22100067138672,49.14799880981445 C-90.22100067138672,49.14799880981445 90.97599792480469,-20.804000854492188 90.97599792480469,-20.804000854492188 C90.97599792480469,-20.804000854492188 92.10700225830078,-21.180999755859375 92.10700225830078,-21.180999755859375 C99.83799743652344,-24.76300048828125 105.11699676513672,-29.666000366210938 107.19100189208984,-37.20800018310547z"></path></g><g opacity="1" transform="matrix(1,0,0,1,1.5210000276565552,-7.13100004196167)"><path fill="rgb(255,255,255)" fill-opacity="1" d=" M48.229000091552734,-108.572998046875 C48.229000091552734,-108.572998046875 -132.96800231933594,-38.62099838256836 -132.96800231933594,-38.62099838256836 C-146.92100524902344,-33.15299987792969 -153.33099365234375,-20.33099937438965 -147.48599243164062,-9.961000442504883 C-147.48599243164062,-9.961000442504883 -84.6989974975586,99.58699798583984 -84.6989974975586,99.58699798583984 C-78.66500091552734,109.95700073242188 -62.262001037597656,113.91699981689453 -48.308998107910156,108.4489974975586 C-48.308998107910156,108.4489974975586 132.88800048828125,38.49599838256836 132.88800048828125,38.49599838256836 C146.84100341796875,33.21699905395508 153.4409942626953,20.207000732421875 147.40699768066406,9.836999893188477 C147.40699768066406,9.836999893188477 84.61900329589844,-99.52300262451172 84.61900329589844,-99.52300262451172 C78.58499908447266,-109.89299774169922 62.18199920654297,-113.85199737548828 48.229000091552734,-108.572998046875z"></path><path stroke-linecap="butt" stroke-linejoin="miter" fill-opacity="0" stroke-miterlimit="4" stroke="rgb(0,0,0)" stroke-opacity="1" stroke-width="4" d=" M48.229000091552734,-108.572998046875 C48.229000091552734,-108.572998046875 -132.96800231933594,-38.62099838256836 -132.96800231933594,-38.62099838256836 C-146.92100524902344,-33.15299987792969 -153.33099365234375,-20.33099937438965 -147.48599243164062,-9.961000442504883 C-147.48599243164062,-9.961000442504883 -84.6989974975586,99.58699798583984 -84.6989974975586,99.58699798583984 C-78.66500091552734,109.95700073242188 -62.262001037597656,113.91699981689453 -48.308998107910156,108.4489974975586 C-48.308998107910156,108.4489974975586 132.88800048828125,38.49599838256836 132.88800048828125,38.49599838256836 C146.84100341796875,33.21699905395508 153.4409942626953,20.207000732421875 147.40699768066406,9.836999893188477 C147.40699768066406,9.836999893188477 84.61900329589844,-99.52300262451172 84.61900329589844,-99.52300262451172 C78.58499908447266,-109.89299774169922 62.18199920654297,-113.85199737548828 48.229000091552734,-108.572998046875z"></path></g><g opacity="1" transform="matrix(1,0,0,1,-29.01300048828125,-64.0770034790039)"><path fill="rgb(204,204,204)" fill-opacity="1" d=" M78.76300048828125,-51.62699890136719 C78.76300048828125,-51.62699890136719 -102.43399810791016,18.325000762939453 -102.43399810791016,18.325000762939453 C-116.38700103759766,23.792999267578125 -122.7979965209961,36.61399841308594 -116.9530029296875,46.98400115966797 C-116.9530029296875,46.98400115966797 -112.99299621582031,53.96099853515625 -112.99299621582031,53.96099853515625 C-112.99299621582031,53.96099853515625 119.11199951171875,-35.60100173950195 119.11199951171875,-35.60100173950195 C119.11199951171875,-35.60100173950195 115.15299987792969,-42.57699966430664 115.15299987792969,-42.57699966430664 C109.11900329589844,-52.946998596191406 92.71600341796875,-56.90599822998047 78.76300048828125,-51.62699890136719z"></path><path stroke-linecap="butt" stroke-linejoin="miter" fill-opacity="0" stroke-miterlimit="4" stroke="rgb(0,0,0)" stroke-opacity="1" stroke-width="4" d=" M78.76300048828125,-51.62699890136719 C78.76300048828125,-51.62699890136719 -102.43399810791016,18.325000762939453 -102.43399810791016,18.325000762939453 C-116.38700103759766,23.792999267578125 -122.7979965209961,36.61399841308594 -116.9530029296875,46.98400115966797 C-116.9530029296875,46.98400115966797 -112.99299621582031,53.96099853515625 -112.99299621582031,53.96099853515625 C-112.99299621582031,53.96099853515625 119.11199951171875,-35.60100173950195 119.11199951171875,-35.60100173950195 C119.11199951171875,-35.60100173950195 115.15299987792969,-42.57699966430664 115.15299987792969,-42.57699966430664 C109.11900329589844,-52.946998596191406 92.71600341796875,-56.90599822998047 78.76300048828125,-51.62699890136719z"></path></g></g><g transform="matrix(1,0,0,1,222.7760009765625,251.9128875732422)" opacity="1" style="display: block;"><g opacity="1" transform="matrix(1,0,0,1,41.48099899291992,-13.480999946594238)"><path stroke-linecap="round" stroke-linejoin="round" fill-opacity="0" stroke="rgb(0,0,0)" stroke-opacity="1" stroke-width="4" d=" M10.086999893188477,22.059999465942383 C10.086999893188477,22.059999465942383 19.13800048828125,-14.517999649047852 19.13800048828125,-14.517999649047852 C19.13800048828125,-14.517999649047852 -19.13800048828125,-22.059999465942383 -19.13800048828125,-22.059999465942383"></path></g><g opacity="1" transform="matrix(1,0,0,1,4.335999965667725,0.3779999911785126)"><path stroke-linecap="round" stroke-linejoin="round" fill-opacity="0" stroke="rgb(0,0,0)" stroke-opacity="1" stroke-width="4" d=" M5.561999797821045,-29.69700050354004 C5.561999797821045,-29.69700050354004 -5.561999797821045,29.69700050354004 -5.561999797821045,29.69700050354004"></path></g><g opacity="1" transform="matrix(1,0,0,1,-38.369998931884766,13.480999946594238)"><path stroke-linecap="round" stroke-linejoin="round" fill-opacity="0" stroke="rgb(0,0,0)" stroke-opacity="1" stroke-width="4" d=" M22.249000549316406,22.059999465942383 C22.249000549316406,22.059999465942383 -22.249000549316406,9.23900032043457 -22.249000549316406,9.23900032043457 C-22.249000549316406,9.23900032043457 -9.050000190734863,-22.059999465942383 -9.050000190734863,-22.059999465942383"></path></g></g><g transform="matrix(1,0,0,1,328.22772216796875,214.97076416015625)" opacity="1" style="display: block;"><g opacity="1" transform="matrix(1,0,0,1,-0.37700000405311584,0)"><path fill="rgb(204,204,204)" fill-opacity="1" d=" M-3.2060000896453857,37.02000045776367 C-3.2060000896453857,37.02000045776367 -19.98699951171875,44.750999450683594 -19.98699951171875,44.750999450683594 C-19.98699951171875,44.750999450683594 -37.52199935913086,12.508000373840332 -37.52199935913086,12.508000373840332 C-48.645999908447266,-7.666999816894531 -40.91600036621094,-31.801000595092773 -20.36400032043457,-41.040000915527344 C-4.336999893188477,-48.393001556396484 15.083999633789062,-44.433998107910156 27.905000686645508,-32.55500030517578 C31.298999786376953,-29.350000381469727 34.314998626708984,-25.57900047302246 36.577999114990234,-21.430999755859375 C36.577999114990234,-21.430999755859375 42.61199951171875,-10.494999885559082 42.61199951171875,-10.494999885559082 C42.61199951171875,-10.494999885559082 25.83099937438965,-2.7639999389648438 25.83099937438965,-2.7639999389648438 C25.83099937438965,-2.7639999389648438 19.608999252319336,-14.265999794006348 19.608999252319336,-14.265999794006348 C18.288999557495117,-16.716999053955078 16.402999877929688,-18.979000091552734 14.329000473022461,-20.676000595092773 C7.353000164031982,-26.898000717163086 -3.0179998874664307,-28.972999572753906 -11.690999984741211,-25.01300048828125 C-22.815000534057617,-19.922000885009766 -27.152000427246094,-6.7230000495910645 -21.118000030517578,4.401000022888184 C-21.118000030517578,4.401000022888184 -3.2060000896453857,37.02000045776367 -3.2060000896453857,37.02000045776367z"></path><path stroke-linecap="butt" stroke-linejoin="miter" fill-opacity="0" stroke-miterlimit="4" stroke="rgb(0,0,0)" stroke-opacity="1" stroke-width="4" d=" M-3.2060000896453857,37.02000045776367 C-3.2060000896453857,37.02000045776367 -19.98699951171875,44.750999450683594 -19.98699951171875,44.750999450683594 C-19.98699951171875,44.750999450683594 -37.52199935913086,12.508000373840332 -37.52199935913086,12.508000373840332 C-48.645999908447266,-7.666999816894531 -40.91600036621094,-31.801000595092773 -20.36400032043457,-41.040000915527344 C-4.336999893188477,-48.393001556396484 15.083999633789062,-44.433998107910156 27.905000686645508,-32.55500030517578 C31.298999786376953,-29.350000381469727 34.314998626708984,-25.57900047302246 36.577999114990234,-21.430999755859375 C36.577999114990234,-21.430999755859375 42.61199951171875,-10.494999885559082 42.61199951171875,-10.494999885559082 C42.61199951171875,-10.494999885559082 25.83099937438965,-2.7639999389648438 25.83099937438965,-2.7639999389648438 C25.83099937438965,-2.7639999389648438 19.608999252319336,-14.265999794006348 19.608999252319336,-14.265999794006348 C18.288999557495117,-16.716999053955078 16.402999877929688,-18.979000091552734 14.329000473022461,-20.676000595092773 C7.353000164031982,-26.898000717163086 -3.0179998874664307,-28.972999572753906 -11.690999984741211,-25.01300048828125 C-22.815000534057617,-19.922000885009766 -27.152000427246094,-6.7230000495910645 -21.118000030517578,4.401000022888184 C-21.118000030517578,4.401000022888184 -3.2060000896453857,37.02000045776367 -3.2060000896453857,37.02000045776367z"></path></g><g opacity="1" transform="matrix(1,0,0,1,34.5989990234375,-5.216000080108643)"><path fill="rgb(255,255,255)" fill-opacity="1" d=" M8.390999794006348,-3.3940000534057617 C8.390999794006348,-6.033999919891357 4.619999885559082,-6.598999977111816 -0.09399999678134918,-4.714000225067139 C-4.61899995803833,-2.8289999961853027 -8.390999794006348,0.7540000081062317 -8.390999794006348,3.3940000534057617 C-8.20199966430664,6.033999919891357 -4.431000232696533,6.598999977111816 0.09399999678134918,4.714000225067139 C4.808000087738037,2.8289999961853027 8.390999794006348,-0.7540000081062317 8.390999794006348,-3.3940000534057617z"></path><path stroke-linecap="butt" stroke-linejoin="miter" fill-opacity="0" stroke-miterlimit="4" stroke="rgb(0,0,0)" stroke-opacity="1" stroke-width="4" d=" M8.390999794006348,-3.3940000534057617 C8.390999794006348,-6.033999919891357 4.619999885559082,-6.598999977111816 -0.09399999678134918,-4.714000225067139 C-4.61899995803833,-2.8289999961853027 -8.390999794006348,0.7540000081062317 -8.390999794006348,3.3940000534057617 C-8.20199966430664,6.033999919891357 -4.431000232696533,6.598999977111816 0.09399999678134918,4.714000225067139 C4.808000087738037,2.8289999961853027 8.390999794006348,-0.7540000081062317 8.390999794006348,-3.3940000534057617z"></path></g></g><g transform="matrix(1,0,0,1,367.1730041503906,280.1180114746094)" opacity="1" style="display: block;"><g opacity="1" transform="matrix(1,0,0,1,2.7809998989105225,0)"><path fill="rgb(233,204,255)" fill-opacity="1" d=" M58.41699981689453,33.81999969482422 C58.41699981689453,33.81999969482422 -21.527999877929688,63.23400115966797 -21.527999877929688,63.23400115966797 C-24.732999801635742,64.55400085449219 -30.389999389648438,63.987998962402344 -31.33300018310547,61.15999984741211 C-31.33300018310547,61.15999984741211 -64.8949966430664,-27.270000457763672 -64.8949966430664,-27.270000457763672 C-65.83799743652344,-30.097999572753906 -64.89399719238281,-32.92599868774414 -61.68899917602539,-34.24599838256836 C-61.68899917602539,-34.24599838256836 16.74799919128418,-63.47200012207031 16.74799919128418,-63.47200012207031 C19.952999114990234,-64.60299682617188 23.724000930786133,-63.47100067138672 25.23200035095215,-61.02000045776367 C25.23200035095215,-61.02000045776367 64.45099639892578,6.857999801635742 64.45099639892578,6.857999801635742 C64.8280029296875,7.423999786376953 65.39399719238281,7.988999843597412 65.20500183105469,10.251999855041504 C64.8280029296875,15.343000411987305 63.507999420166016,23.450000762939453 62.37699890136719,28.917999267578125 C61.81100082397461,31.746000289916992 59.36000061035156,33.44300079345703 58.41699981689453,33.81999969482422z"></path><path stroke-linecap="butt" stroke-linejoin="miter" fill-opacity="0" stroke-miterlimit="4" stroke="rgb(0,0,0)" stroke-opacity="1" stroke-width="4" d=" M58.41699981689453,33.81999969482422 C58.41699981689453,33.81999969482422 -21.527999877929688,63.23400115966797 -21.527999877929688,63.23400115966797 C-24.732999801635742,64.55400085449219 -30.389999389648438,63.987998962402344 -31.33300018310547,61.15999984741211 C-31.33300018310547,61.15999984741211 -64.8949966430664,-27.270000457763672 -64.8949966430664,-27.270000457763672 C-65.83799743652344,-30.097999572753906 -64.89399719238281,-32.92599868774414 -61.68899917602539,-34.24599838256836 C-61.68899917602539,-34.24599838256836 16.74799919128418,-63.47200012207031 16.74799919128418,-63.47200012207031 C19.952999114990234,-64.60299682617188 23.724000930786133,-63.47100067138672 25.23200035095215,-61.02000045776367 C25.23200035095215,-61.02000045776367 64.45099639892578,6.857999801635742 64.45099639892578,6.857999801635742 C64.8280029296875,7.423999786376953 65.39399719238281,7.988999843597412 65.20500183105469,10.251999855041504 C64.8280029296875,15.343000411987305 63.507999420166016,23.450000762939453 62.37699890136719,28.917999267578125 C61.81100082397461,31.746000289916992 59.36000061035156,33.44300079345703 58.41699981689453,33.81999969482422z"></path></g><g opacity="1" transform="matrix(1,0,0,1,-41.45600128173828,15.690999984741211)"><path fill="rgb(233,204,255)" fill-opacity="1" d=" M17.9950008392334,46.2239990234375 C17.9950008392334,46.2239990234375 21.766000747680664,28.12299919128418 21.766000747680664,28.12299919128418 C22.708999633789062,24.351999282836914 28.176000595092773,22.277999877929688 26.101999282836914,18.695999145507812 C26.101999282836914,18.695999145507812 -9.345000267028809,-42.77199935913086 -9.345000267028809,-42.77199935913086 C-11.418999671936035,-46.354000091552734 -20.2810001373291,-50.125 -21.224000930786133,-46.354000091552734 C-21.224000930786133,-46.354000091552734 -24.429000854492188,-32.02399826049805 -24.429000854492188,-32.02399826049805 C-24.805999755859375,-30.70400047302246 -25.749000549316406,-28.253000259399414 -26.125999450683594,-26.368000030517578 C-27.069000244140625,-22.974000930786133 -26.503000259399414,-18.447999954223633 -24.429000854492188,-15.243000030517578 C-24.429000854492188,-15.243000030517578 9.321000099182129,43.01900100708008 9.321000099182129,43.01900100708008 C11.017999649047852,46.2239990234375 13.657999992370605,47.731998443603516 15.543000221252441,47.92100143432617 C16.673999786376953,47.92100143432617 17.618000030517578,47.731998443603516 17.9950008392334,46.2239990234375z"></path><path stroke-linecap="butt" stroke-linejoin="miter" fill-opacity="0" stroke-miterlimit="4" stroke="rgb(0,0,0)" stroke-opacity="1" stroke-width="4" d=" M17.9950008392334,46.2239990234375 C17.9950008392334,46.2239990234375 21.766000747680664,28.12299919128418 21.766000747680664,28.12299919128418 C22.708999633789062,24.351999282836914 28.176000595092773,22.277999877929688 26.101999282836914,18.695999145507812 C26.101999282836914,18.695999145507812 -9.345000267028809,-42.77199935913086 -9.345000267028809,-42.77199935913086 C-11.418999671936035,-46.354000091552734 -20.2810001373291,-50.125 -21.224000930786133,-46.354000091552734 C-21.224000930786133,-46.354000091552734 -24.429000854492188,-32.02399826049805 -24.429000854492188,-32.02399826049805 C-24.805999755859375,-30.70400047302246 -25.749000549316406,-28.253000259399414 -26.125999450683594,-26.368000030517578 C-27.069000244140625,-22.974000930786133 -26.503000259399414,-18.447999954223633 -24.429000854492188,-15.243000030517578 C-24.429000854492188,-15.243000030517578 9.321000099182129,43.01900100708008 9.321000099182129,43.01900100708008 C11.017999649047852,46.2239990234375 13.657999992370605,47.731998443603516 15.543000221252441,47.92100143432617 C16.673999786376953,47.92100143432617 17.618000030517578,47.731998443603516 17.9950008392334,46.2239990234375z"></path></g><g opacity="1" transform="matrix(1,0,0,1,2.559999942779541,-10.208000183105469)"><path fill="rgb(233,204,255)" fill-opacity="1" d=" M61.46699905395508,23.85300064086914 C61.46699905395508,23.85300064086914 -16.969999313354492,53.266998291015625 -16.969999313354492,53.266998291015625 C-20.174999237060547,54.39799880981445 -23.945999145507812,53.268001556396484 -25.45400047302246,50.62799835205078 C-25.45400047302246,50.62799835205078 -64.6729965209961,-17.062000274658203 -64.6729965209961,-17.062000274658203 C-66.18099975585938,-19.70199966430664 -64.6719970703125,-22.718000411987305 -61.46699905395508,-24.038000106811523 C-61.46699905395508,-24.038000106811523 16.969999313354492,-53.263999938964844 16.969999313354492,-53.263999938964844 C20.174999237060547,-54.39500045776367 23.945999145507812,-53.263999938964844 25.45400047302246,-50.8129997253418 C25.45400047302246,-50.8129997253418 64.6729965209961,17.06599998474121 64.6729965209961,17.06599998474121 C66.18099975585938,19.517000198364258 64.6719970703125,22.722000122070312 61.46699905395508,23.85300064086914z"></path><path stroke-linecap="butt" stroke-linejoin="miter" fill-opacity="0" stroke-miterlimit="4" stroke="rgb(0,0,0)" stroke-opacity="1" stroke-width="4" d=" M61.46699905395508,23.85300064086914 C61.46699905395508,23.85300064086914 -16.969999313354492,53.266998291015625 -16.969999313354492,53.266998291015625 C-20.174999237060547,54.39799880981445 -23.945999145507812,53.268001556396484 -25.45400047302246,50.62799835205078 C-25.45400047302246,50.62799835205078 -64.6729965209961,-17.062000274658203 -64.6729965209961,-17.062000274658203 C-66.18099975585938,-19.70199966430664 -64.6719970703125,-22.718000411987305 -61.46699905395508,-24.038000106811523 C-61.46699905395508,-24.038000106811523 16.969999313354492,-53.263999938964844 16.969999313354492,-53.263999938964844 C20.174999237060547,-54.39500045776367 23.945999145507812,-53.263999938964844 25.45400047302246,-50.8129997253418 C25.45400047302246,-50.8129997253418 64.6729965209961,17.06599998474121 64.6729965209961,17.06599998474121 C66.18099975585938,19.517000198364258 64.6719970703125,22.722000122070312 61.46699905395508,23.85300064086914z"></path></g><g opacity="1" transform="matrix(1,0,0,1,9.630999565124512,-2.8529999256134033)"><path fill="rgb(0,0,0)" fill-opacity="1" d=" M11.972999572753906,4.808000087738037 C11.972999572753906,4.808000087738037 -5.184999942779541,11.218999862670898 -5.184999942779541,11.218999862670898 C-5.184999942779541,11.218999862670898 -11.972999572753906,-7.071000099182129 -11.972999572753906,-7.071000099182129 C-11.972999572753906,-7.071000099182129 -1.2259999513626099,-11.218999862670898 -1.2259999513626099,-11.218999862670898 C-1.2259999513626099,-11.218999862670898 11.972999572753906,4.808000087738037 11.972999572753906,4.808000087738037z"></path><path stroke-linecap="butt" stroke-linejoin="miter" fill-opacity="0" stroke-miterlimit="4" stroke="rgb(0,0,0)" stroke-opacity="1" stroke-width="4" d=" M11.972999572753906,4.808000087738037 C11.972999572753906,4.808000087738037 -5.184999942779541,11.218999862670898 -5.184999942779541,11.218999862670898 C-5.184999942779541,11.218999862670898 -11.972999572753906,-7.071000099182129 -11.972999572753906,-7.071000099182129 C-11.972999572753906,-7.071000099182129 -1.2259999513626099,-11.218999862670898 -1.2259999513626099,-11.218999862670898 C-1.2259999513626099,-11.218999862670898 11.972999572753906,4.808000087738037 11.972999572753906,4.808000087738037z"></path></g><g opacity="1" transform="matrix(1,0,0,1,-2.3429999351501465,-20.625999450683594)"><path fill="rgb(0,0,0)" fill-opacity="1" d=" M8.862000465393066,-3.250999927520752 C6.2220001220703125,-8.152999877929688 -0.1889999955892563,-10.604000091552734 -5.091000080108643,-8.718999862670898 C-9.993000030517578,-7.021999835968018 -11.6899995803833,-1.5540000200271606 -8.862000465393066,3.3480000495910645 C-6.033999919891357,8.062000274658203 0.1889999955892563,10.512999534606934 5.091000080108643,8.815999984741211 C9.993000030517578,6.931000232696533 11.6899995803833,1.4630000591278076 8.862000465393066,-3.250999927520752z"></path><path stroke-linecap="butt" stroke-linejoin="miter" fill-opacity="0" stroke-miterlimit="4" stroke="rgb(0,0,0)" stroke-opacity="1" stroke-width="4" d=" M8.862000465393066,-3.250999927520752 C6.2220001220703125,-8.152999877929688 -0.1889999955892563,-10.604000091552734 -5.091000080108643,-8.718999862670898 C-9.993000030517578,-7.021999835968018 -11.6899995803833,-1.5540000200271606 -8.862000465393066,3.3480000495910645 C-6.033999919891357,8.062000274658203 0.1889999955892563,10.512999534606934 5.091000080108643,8.815999984741211 C9.993000030517578,6.931000232696533 11.6899995803833,1.4630000591278076 8.862000465393066,-3.250999927520752z"></path></g></g></g></svg>