<svg xmlns="http://www.w3.org/2000/svg" xmlns:xlink="http://www.w3.org/1999/xlink" viewBox="0 0 500 500" width="500" height="500" preserveAspectRatio="xMidYMid meet" style="width: 100%; height: 100%; transform: translate3d(0px, 0px, 0px); content-visibility: visible;"><defs><clipPath id="__lottie_element_2175"><rect width="500" height="500" x="0" y="0"></rect></clipPath><clipPath id="__lottie_element_2183"><path fill="#ffffff" clip-rule="nonzero" d=" M-224.94400024414062,57.6879997253418 C-225.71200561523438,55.768001556396484 -226.86399841308594,53.847999572753906 -227.6320037841797,51.928001403808594 C-227.6320037841797,51.928001403808594 10.444999694824219,7.76800012588501 10.444999694824219,7.76800012588501 C10.444999694824219,7.76800012588501 109.13200378417969,192.47000122070312 109.13200378417969,192.47000122070312 C100.30000305175781,195.54200744628906 91.46800231933594,198.22999572753906 82.25199890136719,200.14999389648438 C-39.4739990234375,228.1820068359375 -176.94500732421875,164.0540008544922 -224.94400024414062,57.6879997253418" fill-opacity="1"></path></clipPath><clipPath id="__lottie_element_2190"><path fill="#ffffff" clip-rule="nonzero" d=" M103.94599914550781,189.41200256347656 C103.94599914550781,189.41200256347656 7.179999828338623,3.559000015258789 7.179999828338623,3.559000015258789 C7.179999828338623,3.559000015258789 217.22500610351562,-37.9119987487793 217.22500610351562,-37.9119987487793 C229.12899780273438,-8.343999862670898 236.4250030517578,36.96699905395508 218.76100158691406,83.81400299072266 C201.0970001220703,131.0449981689453 160.77699279785156,169.8280029296875 103.94599914550781,189.41200256347656" fill-opacity="1"></path></clipPath><path d="" fill-opacity="1"></path><clipPath id="__lottie_element_2197"><path fill="#ffffff" clip-rule="nonzero" d=" M-230.1699981689453,46.23400115966797 C-270.489013671875,-56.676998138427734 -210.97000122070312,-159.97000122070312 -93.85199737548828,-187.23399353027344 C-93.85199737548828,-187.23399353027344 6.754000186920166,0.9229999780654907 6.754000186920166,0.9229999780654907 C6.754000186920166,0.9229999780654907 -230.1699981689453,46.23400115966797 -230.1699981689453,46.23400115966797" fill-opacity="1"></path></clipPath><clipPath id="__lottie_element_2204"><path fill="#ffffff" clip-rule="nonzero" d=" M-97.78600311279297,-185.85400390625 C-96.63400268554688,-185.85400390625 -95.86599731445312,-186.23800659179688 -94.71399688720703,-186.6219940185547 C-46.33100128173828,-197.37399291992188 10.885000228881836,-192.3820037841797 57.731998443603516,-177.406005859375 C128.0030059814453,-155.13400268554688 185.6020050048828,-104.4469985961914 214.78599548339844,-41.0880012512207 C214.78599548339844,-41.0880012512207 2.052999973297119,0.382999986410141 2.052999973297119,0.382999986410141 C2.052999973297119,0.382999986410141 -97.78600311279297,-185.85400390625 -97.78600311279297,-185.85400390625" fill-opacity="1"></path></clipPath></defs><g clip-path="url(#__lottie_element_2175)"><g transform="matrix(0.800000011920929,0,0,0.800000011920929,307.32879638671875,184.127197265625)" opacity="1" style="display: block;"><g opacity="1" transform="matrix(1,0,0,1,51.058998107910156,75.6259994506836)"><path fill="rgb(204,153,51)" fill-opacity="1" d=" M109.43800354003906,-50.87900161743164 C109.43800354003906,-50.87900161743164 -102.14299774169922,-9.02400016784668 -102.14299774169922,-9.02400016784668 C-102.14299774169922,-9.02400016784668 -109.43800354003906,50.87900161743164 -109.43800354003906,50.87900161743164 C-109.43800354003906,50.87900161743164 102.14299774169922,9.02400016784668 102.14299774169922,9.02400016784668 C102.14299774169922,9.02400016784668 109.43800354003906,-50.87900161743164 109.43800354003906,-50.87900161743164z"></path><path stroke-linecap="round" stroke-linejoin="round" fill-opacity="0" stroke="rgb(0,0,0)" stroke-opacity="1" stroke-width="6.637" d=" M109.43800354003906,-50.87900161743164 C109.43800354003906,-50.87900161743164 -102.14299774169922,-9.02400016784668 -102.14299774169922,-9.02400016784668 C-102.14299774169922,-9.02400016784668 -109.43800354003906,50.87900161743164 -109.43800354003906,50.87900161743164 C-109.43800354003906,50.87900161743164 102.14299774169922,9.02400016784668 102.14299774169922,9.02400016784668 C102.14299774169922,9.02400016784668 109.43800354003906,-50.87900161743164 109.43800354003906,-50.87900161743164z"></path></g><g opacity="1" transform="matrix(1,0,0,1,-105.59300231933594,3.6559998989105225)"><path fill="rgb(204,153,51)" fill-opacity="1" d=" M54.9109992980957,62.590999603271484 C54.9109992980957,62.590999603271484 -46.84700012207031,-122.87799835205078 -46.84700012207031,-122.87799835205078 C-46.84700012207031,-122.87799835205078 -54.9109992980957,-62.590999603271484 -54.9109992980957,-62.590999603271484 C-54.9109992980957,-62.590999603271484 47.23099899291992,122.87799835205078 47.23099899291992,122.87799835205078 C47.23099899291992,122.87799835205078 54.9109992980957,62.590999603271484 54.9109992980957,62.590999603271484z"></path><path stroke-linecap="round" stroke-linejoin="round" fill-opacity="0" stroke="rgb(0,0,0)" stroke-opacity="1" stroke-width="6.637" d=" M54.9109992980957,62.590999603271484 C54.9109992980957,62.590999603271484 -46.84700012207031,-122.87799835205078 -46.84700012207031,-122.87799835205078 C-46.84700012207031,-122.87799835205078 -54.9109992980957,-62.590999603271484 -54.9109992980957,-62.590999603271484 C-54.9109992980957,-62.590999603271484 47.23099899291992,122.87799835205078 47.23099899291992,122.87799835205078 C47.23099899291992,122.87799835205078 54.9109992980957,62.590999603271484 54.9109992980957,62.590999603271484z"></path></g><g opacity="1" transform="matrix(1,0,0,1,4.218999862670898,-30.150999069213867)"><path fill="rgb(255,215,49)" fill-opacity="1" d=" M-156.28599548339844,-89.85399627685547 C-155.13400268554688,-89.85399627685547 -154.36599731445312,-90.23799896240234 -153.21400451660156,-90.62200164794922 C-104.83100128173828,-101.3740005493164 -47.6150016784668,-96.38200378417969 -0.7680000066757202,-81.40599822998047 C69.50299835205078,-59.13399887084961 127.10199737548828,-8.446999549865723 156.28599548339844,54.9119987487793 C156.28599548339844,54.9119987487793 -56.446998596191406,96.38300323486328 -56.446998596191406,96.38300323486328 C-56.446998596191406,96.38300323486328 -156.28599548339844,-89.85399627685547 -156.28599548339844,-89.85399627685547z"></path></g><g opacity="1" transform="matrix(1,0,0,1,4.218999862670898,-30.150999069213867)"><path stroke-linecap="round" stroke-linejoin="round" fill-opacity="0" stroke="rgb(0,0,0)" stroke-opacity="1" stroke-width="6.637" d=" M-156.28599548339844,-89.85399627685547 C-155.13400268554688,-89.85399627685547 -154.36599731445312,-90.23799896240234 -153.21400451660156,-90.62200164794922 C-104.83100128173828,-101.3740005493164 -47.6150016784668,-96.38200378417969 -0.7680000066757202,-81.40599822998047 C69.50299835205078,-59.13399887084961 127.10199737548828,-8.446999549865723 156.28599548339844,54.9119987487793 C156.28599548339844,54.9119987487793 -56.446998596191406,96.38300323486328 -56.446998596191406,96.38300323486328 C-56.446998596191406,96.38300323486328 -156.28599548339844,-89.85399627685547 -156.28599548339844,-89.85399627685547z"></path></g><g opacity="1" transform="matrix(1,0,0,1,-1.3459999561309814,-42.696998596191406)"><path stroke-linecap="round" stroke-linejoin="miter" fill-opacity="0" stroke-miterlimit="4" stroke="rgb(0,0,0)" stroke-opacity="1" stroke-width="6.637" d=" M-144.19000244140625,-64.26599884033203 C-142.6540069580078,-64.26599884033203 -141.5019989013672,-64.6500015258789 -139.96600341796875,-65.03399658203125 C-31.29599952697754,-89.99400329589844 103.87100219726562,-33.547000885009766 144.19000244140625,70.9000015258789"></path></g></g><g clip-path="url(#__lottie_element_2204)" transform="matrix(0.800000011920929,0,0,0.800000011920929,263.9639892578125,236.48719787597656)" opacity="1" style="display: block;"><g opacity="1" transform="matrix(1,0,0,1,0,0)"><g opacity="1" transform="matrix(1,0,0,1,0,0)"><path fill="rgb(0,0,0)" fill-opacity="1" d=" M-117.83999633789062,18.054000854492188 C-176.59100341796875,9.605999946594238 -208.46299743652344,-110.58300018310547 -53.32899856567383,-142.0709991455078 C2.3499999046325684,-153.20700073242188 51.8849983215332,-141.3040008544922 84.14099884033203,-108.66400146484375 C153.25999450683594,-39.1609992980957 61.10200119018555,-16.5049991607666 51.50199890136719,-66.04000091552734 C49.198001861572266,-79.86399841308594 63.40599822998047,-119.41600036621094 36.5260009765625,-117.49600219726562 C23.469999313354492,-116.34400177001953 -100.55999755859375,-38.777000427246094 -115.1520004272461,-30.32900047302246 C-142.41600036621094,-14.201000213623047 -132.81500244140625,4.999000072479248 -96.72000122070312,0.39100000262260437 C-69.83999633789062,-2.680999994277954 -43.345001220703125,-6.90500020980835 -16.46500015258789,-11.128999710083008 C9.262999534606934,-14.585000038146973 35.757999420166016,-18.80900001525879 61.869998931884766,-22.264999389648438 C86.83000183105469,-25.72100067138672 117.16400146484375,-34.553001403808594 138.28399658203125,-22.64900016784668 C158.63600158691406,-11.128999710083008 168.23599243164062,15.75 165.9320068359375,36.869998931884766 C157.10000610351562,126.34100341796875 -12.241000175476074,190.8520050048828 -91.34400177001953,107.5250015258789 C-147.79100036621094,47.62200164794922 -82.12899780273438,16.135000228881836 -49.10499954223633,66.8219985961914 C-41.04100036621094,79.49400329589844 -19.152999877929688,116.35700225830078 -10.704999923706055,125.18900299072266 C11.182999610900879,147.07699584960938 33.06999969482422,115.20500183105469 39.981998443603516,108.29299926757812 C51.50199890136719,95.23699951171875 62.637001037597656,84.48600006103516 75.69300079345703,69.89399719238281 C85.677001953125,58.757999420166016 122.15699768066406,21.51099967956543 129.06900024414062,11.527000427246094 C134.44500732421875,3.0789999961853027 129.06900024414062,-9.593000411987305 117.16500091552734,-13.432999610900879 C100.26899719238281,-19.19300079345703 -75.98500061035156,24.197999954223633 -117.83999633789062,18.054000854492188z"></path></g></g></g><g transform="matrix(0.800000011920929,0,0,0.800000011920929,162.80319213867188,205.32321166992188)" opacity="1" style="display: block;"><g opacity="1" transform="matrix(1,0,0,1,-118.46099853515625,63.167999267578125)"><path fill="rgb(255,215,49)" fill-opacity="1" d=" M-12.684000015258789,-7.679999828338623 C-9.612000465393066,-34.17599868774414 -1.1640000343322754,-58.367000579833984 6.131999969482422,-84.47899627685547 C6.131999969482422,-84.47899627685547 3.828000068664551,-75.26300048828125 3.828000068664551,-75.26300048828125 C3.828000068664551,-75.26300048828125 2.2920000553131104,-66.0469970703125 2.2920000553131104,-66.0469970703125 C-0.7799999713897705,-40.319000244140625 0.3720000088214874,-22.6560001373291 6.515999794006348,1.9199999570846558 C8.435999870300293,8.831999778747559 10.73900032043457,15.359999656677246 13.043000221252441,21.503999710083008 C13.043000221252441,21.503999710083008 13.043000221252441,21.88800048828125 13.043000221252441,21.88800048828125 C13.043000221252441,21.88800048828125 4.980000019073486,84.47899627685547 4.980000019073486,84.47899627685547 C-8.843999862670898,55.29499816894531 -14.604000091552734,27.26300048828125 -12.684000015258789,-7.679999828338623z"></path><path stroke-linecap="round" stroke-linejoin="round" fill-opacity="0" stroke="rgb(0,0,0)" stroke-opacity="1" stroke-width="6.637" d=" M-12.684000015258789,-7.679999828338623 C-9.612000465393066,-34.17599868774414 -1.1640000343322754,-58.367000579833984 6.131999969482422,-84.47899627685547 C6.131999969482422,-84.47899627685547 3.828000068664551,-75.26300048828125 3.828000068664551,-75.26300048828125 C3.828000068664551,-75.26300048828125 2.2920000553131104,-66.0469970703125 2.2920000553131104,-66.0469970703125 C-0.7799999713897705,-40.319000244140625 0.3720000088214874,-22.6560001373291 6.515999794006348,1.9199999570846558 C8.435999870300293,8.831999778747559 10.73900032043457,15.359999656677246 13.043000221252441,21.503999710083008 C13.043000221252441,21.503999710083008 13.043000221252441,21.88800048828125 13.043000221252441,21.88800048828125 C13.043000221252441,21.88800048828125 4.980000019073486,84.47899627685547 4.980000019073486,84.47899627685547 C-8.843999862670898,55.29499816894531 -14.604000091552734,27.26300048828125 -12.684000015258789,-7.679999828338623z"></path></g><g opacity="1" transform="matrix(1,0,0,1,6.75,-31.295000076293945)"><path fill="rgb(255,215,49)" fill-opacity="1" d=" M-112.16999816894531,116.73400115966797 C-152.48899841308594,13.822999954223633 -92.97000122070312,-89.47000122070312 24.148000717163086,-116.73400115966797 C24.148000717163086,-116.73400115966797 124.75399780273438,71.4229965209961 124.75399780273438,71.4229965209961 C124.75399780273438,71.4229965209961 -112.16999816894531,116.73400115966797 -112.16999816894531,116.73400115966797z"></path></g><g opacity="1" transform="matrix(1,0,0,1,6.75,-31.295000076293945)"><path stroke-linecap="round" stroke-linejoin="round" fill-opacity="0" stroke="rgb(0,0,0)" stroke-opacity="1" stroke-width="6.637" d=" M-112.16999816894531,116.73400115966797 C-152.48899841308594,13.822999954223633 -92.97000122070312,-89.47000122070312 24.148000717163086,-116.73400115966797 C24.148000717163086,-116.73400115966797 124.75399780273438,71.4229965209961 124.75399780273438,71.4229965209961 C124.75399780273438,71.4229965209961 -112.16999816894531,116.73400115966797 -112.16999816894531,116.73400115966797z"></path></g><g opacity="1" transform="matrix(1,0,0,1,8.819999694824219,94.0780029296875)"><path fill="rgb(204,153,51)" fill-opacity="1" d=" M121.91799926757812,-53.95100021362305 C121.91799926757812,-53.95100021362305 -114.23799896240234,-9.02400016784668 -114.23799896240234,-9.02400016784668 C-114.23799896240234,-9.02400016784668 -121.91799926757812,53.95100021362305 -121.91799926757812,53.95100021362305 C-121.91799926757812,53.95100021362305 114.23799896240234,5.952000141143799 114.23799896240234,5.952000141143799 C114.23799896240234,5.952000141143799 121.91799926757812,-53.95100021362305 121.91799926757812,-53.95100021362305z"></path><path stroke-linecap="round" stroke-linejoin="round" fill-opacity="0" stroke="rgb(0,0,0)" stroke-opacity="1" stroke-width="6.637" d=" M121.91799926757812,-53.95100021362305 C121.91799926757812,-53.95100021362305 -114.23799896240234,-9.02400016784668 -114.23799896240234,-9.02400016784668 C-114.23799896240234,-9.02400016784668 -121.91799926757812,53.95100021362305 -121.91799926757812,53.95100021362305 C-121.91799926757812,53.95100021362305 114.23799896240234,5.952000141143799 114.23799896240234,5.952000141143799 C114.23799896240234,5.952000141143799 121.91799926757812,-53.95100021362305 121.91799926757812,-53.95100021362305z"></path></g><g opacity="1" transform="matrix(1,0,0,1,-33.00400161743164,-26.31399917602539)"><path stroke-linecap="round" stroke-linejoin="miter" fill-opacity="0" stroke-miterlimit="4" stroke="rgb(0,0,0)" stroke-opacity="1" stroke-width="6.637" d=" M-56.67300033569336,107.9020004272461 C-93.53600311279297,13.822999954223633 -38.625,-79.87000274658203 68.125,-107.9020004272461"></path></g></g><g clip-path="url(#__lottie_element_2197)" transform="matrix(0.800000011920929,0,0,0.800000011920929,262.3232116699219,236.46400451660156)" opacity="1" style="display: block;"><g opacity="1" transform="matrix(1,0,0,1,0,0)"><g opacity="1" transform="matrix(1,0,0,1,0,0)"><path fill="rgb(0,0,0)" fill-opacity="1" d=" M-116.14199829101562,17.719999313354492 C-173.74099731445312,9.272000312805176 -205.22900390625,-108.99800109863281 -52.39899826049805,-139.71800231933594 C2.51200008392334,-150.85400390625 51.27899932861328,-138.9499969482422 82.76699829101562,-107.0780029296875 C150.73399353027344,-38.34299850463867 59.72700119018555,-16.07200050354004 50.89500045776367,-65.2229995727539 C48.207000732421875,-78.66300201416016 62.03200149536133,-117.44599914550781 35.91999816894531,-115.5260009765625 C22.86400032043457,-114.75800323486328 -99.24600219726562,-38.34299850463867 -113.4540023803711,-29.895000457763672 C-140.33399963378906,-14.151000022888184 -130.73399353027344,4.664000034332275 -95.40599822998047,0.4399999976158142 C-68.91000366210938,-3.0160000324249268 -42.79999923706055,-6.855999946594238 -16.304000854492188,-10.696000099182129 C9.039999961853027,-14.53600025177002 35.1510009765625,-18.375 60.87900161743164,-22.21500015258789 C85.45500183105469,-25.67099952697754 115.02200317382812,-34.11899948120117 136.14199829101562,-22.21500015258789 C156.11000061035156,-11.079000473022461 165.3260040283203,15.416000366210938 163.406005859375,36.152000427246094 C154.19000244140625,124.47100067138672 -12.079999923706055,187.8300018310547 -89.64700317382812,105.65499877929688 C-145.7100067138672,46.90399932861328 -81.1989974975586,15.800000190734863 -48.558998107910156,65.71900177001953 C-40.494998931884766,78.00700378417969 -18.992000579833984,114.48699951171875 -10.543999671936035,122.93499755859375 C10.576000213623047,144.822998046875 32.4640007019043,113.33499908447266 38.992000579833984,106.4229965209961 C50.895999908447266,93.7509994506836 61.64699935913086,82.9990005493164 74.31900024414062,68.79100036621094 C84.3030014038086,57.654998779296875 120.39800262451172,20.79199981689453 126.54199981689453,11.192000389099121 C132.302001953125,2.74399995803833 126.927001953125,-9.543999671936035 115.40699768066406,-13.383999824523926 C98.51100158691406,-19.143999099731445 -74.6709976196289,23.86400032043457 -116.14199829101562,17.719999313354492z"></path></g></g></g><g transform="matrix(0.800000011920929,0,0,0.800000011920929,353.6440124511719,315.29840087890625)" opacity="1" style="display: block;"><g opacity="1" transform="matrix(1,0,0,1,44.84000015258789,58.172000885009766)"><path fill="rgb(0,0,0)" fill-opacity="1" d=" M43.96699905395508,-22.6560001373291 C22.46299934387207,26.4950008392334 -14.784000396728516,62.974998474121094 -60.862998962402344,80.63899993896484 C-60.862998962402344,80.63899993896484 -54.71900177001953,33.02399826049805 -54.71900177001953,33.02399826049805 C-54.71900177001953,33.02399826049805 -56.255001068115234,30.336000442504883 -56.255001068115234,30.336000442504883 C-6.335999965667725,13.824000358581543 34.750999450683594,-19.200000762939453 57.79100036621094,-71.80699920654297 C57.79100036621094,-71.80699920654297 60.862998962402344,-80.63899993896484 60.862998962402344,-80.63899993896484 C60.862998962402344,-80.63899993896484 47.42300033569336,-31.488000869750977 47.42300033569336,-31.488000869750977 C47.42300033569336,-31.488000869750977 43.96699905395508,-22.6560001373291 43.96699905395508,-22.6560001373291z"></path><path stroke-linecap="round" stroke-linejoin="round" fill-opacity="0" stroke="rgb(0,0,0)" stroke-opacity="1" stroke-width="6.637" d=" M43.96699905395508,-22.6560001373291 C22.46299934387207,26.4950008392334 -14.784000396728516,62.974998474121094 -60.862998962402344,80.63899993896484 C-60.862998962402344,80.63899993896484 -54.71900177001953,33.02399826049805 -54.71900177001953,33.02399826049805 C-54.71900177001953,33.02399826049805 -56.255001068115234,30.336000442504883 -56.255001068115234,30.336000442504883 C-6.335999965667725,13.824000358581543 34.750999450683594,-19.200000762939453 57.79100036621094,-71.80699920654297 C57.79100036621094,-71.80699920654297 60.862998962402344,-80.63899993896484 60.862998962402344,-80.63899993896484 C60.862998962402344,-80.63899993896484 47.42300033569336,-31.488000869750977 47.42300033569336,-31.488000869750977 C47.42300033569336,-31.488000869750977 43.96699905395508,-22.6560001373291 43.96699905395508,-22.6560001373291z"></path></g><g opacity="1" transform="matrix(1,0,0,1,3.2660000324249268,-25.148000717163086)"><path fill="rgb(255,215,49)" fill-opacity="1" d=" M-14.303999900817871,113.66200256347656 C-14.303999900817871,113.66200256347656 -111.06999969482422,-72.19100189208984 -111.06999969482422,-72.19100189208984 C-111.06999969482422,-72.19100189208984 98.9749984741211,-113.66200256347656 98.9749984741211,-113.66200256347656 C110.87899780273438,-84.09400177001953 118.17500305175781,-38.78300094604492 100.51100158691406,8.064000129699707 C82.84700012207031,55.29499816894531 42.527000427246094,94.0780029296875 -14.303999900817871,113.66200256347656z"></path></g><g opacity="1" transform="matrix(1,0,0,1,3.2660000324249268,-25.148000717163086)"><path stroke-linecap="round" stroke-linejoin="round" fill-opacity="0" stroke="rgb(0,0,0)" stroke-opacity="1" stroke-width="6.637" d=" M-14.303999900817871,113.66200256347656 C-14.303999900817871,113.66200256347656 -111.06999969482422,-72.19100189208984 -111.06999969482422,-72.19100189208984 C-111.06999969482422,-72.19100189208984 98.9749984741211,-113.66200256347656 98.9749984741211,-113.66200256347656 C110.87899780273438,-84.09400177001953 118.17500305175781,-38.78300094604492 100.51100158691406,8.064000129699707 C82.84700012207031,55.29499816894531 42.527000427246094,94.0780029296875 -14.303999900817871,113.66200256347656z"></path></g><g opacity="1" transform="matrix(1,0,0,1,-62.30400085449219,20.941999435424805)"><path fill="rgb(204,153,51)" fill-opacity="1" d=" M52.03099822998047,63.35900115966797 C52.03099822998047,63.35900115966797 -46.270999908447266,-117.50199890136719 -46.270999908447266,-117.50199890136719 C-46.270999908447266,-117.50199890136719 -52.03099822998047,-57.5989990234375 -52.03099822998047,-57.5989990234375 C-52.03099822998047,-57.5989990234375 45.887001037597656,117.50199890136719 45.887001037597656,117.50199890136719 C45.887001037597656,117.50199890136719 52.03099822998047,63.35900115966797 52.03099822998047,63.35900115966797z"></path><path stroke-linecap="round" stroke-linejoin="round" fill-opacity="0" stroke="rgb(0,0,0)" stroke-opacity="1" stroke-width="6.637" d=" M52.03099822998047,63.35900115966797 C52.03099822998047,63.35900115966797 -46.270999908447266,-117.50199890136719 -46.270999908447266,-117.50199890136719 C-46.270999908447266,-117.50199890136719 -52.03099822998047,-57.5989990234375 -52.03099822998047,-57.5989990234375 C-52.03099822998047,-57.5989990234375 45.887001037597656,117.50199890136719 45.887001037597656,117.50199890136719 C45.887001037597656,117.50199890136719 52.03099822998047,63.35900115966797 52.03099822998047,63.35900115966797z"></path></g><g opacity="1" transform="matrix(1,0,0,1,41.96900177001953,-30.534000396728516)"><path stroke-linecap="round" stroke-linejoin="miter" fill-opacity="0" stroke-miterlimit="4" stroke="rgb(0,0,0)" stroke-opacity="1" stroke-width="6.637" d=" M44.13199996948242,-105.21399688720703 C80.22699737548828,-28.415000915527344 40.292999267578125,67.1989974975586 -57.242000579833984,105.21399688720703"></path></g></g><g clip-path="url(#__lottie_element_2190)" transform="matrix(0.800000011920929,0,0,0.800000011920929,262.251220703125,234.47120666503906)" opacity="1" style="display: block;"><g opacity="1" transform="matrix(1,0,0,1,0,0)"><g opacity="1" transform="matrix(1,0,0,1,0,0)"><path fill="rgb(0,0,0)" fill-opacity="1" d=" M-114.51799774169922,17.511999130249023 C-171.3489990234375,9.447999954223633 -202.4530029296875,-107.28500366210938 -51.926998138427734,-137.62100219726562 C2.2160000801086426,-148.7570037841797 50.5989990234375,-136.85400390625 81.7030029296875,-105.75 C148.90199279785156,-37.78300094604492 59.04800033569336,-15.895999908447266 50.215999603271484,-64.27899932861328 C47.52799987792969,-77.33499908447266 61.35200119018555,-115.73400115966797 35.624000549316406,-113.81400299072266 C22.56800079345703,-113.0459976196289 -97.62200164794922,-37.78300094604492 -111.83000183105469,-29.334999084472656 C-138.3260040283203,-13.975000381469727 -129.11000061035156,4.841000080108643 -94.16600036621094,0.6169999837875366 C-67.66999816894531,-2.8389999866485596 -42.327999114990234,-6.678999900817871 -16.215999603271484,-10.519000053405762 C8.744000434875488,-14.359000205993652 34.47100067138672,-18.198999404907227 60.19900131225586,-21.655000686645508 C84.39099884033203,-25.111000061035156 113.5739974975586,-33.558998107910156 134.30999755859375,-21.655000686645508 C153.8939971923828,-10.902999877929688 163.11000061035156,15.208000183105469 161.19000244140625,35.944000244140625 C152.35800170898438,122.72699737548828 -11.991999626159668,184.9340057373047 -88.40699768066406,104.29499816894531 C-143.3179931640625,46.3120002746582 -79.95899963378906,15.593000411987305 -47.702999114990234,64.74400329589844 C-39.638999938964844,77.03199768066406 -18.520000457763672,112.74299621582031 -10.456000328063965,121.19100189208984 C10.663999557495117,142.69500732421875 32.167999267578125,111.9749984741211 38.69599914550781,104.67900085449219 C50.215999603271484,92.39099884033203 60.96699905395508,82.02400207519531 73.63899993896484,67.81600189208984 C83.23899841308594,57.06399917602539 118.56600189208984,20.583999633789062 125.09400177001953,10.984000205993652 C130.47000122070312,2.9200000762939453 125.09500122070312,-9.366999626159668 113.57499694824219,-13.206999778747559 C97.06300354003906,-18.58300018310547 -73.81500244140625,23.6560001373291 -114.51799774169922,17.511999130249023z"></path></g></g></g><g transform="matrix(0.800000011920929,0,0,0.800000011920929,208.27999877929688,337.11920166015625)" opacity="1" style="display: block;"><g opacity="1" transform="matrix(1,0,0,1,-0.3880000114440918,22.077999114990234)"><path fill="rgb(255,215,49)" fill-opacity="1" d=" M-159.5500030517578,-18.43199920654297 C-164.1580047607422,-25.72800064086914 -168.3820037841797,-33.02299880981445 -171.83799743652344,-40.319000244140625 C-171.83799743652344,-40.319000244140625 -164.1580047607422,-101.75900268554688 -164.1580047607422,-101.75900268554688 C-164.1580047607422,-101.75900268554688 -163.7740020751953,-101.75900268554688 -163.7740020751953,-101.75900268554688 C-150.33399963378906,-69.11900329589844 -131.13499450683594,-43.7760009765625 -102.33499908447266,-17.280000686645508 C-50.49599838256836,25.726999282836914 5.567999839782715,48.766998291015625 76.2229995727539,52.99100112915039 C110.01499938964844,53.375 142.6540069580078,49.1510009765625 171.83799743652344,38.78300094604492 C171.83799743652344,38.78300094604492 160.70199584960938,89.8550033569336 160.70199584960938,89.8550033569336 C141.5019989013672,96.38300323486328 105.02300262451172,100.99099731445312 74.3030014038086,101.75900268554688 C-24,100.2229995727539 -107.71099853515625,57.21500015258789 -159.5500030517578,-18.43199920654297z"></path><path stroke-linecap="round" stroke-linejoin="round" fill-opacity="0" stroke="rgb(0,0,0)" stroke-opacity="1" stroke-width="6.637" d=" M-159.5500030517578,-18.43199920654297 C-164.1580047607422,-25.72800064086914 -168.3820037841797,-33.02299880981445 -171.83799743652344,-40.319000244140625 C-171.83799743652344,-40.319000244140625 -164.1580047607422,-101.75900268554688 -164.1580047607422,-101.75900268554688 C-164.1580047607422,-101.75900268554688 -163.7740020751953,-101.75900268554688 -163.7740020751953,-101.75900268554688 C-150.33399963378906,-69.11900329589844 -131.13499450683594,-43.7760009765625 -102.33499908447266,-17.280000686645508 C-50.49599838256836,25.726999282836914 5.567999839782715,48.766998291015625 76.2229995727539,52.99100112915039 C110.01499938964844,53.375 142.6540069580078,49.1510009765625 171.83799743652344,38.78300094604492 C171.83799743652344,38.78300094604492 160.70199584960938,89.8550033569336 160.70199584960938,89.8550033569336 C141.5019989013672,96.38300323486328 105.02300262451172,100.99099731445312 74.3030014038086,101.75900268554688 C-24,100.2229995727539 -107.71099853515625,57.21500015258789 -159.5500030517578,-18.43199920654297z"></path></g><g opacity="1" transform="matrix(1,0,0,1,121.53800201416016,92.33799743652344)"><path fill="rgb(0,0,0)" fill-opacity="1" d=" M-47.6150016784668,31.488000869750977 C-47.6150016784668,31.488000869750977 -49.91899871826172,31.488000869750977 -49.91899871826172,31.488000869750977 C-49.91899871826172,31.488000869750977 -40.702999114990234,-17.280000686645508 -40.702999114990234,-17.280000686645508 C-8.446999549865723,-17.280000686645508 22.270999908447266,-21.88800048828125 49.91899871826172,-31.488000869750977 C49.91899871826172,-31.488000869750977 38.78300094604492,21.1200008392334 38.78300094604492,21.1200008392334 C12.286999702453613,30.719999313354492 -16.895000457763672,30.719999313354492 -47.6150016784668,31.488000869750977z"></path><path stroke-linecap="round" stroke-linejoin="round" fill-opacity="0" stroke="rgb(0,0,0)" stroke-opacity="1" stroke-width="6.637" d=" M-47.6150016784668,31.488000869750977 C-47.6150016784668,31.488000869750977 -49.91899871826172,31.488000869750977 -49.91899871826172,31.488000869750977 C-49.91899871826172,31.488000869750977 -40.702999114990234,-17.280000686645508 -40.702999114990234,-17.280000686645508 C-8.446999549865723,-17.280000686645508 22.270999908447266,-21.88800048828125 49.91899871826172,-31.488000869750977 C49.91899871826172,-31.488000869750977 38.78300094604492,21.1200008392334 38.78300094604492,21.1200008392334 C12.286999702453613,30.719999313354492 -16.895000457763672,30.719999313354492 -47.6150016784668,31.488000869750977z"></path></g><g opacity="1" transform="matrix(1,0,0,1,3.8440001010894775,-24.354999542236328)"><path fill="rgb(255,215,49)" fill-opacity="1" d=" M-165.69400024414062,-49.5620002746582 C-166.46200561523438,-51.481998443603516 -167.61399841308594,-53.402000427246094 -168.3820037841797,-55.321998596191406 C-168.3820037841797,-55.321998596191406 69.69499969482422,-99.48200225830078 69.69499969482422,-99.48200225830078 C69.69499969482422,-99.48200225830078 168.3820037841797,85.22000122070312 168.3820037841797,85.22000122070312 C159.5500030517578,88.29199981689453 150.71800231933594,90.9800033569336 141.5019989013672,92.9000015258789 C19.775999069213867,120.93199920654297 -117.69499969482422,56.80400085449219 -165.69400024414062,-49.5620002746582z"></path></g><g opacity="1" transform="matrix(1,0,0,1,3.8440001010894775,-24.354999542236328)"><path stroke-linecap="round" stroke-linejoin="round" fill-opacity="0" stroke="rgb(0,0,0)" stroke-opacity="1" stroke-width="6.637" d=" M-165.69400024414062,-49.5620002746582 C-166.46200561523438,-51.481998443603516 -167.61399841308594,-53.402000427246094 -168.3820037841797,-55.321998596191406 C-168.3820037841797,-55.321998596191406 69.69499969482422,-99.48200225830078 69.69499969482422,-99.48200225830078 C69.69499969482422,-99.48200225830078 168.3820037841797,85.22000122070312 168.3820037841797,85.22000122070312 C159.5500030517578,88.29199981689453 150.71800231933594,90.9800033569336 141.5019989013672,92.9000015258789 C19.775999069213867,120.93199920654297 -117.69499969482422,56.80400085449219 -165.69400024414062,-49.5620002746582z"></path></g><g opacity="1" transform="matrix(1,0,0,1,55.09700012207031,99.83499908447266)"><path stroke-linecap="round" stroke-linejoin="miter" fill-opacity="0" stroke-miterlimit="4" stroke="rgb(0,0,0)" stroke-opacity="1" stroke-width="6.637" d=" M-3.072000026702881,14.015999794006348 C-3.072000026702881,14.015999794006348 3.072000026702881,-14.015999794006348 3.072000026702881,-14.015999794006348"></path></g><g opacity="1" transform="matrix(1,0,0,1,39.34700012207031,97.14800262451172)"><path stroke-linecap="round" stroke-linejoin="miter" fill-opacity="0" stroke-miterlimit="4" stroke="rgb(0,0,0)" stroke-opacity="1" stroke-width="6.637" d=" M-3.072000026702881,14.015999794006348 C-3.072000026702881,14.015999794006348 3.072000026702881,-14.015999794006348 3.072000026702881,-14.015999794006348"></path></g><g opacity="1" transform="matrix(1,0,0,1,22.847000122070312,94.83499908447266)"><path stroke-linecap="round" stroke-linejoin="miter" fill-opacity="0" stroke-miterlimit="4" stroke="rgb(0,0,0)" stroke-opacity="1" stroke-width="6.637" d=" M-3.072000026702881,14.015999794006348 C-3.072000026702881,14.015999794006348 3.072000026702881,-14.015999794006348 3.072000026702881,-14.015999794006348"></path></g><g opacity="1" transform="matrix(1,0,0,1,6.7220001220703125,90.61699676513672)"><path stroke-linecap="round" stroke-linejoin="miter" fill-opacity="0" stroke-miterlimit="4" stroke="rgb(0,0,0)" stroke-opacity="1" stroke-width="6.637" d=" M-3.072000026702881,14.015999794006348 C-3.072000026702881,14.015999794006348 3.072000026702881,-14.015999794006348 3.072000026702881,-14.015999794006348"></path></g><g opacity="1" transform="matrix(1,0,0,1,8.055999755859375,-11.236000061035156)"><path stroke-linecap="round" stroke-linejoin="miter" fill-opacity="0" stroke-miterlimit="4" stroke="rgb(0,0,0)" stroke-opacity="1" stroke-width="6.637" d=" M156.093994140625,59.047000885009766 C150.71800231933594,60.96699905395508 144.95799255371094,62.50199890136719 138.81399536132812,63.65399932861328 C23.23200035095215,90.1500015258789 -107.71099853515625,31.014999389648438 -156.093994140625,-69.97599792480469"></path></g></g><g clip-path="url(#__lottie_element_2183)" transform="matrix(0.800000011920929,0,0,0.800000011920929,258.88720703125,231.93600463867188)" opacity="1" style="display: block;"><g opacity="1" transform="matrix(1,0,0,1,0,0)"><g opacity="1" transform="matrix(1,0,0,1,0,0)"><path fill="rgb(0,0,0)" fill-opacity="1" d=" M-118.36900329589844,18.007999420166016 C-177.1199951171875,9.5600004196167 -209.37600708007812,-111.01300048828125 -53.4739990234375,-142.50100708007812 C2.5889999866485596,-154.02099609375 52.124000549316406,-141.73399353027344 84.37999725341797,-109.09400177001953 C153.88299560546875,-39.207000732421875 60.957000732421875,-16.551000595092773 51.74100112915039,-66.47000122070312 C49.4370002746582,-79.91000366210938 63.64500045776367,-119.84600067138672 36.76499938964844,-117.9260025024414 C23.708999633789062,-117.15799713134766 -101.08899688720703,-38.823001861572266 -115.68099975585938,-30.375 C-143.32899475097656,-14.630999565124512 -133.34500122070312,4.953000068664551 -97.2490005493164,0.3449999988079071 C-70.36900329589844,-2.7269999980926514 -43.874000549316406,-6.951000213623047 -16.610000610351562,-11.175000190734863 C9.118000030517578,-15.015000343322754 35.99700164794922,-18.854999542236328 62.10900115966797,-22.31100082397461 C87.4530029296875,-25.767000198364258 117.40399932861328,-34.5989990234375 138.9080047607422,-22.69499969482422 C159.25999450683594,-11.175000190734863 168.85899353027344,15.704000473022461 166.55499267578125,37.20800018310547 C157.33900451660156,127.06300354003906 -12.38599967956543,191.57400512695312 -91.48899841308594,107.86299896240234 C-148.32000732421875,47.959999084472656 -82.65799713134766,16.089000701904297 -49.25,67.16000366210938 C-41.18600082397461,79.83200073242188 -19.29800033569336,116.69499969482422 -10.465999603271484,125.5270004272461 C11.038000106811523,147.7989959716797 33.308998107910156,115.927001953125 39.83700180053711,108.63099670410156 C51.74100112915039,95.57499694824219 62.875999450683594,84.8239974975586 75.93199920654297,70.23200225830078 C85.91600036621094,59.09600067138672 122.77999877929688,21.464000701904297 129.30799865722656,11.479999542236328 C135.0679931640625,3.0320000648498535 129.30799865722656,-10.02299976348877 117.78800201416016,-13.86299991607666 C100.50800323486328,-19.23900032043457 -76.12999725341797,24.152000427246094 -118.36900329589844,18.007999420166016z"></path></g></g></g><g transform="matrix(0.800000011920929,0,0,0.800000011920929,354.9871826171875,113.1615982055664)" opacity="1" style="display: block;"><g opacity="1" transform="matrix(1,0,0,1,0,0)"><path fill="rgb(255,255,255)" fill-opacity="1" d=" M33.374000549316406,18.239999771118164 C41.4379997253418,5.952000141143799 80.60600280761719,0.9610000252723694 74.84600067138672,-10.559000015258789 C69.47000122070312,-22.46299934387207 31.070999145507812,-16.319000244140625 13.02299976348877,-25.150999069213867 C-3.489000082015991,-33.21500015258789 -14.625,-62.78300094604492 -28.83300018310547,-60.862998962402344 C-43.04100036621094,-58.94300079345703 -26.145000457763672,-29.759000778198242 -33.441001892089844,-18.62299919128418 C-41.505001068115234,-5.951000213623047 -80.28800201416016,-0.9599999785423279 -74.91200256347656,10.5600004196167 C-69.1520004272461,22.079999923706055 -30.753000259399414,16.31999969482422 -12.704999923706055,25.152000427246094 C3.806999921798706,32.832000732421875 14.557999610900879,62.784000396728516 28.766000747680664,60.86399841308594 C43.358001708984375,58.560001373291016 26.077999114990234,29.760000228881836 33.374000549316406,18.239999771118164z"></path><path stroke-linecap="round" stroke-linejoin="miter" fill-opacity="0" stroke-miterlimit="4" stroke="rgb(0,0,0)" stroke-opacity="1" stroke-width="6.637" d=" M33.374000549316406,18.239999771118164 C41.4379997253418,5.952000141143799 80.60600280761719,0.9610000252723694 74.84600067138672,-10.559000015258789 C69.47000122070312,-22.46299934387207 31.070999145507812,-16.319000244140625 13.02299976348877,-25.150999069213867 C-3.489000082015991,-33.21500015258789 -14.625,-62.78300094604492 -28.83300018310547,-60.862998962402344 C-43.04100036621094,-58.94300079345703 -26.145000457763672,-29.759000778198242 -33.441001892089844,-18.62299919128418 C-41.505001068115234,-5.951000213623047 -80.28800201416016,-0.9599999785423279 -74.91200256347656,10.5600004196167 C-69.1520004272461,22.079999923706055 -30.753000259399414,16.31999969482422 -12.704999923706055,25.152000427246094 C3.806999921798706,32.832000732421875 14.557999610900879,62.784000396728516 28.766000747680664,60.86399841308594 C43.358001708984375,58.560001373291016 26.077999114990234,29.760000228881836 33.374000549316406,18.239999771118164z"></path></g></g></g></svg>