<svg xmlns="http://www.w3.org/2000/svg" xmlns:xlink="http://www.w3.org/1999/xlink" viewBox="0 0 500 500" width="500" height="500" preserveAspectRatio="xMidYMid meet" style="width: 100%; height: 100%; transform: translate3d(0px, 0px, 0px); content-visibility: visible;"><defs><clipPath id="__lottie_element_70"><rect width="500" height="500" x="0" y="0"></rect></clipPath></defs><g clip-path="url(#__lottie_element_70)"><g transform="matrix(1,0,0,1,256.3741149902344,250.12179565429688)" opacity="1" style="display: block;"><g opacity="1" transform="matrix(1,0,0,1,-2.134999990463257,35.42900085449219)"><path fill="rgb(85,219,156)" fill-opacity="1" d=" M-121.04499816894531,-38.470001220703125 C-119.3479995727539,-52.04600143432617 -115.1989974975586,-64.302001953125 -111.61699676513672,-77.68900299072266 C-111.61699676513672,-77.68900299072266 -112.7490005493164,-72.9749984741211 -112.7490005493164,-72.9749984741211 C-112.7490005493164,-72.9749984741211 -113.50299835205078,-68.26100158691406 -113.50299835205078,-68.26100158691406 C-115.01100158691406,-55.250999450683594 -114.44599914550781,-46.388999938964844 -111.42900085449219,-33.94499969482422 C-104.64099884033203,-11.130000114440918 -93.89299774169922,4.14300012588501 -75.98100280761719,19.981000900268555 C-49.77199935913086,41.0989990234375 -21.302000045776367,51.845001220703125 14.52299976348877,52.78799819946289 C60.340999603271484,52.22200012207031 101.25599670410156,33.36800003051758 119.73400115966797,-9.055999755859375 C119.73400115966797,-9.055999755859375 121.24299621582031,-13.581000328063965 121.24299621582031,-13.581000328063965 C121.24299621582031,-13.581000328063965 114.45500183105469,11.496000289916992 114.45500183105469,11.496000289916992 C114.45500183105469,11.496000289916992 112.75800323486328,16.020999908447266 112.75800323486328,16.020999908447266 C95.2229995727539,56.37099838256836 57.32400131225586,75.22599792480469 13.392000198364258,77.677001953125 C-36.196998596191406,78.24299621582031 -78.62100219726562,57.880001068115234 -105.01799774169922,20.357999801635742 C-117.08499908447266,1.3140000104904175 -122.36499786376953,-15.654999732971191 -121.04499816894531,-38.470001220703125z"></path><path stroke-linecap="butt" stroke-linejoin="bevel" fill-opacity="0" stroke="rgb(0,0,0)" stroke-opacity="1" stroke-width="4" d=" M-121.04499816894531,-38.470001220703125 C-119.3479995727539,-52.04600143432617 -115.1989974975586,-64.302001953125 -111.61699676513672,-77.68900299072266 C-111.61699676513672,-77.68900299072266 -112.7490005493164,-72.9749984741211 -112.7490005493164,-72.9749984741211 C-112.7490005493164,-72.9749984741211 -113.50299835205078,-68.26100158691406 -113.50299835205078,-68.26100158691406 C-115.01100158691406,-55.250999450683594 -114.44599914550781,-46.388999938964844 -111.42900085449219,-33.94499969482422 C-104.64099884033203,-11.130000114440918 -93.89299774169922,4.14300012588501 -75.98100280761719,19.981000900268555 C-49.77199935913086,41.0989990234375 -21.302000045776367,51.845001220703125 14.52299976348877,52.78799819946289 C60.340999603271484,52.22200012207031 101.25599670410156,33.36800003051758 119.73400115966797,-9.055999755859375 C119.73400115966797,-9.055999755859375 121.24299621582031,-13.581000328063965 121.24299621582031,-13.581000328063965 C121.24299621582031,-13.581000328063965 114.45500183105469,11.496000289916992 114.45500183105469,11.496000289916992 C114.45500183105469,11.496000289916992 112.75800323486328,16.020999908447266 112.75800323486328,16.020999908447266 C95.2229995727539,56.37099838256836 57.32400131225586,75.22599792480469 13.392000198364258,77.677001953125 C-36.196998596191406,78.24299621582031 -78.62100219726562,57.880001068115234 -105.01799774169922,20.357999801635742 C-117.08499908447266,1.3140000104904175 -122.36499786376953,-15.654999732971191 -121.04499816894531,-38.470001220703125z"></path></g><g opacity="1" transform="matrix(1,0,0,1,3.431999921798706,-12.468000411987305)"><path fill="rgb(85,219,156)" fill-opacity="1" d=" M-111.52799987792969,29.03700065612793 C-135.8509979248047,-24.134000778198242 -105.68299865722656,-80.3219985961914 -44.027000427246094,-96.3489990234375 C17.628999710083008,-112.3759994506836 87.20500183105469,-82.20800018310547 111.52799987792969,-29.03700065612793 C135.8509979248047,24.134000778198242 105.68299865722656,80.3219985961914 44.027000427246094,96.3489990234375 C-17.628999710083008,112.3759994506836 -87.20500183105469,82.20800018310547 -111.52799987792969,29.03700065612793z"></path><path stroke-linecap="butt" stroke-linejoin="miter" fill-opacity="0" stroke-miterlimit="4" stroke="rgb(0,0,0)" stroke-opacity="1" stroke-width="4" d=" M-111.52799987792969,29.03700065612793 C-135.8509979248047,-24.134000778198242 -105.68299865722656,-80.3219985961914 -44.027000427246094,-96.3489990234375 C17.628999710083008,-112.3759994506836 87.20500183105469,-82.20800018310547 111.52799987792969,-29.03700065612793 C135.8509979248047,24.134000778198242 105.68299865722656,80.3219985961914 44.027000427246094,96.3489990234375 C-17.628999710083008,112.3759994506836 -87.20500183105469,82.20800018310547 -111.52799987792969,29.03700065612793z"></path></g><g opacity="1" transform="matrix(1,0,0,1,3.430999994277954,-12.468000411987305)"><path fill="rgb(255,215,49)" fill-opacity="1" d=" M-100.77999877929688,26.208999633789062 C-122.6520004272461,-21.871000289916992 -95.31199645996094,-72.59200286865234 -39.689998626708984,-86.9219970703125 C15.932000160217285,-101.44000244140625 78.72000122070312,-74.28900146484375 100.77999877929688,-26.208999633789062 C122.6520004272461,21.871000289916992 95.31199645996094,72.59200286865234 39.689998626708984,86.9219970703125 C-15.932000160217285,101.44000244140625 -78.72000122070312,74.28900146484375 -100.77999877929688,26.208999633789062z"></path><path stroke-linecap="butt" stroke-linejoin="miter" fill-opacity="0" stroke-miterlimit="4" stroke="rgb(0,0,0)" stroke-opacity="1" stroke-width="4" d=" M-100.77999877929688,26.208999633789062 C-122.6520004272461,-21.871000289916992 -95.31199645996094,-72.59200286865234 -39.689998626708984,-86.9219970703125 C15.932000160217285,-101.44000244140625 78.72000122070312,-74.28900146484375 100.77999877929688,-26.208999633789062 C122.6520004272461,21.871000289916992 95.31199645996094,72.59200286865234 39.689998626708984,86.9219970703125 C-15.932000160217285,101.44000244140625 -78.72000122070312,74.28900146484375 -100.77999877929688,26.208999633789062z"></path></g><g opacity="1" transform="matrix(1,0,0,1,3.378000020980835,-11.053000450134277)"><path fill="rgb(85,219,156)" fill-opacity="1" d=" M-99.21800231933594,25.73699951171875 C-120.71299743652344,-21.589000701904297 -93.93800354003906,-71.36599731445312 -39.06999969482422,-85.69599914550781 C15.609999656677246,-99.83699798583984 77.64299774169922,-73.06300354003906 99.13800048828125,-25.73699951171875 C120.82099914550781,21.400999069213867 93.85800170898438,71.36599731445312 39.178001403808594,85.69599914550781 C-15.6899995803833,99.83699798583984 -77.53500366210938,73.06300354003906 -99.21800231933594,25.73699951171875z"></path><path stroke-linecap="butt" stroke-linejoin="miter" fill-opacity="0" stroke-miterlimit="4" stroke="rgb(0,0,0)" stroke-opacity="1" stroke-width="4" d=" M-99.21800231933594,25.73699951171875 C-120.71299743652344,-21.589000701904297 -93.93800354003906,-71.36599731445312 -39.06999969482422,-85.69599914550781 C15.609999656677246,-99.83699798583984 77.64299774169922,-73.06300354003906 99.13800048828125,-25.73699951171875 C120.82099914550781,21.400999069213867 93.85800170898438,71.36599731445312 39.178001403808594,85.69599914550781 C-15.6899995803833,99.83699798583984 -77.53500366210938,73.06300354003906 -99.21800231933594,25.73699951171875z"></path></g><g opacity="1" transform="matrix(1,0,0,1,3.8570001125335693,-12.670000076293945)"><path fill="rgb(0,0,0)" fill-opacity="1" d=" M-38.417999267578125,5.859000205993652 C-57.650001525878906,3.0309998989105225 -68.02100372314453,-36.1879997253418 -17.48900032043457,-46.369998931884766 C0.800000011920929,-49.95199966430664 17.016000747680664,-46.180999755859375 27.38599967956543,-35.62200164794922 C50.012001037597656,-12.807000160217285 19.8439998626709,-5.454999923706055 16.82699966430664,-21.670000076293945 C16.072999954223633,-26.006999969482422 20.597999572753906,-39.01599884033203 11.925000190734863,-38.262001037597656 C7.5879998207092285,-38.073001861572266 -32.95000076293945,-12.619999885559082 -37.66400146484375,-9.979999542236328 C-46.5260009765625,-4.701000213623047 -43.32099914550781,1.5219999551773071 -31.631000518798828,0.20200000703334808 C-22.768999099731445,-0.9290000200271606 -14.284000396728516,-2.249000072479248 -5.421999931335449,-3.569000005722046 C3.062999963760376,-4.888999938964844 11.54800033569336,-6.209000110626221 20.22100067138672,-7.340000152587891 C28.32900047302246,-8.470999717712402 38.132999420166016,-11.300000190734863 45.10900115966797,-7.340000152587891 C51.70800018310547,-3.569000005722046 54.91400146484375,5.105000019073486 54.15999984741211,12.081000328063965 C51.143001556396484,41.305999755859375 -4.1020002365112305,62.23500061035156 -29.7450008392334,35.08399963378906 C-48.222999572753906,15.475000381469727 -26.91699981689453,5.294000148773193 -15.980999946594238,21.88599967956543 C-13.340999603271484,25.84600067138672 -6.177000045776367,37.91299819946289 -3.5369999408721924,40.74100112915039 C3.628000020980835,47.90599822998047 10.793000221252441,37.5359992980957 13.055999755859375,35.27299880981445 C16.82699966430664,31.125 20.409000396728516,27.54199981689453 24.746000289916992,22.827999114990234 C27.951000213623047,19.05699920654297 39.83000183105469,6.989999771118164 42.09299850463867,3.5959999561309814 C43.790000915527344,0.9559999704360962 42.09299850463867,-3.191999912261963 38.321998596191406,-4.51200008392334 C32.665000915527344,-6.396999835968018 -24.841999053955078,7.933000087738037 -38.417999267578125,5.859000205993652z"></path><path stroke-linecap="butt" stroke-linejoin="miter" fill-opacity="0" stroke-miterlimit="4" stroke="rgb(0,0,0)" stroke-opacity="1" stroke-width="4" d=" M-38.417999267578125,5.859000205993652 C-57.650001525878906,3.0309998989105225 -68.02100372314453,-36.1879997253418 -17.48900032043457,-46.369998931884766 C0.800000011920929,-49.95199966430664 17.016000747680664,-46.180999755859375 27.38599967956543,-35.62200164794922 C50.012001037597656,-12.807000160217285 19.8439998626709,-5.454999923706055 16.82699966430664,-21.670000076293945 C16.072999954223633,-26.006999969482422 20.597999572753906,-39.01599884033203 11.925000190734863,-38.262001037597656 C7.5879998207092285,-38.073001861572266 -32.95000076293945,-12.619999885559082 -37.66400146484375,-9.979999542236328 C-46.5260009765625,-4.701000213623047 -43.32099914550781,1.5219999551773071 -31.631000518798828,0.20200000703334808 C-22.768999099731445,-0.9290000200271606 -14.284000396728516,-2.249000072479248 -5.421999931335449,-3.569000005722046 C3.062999963760376,-4.888999938964844 11.54800033569336,-6.209000110626221 20.22100067138672,-7.340000152587891 C28.32900047302246,-8.470999717712402 38.132999420166016,-11.300000190734863 45.10900115966797,-7.340000152587891 C51.70800018310547,-3.569000005722046 54.91400146484375,5.105000019073486 54.15999984741211,12.081000328063965 C51.143001556396484,41.305999755859375 -4.1020002365112305,62.23500061035156 -29.7450008392334,35.08399963378906 C-48.222999572753906,15.475000381469727 -26.91699981689453,5.294000148773193 -15.980999946594238,21.88599967956543 C-13.340999603271484,25.84600067138672 -6.177000045776367,37.91299819946289 -3.5369999408721924,40.74100112915039 C3.628000020980835,47.90599822998047 10.793000221252441,37.5359992980957 13.055999755859375,35.27299880981445 C16.82699966430664,31.125 20.409000396728516,27.54199981689453 24.746000289916992,22.827999114990234 C27.951000213623047,19.05699920654297 39.83000183105469,6.989999771118164 42.09299850463867,3.5959999561309814 C43.790000915527344,0.9559999704360962 42.09299850463867,-3.191999912261963 38.321998596191406,-4.51200008392334 C32.665000915527344,-6.396999835968018 -24.841999053955078,7.933000087738037 -38.417999267578125,5.859000205993652z"></path></g></g><g transform="matrix(0,0,0,0,361.7649230957031,167.10092163085938)" opacity="1" style="display: none;"><g opacity="1" transform="matrix(1,0,0,1,0,0)"><path fill="rgb(255,255,255)" fill-opacity="1" d=" M-16.49799919128418,-26.68000030517578 C-17.44099998474121,-27.81100082397461 -18.19499969482422,-28.94300079345703 -18.948999404907227,-30.073999404907227 C-9.710000038146973,-14.61299991607666 -15.366999626159668,1.0369999408721924 -31.393999099731445,6.693999767303467 C-32.33700180053711,6.882999897003174 -33.09000015258789,7.258999824523926 -34.03300094604492,7.447999954223633 C-33.09000015258789,7.447999954223633 -32.14799880981445,7.258999824523926 -31.204999923706055,7.258999824523926 C-31.204999923706055,7.258999824523926 -31.017000198364258,7.258999824523926 -31.017000198364258,7.258999824523926 C-12.916000366210938,5.939000129699707 7.636000156402588,15.366999626159668 17.628999710083008,30.073999404907227 C17.25200080871582,29.31999969482422 16.875,28.565000534057617 16.49799919128418,27.81100082397461 C17.06399917602539,28.565000534057617 17.628999710083008,29.131000518798828 18.19499969482422,30.073999404907227 C18.19499969482422,30.073999404907227 18.19499969482422,29.885000228881836 18.19499969482422,29.885000228881836 C9.89900016784668,14.800999641418457 15.744000434875488,0.0949999988079071 31.393999099731445,-5.561999797821045 C32.33700180053711,-5.939000129699707 33.09000015258789,-6.126999855041504 34.03300094604492,-6.315999984741211 C34.03300094604492,-6.315999984741211 34.03300094604492,-6.505000114440918 34.03300094604492,-6.505000114440918 C33.09000015258789,-6.315999984741211 32.14799880981445,-6.127999782562256 31.204999923706055,-6.127999782562256 C31.204999923706055,-6.127999782562256 31.017000198364258,-6.127999782562256 31.017000198364258,-6.127999782562256 C12.350000381469727,-4.808000087738037 -8.767999649047852,-14.800999641418457 -18.384000778198242,-30.073999404907227 C-17.6299991607666,-28.94300079345703 -17.06399917602539,-27.81100082397461 -16.49799919128418,-26.68000030517578z"></path><path stroke-linecap="butt" stroke-linejoin="miter" fill-opacity="0" stroke-miterlimit="4" stroke="rgb(0,0,0)" stroke-opacity="1" stroke-width="4" d=" M-16.49799919128418,-26.68000030517578 C-17.44099998474121,-27.81100082397461 -18.19499969482422,-28.94300079345703 -18.948999404907227,-30.073999404907227 C-9.710000038146973,-14.61299991607666 -15.366999626159668,1.0369999408721924 -31.393999099731445,6.693999767303467 C-32.33700180053711,6.882999897003174 -33.09000015258789,7.258999824523926 -34.03300094604492,7.447999954223633 C-33.09000015258789,7.447999954223633 -32.14799880981445,7.258999824523926 -31.204999923706055,7.258999824523926 C-31.204999923706055,7.258999824523926 -31.017000198364258,7.258999824523926 -31.017000198364258,7.258999824523926 C-12.916000366210938,5.939000129699707 7.636000156402588,15.366999626159668 17.628999710083008,30.073999404907227 C17.25200080871582,29.31999969482422 16.875,28.565000534057617 16.49799919128418,27.81100082397461 C17.06399917602539,28.565000534057617 17.628999710083008,29.131000518798828 18.19499969482422,30.073999404907227 C18.19499969482422,30.073999404907227 18.19499969482422,29.885000228881836 18.19499969482422,29.885000228881836 C9.89900016784668,14.800999641418457 15.744000434875488,0.0949999988079071 31.393999099731445,-5.561999797821045 C32.33700180053711,-5.939000129699707 33.09000015258789,-6.126999855041504 34.03300094604492,-6.315999984741211 C34.03300094604492,-6.315999984741211 34.03300094604492,-6.505000114440918 34.03300094604492,-6.505000114440918 C33.09000015258789,-6.315999984741211 32.14799880981445,-6.127999782562256 31.204999923706055,-6.127999782562256 C31.204999923706055,-6.127999782562256 31.017000198364258,-6.127999782562256 31.017000198364258,-6.127999782562256 C12.350000381469727,-4.808000087738037 -8.767999649047852,-14.800999641418457 -18.384000778198242,-30.073999404907227 C-17.6299991607666,-28.94300079345703 -17.06399917602539,-27.81100082397461 -16.49799919128418,-26.68000030517578z"></path></g></g><g style="display: block;" transform="matrix(1.0000030994415283,0,0,1.0000030994415283,353.3271179199219,177.78878784179688)" opacity="1"><g opacity="1" transform="matrix(1,0,0,1,0,0)"><path fill="rgb(255,255,255)" fill-opacity="1" d=" M-16.49799919128418,-26.68000030517578 C-17.44099998474121,-27.81100082397461 -18.19499969482422,-28.94300079345703 -18.948999404907227,-30.073999404907227 C-9.710000038146973,-14.61299991607666 -15.366999626159668,1.0369999408721924 -31.393999099731445,6.693999767303467 C-32.33700180053711,6.882999897003174 -33.09000015258789,7.258999824523926 -34.03300094604492,7.447999954223633 C-33.09000015258789,7.447999954223633 -32.14799880981445,7.258999824523926 -31.204999923706055,7.258999824523926 C-31.204999923706055,7.258999824523926 -31.017000198364258,7.258999824523926 -31.017000198364258,7.258999824523926 C-12.916000366210938,5.939000129699707 7.636000156402588,15.366999626159668 17.628999710083008,30.073999404907227 C17.25200080871582,29.31999969482422 16.875,28.565000534057617 16.49799919128418,27.81100082397461 C17.06399917602539,28.565000534057617 17.628999710083008,29.131000518798828 18.19499969482422,30.073999404907227 C18.19499969482422,30.073999404907227 18.19499969482422,29.885000228881836 18.19499969482422,29.885000228881836 C9.89900016784668,14.800999641418457 15.744000434875488,0.0949999988079071 31.393999099731445,-5.561999797821045 C32.33700180053711,-5.939000129699707 33.09000015258789,-6.126999855041504 34.03300094604492,-6.315999984741211 C34.03300094604492,-6.315999984741211 34.03300094604492,-6.505000114440918 34.03300094604492,-6.505000114440918 C33.09000015258789,-6.315999984741211 32.14799880981445,-6.127999782562256 31.204999923706055,-6.127999782562256 C31.204999923706055,-6.127999782562256 31.017000198364258,-6.127999782562256 31.017000198364258,-6.127999782562256 C12.350000381469727,-4.808000087738037 -8.767999649047852,-14.800999641418457 -18.384000778198242,-30.073999404907227 C-17.6299991607666,-28.94300079345703 -17.06399917602539,-27.81100082397461 -16.49799919128418,-26.68000030517578z"></path><path stroke-linecap="butt" stroke-linejoin="miter" fill-opacity="0" stroke-miterlimit="4" stroke="rgb(0,0,0)" stroke-opacity="1" stroke-width="4" d=" M-16.49799919128418,-26.68000030517578 C-17.44099998474121,-27.81100082397461 -18.19499969482422,-28.94300079345703 -18.948999404907227,-30.073999404907227 C-9.710000038146973,-14.61299991607666 -15.366999626159668,1.0369999408721924 -31.393999099731445,6.693999767303467 C-32.33700180053711,6.882999897003174 -33.09000015258789,7.258999824523926 -34.03300094604492,7.447999954223633 C-33.09000015258789,7.447999954223633 -32.14799880981445,7.258999824523926 -31.204999923706055,7.258999824523926 C-31.204999923706055,7.258999824523926 -31.017000198364258,7.258999824523926 -31.017000198364258,7.258999824523926 C-12.916000366210938,5.939000129699707 7.636000156402588,15.366999626159668 17.628999710083008,30.073999404907227 C17.25200080871582,29.31999969482422 16.875,28.565000534057617 16.49799919128418,27.81100082397461 C17.06399917602539,28.565000534057617 17.628999710083008,29.131000518798828 18.19499969482422,30.073999404907227 C18.19499969482422,30.073999404907227 18.19499969482422,29.885000228881836 18.19499969482422,29.885000228881836 C9.89900016784668,14.800999641418457 15.744000434875488,0.0949999988079071 31.393999099731445,-5.561999797821045 C32.33700180053711,-5.939000129699707 33.09000015258789,-6.126999855041504 34.03300094604492,-6.315999984741211 C34.03300094604492,-6.315999984741211 34.03300094604492,-6.505000114440918 34.03300094604492,-6.505000114440918 C33.09000015258789,-6.315999984741211 32.14799880981445,-6.127999782562256 31.204999923706055,-6.127999782562256 C31.204999923706055,-6.127999782562256 31.017000198364258,-6.127999782562256 31.017000198364258,-6.127999782562256 C12.350000381469727,-4.808000087738037 -8.767999649047852,-14.800999641418457 -18.384000778198242,-30.073999404907227 C-17.6299991607666,-28.94300079345703 -17.06399917602539,-27.81100082397461 -16.49799919128418,-26.68000030517578z"></path></g></g><g style="display: none;" transform="matrix(0,0,0,0,245.3910675048828,301.1730651855469)" opacity="1"><g opacity="1" transform="matrix(1,0,0,1,0,0)"><path fill="rgb(255,255,255)" fill-opacity="1" d=" M-16.49799919128418,-26.68000030517578 C-17.44099998474121,-27.81100082397461 -18.19499969482422,-28.94300079345703 -18.948999404907227,-30.073999404907227 C-9.710000038146973,-14.61299991607666 -15.366999626159668,1.0369999408721924 -31.393999099731445,6.693999767303467 C-32.33700180053711,6.882999897003174 -33.09000015258789,7.258999824523926 -34.03300094604492,7.447999954223633 C-33.09000015258789,7.447999954223633 -32.14799880981445,7.258999824523926 -31.204999923706055,7.258999824523926 C-31.204999923706055,7.258999824523926 -31.017000198364258,7.258999824523926 -31.017000198364258,7.258999824523926 C-12.916000366210938,5.939000129699707 7.636000156402588,15.366999626159668 17.628999710083008,30.073999404907227 C17.25200080871582,29.31999969482422 16.875,28.565000534057617 16.49799919128418,27.81100082397461 C17.06399917602539,28.565000534057617 17.628999710083008,29.131000518798828 18.19499969482422,30.073999404907227 C18.19499969482422,30.073999404907227 18.19499969482422,29.885000228881836 18.19499969482422,29.885000228881836 C9.89900016784668,14.800999641418457 15.744000434875488,0.0949999988079071 31.393999099731445,-5.561999797821045 C32.33700180053711,-5.939000129699707 33.09000015258789,-6.126999855041504 34.03300094604492,-6.315999984741211 C34.03300094604492,-6.315999984741211 34.03300094604492,-6.505000114440918 34.03300094604492,-6.505000114440918 C33.09000015258789,-6.315999984741211 32.14799880981445,-6.127999782562256 31.204999923706055,-6.127999782562256 C31.204999923706055,-6.127999782562256 31.017000198364258,-6.127999782562256 31.017000198364258,-6.127999782562256 C12.350000381469727,-4.808000087738037 -8.767999649047852,-14.800999641418457 -18.384000778198242,-30.073999404907227 C-17.6299991607666,-28.94300079345703 -17.06399917602539,-27.81100082397461 -16.49799919128418,-26.68000030517578z"></path><path stroke-linecap="butt" stroke-linejoin="miter" fill-opacity="0" stroke-miterlimit="4" stroke="rgb(0,0,0)" stroke-opacity="1" stroke-width="4" d=" M-16.49799919128418,-26.68000030517578 C-17.44099998474121,-27.81100082397461 -18.19499969482422,-28.94300079345703 -18.948999404907227,-30.073999404907227 C-9.710000038146973,-14.61299991607666 -15.366999626159668,1.0369999408721924 -31.393999099731445,6.693999767303467 C-32.33700180053711,6.882999897003174 -33.09000015258789,7.258999824523926 -34.03300094604492,7.447999954223633 C-33.09000015258789,7.447999954223633 -32.14799880981445,7.258999824523926 -31.204999923706055,7.258999824523926 C-31.204999923706055,7.258999824523926 -31.017000198364258,7.258999824523926 -31.017000198364258,7.258999824523926 C-12.916000366210938,5.939000129699707 7.636000156402588,15.366999626159668 17.628999710083008,30.073999404907227 C17.25200080871582,29.31999969482422 16.875,28.565000534057617 16.49799919128418,27.81100082397461 C17.06399917602539,28.565000534057617 17.628999710083008,29.131000518798828 18.19499969482422,30.073999404907227 C18.19499969482422,30.073999404907227 18.19499969482422,29.885000228881836 18.19499969482422,29.885000228881836 C9.89900016784668,14.800999641418457 15.744000434875488,0.0949999988079071 31.393999099731445,-5.561999797821045 C32.33700180053711,-5.939000129699707 33.09000015258789,-6.126999855041504 34.03300094604492,-6.315999984741211 C34.03300094604492,-6.315999984741211 34.03300094604492,-6.505000114440918 34.03300094604492,-6.505000114440918 C33.09000015258789,-6.315999984741211 32.14799880981445,-6.127999782562256 31.204999923706055,-6.127999782562256 C31.204999923706055,-6.127999782562256 31.017000198364258,-6.127999782562256 31.017000198364258,-6.127999782562256 C12.350000381469727,-4.808000087738037 -8.767999649047852,-14.800999641418457 -18.384000778198242,-30.073999404907227 C-17.6299991607666,-28.94300079345703 -17.06399917602539,-27.81100082397461 -16.49799919128418,-26.68000030517578z"></path></g></g><g style="display: none;" transform="matrix(0,0,0,0,166.98402404785156,189.24002075195312)" opacity="1"><g opacity="1" transform="matrix(1,0,0,1,0,0)"><path fill="rgb(255,255,255)" fill-opacity="1" d=" M-16.49799919128418,-26.68000030517578 C-17.44099998474121,-27.81100082397461 -18.19499969482422,-28.94300079345703 -18.948999404907227,-30.073999404907227 C-9.710000038146973,-14.61299991607666 -15.366999626159668,1.0369999408721924 -31.393999099731445,6.693999767303467 C-32.33700180053711,6.882999897003174 -33.09000015258789,7.258999824523926 -34.03300094604492,7.447999954223633 C-33.09000015258789,7.447999954223633 -32.14799880981445,7.258999824523926 -31.204999923706055,7.258999824523926 C-31.204999923706055,7.258999824523926 -31.017000198364258,7.258999824523926 -31.017000198364258,7.258999824523926 C-12.916000366210938,5.939000129699707 7.636000156402588,15.366999626159668 17.628999710083008,30.073999404907227 C17.25200080871582,29.31999969482422 16.875,28.565000534057617 16.49799919128418,27.81100082397461 C17.06399917602539,28.565000534057617 17.628999710083008,29.131000518798828 18.19499969482422,30.073999404907227 C18.19499969482422,30.073999404907227 18.19499969482422,29.885000228881836 18.19499969482422,29.885000228881836 C9.89900016784668,14.800999641418457 15.744000434875488,0.0949999988079071 31.393999099731445,-5.561999797821045 C32.33700180053711,-5.939000129699707 33.09000015258789,-6.126999855041504 34.03300094604492,-6.315999984741211 C34.03300094604492,-6.315999984741211 34.03300094604492,-6.505000114440918 34.03300094604492,-6.505000114440918 C33.09000015258789,-6.315999984741211 32.14799880981445,-6.127999782562256 31.204999923706055,-6.127999782562256 C31.204999923706055,-6.127999782562256 31.017000198364258,-6.127999782562256 31.017000198364258,-6.127999782562256 C12.350000381469727,-4.808000087738037 -8.767999649047852,-14.800999641418457 -18.384000778198242,-30.073999404907227 C-17.6299991607666,-28.94300079345703 -17.06399917602539,-27.81100082397461 -16.49799919128418,-26.68000030517578z"></path><path stroke-linecap="butt" stroke-linejoin="miter" fill-opacity="0" stroke-miterlimit="4" stroke="rgb(0,0,0)" stroke-opacity="1" stroke-width="4" d=" M-16.49799919128418,-26.68000030517578 C-17.44099998474121,-27.81100082397461 -18.19499969482422,-28.94300079345703 -18.948999404907227,-30.073999404907227 C-9.710000038146973,-14.61299991607666 -15.366999626159668,1.0369999408721924 -31.393999099731445,6.693999767303467 C-32.33700180053711,6.882999897003174 -33.09000015258789,7.258999824523926 -34.03300094604492,7.447999954223633 C-33.09000015258789,7.447999954223633 -32.14799880981445,7.258999824523926 -31.204999923706055,7.258999824523926 C-31.204999923706055,7.258999824523926 -31.017000198364258,7.258999824523926 -31.017000198364258,7.258999824523926 C-12.916000366210938,5.939000129699707 7.636000156402588,15.366999626159668 17.628999710083008,30.073999404907227 C17.25200080871582,29.31999969482422 16.875,28.565000534057617 16.49799919128418,27.81100082397461 C17.06399917602539,28.565000534057617 17.628999710083008,29.131000518798828 18.19499969482422,30.073999404907227 C18.19499969482422,30.073999404907227 18.19499969482422,29.885000228881836 18.19499969482422,29.885000228881836 C9.89900016784668,14.800999641418457 15.744000434875488,0.0949999988079071 31.393999099731445,-5.561999797821045 C32.33700180053711,-5.939000129699707 33.09000015258789,-6.126999855041504 34.03300094604492,-6.315999984741211 C34.03300094604492,-6.315999984741211 34.03300094604492,-6.505000114440918 34.03300094604492,-6.505000114440918 C33.09000015258789,-6.315999984741211 32.14799880981445,-6.127999782562256 31.204999923706055,-6.127999782562256 C31.204999923706055,-6.127999782562256 31.017000198364258,-6.127999782562256 31.017000198364258,-6.127999782562256 C12.350000381469727,-4.808000087738037 -8.767999649047852,-14.800999641418457 -18.384000778198242,-30.073999404907227 C-17.6299991607666,-28.94300079345703 -17.06399917602539,-27.81100082397461 -16.49799919128418,-26.68000030517578z"></path></g></g><g style="display: none;" transform="matrix(0,0,0,0,361.359375,245.4213104248047)" opacity="1"><g opacity="1" transform="matrix(1,0,0,1,0,0)"><path fill="rgb(255,255,255)" fill-opacity="1" d=" M-16.49799919128418,-26.68000030517578 C-17.44099998474121,-27.81100082397461 -18.19499969482422,-28.94300079345703 -18.948999404907227,-30.073999404907227 C-9.710000038146973,-14.61299991607666 -15.366999626159668,1.0369999408721924 -31.393999099731445,6.693999767303467 C-32.33700180053711,6.882999897003174 -33.09000015258789,7.258999824523926 -34.03300094604492,7.447999954223633 C-33.09000015258789,7.447999954223633 -32.14799880981445,7.258999824523926 -31.204999923706055,7.258999824523926 C-31.204999923706055,7.258999824523926 -31.017000198364258,7.258999824523926 -31.017000198364258,7.258999824523926 C-12.916000366210938,5.939000129699707 7.636000156402588,15.366999626159668 17.628999710083008,30.073999404907227 C17.25200080871582,29.31999969482422 16.875,28.565000534057617 16.49799919128418,27.81100082397461 C17.06399917602539,28.565000534057617 17.628999710083008,29.131000518798828 18.19499969482422,30.073999404907227 C18.19499969482422,30.073999404907227 18.19499969482422,29.885000228881836 18.19499969482422,29.885000228881836 C9.89900016784668,14.800999641418457 15.744000434875488,0.0949999988079071 31.393999099731445,-5.561999797821045 C32.33700180053711,-5.939000129699707 33.09000015258789,-6.126999855041504 34.03300094604492,-6.315999984741211 C34.03300094604492,-6.315999984741211 34.03300094604492,-6.505000114440918 34.03300094604492,-6.505000114440918 C33.09000015258789,-6.315999984741211 32.14799880981445,-6.127999782562256 31.204999923706055,-6.127999782562256 C31.204999923706055,-6.127999782562256 31.017000198364258,-6.127999782562256 31.017000198364258,-6.127999782562256 C12.350000381469727,-4.808000087738037 -8.767999649047852,-14.800999641418457 -18.384000778198242,-30.073999404907227 C-17.6299991607666,-28.94300079345703 -17.06399917602539,-27.81100082397461 -16.49799919128418,-26.68000030517578z"></path><path stroke-linecap="butt" stroke-linejoin="miter" fill-opacity="0" stroke-miterlimit="4" stroke="rgb(0,0,0)" stroke-opacity="1" stroke-width="4" d=" M-16.49799919128418,-26.68000030517578 C-17.44099998474121,-27.81100082397461 -18.19499969482422,-28.94300079345703 -18.948999404907227,-30.073999404907227 C-9.710000038146973,-14.61299991607666 -15.366999626159668,1.0369999408721924 -31.393999099731445,6.693999767303467 C-32.33700180053711,6.882999897003174 -33.09000015258789,7.258999824523926 -34.03300094604492,7.447999954223633 C-33.09000015258789,7.447999954223633 -32.14799880981445,7.258999824523926 -31.204999923706055,7.258999824523926 C-31.204999923706055,7.258999824523926 -31.017000198364258,7.258999824523926 -31.017000198364258,7.258999824523926 C-12.916000366210938,5.939000129699707 7.636000156402588,15.366999626159668 17.628999710083008,30.073999404907227 C17.25200080871582,29.31999969482422 16.875,28.565000534057617 16.49799919128418,27.81100082397461 C17.06399917602539,28.565000534057617 17.628999710083008,29.131000518798828 18.19499969482422,30.073999404907227 C18.19499969482422,30.073999404907227 18.19499969482422,29.885000228881836 18.19499969482422,29.885000228881836 C9.89900016784668,14.800999641418457 15.744000434875488,0.0949999988079071 31.393999099731445,-5.561999797821045 C32.33700180053711,-5.939000129699707 33.09000015258789,-6.126999855041504 34.03300094604492,-6.315999984741211 C34.03300094604492,-6.315999984741211 34.03300094604492,-6.505000114440918 34.03300094604492,-6.505000114440918 C33.09000015258789,-6.315999984741211 32.14799880981445,-6.127999782562256 31.204999923706055,-6.127999782562256 C31.204999923706055,-6.127999782562256 31.017000198364258,-6.127999782562256 31.017000198364258,-6.127999782562256 C12.350000381469727,-4.808000087738037 -8.767999649047852,-14.800999641418457 -18.384000778198242,-30.073999404907227 C-17.6299991607666,-28.94300079345703 -17.06399917602539,-27.81100082397461 -16.49799919128418,-26.68000030517578z"></path></g></g></g></svg>