<svg xmlns="http://www.w3.org/2000/svg" xmlns:xlink="http://www.w3.org/1999/xlink" viewBox="0 0 500 500" width="500" height="500" preserveAspectRatio="xMidYMid meet" style="width: 100%; height: 100%; transform: translate3d(0px, 0px, 0px); content-visibility: visible;"><defs><clipPath id="__lottie_element_2209"><rect width="500" height="500" x="0" y="0"></rect></clipPath><g id="__lottie_element_2216"><g transform="matrix(1,0,0,1,250,250)" opacity="1" style="display: block;"><g opacity="1" transform="matrix(1,0,0,1,0,0)"><path fill="rgb(92,74,222)" fill-opacity="1" d=" M-59.78799819946289,23.889999389648438 C-95.23300170898438,2.4760000705718994 -118.61000061035156,-27.81399917602539 -145.90199279785156,-46.275001525878906 C-578.6729736328125,-339.0199890136719 -33.44900131225586,-274.052001953125 -6.447999954223633,-281.09600830078125 C20.952999114990234,-288.2439880371094 627.0430297851562,-327.6759948730469 130.49000549316406,-54.608001708984375 C106.875,-41.62200164794922 90.6520004272461,-23.246000289916992 61.86899948120117,-8.809000015258789 C73.1969985961914,15.958999633789062 50.2400016784668,49.875 21.53700065612793,57.362998962402344 C-7.166999816894531,64.85099792480469 -48.459999084472656,48.75400161743164 -59.78799819946289,23.889999389648438z"></path><path stroke-linecap="butt" stroke-linejoin="miter" fill-opacity="0" stroke-miterlimit="4" stroke="rgb(0,0,0)" stroke-opacity="1" stroke-width="1.659" d=" M-59.78799819946289,23.889999389648438 C-95.23300170898438,2.4760000705718994 -118.61000061035156,-27.81399917602539 -145.90199279785156,-46.275001525878906 C-578.6729736328125,-339.0199890136719 -33.44900131225586,-274.052001953125 -6.447999954223633,-281.09600830078125 C20.952999114990234,-288.2439880371094 627.0430297851562,-327.6759948730469 130.49000549316406,-54.608001708984375 C106.875,-41.62200164794922 90.6520004272461,-23.246000289916992 61.86899948120117,-8.809000015258789 C73.1969985961914,15.958999633789062 50.2400016784668,49.875 21.53700065612793,57.362998962402344 C-7.166999816894531,64.85099792480469 -48.459999084472656,48.75400161743164 -59.78799819946289,23.889999389648438z"></path></g></g></g><clipPath id="__lottie_element_2220"><path d="M0,0 L500,0 L500,500 L0,500z"></path></clipPath><mask id="__lottie_element_2216_1" mask-type="alpha"><use xlink:href="#__lottie_element_2216"></use></mask><clipPath id="__lottie_element_2232"><path d="M0,0 L500,0 L500,500 L0,500z"></path></clipPath><g id="__lottie_element_2235"><g transform="matrix(1,0,0,1,250,250)" opacity="1" style="display: block;"><g opacity="1" transform="matrix(1,0,0,1,0,0)"><path fill="rgb(92,74,222)" fill-opacity="1" d=" M-51.98400115966797,13.484000205993652 C-63.3120002746582,-11.284000396728516 -49.20000076293945,-37.395999908447266 -20.496000289916992,-44.88399887084961 C8.208000183105469,-52.37200164794922 40.65599822998047,-38.2599983215332 51.98400115966797,-13.491999626159668 C63.3120002746582,11.276000022888184 49.20000076293945,37.38800048828125 20.496000289916992,44.875999450683594 C-8.208000183105469,52.36399841308594 -40.65599822998047,38.347999572753906 -51.98400115966797,13.484000205993652z"></path><path stroke-linecap="butt" stroke-linejoin="miter" fill-opacity="0" stroke-miterlimit="4" stroke="rgb(0,0,0)" stroke-opacity="1" stroke-width="1.659" d=" M-51.98400115966797,13.484000205993652 C-63.3120002746582,-11.284000396728516 -49.20000076293945,-37.395999908447266 -20.496000289916992,-44.88399887084961 C8.208000183105469,-52.37200164794922 40.65599822998047,-38.2599983215332 51.98400115966797,-13.491999626159668 C63.3120002746582,11.276000022888184 49.20000076293945,37.38800048828125 20.496000289916992,44.875999450683594 C-8.208000183105469,52.36399841308594 -40.65599822998047,38.347999572753906 -51.98400115966797,13.484000205993652z"></path></g></g></g><mask id="__lottie_element_2235_1" mask-type="alpha"><use xlink:href="#__lottie_element_2235"></use></mask></defs><g clip-path="url(#__lottie_element_2209)"><g clip-path="url(#__lottie_element_2232)" transform="matrix(1,0,0,1,0,0)" opacity="1" style="display: block;"><g transform="matrix(1,0,0,1,250,250)" opacity="1" style="display: block;"><g opacity="1" transform="matrix(1,0,0,1,0,0)"><path fill="rgb(0,0,0)" fill-opacity="1" d=" M-51.98400115966797,13.484000205993652 C-63.3120002746582,-11.284000396728516 -49.20000076293945,-37.395999908447266 -20.496000289916992,-44.88399887084961 C8.208000183105469,-52.37200164794922 40.65599822998047,-38.2599983215332 51.98400115966797,-13.491999626159668 C63.3120002746582,11.276000022888184 49.20000076293945,37.38800048828125 20.496000289916992,44.875999450683594 C-8.208000183105469,52.36399841308594 -40.65599822998047,38.347999572753906 -51.98400115966797,13.484000205993652z"></path></g></g><g mask="url(#__lottie_element_2235_1)" style="display: block;"><g transform="matrix(1,0,0,1,243.33999633789062,235.95899963378906)" opacity="1"><g opacity="1" transform="matrix(1,0,0,1,0,0)"><path fill="rgb(63,51,158)" fill-opacity="1" d=" M35.428001403808594,32.79600143432617 C41.667999267578125,46.332000732421875 36.15399932861328,60.63999938964844 26.36199951171875,71.58399963378906 C26.36199951171875,71.58399963378906 -25.115999221801758,-31.215999603271484 -25.115999221801758,-31.215999603271484 C-25.115999221801758,-31.215999603271484 -20.658000946044922,-44.08399963378906 -20.658000946044922,-44.08399963378906 C-2.5139999389648438,-39.95600128173828 28.131999969482422,16.763999938964844 35.428001403808594,32.79600143432617z"></path><path stroke-linecap="butt" stroke-linejoin="miter" fill-opacity="0" stroke-miterlimit="4" stroke="rgb(0,0,0)" stroke-opacity="1" stroke-width="1.659" d=" M35.428001403808594,32.79600143432617 C41.667999267578125,46.332000732421875 36.15399932861328,60.63999938964844 26.36199951171875,71.58399963378906 C26.36199951171875,71.58399963378906 -25.115999221801758,-31.215999603271484 -25.115999221801758,-31.215999603271484 C-25.115999221801758,-31.215999603271484 -20.658000946044922,-44.08399963378906 -20.658000946044922,-44.08399963378906 C-2.5139999389648438,-39.95600128173828 28.131999969482422,16.763999938964844 35.428001403808594,32.79600143432617z"></path></g></g></g><g mask="url(#__lottie_element_2235_1)" style="display: block;"><g transform="matrix(1,0,0,1,250,250)" opacity="1"><g opacity="1" transform="matrix(1,0,0,1,0,0)"><path fill="rgb(92,74,222)" fill-opacity="1" d=" M-23.75,-48.75 C-23.75,-48.75 -78,-57.25 -67,8.5 C-56,74.25 27,55 27,55 C27,55 -23.75,-48.75 -23.75,-48.75z"></path><path stroke-linecap="butt" stroke-linejoin="miter" fill-opacity="0" stroke-miterlimit="4" stroke="rgb(0,0,0)" stroke-opacity="1" stroke-width="1.659" d=" M-23.75,-48.75 C-23.75,-48.75 -78,-57.25 -67,8.5 C-56,74.25 27,55 27,55 C27,55 -23.75,-48.75 -23.75,-48.75z"></path></g></g></g><g mask="url(#__lottie_element_2235_1)" style="display: block;"><g transform="matrix(-1,0,0,-1,253.5,256.5)" opacity="1"><g opacity="1" transform="matrix(1,0,0,1,0,0)"><path fill="rgb(92,74,222)" fill-opacity="1" d=" M-23.75,-48.75 C-23.75,-48.75 -78,-57.25 -67,8.5 C-56,74.25 27,55 27,55 C27,55 -23.75,-48.75 -23.75,-48.75z"></path><path stroke-linecap="butt" stroke-linejoin="miter" fill-opacity="0" stroke-miterlimit="4" stroke="rgb(0,0,0)" stroke-opacity="1" stroke-width="1.659" d=" M-23.75,-48.75 C-23.75,-48.75 -78,-57.25 -67,8.5 C-56,74.25 27,55 27,55 C27,55 -23.75,-48.75 -23.75,-48.75z"></path></g></g></g><g transform="matrix(1,0,0,1,250,250)" opacity="1" style="display: block;"><g opacity="1" transform="matrix(1,0,0,1,0,0)"><path stroke-linecap="butt" stroke-linejoin="miter" fill-opacity="0" stroke-miterlimit="4" stroke="rgb(0,0,0)" stroke-opacity="1" stroke-width="1.659" d=" M-51.98400115966797,13.484000205993652 C-63.3120002746582,-11.284000396728516 -49.20000076293945,-37.395999908447266 -20.496000289916992,-44.88399887084961 C8.208000183105469,-52.37200164794922 40.65599822998047,-38.2599983215332 51.98400115966797,-13.491999626159668 C63.3120002746582,11.276000022888184 49.20000076293945,37.38800048828125 20.496000289916992,44.875999450683594 C-8.208000183105469,52.36399841308594 -40.65599822998047,38.347999572753906 -51.98400115966797,13.484000205993652z"></path></g></g></g><g mask="url(#__lottie_element_2216_1)" style="display: block;"><g clip-path="url(#__lottie_element_2220)" transform="matrix(1,0,0,1,0,0)" opacity="1"><g transform="matrix(1,0,0,0.9999980330467224,250,250)" opacity="1" style="display: block;"><g opacity="1" transform="matrix(1,0,0,1,-0.9959999918937683,16.489999771118164)"><path fill="rgb(255,215,49)" fill-opacity="1" d=" M-56.40800094604492,-17.954999923706055 C-55.63999938964844,-24.19499969482422 -53.720001220703125,-29.954999923706055 -51.992000579833984,-36.19499969482422 C-51.992000579833984,-36.19499969482422 -52.47100067138672,-33.98699951171875 -52.47100067138672,-33.98699951171875 C-52.47100067138672,-33.98699951171875 -52.85499954223633,-31.77899932861328 -52.85499954223633,-31.77899932861328 C-53.62300109863281,-25.731000900268555 -53.334999084472656,-21.60300064086914 -51.89500045776367,-15.746999740600586 C-48.72700119018555,-5.186999797821045 -43.73500061035156,1.9170000553131104 -35.382999420166016,9.309000015258789 C-23.19099998474121,19.19700050354004 -9.944000244140625,24.093000411987305 6.760000228881836,24.572999954223633 C28.07200050354004,24.28499984741211 47.176998138427734,15.548999786376953 55.72100067138672,-4.13100004196167 C55.72100067138672,-4.13100004196167 56.487998962402344,-6.243000030517578 56.487998962402344,-6.243000030517578 C56.487998962402344,-6.243000030517578 53.224998474121094,5.373000144958496 53.224998474121094,5.373000144958496 C53.224998474121094,5.373000144958496 52.45600128173828,7.485000133514404 52.45600128173828,7.485000133514404 C44.391998291015625,26.301000595092773 26.72800064086914,35.0369987487793 6.184000015258789,36.18899917602539 C-16.95199966430664,36.47700119018555 -36.63100051879883,26.972999572753906 -48.91899871826172,9.50100040435791 C-54.48699951171875,0.5730000138282776 -56.98400115966797,-7.203000068664551 -56.40800094604492,-17.954999923706055z"></path><path stroke-linecap="butt" stroke-linejoin="bevel" fill-opacity="0" stroke="rgb(0,0,0)" stroke-opacity="1" stroke-width="1.659" d=" M-56.40800094604492,-17.954999923706055 C-55.63999938964844,-24.19499969482422 -53.720001220703125,-29.954999923706055 -51.992000579833984,-36.19499969482422 C-51.992000579833984,-36.19499969482422 -52.47100067138672,-33.98699951171875 -52.47100067138672,-33.98699951171875 C-52.47100067138672,-33.98699951171875 -52.85499954223633,-31.77899932861328 -52.85499954223633,-31.77899932861328 C-53.62300109863281,-25.731000900268555 -53.334999084472656,-21.60300064086914 -51.89500045776367,-15.746999740600586 C-48.72700119018555,-5.186999797821045 -43.73500061035156,1.9170000553131104 -35.382999420166016,9.309000015258789 C-23.19099998474121,19.19700050354004 -9.944000244140625,24.093000411987305 6.760000228881836,24.572999954223633 C28.07200050354004,24.28499984741211 47.176998138427734,15.548999786376953 55.72100067138672,-4.13100004196167 C55.72100067138672,-4.13100004196167 56.487998962402344,-6.243000030517578 56.487998962402344,-6.243000030517578 C56.487998962402344,-6.243000030517578 53.224998474121094,5.373000144958496 53.224998474121094,5.373000144958496 C53.224998474121094,5.373000144958496 52.45600128173828,7.485000133514404 52.45600128173828,7.485000133514404 C44.391998291015625,26.301000595092773 26.72800064086914,35.0369987487793 6.184000015258789,36.18899917602539 C-16.95199966430664,36.47700119018555 -36.63100051879883,26.972999572753906 -48.91899871826172,9.50100040435791 C-54.48699951171875,0.5730000138282776 -56.98400115966797,-7.203000068664551 -56.40800094604492,-17.954999923706055z"></path></g><g opacity="1" transform="matrix(1,0,0,1,1.5880000591278076,-5.810999870300293)"><path fill="rgb(255,215,49)" fill-opacity="1" d=" M-51.98400115966797,13.562000274658203 C-63.3120002746582,-11.302000045776367 -49.20000076293945,-37.41400146484375 -20.496000289916992,-44.902000427246094 C8.208000183105469,-52.29399871826172 40.65599822998047,-38.27799987792969 51.98400115966797,-13.510000228881836 C63.3120002746582,11.258000373840332 49.20000076293945,37.465999603271484 20.496000289916992,44.858001708984375 C-8.208000183105469,52.34600067138672 -40.65599822998047,38.33000183105469 -51.98400115966797,13.562000274658203z"></path><path stroke-linecap="butt" stroke-linejoin="miter" fill-opacity="0" stroke-miterlimit="4" stroke="rgb(0,0,0)" stroke-opacity="1" stroke-width="1.659" d=" M-51.98400115966797,13.562000274658203 C-63.3120002746582,-11.302000045776367 -49.20000076293945,-37.41400146484375 -20.496000289916992,-44.902000427246094 C8.208000183105469,-52.29399871826172 40.65599822998047,-38.27799987792969 51.98400115966797,-13.510000228881836 C63.3120002746582,11.258000373840332 49.20000076293945,37.465999603271484 20.496000289916992,44.858001708984375 C-8.208000183105469,52.34600067138672 -40.65599822998047,38.33000183105469 -51.98400115966797,13.562000274658203z"></path></g><g opacity="1" transform="matrix(1,0,0,1,1.590000033378601,-5.789999961853027)"><path fill="rgb(255,215,49)" fill-opacity="1" d=" M-48.14400100708008,12.484000205993652 C-58.608001708984375,-10.460000038146973 -45.551998138427734,-34.652000427246094 -18.959999084472656,-41.56399917602539 C7.631999969482422,-48.47600173950195 37.68000030517578,-35.51599884033203 48.14400100708008,-12.571999549865723 C58.608001708984375,10.468000411987305 45.551998138427734,34.65999984741211 18.959999084472656,41.571998596191406 C-7.631999969482422,48.48400115966797 -37.68000030517578,35.428001403808594 -48.14400100708008,12.484000205993652z"></path><path stroke-linecap="butt" stroke-linejoin="miter" fill-opacity="0" stroke-miterlimit="4" stroke="rgb(0,0,0)" stroke-opacity="1" stroke-width="1.659" d=" M-48.14400100708008,12.484000205993652 C-58.608001708984375,-10.460000038146973 -45.551998138427734,-34.652000427246094 -18.959999084472656,-41.56399917602539 C7.631999969482422,-48.47600173950195 37.68000030517578,-35.51599884033203 48.14400100708008,-12.571999549865723 C58.608001708984375,10.468000411987305 45.551998138427734,34.65999984741211 18.959999084472656,41.571998596191406 C-7.631999969482422,48.48400115966797 -37.68000030517578,35.428001403808594 -48.14400100708008,12.484000205993652z"></path></g><g opacity="1" transform="matrix(1,0,0,1,3.0280001163482666,-6.5320000648498535)"><path fill="rgb(255,215,49)" fill-opacity="1" d=" M-20.207000732421875,3.13100004196167 C-30.28700065612793,1.5950000286102295 -35.75899887084961,-18.948999404907227 -9.166999816894531,-24.325000762939453 C0.43299999833106995,-26.2450008392334 8.880999565124512,-24.229000091552734 14.449000358581543,-18.660999298095703 C26.256999969482422,-6.756999969482422 10.416999816894531,-2.821000099182129 8.880999565124512,-11.364999771118164 C8.401000022888184,-13.668999671936035 10.800999641418457,-20.485000610351562 6.289000034332275,-20.10099983215332 C3.984999895095825,-20.0049991607666 -17.231000900268555,-6.660999774932861 -19.726999282836914,-5.2210001945495605 C-24.430999755859375,-2.437000036239624 -22.798999786376953,0.8270000219345093 -16.655000686645508,0.05900000035762787 C-11.951000213623047,-0.5170000195503235 -7.439000129699707,-1.1890000104904175 -2.8310000896453857,-1.8609999418258667 C1.5850000381469727,-2.5329999923706055 6.0970001220703125,-3.2049999237060547 10.609000205993652,-3.877000093460083 C14.928999900817871,-4.453000068664551 20.017000198364258,-5.89300012588501 23.665000915527344,-3.877000093460083 C27.216999053955078,-1.9570000171661377 28.849000930786133,2.6510000228881836 28.46500015258789,6.298999786376953 C26.83300018310547,21.659000396728516 -2.1589999198913574,32.69900131225586 -15.598999977111816,18.395000457763672 C-25.391000747680664,8.123000144958496 -14.159000396728516,2.746999979019165 -8.39900016784668,11.482999801635742 C-7.054999828338623,13.595000267028809 -3.311000108718872,19.930999755859375 -1.871000051498413,21.371000289916992 C1.8730000257492065,25.211000442504883 5.617000102996826,19.73900032043457 6.769000053405762,18.490999221801758 C8.880999565124512,16.283000946044922 10.704999923706055,14.458999633789062 13.008999824523926,11.963000297546387 C14.640999794006348,10.043000221252441 20.976999282836914,3.6110000610351562 22.033000946044922,1.8830000162124634 C22.993000030517578,0.4429999887943268 22.128999710083008,-1.6690000295639038 20.113000869750977,-2.3410000801086426 C17.136999130249023,-3.3010001182556152 -13.006999969482422,4.091000080108643 -20.207000732421875,3.13100004196167z"></path><path stroke-linecap="butt" stroke-linejoin="miter" fill-opacity="0" stroke-miterlimit="4" stroke="rgb(0,0,0)" stroke-opacity="1" stroke-width="1.659" d=" M-20.207000732421875,3.13100004196167 C-30.28700065612793,1.5950000286102295 -35.75899887084961,-18.948999404907227 -9.166999816894531,-24.325000762939453 C0.43299999833106995,-26.2450008392334 8.880999565124512,-24.229000091552734 14.449000358581543,-18.660999298095703 C26.256999969482422,-6.756999969482422 10.416999816894531,-2.821000099182129 8.880999565124512,-11.364999771118164 C8.401000022888184,-13.668999671936035 10.800999641418457,-20.485000610351562 6.289000034332275,-20.10099983215332 C3.984999895095825,-20.0049991607666 -17.231000900268555,-6.660999774932861 -19.726999282836914,-5.2210001945495605 C-24.430999755859375,-2.437000036239624 -22.798999786376953,0.8270000219345093 -16.655000686645508,0.05900000035762787 C-11.951000213623047,-0.5170000195503235 -7.439000129699707,-1.1890000104904175 -2.8310000896453857,-1.8609999418258667 C1.5850000381469727,-2.5329999923706055 6.0970001220703125,-3.2049999237060547 10.609000205993652,-3.877000093460083 C14.928999900817871,-4.453000068664551 20.017000198364258,-5.89300012588501 23.665000915527344,-3.877000093460083 C27.216999053955078,-1.9570000171661377 28.849000930786133,2.6510000228881836 28.46500015258789,6.298999786376953 C26.83300018310547,21.659000396728516 -2.1589999198913574,32.69900131225586 -15.598999977111816,18.395000457763672 C-25.391000747680664,8.123000144958496 -14.159000396728516,2.746999979019165 -8.39900016784668,11.482999801635742 C-7.054999828338623,13.595000267028809 -3.311000108718872,19.930999755859375 -1.871000051498413,21.371000289916992 C1.8730000257492065,25.211000442504883 5.617000102996826,19.73900032043457 6.769000053405762,18.490999221801758 C8.880999565124512,16.283000946044922 10.704999923706055,14.458999633789062 13.008999824523926,11.963000297546387 C14.640999794006348,10.043000221252441 20.976999282836914,3.6110000610351562 22.033000946044922,1.8830000162124634 C22.993000030517578,0.4429999887943268 22.128999710083008,-1.6690000295639038 20.113000869750977,-2.3410000801086426 C17.136999130249023,-3.3010001182556152 -13.006999969482422,4.091000080108643 -20.207000732421875,3.13100004196167z"></path></g></g><g transform="matrix(1,0,0,0.9999926686286926,250,235)" opacity="1" style="display: block;"><g opacity="1" transform="matrix(1,0,0,1,-0.9959999918937683,16.489999771118164)"><path fill="rgb(255,215,49)" fill-opacity="1" d=" M-56.40800094604492,-17.954999923706055 C-55.63999938964844,-24.19499969482422 -53.720001220703125,-29.954999923706055 -51.992000579833984,-36.19499969482422 C-51.992000579833984,-36.19499969482422 -52.47100067138672,-33.98699951171875 -52.47100067138672,-33.98699951171875 C-52.47100067138672,-33.98699951171875 -52.85499954223633,-31.77899932861328 -52.85499954223633,-31.77899932861328 C-53.62300109863281,-25.731000900268555 -53.334999084472656,-21.60300064086914 -51.89500045776367,-15.746999740600586 C-48.72700119018555,-5.186999797821045 -43.73500061035156,1.9170000553131104 -35.382999420166016,9.309000015258789 C-23.19099998474121,19.19700050354004 -9.944000244140625,24.093000411987305 6.760000228881836,24.572999954223633 C28.07200050354004,24.28499984741211 47.176998138427734,15.548999786376953 55.72100067138672,-4.13100004196167 C55.72100067138672,-4.13100004196167 56.487998962402344,-6.243000030517578 56.487998962402344,-6.243000030517578 C56.487998962402344,-6.243000030517578 53.224998474121094,5.373000144958496 53.224998474121094,5.373000144958496 C53.224998474121094,5.373000144958496 52.45600128173828,7.485000133514404 52.45600128173828,7.485000133514404 C44.391998291015625,26.301000595092773 26.72800064086914,35.0369987487793 6.184000015258789,36.18899917602539 C-16.95199966430664,36.47700119018555 -36.63100051879883,26.972999572753906 -48.91899871826172,9.50100040435791 C-54.48699951171875,0.5730000138282776 -56.98400115966797,-7.203000068664551 -56.40800094604492,-17.954999923706055z"></path><path stroke-linecap="butt" stroke-linejoin="bevel" fill-opacity="0" stroke="rgb(0,0,0)" stroke-opacity="1" stroke-width="1.659" d=" M-56.40800094604492,-17.954999923706055 C-55.63999938964844,-24.19499969482422 -53.720001220703125,-29.954999923706055 -51.992000579833984,-36.19499969482422 C-51.992000579833984,-36.19499969482422 -52.47100067138672,-33.98699951171875 -52.47100067138672,-33.98699951171875 C-52.47100067138672,-33.98699951171875 -52.85499954223633,-31.77899932861328 -52.85499954223633,-31.77899932861328 C-53.62300109863281,-25.731000900268555 -53.334999084472656,-21.60300064086914 -51.89500045776367,-15.746999740600586 C-48.72700119018555,-5.186999797821045 -43.73500061035156,1.9170000553131104 -35.382999420166016,9.309000015258789 C-23.19099998474121,19.19700050354004 -9.944000244140625,24.093000411987305 6.760000228881836,24.572999954223633 C28.07200050354004,24.28499984741211 47.176998138427734,15.548999786376953 55.72100067138672,-4.13100004196167 C55.72100067138672,-4.13100004196167 56.487998962402344,-6.243000030517578 56.487998962402344,-6.243000030517578 C56.487998962402344,-6.243000030517578 53.224998474121094,5.373000144958496 53.224998474121094,5.373000144958496 C53.224998474121094,5.373000144958496 52.45600128173828,7.485000133514404 52.45600128173828,7.485000133514404 C44.391998291015625,26.301000595092773 26.72800064086914,35.0369987487793 6.184000015258789,36.18899917602539 C-16.95199966430664,36.47700119018555 -36.63100051879883,26.972999572753906 -48.91899871826172,9.50100040435791 C-54.48699951171875,0.5730000138282776 -56.98400115966797,-7.203000068664551 -56.40800094604492,-17.954999923706055z"></path></g><g opacity="1" transform="matrix(1,0,0,1,1.5880000591278076,-5.810999870300293)"><path fill="rgb(255,215,49)" fill-opacity="1" d=" M-51.98400115966797,13.562000274658203 C-63.3120002746582,-11.302000045776367 -49.20000076293945,-37.41400146484375 -20.496000289916992,-44.902000427246094 C8.208000183105469,-52.29399871826172 40.65599822998047,-38.27799987792969 51.98400115966797,-13.510000228881836 C63.3120002746582,11.258000373840332 49.20000076293945,37.465999603271484 20.496000289916992,44.858001708984375 C-8.208000183105469,52.34600067138672 -40.65599822998047,38.33000183105469 -51.98400115966797,13.562000274658203z"></path><path stroke-linecap="butt" stroke-linejoin="miter" fill-opacity="0" stroke-miterlimit="4" stroke="rgb(0,0,0)" stroke-opacity="1" stroke-width="1.659" d=" M-51.98400115966797,13.562000274658203 C-63.3120002746582,-11.302000045776367 -49.20000076293945,-37.41400146484375 -20.496000289916992,-44.902000427246094 C8.208000183105469,-52.29399871826172 40.65599822998047,-38.27799987792969 51.98400115966797,-13.510000228881836 C63.3120002746582,11.258000373840332 49.20000076293945,37.465999603271484 20.496000289916992,44.858001708984375 C-8.208000183105469,52.34600067138672 -40.65599822998047,38.33000183105469 -51.98400115966797,13.562000274658203z"></path></g><g opacity="1" transform="matrix(1,0,0,1,1.590000033378601,-5.789999961853027)"><path fill="rgb(255,215,49)" fill-opacity="1" d=" M-48.14400100708008,12.484000205993652 C-58.608001708984375,-10.460000038146973 -45.551998138427734,-34.652000427246094 -18.959999084472656,-41.56399917602539 C7.631999969482422,-48.47600173950195 37.68000030517578,-35.51599884033203 48.14400100708008,-12.571999549865723 C58.608001708984375,10.468000411987305 45.551998138427734,34.65999984741211 18.959999084472656,41.571998596191406 C-7.631999969482422,48.48400115966797 -37.68000030517578,35.428001403808594 -48.14400100708008,12.484000205993652z"></path><path stroke-linecap="butt" stroke-linejoin="miter" fill-opacity="0" stroke-miterlimit="4" stroke="rgb(0,0,0)" stroke-opacity="1" stroke-width="1.659" d=" M-48.14400100708008,12.484000205993652 C-58.608001708984375,-10.460000038146973 -45.551998138427734,-34.652000427246094 -18.959999084472656,-41.56399917602539 C7.631999969482422,-48.47600173950195 37.68000030517578,-35.51599884033203 48.14400100708008,-12.571999549865723 C58.608001708984375,10.468000411987305 45.551998138427734,34.65999984741211 18.959999084472656,41.571998596191406 C-7.631999969482422,48.48400115966797 -37.68000030517578,35.428001403808594 -48.14400100708008,12.484000205993652z"></path></g><g opacity="1" transform="matrix(1,0,0,1,3.0280001163482666,-6.5320000648498535)"><path fill="rgb(255,215,49)" fill-opacity="1" d=" M-20.207000732421875,3.13100004196167 C-30.28700065612793,1.5950000286102295 -35.75899887084961,-18.948999404907227 -9.166999816894531,-24.325000762939453 C0.43299999833106995,-26.2450008392334 8.880999565124512,-24.229000091552734 14.449000358581543,-18.660999298095703 C26.256999969482422,-6.756999969482422 10.416999816894531,-2.821000099182129 8.880999565124512,-11.364999771118164 C8.401000022888184,-13.668999671936035 10.800999641418457,-20.485000610351562 6.289000034332275,-20.10099983215332 C3.984999895095825,-20.0049991607666 -17.231000900268555,-6.660999774932861 -19.726999282836914,-5.2210001945495605 C-24.430999755859375,-2.437000036239624 -22.798999786376953,0.8270000219345093 -16.655000686645508,0.05900000035762787 C-11.951000213623047,-0.5170000195503235 -7.439000129699707,-1.1890000104904175 -2.8310000896453857,-1.8609999418258667 C1.5850000381469727,-2.5329999923706055 6.0970001220703125,-3.2049999237060547 10.609000205993652,-3.877000093460083 C14.928999900817871,-4.453000068664551 20.017000198364258,-5.89300012588501 23.665000915527344,-3.877000093460083 C27.216999053955078,-1.9570000171661377 28.849000930786133,2.6510000228881836 28.46500015258789,6.298999786376953 C26.83300018310547,21.659000396728516 -2.1589999198913574,32.69900131225586 -15.598999977111816,18.395000457763672 C-25.391000747680664,8.123000144958496 -14.159000396728516,2.746999979019165 -8.39900016784668,11.482999801635742 C-7.054999828338623,13.595000267028809 -3.311000108718872,19.930999755859375 -1.871000051498413,21.371000289916992 C1.8730000257492065,25.211000442504883 5.617000102996826,19.73900032043457 6.769000053405762,18.490999221801758 C8.880999565124512,16.283000946044922 10.704999923706055,14.458999633789062 13.008999824523926,11.963000297546387 C14.640999794006348,10.043000221252441 20.976999282836914,3.6110000610351562 22.033000946044922,1.8830000162124634 C22.993000030517578,0.4429999887943268 22.128999710083008,-1.6690000295639038 20.113000869750977,-2.3410000801086426 C17.136999130249023,-3.3010001182556152 -13.006999969482422,4.091000080108643 -20.207000732421875,3.13100004196167z"></path><path stroke-linecap="butt" stroke-linejoin="miter" fill-opacity="0" stroke-miterlimit="4" stroke="rgb(0,0,0)" stroke-opacity="1" stroke-width="1.659" d=" M-20.207000732421875,3.13100004196167 C-30.28700065612793,1.5950000286102295 -35.75899887084961,-18.948999404907227 -9.166999816894531,-24.325000762939453 C0.43299999833106995,-26.2450008392334 8.880999565124512,-24.229000091552734 14.449000358581543,-18.660999298095703 C26.256999969482422,-6.756999969482422 10.416999816894531,-2.821000099182129 8.880999565124512,-11.364999771118164 C8.401000022888184,-13.668999671936035 10.800999641418457,-20.485000610351562 6.289000034332275,-20.10099983215332 C3.984999895095825,-20.0049991607666 -17.231000900268555,-6.660999774932861 -19.726999282836914,-5.2210001945495605 C-24.430999755859375,-2.437000036239624 -22.798999786376953,0.8270000219345093 -16.655000686645508,0.05900000035762787 C-11.951000213623047,-0.5170000195503235 -7.439000129699707,-1.1890000104904175 -2.8310000896453857,-1.8609999418258667 C1.5850000381469727,-2.5329999923706055 6.0970001220703125,-3.2049999237060547 10.609000205993652,-3.877000093460083 C14.928999900817871,-4.453000068664551 20.017000198364258,-5.89300012588501 23.665000915527344,-3.877000093460083 C27.216999053955078,-1.9570000171661377 28.849000930786133,2.6510000228881836 28.46500015258789,6.298999786376953 C26.83300018310547,21.659000396728516 -2.1589999198913574,32.69900131225586 -15.598999977111816,18.395000457763672 C-25.391000747680664,8.123000144958496 -14.159000396728516,2.746999979019165 -8.39900016784668,11.482999801635742 C-7.054999828338623,13.595000267028809 -3.311000108718872,19.930999755859375 -1.871000051498413,21.371000289916992 C1.8730000257492065,25.211000442504883 5.617000102996826,19.73900032043457 6.769000053405762,18.490999221801758 C8.880999565124512,16.283000946044922 10.704999923706055,14.458999633789062 13.008999824523926,11.963000297546387 C14.640999794006348,10.043000221252441 20.976999282836914,3.6110000610351562 22.033000946044922,1.8830000162124634 C22.993000030517578,0.4429999887943268 22.128999710083008,-1.6690000295639038 20.113000869750977,-2.3410000801086426 C17.136999130249023,-3.3010001182556152 -13.006999969482422,4.091000080108643 -20.207000732421875,3.13100004196167z"></path></g></g></g></g><g transform="matrix(0.9192721843719482,0,0,0.9192721843719482,301.2909851074219,206.66200256347656)" opacity="1" style="display: block;"><g opacity="1" transform="matrix(1,0,0,1,0,0)"><path fill="rgb(255,255,255)" fill-opacity="1" d=" M5.567999839782715,6.432000160217285 C8.640000343322754,3.2639999389648438 17.95199966430664,3.359999895095825 17.95199966430664,0 C17.95199966430664,-3.4560000896453857 8.640000343322754,-3.359999895095825 5.567999839782715,-6.432000160217285 C2.687999963760376,-9.312000274658203 3.359999895095825,-17.95199966430664 0,-17.95199966430664 C-3.4560000896453857,-17.95199966430664 -2.687999963760376,-9.312000274658203 -5.567999839782715,-6.432000160217285 C-8.736000061035156,-3.359999895095825 -17.95199966430664,-3.4560000896453857 -17.95199966430664,0 C-17.95199966430664,3.359999895095825 -8.736000061035156,3.2639999389648438 -5.567999839782715,6.432000160217285 C-2.687999963760376,9.215999603271484 -3.4560000896453857,17.95199966430664 0,17.95199966430664 C3.359999895095825,17.95199966430664 2.687999963760376,9.215999603271484 5.567999839782715,6.432000160217285z"></path><path stroke-linecap="butt" stroke-linejoin="miter" fill-opacity="0" stroke-miterlimit="4" stroke="rgb(0,0,0)" stroke-opacity="1" stroke-width="1.659" d=" M5.567999839782715,6.432000160217285 C8.640000343322754,3.2639999389648438 17.95199966430664,3.359999895095825 17.95199966430664,0 C17.95199966430664,-3.4560000896453857 8.640000343322754,-3.359999895095825 5.567999839782715,-6.432000160217285 C2.687999963760376,-9.312000274658203 3.359999895095825,-17.95199966430664 0,-17.95199966430664 C-3.4560000896453857,-17.95199966430664 -2.687999963760376,-9.312000274658203 -5.567999839782715,-6.432000160217285 C-8.736000061035156,-3.359999895095825 -17.95199966430664,-3.4560000896453857 -17.95199966430664,0 C-17.95199966430664,3.359999895095825 -8.736000061035156,3.2639999389648438 -5.567999839782715,6.432000160217285 C-2.687999963760376,9.215999603271484 -3.4560000896453857,17.95199966430664 0,17.95199966430664 C3.359999895095825,17.95199966430664 2.687999963760376,9.215999603271484 5.567999839782715,6.432000160217285z"></path></g></g><g transform="matrix(0.9753004312515259,0,0,0.9753004312515259,204.10499572753906,180.3090057373047)" opacity="1" style="display: block;"><g opacity="1" transform="matrix(1,0,0,1,0,0)"><path fill="rgb(255,255,255)" fill-opacity="1" d=" M3.5999999046325684,4.176000118255615 C5.711999893188477,2.1600000858306885 11.760000228881836,2.25600004196167 11.760000228881836,0.04800000041723251 C11.760000228881836,-2.25600004196167 5.711999893188477,-2.1600000858306885 3.5999999046325684,-4.176000118255615 C1.7760000228881836,-6.0960001945495605 2.25600004196167,-11.760000228881836 -0.04800000041723251,-11.760000228881836 C-2.25600004196167,-11.760000228881836 -1.7760000228881836,-6.0960001945495605 -3.5999999046325684,-4.176000118255615 C-5.711999893188477,-2.1600000858306885 -11.760000228881836,-2.25600004196167 -11.760000228881836,0.04800000041723251 C-11.760000228881836,2.25600004196167 -5.711999893188477,2.1600000858306885 -3.5999999046325684,4.176000118255615 C-1.7760000228881836,6.0960001945495605 -2.25600004196167,11.760000228881836 -0.04800000041723251,11.760000228881836 C2.25600004196167,11.760000228881836 1.7760000228881836,6.0960001945495605 3.5999999046325684,4.176000118255615z"></path><path stroke-linecap="butt" stroke-linejoin="miter" fill-opacity="0" stroke-miterlimit="4" stroke="rgb(0,0,0)" stroke-opacity="1" stroke-width="1.659" d=" M3.5999999046325684,4.176000118255615 C5.711999893188477,2.1600000858306885 11.760000228881836,2.25600004196167 11.760000228881836,0.04800000041723251 C11.760000228881836,-2.25600004196167 5.711999893188477,-2.1600000858306885 3.5999999046325684,-4.176000118255615 C1.7760000228881836,-6.0960001945495605 2.25600004196167,-11.760000228881836 -0.04800000041723251,-11.760000228881836 C-2.25600004196167,-11.760000228881836 -1.7760000228881836,-6.0960001945495605 -3.5999999046325684,-4.176000118255615 C-5.711999893188477,-2.1600000858306885 -11.760000228881836,-2.25600004196167 -11.760000228881836,0.04800000041723251 C-11.760000228881836,2.25600004196167 -5.711999893188477,2.1600000858306885 -3.5999999046325684,4.176000118255615 C-1.7760000228881836,6.0960001945495605 -2.25600004196167,11.760000228881836 -0.04800000041723251,11.760000228881836 C2.25600004196167,11.760000228881836 1.7760000228881836,6.0960001945495605 3.5999999046325684,4.176000118255615z"></path></g></g></g></svg>