<svg xmlns="http://www.w3.org/2000/svg" width="1031" height="1112" viewBox="0 0 1031 1112" fill="none" class="footer-block-bg__logo"><path d="M0 341.613C0 178.539 115.495 2.47955e-05 453.527 2.47955e-05C776.067 2.47955e-05 1031 196.814 1031 392.223C1031 459.702 991.563 515.934 911.28 529.992L194.369 659.327C149.298 667.762 130.988 680.415 126.762 711.343C122.537 740.865 136.622 767.575 197.186 780.228L804.236 910.968C850.716 920.809 880.294 922.215 902.829 906.751C916.914 896.91 921.139 871.606 904.238 846.301L842.265 753.517C766.208 639.646 849.307 586.225 904.238 586.225C987.337 586.225 1025.37 655.11 1025.37 754.923C1025.37 1007.97 784.518 1112 540.852 1112C292.962 1112 42.2541 978.448 42.2541 733.836C42.2541 676.197 80.2828 619.965 138.03 605.907L225.713 582.667C243.845 578.259 236.96 578.516 272.497 572.087C308.034 565.659 403.942 552.22 403.942 552.22L873.35 481.777L885.546 480.339C913.409 477.744 931.69 465.441 940.858 431.585C954.575 380.926 906.836 358.27 849.689 331.148C848.159 330.423 846.624 329.694 845.082 328.961L352.117 91.3781C267.609 50.6094 225.355 85.7548 225.355 153.234L225.355 392.223C225.355 451.267 183.101 508.905 115.495 508.905C30.9863 508.905 0 418.933 0 341.613Z" fill="currentColor"></path></svg>