<svg width="64" height="64" viewBox="0 0 64 64" fill="none" xmlns="http://www.w3.org/2000/svg">
<path d="M32 4C24.268 4 18 10.268 18 18V26H14C11.7909 26 10 27.7909 10 30V54C10 56.2091 11.7909 58 14 58H50C52.2091 58 54 56.2091 54 54V30C54 27.7909 52.2091 26 50 26H46V18C46 10.268 39.732 4 32 4ZM32 10C36.4183 10 40 13.5817 40 18V26H24V18C24 13.5817 27.5817 10 32 10ZM32 38C34.2091 38 36 39.7909 36 42C36 44.2091 34.2091 46 32 46C29.7909 46 28 44.2091 28 42C28 39.7909 29.7909 38 32 38Z" fill="currentColor"/>
</svg>
