<svg xmlns="http://www.w3.org/2000/svg" xmlns:xlink="http://www.w3.org/1999/xlink" viewBox="0 0 500 500" width="500" height="500" preserveAspectRatio="xMidYMid meet" style="width: 100%; height: 100%; transform: translate3d(0px, 0px, 0px); content-visibility: visible;"><defs><clipPath id="__lottie_element_1515"><rect width="500" height="500" x="0" y="0"></rect></clipPath></defs><g clip-path="url(#__lottie_element_1515)"><g transform="matrix(1,0,0,1,241.1070098876953,286.5399169921875)" opacity="1" style="display: block;"><g opacity="1" transform="matrix(1,0,0,1,0,-0.027000000700354576)"><path fill="rgb(255,255,255)" fill-opacity="1" d=" M142.843994140625,25.86400032043457 C142.843994140625,25.86400032043457 145.10699462890625,13.232000350952148 145.10699462890625,13.232000350952148 C145.10699462890625,13.232000350952148 144.91799926757812,14.173999786376953 144.91799926757812,14.173999786376953 C144.91799926757812,14.173999786376953 144.72999572753906,14.928999900817871 144.72999572753906,14.928999900817871 C142.4669952392578,20.77400016784668 138.50799560546875,24.356000900268555 132.66299438476562,26.80699920654297 C132.66299438476562,26.80699920654297 131.72000122070312,27.18400001525879 131.72000122070312,27.18400001525879 C131.72000122070312,27.18400001525879 -21.19499969482422,81.86399841308594 -21.19499969482422,81.86399841308594 C-21.19499969482422,81.86399841308594 -22.326000213623047,82.24099731445312 -22.326000213623047,82.24099731445312 C-32.69599914550781,85.25800323486328 -45.14099884033203,82.80699920654297 -51.7400016784668,73.19100189208984 C-51.7400016784668,73.19100189208984 -52.30500030517578,72.24800109863281 -52.30500030517578,72.24800109863281 C-52.30500030517578,72.24800109863281 -140.73599243164062,-86.13500213623047 -140.73599243164062,-86.13500213623047 C-142.43299865722656,-89.33999633789062 -142.99899291992188,-91.79199981689453 -142.80999755859375,-95.3740005493164 C-142.80999755859375,-95.3740005493164 -142.62100219726562,-96.12799835205078 -142.62100219726562,-96.12799835205078 C-142.62100219726562,-96.12799835205078 -144.88400268554688,-83.49500274658203 -144.88400268554688,-83.49500274658203 C-144.88400268554688,-83.49500274658203 -145.07200622558594,-82.552001953125 -145.07200622558594,-82.552001953125 C-145.26100158691406,-79.15799713134766 -144.69500732421875,-76.70700073242188 -142.9980010986328,-73.50199890136719 C-142.9980010986328,-73.50199890136719 -54.56800079345703,84.88099670410156 -54.56800079345703,84.88099670410156 C-54.56800079345703,84.88099670410156 -54.00199890136719,85.8239974975586 -54.00199890136719,85.8239974975586 C-47.2140007019043,96.00599670410156 -34.01599884033203,98.0790023803711 -23.457000732421875,94.49700164794922 C-23.457000732421875,94.49700164794922 129.2689971923828,39.81700134277344 129.2689971923828,39.81700134277344 C129.2689971923828,39.81700134277344 130.39999389648438,39.439998626708984 130.39999389648438,39.439998626708984 C136.81100463867188,36.61199951171875 141.14700317382812,32.4630012512207 142.843994140625,25.86400032043457z"></path><path stroke-linecap="butt" stroke-linejoin="bevel" fill-opacity="0" stroke="rgb(0,0,0)" stroke-opacity="1" stroke-width="4" d=" M142.843994140625,25.86400032043457 C142.843994140625,25.86400032043457 145.10699462890625,13.232000350952148 145.10699462890625,13.232000350952148 C145.10699462890625,13.232000350952148 144.91799926757812,14.173999786376953 144.91799926757812,14.173999786376953 C144.91799926757812,14.173999786376953 144.72999572753906,14.928999900817871 144.72999572753906,14.928999900817871 C142.4669952392578,20.77400016784668 138.50799560546875,24.356000900268555 132.66299438476562,26.80699920654297 C132.66299438476562,26.80699920654297 131.72000122070312,27.18400001525879 131.72000122070312,27.18400001525879 C131.72000122070312,27.18400001525879 -21.19499969482422,81.86399841308594 -21.19499969482422,81.86399841308594 C-21.19499969482422,81.86399841308594 -22.326000213623047,82.24099731445312 -22.326000213623047,82.24099731445312 C-32.69599914550781,85.25800323486328 -45.14099884033203,82.80699920654297 -51.7400016784668,73.19100189208984 C-51.7400016784668,73.19100189208984 -52.30500030517578,72.24800109863281 -52.30500030517578,72.24800109863281 C-52.30500030517578,72.24800109863281 -140.73599243164062,-86.13500213623047 -140.73599243164062,-86.13500213623047 C-142.43299865722656,-89.33999633789062 -142.99899291992188,-91.79199981689453 -142.80999755859375,-95.3740005493164 C-142.80999755859375,-95.3740005493164 -142.62100219726562,-96.12799835205078 -142.62100219726562,-96.12799835205078 C-142.62100219726562,-96.12799835205078 -144.88400268554688,-83.49500274658203 -144.88400268554688,-83.49500274658203 C-144.88400268554688,-83.49500274658203 -145.07200622558594,-82.552001953125 -145.07200622558594,-82.552001953125 C-145.26100158691406,-79.15799713134766 -144.69500732421875,-76.70700073242188 -142.9980010986328,-73.50199890136719 C-142.9980010986328,-73.50199890136719 -54.56800079345703,84.88099670410156 -54.56800079345703,84.88099670410156 C-54.56800079345703,84.88099670410156 -54.00199890136719,85.8239974975586 -54.00199890136719,85.8239974975586 C-47.2140007019043,96.00599670410156 -34.01599884033203,98.0790023803711 -23.457000732421875,94.49700164794922 C-23.457000732421875,94.49700164794922 129.2689971923828,39.81700134277344 129.2689971923828,39.81700134277344 C129.2689971923828,39.81700134277344 130.39999389648438,39.439998626708984 130.39999389648438,39.439998626708984 C136.81100463867188,36.61199951171875 141.14700317382812,32.4630012512207 142.843994140625,25.86400032043457z"></path></g><g opacity="1" transform="matrix(1,0,0,1,52.34000015258789,54.68000030517578)"><path fill="rgb(255,255,255)" fill-opacity="1" d=" M90.50399780273438,-28.841999053955078 C90.50399780273438,-28.841999053955078 92.76699829101562,-41.474998474121094 92.76699829101562,-41.474998474121094 C92.76699829101562,-41.474998474121094 92.5780029296875,-40.53200149536133 92.5780029296875,-40.53200149536133 C92.5780029296875,-40.53200149536133 92.38999938964844,-39.77799987792969 92.38999938964844,-39.77799987792969 C90.12699890136719,-33.93299865722656 86.16799926757812,-30.350000381469727 80.322998046875,-27.89900016784668 C80.322998046875,-27.89900016784668 79.37999725341797,-27.52199935913086 79.37999725341797,-27.52199935913086 C79.37999725341797,-27.52199935913086 -73.53500366210938,27.156999588012695 -73.53500366210938,27.156999588012695 C-73.53500366210938,27.156999588012695 -74.66600036621094,27.534000396728516 -74.66600036621094,27.534000396728516 C-79.75700378417969,29.04199981689453 -85.2249984741211,29.231000900268555 -90.31600189208984,27.910999298095703 C-90.31600189208984,27.910999298095703 -92.76699829101562,40.54399871826172 -92.76699829101562,40.54399871826172 C-87.11000061035156,42.051998138427734 -81.07599639892578,41.67499923706055 -75.7969970703125,39.790000915527344 C-75.7969970703125,39.790000915527344 76.92900085449219,-14.888999938964844 76.92900085449219,-14.888999938964844 C76.92900085449219,-14.888999938964844 78.05999755859375,-15.267000198364258 78.05999755859375,-15.267000198364258 C84.47100067138672,-18.094999313354492 88.80699920654297,-22.243000030517578 90.50399780273438,-28.841999053955078z"></path><path stroke-linecap="butt" stroke-linejoin="bevel" fill-opacity="0" stroke="rgb(0,0,0)" stroke-opacity="1" stroke-width="4" d=" M90.50399780273438,-28.841999053955078 C90.50399780273438,-28.841999053955078 92.76699829101562,-41.474998474121094 92.76699829101562,-41.474998474121094 C92.76699829101562,-41.474998474121094 92.5780029296875,-40.53200149536133 92.5780029296875,-40.53200149536133 C92.5780029296875,-40.53200149536133 92.38999938964844,-39.77799987792969 92.38999938964844,-39.77799987792969 C90.12699890136719,-33.93299865722656 86.16799926757812,-30.350000381469727 80.322998046875,-27.89900016784668 C80.322998046875,-27.89900016784668 79.37999725341797,-27.52199935913086 79.37999725341797,-27.52199935913086 C79.37999725341797,-27.52199935913086 -73.53500366210938,27.156999588012695 -73.53500366210938,27.156999588012695 C-73.53500366210938,27.156999588012695 -74.66600036621094,27.534000396728516 -74.66600036621094,27.534000396728516 C-79.75700378417969,29.04199981689453 -85.2249984741211,29.231000900268555 -90.31600189208984,27.910999298095703 C-90.31600189208984,27.910999298095703 -92.76699829101562,40.54399871826172 -92.76699829101562,40.54399871826172 C-87.11000061035156,42.051998138427734 -81.07599639892578,41.67499923706055 -75.7969970703125,39.790000915527344 C-75.7969970703125,39.790000915527344 76.92900085449219,-14.888999938964844 76.92900085449219,-14.888999938964844 C76.92900085449219,-14.888999938964844 78.05999755859375,-15.267000198364258 78.05999755859375,-15.267000198364258 C84.47100067138672,-18.094999313354492 88.80699920654297,-22.243000030517578 90.50399780273438,-28.841999053955078z"></path></g></g><g transform="matrix(1,0,0,1,185.44100952148438,154.93792724609375)" opacity="1" style="display: block;"><g opacity="1" transform="matrix(1,0,0,1,0,0)"><path fill="rgb(0,0,0)" fill-opacity="1" d=" M32.9640007019043,-26.020000457763672 C32.9640007019043,-26.020000457763672 -45.6619987487793,2.828000068664551 -45.6619987487793,2.828000068664551 C-49.810001373291016,4.335999965667725 -51.507999420166016,8.862000465393066 -49.244998931884766,12.633000373840332 C-49.244998931884766,12.633000373840332 -44.53099822998047,21.683000564575195 -44.53099822998047,21.683000564575195 C-42.268001556396484,25.64299964904785 -37.176998138427734,27.527999877929688 -33.02899932861328,26.020000457763672 C-33.02899932861328,26.020000457763672 45.59600067138672,-2.828000068664551 45.59600067138672,-2.828000068664551 C49.74399948120117,-4.335999965667725 51.441001892089844,-8.861000061035156 49.367000579833984,-12.821000099182129 C49.367000579833984,-12.821000099182129 44.46500015258789,-21.683000564575195 44.46500015258789,-21.683000564575195 C42.39099884033203,-25.64299964904785 37.11199951171875,-27.527999877929688 32.9640007019043,-26.020000457763672z"></path><path stroke-linecap="butt" stroke-linejoin="miter" fill-opacity="0" stroke-miterlimit="4" stroke="rgb(0,0,0)" stroke-opacity="1" stroke-width="4" d=" M32.9640007019043,-26.020000457763672 C32.9640007019043,-26.020000457763672 -45.6619987487793,2.828000068664551 -45.6619987487793,2.828000068664551 C-49.810001373291016,4.335999965667725 -51.507999420166016,8.862000465393066 -49.244998931884766,12.633000373840332 C-49.244998931884766,12.633000373840332 -44.53099822998047,21.683000564575195 -44.53099822998047,21.683000564575195 C-42.268001556396484,25.64299964904785 -37.176998138427734,27.527999877929688 -33.02899932861328,26.020000457763672 C-33.02899932861328,26.020000457763672 45.59600067138672,-2.828000068664551 45.59600067138672,-2.828000068664551 C49.74399948120117,-4.335999965667725 51.441001892089844,-8.861000061035156 49.367000579833984,-12.821000099182129 C49.367000579833984,-12.821000099182129 44.46500015258789,-21.683000564575195 44.46500015258789,-21.683000564575195 C42.39099884033203,-25.64299964904785 37.11199951171875,-27.527999877929688 32.9640007019043,-26.020000457763672z"></path></g></g><g transform="matrix(1,0,0,1,242.4459991455078,244.55491638183594)" opacity="1" style="display: block;"><g opacity="1" transform="matrix(1,0,0,1,0,0)"><path fill="rgb(255,255,255)" fill-opacity="1" d=" M22.530000686645508,-123.93399810791016 C22.530000686645508,-123.93399810791016 -130.1959991455078,-69.06600189208984 -130.1959991455078,-69.06600189208984 C-142.0749969482422,-64.91799926757812 -147.35400390625,-53.60499954223633 -142.0749969482422,-44.176998138427734 C-142.0749969482422,-44.176998138427734 -53.64400100708008,114.20600128173828 -53.64400100708008,114.20600128173828 C-48.3650016784668,123.8219985961914 -34.222999572753906,128.15899658203125 -22.533000946044922,123.8219985961914 C-22.533000946044922,123.8219985961914 130.38099670410156,69.14199829101562 130.38099670410156,69.14199829101562 C142.0709991455078,64.99400329589844 147.35000610351562,53.680999755859375 142.0709991455078,44.25299835205078 C142.0709991455078,44.25299835205078 53.64099884033203,-114.12899780273438 53.64099884033203,-114.12899780273438 C48.36199951171875,-123.74500274658203 34.409000396728516,-128.08200073242188 22.530000686645508,-123.93399810791016z"></path><path stroke-linecap="butt" stroke-linejoin="miter" fill-opacity="0" stroke-miterlimit="4" stroke="rgb(0,0,0)" stroke-opacity="1" stroke-width="4" d=" M22.530000686645508,-123.93399810791016 C22.530000686645508,-123.93399810791016 -130.1959991455078,-69.06600189208984 -130.1959991455078,-69.06600189208984 C-142.0749969482422,-64.91799926757812 -147.35400390625,-53.60499954223633 -142.0749969482422,-44.176998138427734 C-142.0749969482422,-44.176998138427734 -53.64400100708008,114.20600128173828 -53.64400100708008,114.20600128173828 C-48.3650016784668,123.8219985961914 -34.222999572753906,128.15899658203125 -22.533000946044922,123.8219985961914 C-22.533000946044922,123.8219985961914 130.38099670410156,69.14199829101562 130.38099670410156,69.14199829101562 C142.0709991455078,64.99400329589844 147.35000610351562,53.680999755859375 142.0709991455078,44.25299835205078 C142.0709991455078,44.25299835205078 53.64099884033203,-114.12899780273438 53.64099884033203,-114.12899780273438 C48.36199951171875,-123.74500274658203 34.409000396728516,-128.08200073242188 22.530000686645508,-123.93399810791016z"></path></g></g><g transform="matrix(1,0,0,1,189.12001037597656,145.64791870117188)" opacity="1" style="display: block;"><g opacity="1" transform="matrix(1,0,0,1,-12.605999946594238,-12.972999572753906)"><path fill="rgb(204,204,204)" fill-opacity="1" d=" M-7.88700008392334,-11.300000190734863 C-7.88700008392334,-11.300000190734863 -12.03600025177002,-9.602999687194824 -12.03600025177002,-9.602999687194824 C-21.652000427246094,-5.831999778747559 -24.291000366210938,4.160999774932861 -17.691999435424805,12.645999908447266 C-17.691999435424805,12.645999908447266 21.33799934387207,-2.437999963760376 21.33799934387207,-2.437999963760376 C14.927000045776367,-11.111000061035156 1.7289999723434448,-14.881999969482422 -7.88700008392334,-11.300000190734863z"></path><path stroke-linecap="butt" stroke-linejoin="miter" fill-opacity="0" stroke-miterlimit="4" stroke="rgb(0,0,0)" stroke-opacity="1" stroke-width="4" d=" M-7.88700008392334,-11.300000190734863 C-7.88700008392334,-11.300000190734863 -12.03600025177002,-9.602999687194824 -12.03600025177002,-9.602999687194824 C-21.652000427246094,-5.831999778747559 -24.291000366210938,4.160999774932861 -17.691999435424805,12.645999908447266 C-17.691999435424805,12.645999908447266 21.33799934387207,-2.437999963760376 21.33799934387207,-2.437999963760376 C14.927000045776367,-11.111000061035156 1.7289999723434448,-14.881999969482422 -7.88700008392334,-11.300000190734863z"></path></g><g opacity="1" transform="matrix(1,0,0,1,-12.092000007629395,-11.142000198364258)"><path fill="rgb(0,0,0)" fill-opacity="1" d=" M-2.555000066757202,-3.7019999027252197 C-2.555000066757202,-3.7019999027252197 -4.064000129699707,-3.13700008392334 -4.064000129699707,-3.13700008392334 C-7.080999851226807,-2.00600004196167 -8.02299976348877,1.3890000581741333 -5.948999881744385,4.2170000076293945 C-5.948999881744385,4.2170000076293945 7.060999870300293,-0.8740000128746033 7.060999870300293,-0.8740000128746033 C4.797999858856201,-3.7019999027252197 0.4620000123977661,-5.021999835968018 -2.555000066757202,-3.7019999027252197z"></path><path stroke-linecap="butt" stroke-linejoin="miter" fill-opacity="0" stroke-miterlimit="4" stroke="rgb(0,0,0)" stroke-opacity="1" stroke-width="4" d=" M-2.555000066757202,-3.7019999027252197 C-2.555000066757202,-3.7019999027252197 -4.064000129699707,-3.13700008392334 -4.064000129699707,-3.13700008392334 C-7.080999851226807,-2.00600004196167 -8.02299976348877,1.3890000581741333 -5.948999881744385,4.2170000076293945 C-5.948999881744385,4.2170000076293945 7.060999870300293,-0.8740000128746033 7.060999870300293,-0.8740000128746033 C4.797999858856201,-3.7019999027252197 0.4620000123977661,-5.021999835968018 -2.555000066757202,-3.7019999027252197z"></path></g><g opacity="1" transform="matrix(1,0,0,1,0,0)"><path fill="rgb(204,204,204)" fill-opacity="1" d=" M33.99800109863281,-26.724000930786133 C33.99800109863281,-26.724000930786133 -46.88999938964844,2.878000020980835 -46.88999938964844,2.878000020980835 C-51.22700119018555,4.386000156402588 -52.92399978637695,9.100000381469727 -50.6609992980957,13.0600004196167 C-50.6609992980957,13.0600004196167 -45.75899887084961,22.298999786376953 -45.75899887084961,22.298999786376953 C-43.49599838256836,26.259000778198242 -38.21699905395508,28.332000732421875 -33.880001068115234,26.823999404907227 C-33.880001068115234,26.823999404907227 47.007999420166016,-2.9670000076293945 47.007999420166016,-2.9670000076293945 C51.15599822998047,-4.474999904632568 52.85300064086914,-9 50.77899932861328,-13.14799976348877 C50.77899932861328,-13.14799976348877 45.6879997253418,-22.198999404907227 45.6879997253418,-22.198999404907227 C43.61399841308594,-26.347000122070312 38.334999084472656,-28.42099952697754 33.99800109863281,-26.724000930786133z"></path><path stroke-linecap="butt" stroke-linejoin="miter" fill-opacity="0" stroke-miterlimit="4" stroke="rgb(0,0,0)" stroke-opacity="1" stroke-width="4" d=" M33.99800109863281,-26.724000930786133 C33.99800109863281,-26.724000930786133 -46.88999938964844,2.878000020980835 -46.88999938964844,2.878000020980835 C-51.22700119018555,4.386000156402588 -52.92399978637695,9.100000381469727 -50.6609992980957,13.0600004196167 C-50.6609992980957,13.0600004196167 -45.75899887084961,22.298999786376953 -45.75899887084961,22.298999786376953 C-43.49599838256836,26.259000778198242 -38.21699905395508,28.332000732421875 -33.880001068115234,26.823999404907227 C-33.880001068115234,26.823999404907227 47.007999420166016,-2.9670000076293945 47.007999420166016,-2.9670000076293945 C51.15599822998047,-4.474999904632568 52.85300064086914,-9 50.77899932861328,-13.14799976348877 C50.77899932861328,-13.14799976348877 45.6879997253418,-22.198999404907227 45.6879997253418,-22.198999404907227 C43.61399841308594,-26.347000122070312 38.334999084472656,-28.42099952697754 33.99800109863281,-26.724000930786133z"></path></g></g><g transform="matrix(1,0,0,1,229.4340057373047,255.15191650390625)" opacity="1" style="display: block;"><g opacity="1" transform="matrix(1,0,0,1,35.63600158691406,69.9520034790039)"><path stroke-linecap="butt" stroke-linejoin="miter" fill-opacity="0" stroke-miterlimit="4" stroke="rgb(0,0,0)" stroke-opacity="1" stroke-width="4" d="M0 0"></path></g><g opacity="1" transform="matrix(1,0,0,1,25.45400047302246,51.85200119018555)"><path stroke-linecap="butt" stroke-linejoin="miter" fill-opacity="0" stroke-miterlimit="4" stroke="rgb(0,0,0)" stroke-opacity="1" stroke-width="4" d="M0 0"></path></g><g opacity="1" transform="matrix(1,0,0,1,15.272000312805176,33.93899917602539)"><path stroke-linecap="butt" stroke-linejoin="miter" fill-opacity="0" stroke-miterlimit="4" stroke="rgb(0,0,0)" stroke-opacity="1" stroke-width="4" d="M0 0"></path></g><g opacity="1" transform="matrix(1,0,0,1,5.091000080108643,15.838000297546387)"><path stroke-linecap="butt" stroke-linejoin="miter" fill-opacity="0" stroke-miterlimit="4" stroke="rgb(0,0,0)" stroke-opacity="1" stroke-width="4" d="M0 0"></path></g><g opacity="1" transform="matrix(1,0,0,1,14.04699993133545,-9.050999641418457)"><path stroke-linecap="butt" stroke-linejoin="miter" fill-opacity="0" stroke-miterlimit="4" stroke="rgb(0,0,0)" stroke-opacity="1" stroke-width="4" d="M0 0"></path></g><g opacity="1" transform="matrix(1,0,0,1,3.865000009536743,-26.961999893188477)"><path stroke-linecap="butt" stroke-linejoin="miter" fill-opacity="0" stroke-miterlimit="4" stroke="rgb(0,0,0)" stroke-opacity="1" stroke-width="4" d="M0 0"></path></g><g opacity="1" transform="matrix(1,0,0,1,-6.316999912261963,-44.96900177001953)"><path stroke-linecap="butt" stroke-linejoin="miter" fill-opacity="0" stroke-miterlimit="4" stroke="rgb(0,0,0)" stroke-opacity="1" stroke-width="4" d="M0 0"></path></g><g opacity="1" transform="matrix(1,0,0,1,-16.49799919128418,-62.97600173950195)"><path stroke-linecap="butt" stroke-linejoin="miter" fill-opacity="0" stroke-miterlimit="4" stroke="rgb(0,0,0)" stroke-opacity="1" stroke-width="4" d="M0 0"></path></g></g><g transform="matrix(1,0,0,1,344.072998046875,258.0074768066406)" opacity="1" style="display: block;"><g opacity="1" transform="matrix(1,0,0,1,0,0)"><path fill="rgb(251,73,3)" fill-opacity="1" d=" M-56.28200149536133,-25.926000595092773 C-56.28200149536133,-25.926000595092773 -52.88800048828125,-37.80400085449219 -52.88800048828125,-37.80400085449219 C-52.88800048828125,-37.80400085449219 -53.45399856567383,-35.54199981689453 -53.45399856567383,-35.54199981689453 C-53.45399856567383,-35.54199981689453 -53.83100128173828,-33.27899932861328 -53.83100128173828,-33.27899932861328 C-53.83100128173828,-33.27899932861328 -54.20800018310547,-31.017000198364258 -54.20800018310547,-31.017000198364258 C-54.20800018310547,-31.017000198364258 -54.39699935913086,-28.565000534057617 -54.39699935913086,-28.565000534057617 C-54.39699935913086,-28.565000534057617 -54.39699935913086,-26.30299949645996 -54.39699935913086,-26.30299949645996 C-54.39699935913086,-26.30299949645996 -54.20800018310547,-23.851999282836914 -54.20800018310547,-23.851999282836914 C-54.20800018310547,-23.851999282836914 -54.02000045776367,-21.589000701904297 -54.02000045776367,-21.589000701904297 C-54.02000045776367,-21.589000701904297 -53.45399856567383,-19.13800048828125 -53.45399856567383,-19.13800048828125 C-53.45399856567383,-19.13800048828125 -53.07699966430664,-16.687000274658203 -53.07699966430664,-16.687000274658203 C-53.07699966430664,-16.687000274658203 -52.323001861572266,-14.423999786376953 -52.323001861572266,-14.423999786376953 C-52.323001861572266,-14.423999786376953 -51.380001068115234,-11.972999572753906 -51.380001068115234,-11.972999572753906 C-51.380001068115234,-11.972999572753906 -50.4370002746582,-9.522000312805176 -50.4370002746582,-9.522000312805176 C-50.4370002746582,-9.522000312805176 -49.305999755859375,-7.071000099182129 -49.305999755859375,-7.071000099182129 C-49.305999755859375,-7.071000099182129 -48.17499923706055,-4.808000087738037 -48.17499923706055,-4.808000087738037 C-48.17499923706055,-4.808000087738037 -46.66600036621094,-2.5450000762939453 -46.66600036621094,-2.5450000762939453 C-46.66600036621094,-2.5450000762939453 -45.15800094604492,-0.47099998593330383 -45.15800094604492,-0.47099998593330383 C-45.15800094604492,-0.47099998593330383 -43.64899826049805,1.6030000448226929 -43.64899826049805,1.6030000448226929 C-43.64899826049805,1.6030000448226929 -41.95199966430664,3.677000045776367 -41.95199966430664,3.677000045776367 C-41.95199966430664,3.677000045776367 -40.25600051879883,5.750999927520752 -40.25600051879883,5.750999927520752 C-40.25600051879883,5.750999927520752 -38.180999755859375,7.636000156402588 -38.180999755859375,7.636000156402588 C-38.180999755859375,7.636000156402588 -36.29600143432617,9.333000183105469 -36.29600143432617,9.333000183105469 C-36.29600143432617,9.333000183105469 -34.22200012207031,11.029999732971191 -34.22200012207031,11.029999732971191 C-34.22200012207031,11.029999732971191 -32.14799880981445,12.72700023651123 -32.14799880981445,12.72700023651123 C-32.14799880981445,12.72700023651123 -29.885000228881836,14.236000061035156 -29.885000228881836,14.236000061035156 C-29.885000228881836,14.236000061035156 -27.62299919128418,15.744000434875488 -27.62299919128418,15.744000434875488 C-27.62299919128418,15.744000434875488 -25.17099952697754,17.06399917602539 -25.17099952697754,17.06399917602539 C-25.17099952697754,17.06399917602539 -22.719999313354492,18.384000778198242 -22.719999313354492,18.384000778198242 C-22.719999313354492,18.384000778198242 -20.268999099731445,19.70400047302246 -20.268999099731445,19.70400047302246 C-20.268999099731445,19.70400047302246 -17.81800079345703,20.645999908447266 -17.81800079345703,20.645999908447266 C-17.81800079345703,20.645999908447266 -15.178000450134277,21.777999877929688 -15.178000450134277,21.777999877929688 C-15.178000450134277,21.777999877929688 -12.538999557495117,22.531999588012695 -12.538999557495117,22.531999588012695 C-12.538999557495117,22.531999588012695 -9.89900016784668,23.475000381469727 -9.89900016784668,23.475000381469727 C-9.89900016784668,23.475000381469727 -7.258999824523926,24.040000915527344 -7.258999824523926,24.040000915527344 C-7.258999824523926,24.040000915527344 -4.431000232696533,24.606000900268555 -4.431000232696533,24.606000900268555 C-4.431000232696533,24.606000900268555 -1.7910000085830688,25.17099952697754 -1.7910000085830688,25.17099952697754 C-1.7910000085830688,25.17099952697754 1.0369999408721924,25.548999786376953 1.0369999408721924,25.548999786376953 C1.0369999408721924,25.548999786376953 3.865000009536743,25.73699951171875 3.865000009536743,25.73699951171875 C3.865000009536743,25.73699951171875 6.693999767303467,25.926000595092773 6.693999767303467,25.926000595092773 C6.693999767303467,25.926000595092773 9.522000312805176,25.926000595092773 9.522000312805176,25.926000595092773 C9.522000312805176,25.926000595092773 12.350000381469727,25.926000595092773 12.350000381469727,25.926000595092773 C12.350000381469727,25.926000595092773 14.989999771118164,25.548999786376953 14.989999771118164,25.548999786376953 C14.989999771118164,25.548999786376953 17.81800079345703,25.360000610351562 17.81800079345703,25.360000610351562 C17.81800079345703,25.360000610351562 20.645999908447266,24.79400062561035 20.645999908447266,24.79400062561035 C20.645999908447266,24.79400062561035 23.475000381469727,24.229000091552734 23.475000381469727,24.229000091552734 C23.475000381469727,24.229000091552734 26.11400032043457,23.475000381469727 26.11400032043457,23.475000381469727 C26.11400032043457,23.475000381469727 28.753999710083008,22.719999313354492 28.753999710083008,22.719999313354492 C28.753999710083008,22.719999313354492 31.393999099731445,21.777999877929688 31.393999099731445,21.777999877929688 C31.393999099731445,21.777999877929688 33.845001220703125,20.645999908447266 33.845001220703125,20.645999908447266 C33.845001220703125,20.645999908447266 36.106998443603516,19.514999389648438 36.106998443603516,19.514999389648438 C36.106998443603516,19.514999389648438 38.369998931884766,18.384000778198242 38.369998931884766,18.384000778198242 C38.369998931884766,18.384000778198242 40.444000244140625,17.06399917602539 40.444000244140625,17.06399917602539 C40.444000244140625,17.06399917602539 42.518001556396484,15.555000305175781 42.518001556396484,15.555000305175781 C42.518001556396484,15.555000305175781 44.59199905395508,14.04699993133545 44.59199905395508,14.04699993133545 C44.59199905395508,14.04699993133545 46.28900146484375,12.538999557495117 46.28900146484375,12.538999557495117 C46.28900146484375,12.538999557495117 48.17499923706055,10.842000007629395 48.17499923706055,10.842000007629395 C48.17499923706055,10.842000007629395 49.68299865722656,9.145000457763672 49.68299865722656,9.145000457763672 C49.68299865722656,9.145000457763672 51.191001892089844,7.447999954223633 51.191001892089844,7.447999954223633 C51.191001892089844,7.447999954223633 52.70000076293945,5.561999797821045 52.70000076293945,5.561999797821045 C52.70000076293945,5.561999797821045 54.02000045776367,3.677000045776367 54.02000045776367,3.677000045776367 C54.02000045776367,3.677000045776367 55.1510009765625,1.6030000448226929 55.1510009765625,1.6030000448226929 C55.1510009765625,1.6030000448226929 56.09400177001953,-0.47099998593330383 56.09400177001953,-0.47099998593330383 C56.09400177001953,-0.47099998593330383 57.0369987487793,-2.5450000762939453 57.0369987487793,-2.5450000762939453 C57.0369987487793,-2.5450000762939453 57.79100036621094,-4.61899995803833 57.79100036621094,-4.61899995803833 C57.79100036621094,-4.61899995803833 54.39699935913086,7.258999824523926 54.39699935913086,7.258999824523926 C54.39699935913086,7.258999824523926 53.643001556396484,9.333000183105469 53.643001556396484,9.333000183105469 C53.643001556396484,9.333000183105469 52.70000076293945,11.406999588012695 52.70000076293945,11.406999588012695 C52.70000076293945,11.406999588012695 51.75699996948242,13.480999946594238 51.75699996948242,13.480999946594238 C51.75699996948242,13.480999946594238 50.4370002746582,15.366999626159668 50.4370002746582,15.366999626159668 C50.4370002746582,15.366999626159668 49.305999755859375,17.44099998474121 49.305999755859375,17.44099998474121 C49.305999755859375,17.44099998474121 47.79800033569336,19.326000213623047 47.79800033569336,19.326000213623047 C47.79800033569336,19.326000213623047 46.28900146484375,21.023000717163086 46.28900146484375,21.023000717163086 C46.28900146484375,21.023000717163086 44.78099822998047,22.719999313354492 44.78099822998047,22.719999313354492 C44.78099822998047,22.719999313354492 42.89500045776367,24.41699981689453 42.89500045776367,24.41699981689453 C42.89500045776367,24.41699981689453 41.198001861572266,25.926000595092773 41.198001861572266,25.926000595092773 C41.198001861572266,25.926000595092773 39.124000549316406,27.43400001525879 39.124000549316406,27.43400001525879 C39.124000549316406,27.43400001525879 37.04999923706055,28.94300079345703 37.04999923706055,28.94300079345703 C37.04999923706055,28.94300079345703 34.97600173950195,30.261999130249023 34.97600173950195,30.261999130249023 C34.97600173950195,30.261999130249023 32.7140007019043,31.393999099731445 32.7140007019043,31.393999099731445 C32.7140007019043,31.393999099731445 30.261999130249023,32.525001525878906 30.261999130249023,32.525001525878906 C30.261999130249023,32.525001525878906 27.81100082397461,33.65599822998047 27.81100082397461,33.65599822998047 C27.81100082397461,33.65599822998047 25.360000610351562,34.5989990234375 25.360000610351562,34.5989990234375 C25.360000610351562,34.5989990234375 22.719999313354492,35.35300064086914 22.719999313354492,35.35300064086914 C22.719999313354492,35.35300064086914 20.08099937438965,36.106998443603516 20.08099937438965,36.106998443603516 C20.08099937438965,36.106998443603516 17.25200080871582,36.67300033569336 17.25200080871582,36.67300033569336 C17.25200080871582,36.67300033569336 14.423999786376953,37.23899841308594 14.423999786376953,37.23899841308594 C14.423999786376953,37.23899841308594 11.595999717712402,37.426998138427734 11.595999717712402,37.426998138427734 C11.595999717712402,37.426998138427734 8.767999649047852,37.80400085449219 8.767999649047852,37.80400085449219 C8.767999649047852,37.80400085449219 6.127999782562256,37.80400085449219 6.127999782562256,37.80400085449219 C6.127999782562256,37.80400085449219 3.299999952316284,37.80400085449219 3.299999952316284,37.80400085449219 C3.299999952316284,37.80400085449219 0.47099998593330383,37.61600112915039 0.47099998593330383,37.61600112915039 C0.47099998593330383,37.61600112915039 -2.3570001125335693,37.426998138427734 -2.3570001125335693,37.426998138427734 C-2.3570001125335693,37.426998138427734 -5.184999942779541,37.04999923706055 -5.184999942779541,37.04999923706055 C-5.184999942779541,37.04999923706055 -7.824999809265137,36.48500061035156 -7.824999809265137,36.48500061035156 C-7.824999809265137,36.48500061035156 -10.652999877929688,35.91899871826172 -10.652999877929688,35.91899871826172 C-10.652999877929688,35.91899871826172 -13.293000221252441,35.35300064086914 -13.293000221252441,35.35300064086914 C-13.293000221252441,35.35300064086914 -15.932999610900879,34.40999984741211 -15.932999610900879,34.40999984741211 C-15.932999610900879,34.40999984741211 -18.57200050354004,33.65599822998047 -18.57200050354004,33.65599822998047 C-18.57200050354004,33.65599822998047 -21.211999893188477,32.525001525878906 -21.211999893188477,32.525001525878906 C-21.211999893188477,32.525001525878906 -23.663000106811523,31.393999099731445 -23.663000106811523,31.393999099731445 C-23.663000106811523,31.393999099731445 -26.11400032043457,30.261999130249023 -26.11400032043457,30.261999130249023 C-26.11400032043457,30.261999130249023 -28.565000534057617,28.94300079345703 -28.565000534057617,28.94300079345703 C-28.565000534057617,28.94300079345703 -31.017000198364258,27.62299919128418 -31.017000198364258,27.62299919128418 C-31.017000198364258,27.62299919128418 -33.27899932861328,26.11400032043457 -33.27899932861328,26.11400032043457 C-33.27899932861328,26.11400032043457 -35.54199981689453,24.606000900268555 -35.54199981689453,24.606000900268555 C-35.54199981689453,24.606000900268555 -37.61600112915039,22.909000396728516 -37.61600112915039,22.909000396728516 C-37.61600112915039,22.909000396728516 -39.689998626708984,21.211999893188477 -39.689998626708984,21.211999893188477 C-39.689998626708984,21.211999893188477 -41.763999938964844,19.514999389648438 -41.763999938964844,19.514999389648438 C-41.763999938964844,19.514999389648438 -43.64899826049805,17.628999710083008 -43.64899826049805,17.628999710083008 C-43.64899826049805,17.628999710083008 -45.34600067138672,15.555000305175781 -45.34600067138672,15.555000305175781 C-45.34600067138672,15.555000305175781 -47.042999267578125,13.480999946594238 -47.042999267578125,13.480999946594238 C-47.042999267578125,13.480999946594238 -48.7400016784668,11.406999588012695 -48.7400016784668,11.406999588012695 C-48.7400016784668,11.406999588012695 -50.060001373291016,9.333000183105469 -50.060001373291016,9.333000183105469 C-50.060001373291016,9.333000183105469 -51.569000244140625,7.071000099182129 -51.569000244140625,7.071000099182129 C-51.569000244140625,7.071000099182129 -52.70000076293945,4.61899995803833 -52.70000076293945,4.61899995803833 C-52.70000076293945,4.61899995803833 -53.83100128173828,2.3570001125335693 -53.83100128173828,2.3570001125335693 C-53.83100128173828,2.3570001125335693 -54.96200180053711,-0.09399999678134918 -54.96200180053711,-0.09399999678134918 C-54.96200180053711,-0.09399999678134918 -55.71699905395508,-2.5450000762939453 -55.71699905395508,-2.5450000762939453 C-55.71699905395508,-2.5450000762939453 -56.47100067138672,-4.997000217437744 -56.47100067138672,-4.997000217437744 C-56.47100067138672,-4.997000217437744 -57.0369987487793,-7.258999824523926 -57.0369987487793,-7.258999824523926 C-57.0369987487793,-7.258999824523926 -57.41400146484375,-9.710000038146973 -57.41400146484375,-9.710000038146973 C-57.41400146484375,-9.710000038146973 -57.60200119018555,-12.161999702453613 -57.60200119018555,-12.161999702453613 C-57.60200119018555,-12.161999702453613 -57.79100036621094,-14.423999786376953 -57.79100036621094,-14.423999786376953 C-57.79100036621094,-14.423999786376953 -57.79100036621094,-16.875 -57.79100036621094,-16.875 C-57.79100036621094,-16.875 -57.60200119018555,-19.13800048828125 -57.60200119018555,-19.13800048828125 C-57.60200119018555,-19.13800048828125 -57.224998474121094,-21.399999618530273 -57.224998474121094,-21.399999618530273 C-57.224998474121094,-21.399999618530273 -56.847999572753906,-23.663000106811523 -56.847999572753906,-23.663000106811523 C-56.847999572753906,-23.663000106811523 -56.28200149536133,-25.926000595092773 -56.28200149536133,-25.926000595092773z"></path><path stroke-linecap="butt" stroke-linejoin="bevel" fill-opacity="0" stroke="rgb(0,0,0)" stroke-opacity="1" stroke-width="4" d=" M-56.28200149536133,-25.926000595092773 C-56.28200149536133,-25.926000595092773 -52.88800048828125,-37.80400085449219 -52.88800048828125,-37.80400085449219 C-52.88800048828125,-37.80400085449219 -53.45399856567383,-35.54199981689453 -53.45399856567383,-35.54199981689453 C-53.45399856567383,-35.54199981689453 -53.83100128173828,-33.27899932861328 -53.83100128173828,-33.27899932861328 C-53.83100128173828,-33.27899932861328 -54.20800018310547,-31.017000198364258 -54.20800018310547,-31.017000198364258 C-54.20800018310547,-31.017000198364258 -54.39699935913086,-28.565000534057617 -54.39699935913086,-28.565000534057617 C-54.39699935913086,-28.565000534057617 -54.39699935913086,-26.30299949645996 -54.39699935913086,-26.30299949645996 C-54.39699935913086,-26.30299949645996 -54.20800018310547,-23.851999282836914 -54.20800018310547,-23.851999282836914 C-54.20800018310547,-23.851999282836914 -54.02000045776367,-21.589000701904297 -54.02000045776367,-21.589000701904297 C-54.02000045776367,-21.589000701904297 -53.45399856567383,-19.13800048828125 -53.45399856567383,-19.13800048828125 C-53.45399856567383,-19.13800048828125 -53.07699966430664,-16.687000274658203 -53.07699966430664,-16.687000274658203 C-53.07699966430664,-16.687000274658203 -52.323001861572266,-14.423999786376953 -52.323001861572266,-14.423999786376953 C-52.323001861572266,-14.423999786376953 -51.380001068115234,-11.972999572753906 -51.380001068115234,-11.972999572753906 C-51.380001068115234,-11.972999572753906 -50.4370002746582,-9.522000312805176 -50.4370002746582,-9.522000312805176 C-50.4370002746582,-9.522000312805176 -49.305999755859375,-7.071000099182129 -49.305999755859375,-7.071000099182129 C-49.305999755859375,-7.071000099182129 -48.17499923706055,-4.808000087738037 -48.17499923706055,-4.808000087738037 C-48.17499923706055,-4.808000087738037 -46.66600036621094,-2.5450000762939453 -46.66600036621094,-2.5450000762939453 C-46.66600036621094,-2.5450000762939453 -45.15800094604492,-0.47099998593330383 -45.15800094604492,-0.47099998593330383 C-45.15800094604492,-0.47099998593330383 -43.64899826049805,1.6030000448226929 -43.64899826049805,1.6030000448226929 C-43.64899826049805,1.6030000448226929 -41.95199966430664,3.677000045776367 -41.95199966430664,3.677000045776367 C-41.95199966430664,3.677000045776367 -40.25600051879883,5.750999927520752 -40.25600051879883,5.750999927520752 C-40.25600051879883,5.750999927520752 -38.180999755859375,7.636000156402588 -38.180999755859375,7.636000156402588 C-38.180999755859375,7.636000156402588 -36.29600143432617,9.333000183105469 -36.29600143432617,9.333000183105469 C-36.29600143432617,9.333000183105469 -34.22200012207031,11.029999732971191 -34.22200012207031,11.029999732971191 C-34.22200012207031,11.029999732971191 -32.14799880981445,12.72700023651123 -32.14799880981445,12.72700023651123 C-32.14799880981445,12.72700023651123 -29.885000228881836,14.236000061035156 -29.885000228881836,14.236000061035156 C-29.885000228881836,14.236000061035156 -27.62299919128418,15.744000434875488 -27.62299919128418,15.744000434875488 C-27.62299919128418,15.744000434875488 -25.17099952697754,17.06399917602539 -25.17099952697754,17.06399917602539 C-25.17099952697754,17.06399917602539 -22.719999313354492,18.384000778198242 -22.719999313354492,18.384000778198242 C-22.719999313354492,18.384000778198242 -20.268999099731445,19.70400047302246 -20.268999099731445,19.70400047302246 C-20.268999099731445,19.70400047302246 -17.81800079345703,20.645999908447266 -17.81800079345703,20.645999908447266 C-17.81800079345703,20.645999908447266 -15.178000450134277,21.777999877929688 -15.178000450134277,21.777999877929688 C-15.178000450134277,21.777999877929688 -12.538999557495117,22.531999588012695 -12.538999557495117,22.531999588012695 C-12.538999557495117,22.531999588012695 -9.89900016784668,23.475000381469727 -9.89900016784668,23.475000381469727 C-9.89900016784668,23.475000381469727 -7.258999824523926,24.040000915527344 -7.258999824523926,24.040000915527344 C-7.258999824523926,24.040000915527344 -4.431000232696533,24.606000900268555 -4.431000232696533,24.606000900268555 C-4.431000232696533,24.606000900268555 -1.7910000085830688,25.17099952697754 -1.7910000085830688,25.17099952697754 C-1.7910000085830688,25.17099952697754 1.0369999408721924,25.548999786376953 1.0369999408721924,25.548999786376953 C1.0369999408721924,25.548999786376953 3.865000009536743,25.73699951171875 3.865000009536743,25.73699951171875 C3.865000009536743,25.73699951171875 6.693999767303467,25.926000595092773 6.693999767303467,25.926000595092773 C6.693999767303467,25.926000595092773 9.522000312805176,25.926000595092773 9.522000312805176,25.926000595092773 C9.522000312805176,25.926000595092773 12.350000381469727,25.926000595092773 12.350000381469727,25.926000595092773 C12.350000381469727,25.926000595092773 14.989999771118164,25.548999786376953 14.989999771118164,25.548999786376953 C14.989999771118164,25.548999786376953 17.81800079345703,25.360000610351562 17.81800079345703,25.360000610351562 C17.81800079345703,25.360000610351562 20.645999908447266,24.79400062561035 20.645999908447266,24.79400062561035 C20.645999908447266,24.79400062561035 23.475000381469727,24.229000091552734 23.475000381469727,24.229000091552734 C23.475000381469727,24.229000091552734 26.11400032043457,23.475000381469727 26.11400032043457,23.475000381469727 C26.11400032043457,23.475000381469727 28.753999710083008,22.719999313354492 28.753999710083008,22.719999313354492 C28.753999710083008,22.719999313354492 31.393999099731445,21.777999877929688 31.393999099731445,21.777999877929688 C31.393999099731445,21.777999877929688 33.845001220703125,20.645999908447266 33.845001220703125,20.645999908447266 C33.845001220703125,20.645999908447266 36.106998443603516,19.514999389648438 36.106998443603516,19.514999389648438 C36.106998443603516,19.514999389648438 38.369998931884766,18.384000778198242 38.369998931884766,18.384000778198242 C38.369998931884766,18.384000778198242 40.444000244140625,17.06399917602539 40.444000244140625,17.06399917602539 C40.444000244140625,17.06399917602539 42.518001556396484,15.555000305175781 42.518001556396484,15.555000305175781 C42.518001556396484,15.555000305175781 44.59199905395508,14.04699993133545 44.59199905395508,14.04699993133545 C44.59199905395508,14.04699993133545 46.28900146484375,12.538999557495117 46.28900146484375,12.538999557495117 C46.28900146484375,12.538999557495117 48.17499923706055,10.842000007629395 48.17499923706055,10.842000007629395 C48.17499923706055,10.842000007629395 49.68299865722656,9.145000457763672 49.68299865722656,9.145000457763672 C49.68299865722656,9.145000457763672 51.191001892089844,7.447999954223633 51.191001892089844,7.447999954223633 C51.191001892089844,7.447999954223633 52.70000076293945,5.561999797821045 52.70000076293945,5.561999797821045 C52.70000076293945,5.561999797821045 54.02000045776367,3.677000045776367 54.02000045776367,3.677000045776367 C54.02000045776367,3.677000045776367 55.1510009765625,1.6030000448226929 55.1510009765625,1.6030000448226929 C55.1510009765625,1.6030000448226929 56.09400177001953,-0.47099998593330383 56.09400177001953,-0.47099998593330383 C56.09400177001953,-0.47099998593330383 57.0369987487793,-2.5450000762939453 57.0369987487793,-2.5450000762939453 C57.0369987487793,-2.5450000762939453 57.79100036621094,-4.61899995803833 57.79100036621094,-4.61899995803833 C57.79100036621094,-4.61899995803833 54.39699935913086,7.258999824523926 54.39699935913086,7.258999824523926 C54.39699935913086,7.258999824523926 53.643001556396484,9.333000183105469 53.643001556396484,9.333000183105469 C53.643001556396484,9.333000183105469 52.70000076293945,11.406999588012695 52.70000076293945,11.406999588012695 C52.70000076293945,11.406999588012695 51.75699996948242,13.480999946594238 51.75699996948242,13.480999946594238 C51.75699996948242,13.480999946594238 50.4370002746582,15.366999626159668 50.4370002746582,15.366999626159668 C50.4370002746582,15.366999626159668 49.305999755859375,17.44099998474121 49.305999755859375,17.44099998474121 C49.305999755859375,17.44099998474121 47.79800033569336,19.326000213623047 47.79800033569336,19.326000213623047 C47.79800033569336,19.326000213623047 46.28900146484375,21.023000717163086 46.28900146484375,21.023000717163086 C46.28900146484375,21.023000717163086 44.78099822998047,22.719999313354492 44.78099822998047,22.719999313354492 C44.78099822998047,22.719999313354492 42.89500045776367,24.41699981689453 42.89500045776367,24.41699981689453 C42.89500045776367,24.41699981689453 41.198001861572266,25.926000595092773 41.198001861572266,25.926000595092773 C41.198001861572266,25.926000595092773 39.124000549316406,27.43400001525879 39.124000549316406,27.43400001525879 C39.124000549316406,27.43400001525879 37.04999923706055,28.94300079345703 37.04999923706055,28.94300079345703 C37.04999923706055,28.94300079345703 34.97600173950195,30.261999130249023 34.97600173950195,30.261999130249023 C34.97600173950195,30.261999130249023 32.7140007019043,31.393999099731445 32.7140007019043,31.393999099731445 C32.7140007019043,31.393999099731445 30.261999130249023,32.525001525878906 30.261999130249023,32.525001525878906 C30.261999130249023,32.525001525878906 27.81100082397461,33.65599822998047 27.81100082397461,33.65599822998047 C27.81100082397461,33.65599822998047 25.360000610351562,34.5989990234375 25.360000610351562,34.5989990234375 C25.360000610351562,34.5989990234375 22.719999313354492,35.35300064086914 22.719999313354492,35.35300064086914 C22.719999313354492,35.35300064086914 20.08099937438965,36.106998443603516 20.08099937438965,36.106998443603516 C20.08099937438965,36.106998443603516 17.25200080871582,36.67300033569336 17.25200080871582,36.67300033569336 C17.25200080871582,36.67300033569336 14.423999786376953,37.23899841308594 14.423999786376953,37.23899841308594 C14.423999786376953,37.23899841308594 11.595999717712402,37.426998138427734 11.595999717712402,37.426998138427734 C11.595999717712402,37.426998138427734 8.767999649047852,37.80400085449219 8.767999649047852,37.80400085449219 C8.767999649047852,37.80400085449219 6.127999782562256,37.80400085449219 6.127999782562256,37.80400085449219 C6.127999782562256,37.80400085449219 3.299999952316284,37.80400085449219 3.299999952316284,37.80400085449219 C3.299999952316284,37.80400085449219 0.47099998593330383,37.61600112915039 0.47099998593330383,37.61600112915039 C0.47099998593330383,37.61600112915039 -2.3570001125335693,37.426998138427734 -2.3570001125335693,37.426998138427734 C-2.3570001125335693,37.426998138427734 -5.184999942779541,37.04999923706055 -5.184999942779541,37.04999923706055 C-5.184999942779541,37.04999923706055 -7.824999809265137,36.48500061035156 -7.824999809265137,36.48500061035156 C-7.824999809265137,36.48500061035156 -10.652999877929688,35.91899871826172 -10.652999877929688,35.91899871826172 C-10.652999877929688,35.91899871826172 -13.293000221252441,35.35300064086914 -13.293000221252441,35.35300064086914 C-13.293000221252441,35.35300064086914 -15.932999610900879,34.40999984741211 -15.932999610900879,34.40999984741211 C-15.932999610900879,34.40999984741211 -18.57200050354004,33.65599822998047 -18.57200050354004,33.65599822998047 C-18.57200050354004,33.65599822998047 -21.211999893188477,32.525001525878906 -21.211999893188477,32.525001525878906 C-21.211999893188477,32.525001525878906 -23.663000106811523,31.393999099731445 -23.663000106811523,31.393999099731445 C-23.663000106811523,31.393999099731445 -26.11400032043457,30.261999130249023 -26.11400032043457,30.261999130249023 C-26.11400032043457,30.261999130249023 -28.565000534057617,28.94300079345703 -28.565000534057617,28.94300079345703 C-28.565000534057617,28.94300079345703 -31.017000198364258,27.62299919128418 -31.017000198364258,27.62299919128418 C-31.017000198364258,27.62299919128418 -33.27899932861328,26.11400032043457 -33.27899932861328,26.11400032043457 C-33.27899932861328,26.11400032043457 -35.54199981689453,24.606000900268555 -35.54199981689453,24.606000900268555 C-35.54199981689453,24.606000900268555 -37.61600112915039,22.909000396728516 -37.61600112915039,22.909000396728516 C-37.61600112915039,22.909000396728516 -39.689998626708984,21.211999893188477 -39.689998626708984,21.211999893188477 C-39.689998626708984,21.211999893188477 -41.763999938964844,19.514999389648438 -41.763999938964844,19.514999389648438 C-41.763999938964844,19.514999389648438 -43.64899826049805,17.628999710083008 -43.64899826049805,17.628999710083008 C-43.64899826049805,17.628999710083008 -45.34600067138672,15.555000305175781 -45.34600067138672,15.555000305175781 C-45.34600067138672,15.555000305175781 -47.042999267578125,13.480999946594238 -47.042999267578125,13.480999946594238 C-47.042999267578125,13.480999946594238 -48.7400016784668,11.406999588012695 -48.7400016784668,11.406999588012695 C-48.7400016784668,11.406999588012695 -50.060001373291016,9.333000183105469 -50.060001373291016,9.333000183105469 C-50.060001373291016,9.333000183105469 -51.569000244140625,7.071000099182129 -51.569000244140625,7.071000099182129 C-51.569000244140625,7.071000099182129 -52.70000076293945,4.61899995803833 -52.70000076293945,4.61899995803833 C-52.70000076293945,4.61899995803833 -53.83100128173828,2.3570001125335693 -53.83100128173828,2.3570001125335693 C-53.83100128173828,2.3570001125335693 -54.96200180053711,-0.09399999678134918 -54.96200180053711,-0.09399999678134918 C-54.96200180053711,-0.09399999678134918 -55.71699905395508,-2.5450000762939453 -55.71699905395508,-2.5450000762939453 C-55.71699905395508,-2.5450000762939453 -56.47100067138672,-4.997000217437744 -56.47100067138672,-4.997000217437744 C-56.47100067138672,-4.997000217437744 -57.0369987487793,-7.258999824523926 -57.0369987487793,-7.258999824523926 C-57.0369987487793,-7.258999824523926 -57.41400146484375,-9.710000038146973 -57.41400146484375,-9.710000038146973 C-57.41400146484375,-9.710000038146973 -57.60200119018555,-12.161999702453613 -57.60200119018555,-12.161999702453613 C-57.60200119018555,-12.161999702453613 -57.79100036621094,-14.423999786376953 -57.79100036621094,-14.423999786376953 C-57.79100036621094,-14.423999786376953 -57.79100036621094,-16.875 -57.79100036621094,-16.875 C-57.79100036621094,-16.875 -57.60200119018555,-19.13800048828125 -57.60200119018555,-19.13800048828125 C-57.60200119018555,-19.13800048828125 -57.224998474121094,-21.399999618530273 -57.224998474121094,-21.399999618530273 C-57.224998474121094,-21.399999618530273 -56.847999572753906,-23.663000106811523 -56.847999572753906,-23.663000106811523 C-56.847999572753906,-23.663000106811523 -56.28200149536133,-25.926000595092773 -56.28200149536133,-25.926000595092773z"></path></g></g><g transform="matrix(1,0,0,1,346.9010009765625,235.7254638671875)" opacity="1" style="display: block;"><g opacity="1" transform="matrix(1,0,0,1,0,0)"><path fill="rgb(251,73,3)" fill-opacity="1" d=" M-53.26599884033203,12.760000228881836 C-64.76799774169922,-12.883000373840332 -50.060001373291016,-39.46900177001953 -20.645999908447266,-46.44499969482422 C8.956000328063965,-53.61000061035156 41.952999114990234,-38.33700180053711 53.26599884033203,-12.694000244140625 C64.76799774169922,12.949000358581543 50.060001373291016,39.534000396728516 20.645999908447266,46.5099983215332 C-8.767999649047852,53.486000061035156 -41.952999114990234,38.40299987792969 -53.26599884033203,12.760000228881836z"></path><path stroke-linecap="butt" stroke-linejoin="miter" fill-opacity="0" stroke-miterlimit="4" stroke="rgb(0,0,0)" stroke-opacity="1" stroke-width="4" d=" M-53.26599884033203,12.760000228881836 C-64.76799774169922,-12.883000373840332 -50.060001373291016,-39.46900177001953 -20.645999908447266,-46.44499969482422 C8.956000328063965,-53.61000061035156 41.952999114990234,-38.33700180053711 53.26599884033203,-12.694000244140625 C64.76799774169922,12.949000358581543 50.060001373291016,39.534000396728516 20.645999908447266,46.5099983215332 C-8.767999649047852,53.486000061035156 -41.952999114990234,38.40299987792969 -53.26599884033203,12.760000228881836z"></path></g></g><g transform="matrix(1,0,0,1,348.3290100097656,234.35946655273438)" opacity="1" style="display: block;"><g opacity="1" transform="matrix(1,0,0,1,0,0)"><path fill="rgb(255,255,255)" fill-opacity="1" d=" M6.019999980926514,-2.2769999504089355 C6.019999980926514,-2.2769999504089355 8.848999977111816,-12.081999778747559 8.848999977111816,-12.081999778747559 C10.545999526977539,-18.115999221801758 1.1180000305175781,-20.756000518798828 -0.38999998569488525,-15.664999961853027 C-0.38999998569488525,-15.664999961853027 -3.5959999561309814,-5.482999801635742 -3.5959999561309814,-5.482999801635742 C-3.5959999561309814,-5.482999801635742 -16.41699981689453,-9.630999565124512 -16.41699981689453,-9.630999565124512 C-22.827999114990234,-11.704999923706055 -25.6560001373291,-3.2200000286102295 -19.81100082397461,-1.5230000019073486 C-19.81100082397461,-1.5230000019073486 -6.046999931335449,2.625 -6.046999931335449,2.625 C-6.046999931335449,2.625 -8.687000274658203,11.29800033569336 -8.687000274658203,11.29800033569336 C-9.440999984741211,12.805999755859375 -9.440999984741211,16.388999938964844 -5.670000076293945,17.89699935913086 C-2.4649999141693115,19.027999877929688 0.36399999260902405,18.086000442504883 1.3070000410079956,15.069000244140625 C1.3070000410079956,15.069000244140625 3.946000099182129,5.829999923706055 3.946000099182129,5.829999923706055 C3.946000099182129,5.829999923706055 17.145000457763672,9.60099983215332 17.145000457763672,9.60099983215332 C23.179000854492188,11.29800033569336 25.25200080871582,3.75600004196167 19.972999572753906,2.059000015258789 C19.972999572753906,2.059000015258789 6.019999980926514,-2.2769999504089355 6.019999980926514,-2.2769999504089355z"></path><path stroke-linecap="butt" stroke-linejoin="miter" fill-opacity="0" stroke-miterlimit="4" stroke="rgb(0,0,0)" stroke-opacity="1" stroke-width="4" d=" M6.019999980926514,-2.2769999504089355 C6.019999980926514,-2.2769999504089355 8.848999977111816,-12.081999778747559 8.848999977111816,-12.081999778747559 C10.545999526977539,-18.115999221801758 1.1180000305175781,-20.756000518798828 -0.38999998569488525,-15.664999961853027 C-0.38999998569488525,-15.664999961853027 -3.5959999561309814,-5.482999801635742 -3.5959999561309814,-5.482999801635742 C-3.5959999561309814,-5.482999801635742 -16.41699981689453,-9.630999565124512 -16.41699981689453,-9.630999565124512 C-22.827999114990234,-11.704999923706055 -25.6560001373291,-3.2200000286102295 -19.81100082397461,-1.5230000019073486 C-19.81100082397461,-1.5230000019073486 -6.046999931335449,2.625 -6.046999931335449,2.625 C-6.046999931335449,2.625 -8.687000274658203,11.29800033569336 -8.687000274658203,11.29800033569336 C-9.440999984741211,12.805999755859375 -9.440999984741211,16.388999938964844 -5.670000076293945,17.89699935913086 C-2.4649999141693115,19.027999877929688 0.36399999260902405,18.086000442504883 1.3070000410079956,15.069000244140625 C1.3070000410079956,15.069000244140625 3.946000099182129,5.829999923706055 3.946000099182129,5.829999923706055 C3.946000099182129,5.829999923706055 17.145000457763672,9.60099983215332 17.145000457763672,9.60099983215332 C23.179000854492188,11.29800033569336 25.25200080871582,3.75600004196167 19.972999572753906,2.059000015258789 C19.972999572753906,2.059000015258789 6.019999980926514,-2.2769999504089355 6.019999980926514,-2.2769999504089355z"></path></g></g></g></svg>