<svg xmlns="http://www.w3.org/2000/svg" xmlns:xlink="http://www.w3.org/1999/xlink" viewBox="0 0 500 500" width="500" height="500" preserveAspectRatio="xMidYMid meet" style="width: 100%; height: 100%; transform: translate3d(0px, 0px, 0px); content-visibility: visible;"><defs><clipPath id="__lottie_element_943"><rect width="500" height="500" x="0" y="0"></rect></clipPath></defs><g clip-path="url(#__lottie_element_943)"><g transform="matrix(0.9996209740638733,0.027530014514923096,-0.027530014514923096,0.9996209740638733,257.1178283691406,265.7094421386719)" opacity="1" style="display: block;"><g opacity="1" transform="matrix(1,0,0,1,-60.757999420166016,4.809000015258789)"><path fill="rgb(247,247,247)" fill-opacity="1" d=" M26.490999221801758,29.31999969482422 C26.490999221801758,29.31999969482422 30.073999404907227,10.46500015258789 30.073999404907227,10.46500015258789 C30.073999404907227,10.46500015258789 -26.490999221801758,-29.31999969482422 -26.490999221801758,-29.31999969482422 C-26.490999221801758,-29.31999969482422 -30.073999404907227,-10.46500015258789 -30.073999404907227,-10.46500015258789 C-30.073999404907227,-10.46500015258789 26.490999221801758,29.31999969482422 26.490999221801758,29.31999969482422z"></path><path stroke-linecap="round" stroke-linejoin="round" fill-opacity="0" stroke="rgb(0,0,0)" stroke-opacity="1" stroke-width="4" d=" M26.490999221801758,29.31999969482422 C26.490999221801758,29.31999969482422 30.073999404907227,10.46500015258789 30.073999404907227,10.46500015258789 C30.073999404907227,10.46500015258789 -26.490999221801758,-29.31999969482422 -26.490999221801758,-29.31999969482422 C-26.490999221801758,-29.31999969482422 -30.073999404907227,-10.46500015258789 -30.073999404907227,-10.46500015258789 C-30.073999404907227,-10.46500015258789 26.490999221801758,29.31999969482422 26.490999221801758,29.31999969482422z"></path></g><g opacity="1" transform="matrix(1,0,0,1,-44.2599983215332,58.827999114990234)"><path fill="rgb(247,247,247)" fill-opacity="1" d=" M-23.003000259399414,-26.208999633789062 C-23.003000259399414,-26.208999633789062 -19.608999252319336,-45.06399917602539 -19.608999252319336,-45.06399917602539 C-19.608999252319336,-45.06399917602539 23.003000259399414,26.39699935913086 23.003000259399414,26.39699935913086 C23.003000259399414,26.39699935913086 19.608999252319336,45.06399917602539 19.608999252319336,45.06399917602539 C19.608999252319336,45.06399917602539 -23.003000259399414,-26.208999633789062 -23.003000259399414,-26.208999633789062z"></path><path stroke-linecap="round" stroke-linejoin="round" fill-opacity="0" stroke="rgb(0,0,0)" stroke-opacity="1" stroke-width="4" d=" M-23.003000259399414,-26.208999633789062 C-23.003000259399414,-26.208999633789062 -19.608999252319336,-45.06399917602539 -19.608999252319336,-45.06399917602539 C-19.608999252319336,-45.06399917602539 23.003000259399414,26.39699935913086 23.003000259399414,26.39699935913086 C23.003000259399414,26.39699935913086 19.608999252319336,45.06399917602539 19.608999252319336,45.06399917602539 C19.608999252319336,45.06399917602539 -23.003000259399414,-26.208999633789062 -23.003000259399414,-26.208999633789062z"></path></g><g opacity="1" transform="matrix(1,0,0,1,54.16299819946289,8.954999923706055)"><path fill="rgb(247,247,247)" fill-opacity="1" d=" M-78.81400299072266,94.93499755859375 C-78.81400299072266,94.93499755859375 -75.41999816894531,76.26899719238281 -75.41999816894531,76.26899719238281 C-75.41999816894531,76.26899719238281 74.47699737548828,-87.95899963378906 74.47699737548828,-87.95899963378906 C76.17400360107422,-90.03299713134766 77.87100219726562,-92.2959976196289 78.43699645996094,-93.80400085449219 C78.43699645996094,-93.80400085449219 78.81400299072266,-94.93499755859375 78.81400299072266,-94.93499755859375 C78.81400299072266,-94.93499755859375 75.60900115966797,-76.83399963378906 75.60900115966797,-76.83399963378906 C75.23200225830078,-74.57099914550781 73.34700012207031,-71.93199920654297 71.46099853515625,-69.85800170898438 C71.46099853515625,-69.85800170898438 71.46099853515625,-69.66899871826172 71.46099853515625,-69.66899871826172 C71.46099853515625,-69.66899871826172 70.3290023803711,-68.3499984741211 70.3290023803711,-68.3499984741211 C69.57499694824219,-67.59600067138672 69.01000213623047,-67.02999877929688 68.44400024414062,-66.46399688720703 C68.44400024414062,-66.46399688720703 68.44400024414062,-66.2760009765625 68.44400024414062,-66.2760009765625 C68.44400024414062,-66.2760009765625 68.25499725341797,-66.2760009765625 68.25499725341797,-66.2760009765625 C68.25499725341797,-66.2760009765625 -78.81400299072266,94.93499755859375 -78.81400299072266,94.93499755859375z"></path><path stroke-linecap="round" stroke-linejoin="round" fill-opacity="0" stroke="rgb(0,0,0)" stroke-opacity="1" stroke-width="4" d=" M-78.81400299072266,94.93499755859375 C-78.81400299072266,94.93499755859375 -75.41999816894531,76.26899719238281 -75.41999816894531,76.26899719238281 C-75.41999816894531,76.26899719238281 74.47699737548828,-87.95899963378906 74.47699737548828,-87.95899963378906 C76.17400360107422,-90.03299713134766 77.87100219726562,-92.2959976196289 78.43699645996094,-93.80400085449219 C78.43699645996094,-93.80400085449219 78.81400299072266,-94.93499755859375 78.81400299072266,-94.93499755859375 C78.81400299072266,-94.93499755859375 75.60900115966797,-76.83399963378906 75.60900115966797,-76.83399963378906 C75.23200225830078,-74.57099914550781 73.34700012207031,-71.93199920654297 71.46099853515625,-69.85800170898438 C71.46099853515625,-69.85800170898438 71.46099853515625,-69.66899871826172 71.46099853515625,-69.66899871826172 C71.46099853515625,-69.66899871826172 70.3290023803711,-68.3499984741211 70.3290023803711,-68.3499984741211 C69.57499694824219,-67.59600067138672 69.01000213623047,-67.02999877929688 68.44400024414062,-66.46399688720703 C68.44400024414062,-66.46399688720703 68.44400024414062,-66.2760009765625 68.44400024414062,-66.2760009765625 C68.44400024414062,-66.2760009765625 68.25499725341797,-66.2760009765625 68.25499725341797,-66.2760009765625 C68.25499725341797,-66.2760009765625 -78.81400299072266,94.93499755859375 -78.81400299072266,94.93499755859375z"></path></g><g opacity="1" transform="matrix(1,0,0,1,-110.25199890136719,-54.680999755859375)"><path fill="rgb(247,247,247)" fill-opacity="1" d=" M-23.003000259399414,-30.35700035095215 C-23.003000259399414,-30.35700035095215 -19.42099952697754,-49.02299880981445 -19.42099952697754,-49.02299880981445 C-19.42099952697754,-49.02299880981445 23.003000259399414,30.167999267578125 23.003000259399414,30.167999267578125 C23.003000259399414,30.167999267578125 19.42099952697754,49.02299880981445 19.42099952697754,49.02299880981445 C19.42099952697754,49.02299880981445 -23.003000259399414,-30.35700035095215 -23.003000259399414,-30.35700035095215z"></path><path stroke-linecap="round" stroke-linejoin="round" fill-opacity="0" stroke="rgb(0,0,0)" stroke-opacity="1" stroke-width="4" d=" M-23.003000259399414,-30.35700035095215 C-23.003000259399414,-30.35700035095215 -19.42099952697754,-49.02299880981445 -19.42099952697754,-49.02299880981445 C-19.42099952697754,-49.02299880981445 23.003000259399414,30.167999267578125 23.003000259399414,30.167999267578125 C23.003000259399414,30.167999267578125 19.42099952697754,49.02299880981445 19.42099952697754,49.02299880981445 C19.42099952697754,49.02299880981445 -23.003000259399414,-30.35700035095215 -23.003000259399414,-30.35700035095215z"></path></g><g opacity="1" transform="matrix(1,0,0,1,-11.45300006866455,-21.409000396728516)"><path fill="rgb(0,0,0)" fill-opacity="1" d=" M-76.55000305175781,-4.800000190734863 C-76.55000305175781,-4.800000190734863 76.5530014038086,-39.30500030517578 76.5530014038086,-39.30500030517578 C76.5530014038086,-39.30500030517578 -22.24799919128418,30.836000442504883 -22.24799919128418,30.836000442504883 C29.979999542236328,62.1349983215332 -77.11599731445312,-3.2920000553131104 -76.55000305175781,-4.800000190734863z"></path><path stroke-linecap="round" stroke-linejoin="round" fill-opacity="0" stroke="rgb(0,0,0)" stroke-opacity="1" stroke-width="4" d=" M-76.55000305175781,-4.800000190734863 C-76.55000305175781,-4.800000190734863 76.5530014038086,-39.30500030517578 76.5530014038086,-39.30500030517578 C76.5530014038086,-39.30500030517578 -22.24799919128418,30.836000442504883 -22.24799919128418,30.836000442504883 C29.979999542236328,62.1349983215332 -77.11599731445312,-3.2920000553131104 -76.55000305175781,-4.800000190734863z"></path></g><g opacity="1" transform="matrix(1,0,0,1,7.5920000076293945,-37.5099983215332)"><path fill="rgb(204,204,204)" fill-opacity="1" d=" M-95.21800231933594,13.375 C-95.21800231933594,13.375 95.21800231933594,-42.05799865722656 95.21800231933594,-42.05799865722656 C95.21800231933594,-42.05799865722656 -53.36000061035156,42.03499984741211 -53.36000061035156,42.03499984741211 C-54.68000030517578,42.97800064086914 -95.21800231933594,14.883000373840332 -95.21800231933594,13.375z"></path><path stroke-linecap="round" stroke-linejoin="round" fill-opacity="0" stroke="rgb(0,0,0)" stroke-opacity="1" stroke-width="4" d=" M-95.21800231933594,13.375 C-95.21800231933594,13.375 95.21800231933594,-42.05799865722656 95.21800231933594,-42.05799865722656 C95.21800231933594,-42.05799865722656 -53.36000061035156,42.03499984741211 -53.36000061035156,42.03499984741211 C-54.68000030517578,42.97800064086914 -95.21800231933594,14.883000373840332 -95.21800231933594,13.375z"></path></g><g opacity="1" transform="matrix(1,0,0,1,1.8630000352859497,-9.38700008392334)"><path fill="rgb(247,247,247)" fill-opacity="1" d=" M-89.04000091552734,-14.517999649047852 C-89.04000091552734,-14.517999649047852 92.15699768066406,-66.55799865722656 92.15699768066406,-66.55799865722656 C92.15699768066406,-66.55799865722656 -65.66000366210938,23.003000259399414 -65.66000366210938,23.003000259399414 C-65.66000366210938,23.003000259399414 -23.04800033569336,94.46399688720703 -23.04800033569336,94.46399688720703 C-23.04800033569336,94.46399688720703 127.41500091552734,-70.3290023803711 127.41500091552734,-70.3290023803711 C134.2030029296875,-77.11699676513672 132.5070037841797,-85.03600311279297 121.947998046875,-85.79000091552734 C121.947998046875,-85.79000091552734 -131.46400451660156,-94.46399688720703 -131.46400451660156,-94.46399688720703 C-131.46400451660156,-94.46399688720703 -89.04000091552734,-14.517999649047852 -89.04000091552734,-14.517999649047852z"></path><path stroke-linecap="round" stroke-linejoin="round" fill-opacity="0" stroke="rgb(0,0,0)" stroke-opacity="1" stroke-width="4" d=" M-89.04000091552734,-14.517999649047852 C-89.04000091552734,-14.517999649047852 92.15699768066406,-66.55799865722656 92.15699768066406,-66.55799865722656 C92.15699768066406,-66.55799865722656 -65.66000366210938,23.003000259399414 -65.66000366210938,23.003000259399414 C-65.66000366210938,23.003000259399414 -23.04800033569336,94.46399688720703 -23.04800033569336,94.46399688720703 C-23.04800033569336,94.46399688720703 127.41500091552734,-70.3290023803711 127.41500091552734,-70.3290023803711 C134.2030029296875,-77.11699676513672 132.5070037841797,-85.03600311279297 121.947998046875,-85.79000091552734 C121.947998046875,-85.79000091552734 -131.46400451660156,-94.46399688720703 -131.46400451660156,-94.46399688720703 C-131.46400451660156,-94.46399688720703 -89.04000091552734,-14.517999649047852 -89.04000091552734,-14.517999649047852z"></path></g></g></g></svg>