<svg xmlns="http://www.w3.org/2000/svg" xmlns:xlink="http://www.w3.org/1999/xlink" viewBox="0 0 400 400" width="400" height="400" preserveAspectRatio="xMidYMid meet" style="width: 100%; height: 100%; transform: translate3d(0px, 0px, 0px); content-visibility: visible;"><defs><clipPath id="__lottie_element_582"><rect width="400" height="400" x="0" y="0"></rect></clipPath><g id="__lottie_element_584"><g transform="matrix(0.9998178482055664,-0.019085973501205444,0.019085973501205444,0.9998178482055664,203.85699462890625,180.8187713623047)" opacity="1" style="display: block;"><g opacity="1" transform="matrix(1,0,0,1,0,0)"><path fill="rgb(233,204,255)" fill-opacity="1" d=" M-85.88500213623047,56.1879997253418 C-129.81700134277344,11.6899995803833 -127.1780014038086,-49.400001525878906 -79.66300201416016,-80.51100158691406 C-32.33700180053711,-111.43299865722656 41.763999938964844,-100.49700164794922 85.88500213623047,-56.1879997253418 C129.81700134277344,-11.6899995803833 127.1780014038086,49.400001525878906 79.66300201416016,80.51100158691406 C32.33700180053711,111.43299865722656 -41.763999938964844,100.49700164794922 -85.88500213623047,56.1879997253418z"></path></g></g></g><mask id="__lottie_element_584_1" mask-type="alpha"><use xlink:href="#__lottie_element_584"></use></mask></defs><g clip-path="url(#__lottie_element_582)"><g transform="matrix(0.9998178482055664,-0.019085973501205444,0.019085973501205444,0.9998178482055664,198.11447143554688,225.74855041503906)" opacity="1" style="display: block;"><g opacity="1" transform="matrix(1,0,0,1,0,0)"><path fill="rgb(77,162,255)" fill-opacity="1" d=" M-119.25800323486328,-30.67099952697754 C-119.06900024414062,-49.90299987792969 -113.60199737548828,-61.404998779296875 -107.56800079345703,-80.0719985961914 C-107.56800079345703,-80.0719985961914 -108.6989974975586,-75.73500061035156 -108.6989974975586,-75.73500061035156 C-111.5270004272461,-60.6510009765625 -110.96199798583984,-48.96099853515625 -106.81400299072266,-33.87699890136719 C-106.81400299072266,-33.87699890136719 -105.30500030517578,-29.163000106811523 -105.30500030517578,-29.163000106811523 C-79.28500366210938,38.3380012512207 3.1110000610351562,68.50599670410156 67.40699768066406,45.31399917602539 C82.86799621582031,38.90299987792969 93.99199676513672,31.549999237060547 105.30500030517578,19.106000900268555 C109.64199829101562,13.637999534606934 112.47100067138672,9.489999771118164 115.6760025024414,3.2679998874664307 C115.6760025024414,3.2679998874664307 117.56099700927734,-0.8809999823570251 117.56099700927734,-0.8809999823570251 C117.56099700927734,-0.8809999823570251 119.25800323486328,-5.2170000076293945 119.25800323486328,-5.2170000076293945 C119.25800323486328,-5.2170000076293945 110.58499908447266,21.55699920654297 110.58499908447266,21.55699920654297 C102.0999984741211,43.2400016784668 88.9020004272461,56.43899917602539 68.3499984741211,67.75199890136719 C29.88599967956543,86.04100036621094 -11.407999992370605,83.0250015258789 -50.249000549316406,64.92400360107422 C-50.249000549316406,64.92400360107422 -55.34000015258789,62.284000396728516 -55.34000015258789,62.284000396728516 C-55.34000015258789,62.284000396728516 -60.43000030517578,59.45600128173828 -60.43000030517578,59.45600128173828 C-93.8030014038086,38.71500015258789 -117.56099700927734,9.302000045776367 -119.25800323486328,-30.67099952697754z"></path><path stroke-linecap="butt" stroke-linejoin="bevel" fill-opacity="0" stroke="rgb(0,0,0)" stroke-opacity="1" stroke-width="4" d=" M-119.25800323486328,-30.67099952697754 C-119.06900024414062,-49.90299987792969 -113.60199737548828,-61.404998779296875 -107.56800079345703,-80.0719985961914 C-107.56800079345703,-80.0719985961914 -108.6989974975586,-75.73500061035156 -108.6989974975586,-75.73500061035156 C-111.5270004272461,-60.6510009765625 -110.96199798583984,-48.96099853515625 -106.81400299072266,-33.87699890136719 C-106.81400299072266,-33.87699890136719 -105.30500030517578,-29.163000106811523 -105.30500030517578,-29.163000106811523 C-79.28500366210938,38.3380012512207 3.1110000610351562,68.50599670410156 67.40699768066406,45.31399917602539 C82.86799621582031,38.90299987792969 93.99199676513672,31.549999237060547 105.30500030517578,19.106000900268555 C109.64199829101562,13.637999534606934 112.47100067138672,9.489999771118164 115.6760025024414,3.2679998874664307 C115.6760025024414,3.2679998874664307 117.56099700927734,-0.8809999823570251 117.56099700927734,-0.8809999823570251 C117.56099700927734,-0.8809999823570251 119.25800323486328,-5.2170000076293945 119.25800323486328,-5.2170000076293945 C119.25800323486328,-5.2170000076293945 110.58499908447266,21.55699920654297 110.58499908447266,21.55699920654297 C102.0999984741211,43.2400016784668 88.9020004272461,56.43899917602539 68.3499984741211,67.75199890136719 C29.88599967956543,86.04100036621094 -11.407999992370605,83.0250015258789 -50.249000549316406,64.92400360107422 C-50.249000549316406,64.92400360107422 -55.34000015258789,62.284000396728516 -55.34000015258789,62.284000396728516 C-55.34000015258789,62.284000396728516 -60.43000030517578,59.45600128173828 -60.43000030517578,59.45600128173828 C-93.8030014038086,38.71500015258789 -117.56099700927734,9.302000045776367 -119.25800323486328,-30.67099952697754z"></path></g></g><g transform="matrix(0.9998178482055664,-0.019085973501205444,0.019085973501205444,0.9998178482055664,203.85699462890625,180.8187713623047)" opacity="1" style="display: block;"><g opacity="1" transform="matrix(1,0,0,1,0,0)"><path fill="rgb(233,204,255)" fill-opacity="1" d=" M-85.88500213623047,56.1879997253418 C-129.81700134277344,11.6899995803833 -127.1780014038086,-49.400001525878906 -79.66300201416016,-80.51100158691406 C-32.33700180053711,-111.43299865722656 41.763999938964844,-100.49700164794922 85.88500213623047,-56.1879997253418 C129.81700134277344,-11.6899995803833 127.1780014038086,49.400001525878906 79.66300201416016,80.51100158691406 C32.33700180053711,111.43299865722656 -41.763999938964844,100.49700164794922 -85.88500213623047,56.1879997253418z"></path></g></g><g mask="url(#__lottie_element_584_1)" style="display: block;"><g transform="matrix(0.9998178482055664,-0.019085973501205444,0.019085973501205444,0.9998178482055664,204.14564514160156,195.9400177001953)" opacity="1"><g opacity="1" transform="matrix(1,0,0,1,-9.562999725341797,-41.582000732421875)"><path fill="rgb(255,215,49)" fill-opacity="1" d=" M-35.97200012207031,8.545000076293945 C-42.7599983215332,-8.989999771118164 -32.577999114990234,-28.97599983215332 -13.345999717712402,-31.993000030517578 C5.886000156402588,-35.0099983215332 29.454999923706055,-20.492000579833984 36.24300003051758,-2.7679998874664307 C42.84199905395508,14.767000198364258 30.964000701904297,28.531999588012695 11.166000366210938,31.73699951171875 C-8.819999694824219,34.94200134277344 -29.18400001525879,26.268999099731445 -35.97200012207031,8.545000076293945z"></path><path stroke-linecap="butt" stroke-linejoin="miter" fill-opacity="0" stroke-miterlimit="4" stroke="rgb(0,0,0)" stroke-opacity="1" stroke-width="4" d=" M-35.97200012207031,8.545000076293945 C-42.7599983215332,-8.989999771118164 -32.577999114990234,-28.97599983215332 -13.345999717712402,-31.993000030517578 C5.886000156402588,-35.0099983215332 29.454999923706055,-20.492000579833984 36.24300003051758,-2.7679998874664307 C42.84199905395508,14.767000198364258 30.964000701904297,28.531999588012695 11.166000366210938,31.73699951171875 C-8.819999694824219,34.94200134277344 -29.18400001525879,26.268999099731445 -35.97200012207031,8.545000076293945z"></path></g><g opacity="1" transform="matrix(1,0,0,1,30.517000198364258,56.915000915527344)"><path fill="rgb(255,215,49)" fill-opacity="1" d=" M5.2129998207092285,-54.88100051879883 C-34.00600051879883,-62.04600143432617 -68.32099914550781,-41.49399948120117 -71.33799743652344,-9.251999855041504 C-72.09200286865234,-1.7100000381469727 -70.96099853515625,5.644000053405762 -68.51000213623047,12.619999885559082 C-59.270999908447266,39.39400100708008 -29.479999542236328,63.90599822998047 21.429000854492188,54.10100173950195 C65.73799896240234,45.428001403808594 80.8219985961914,21.67099952697754 66.11499786376953,-10.760000228881836 C56.310001373291016,-32.255001068115234 33.30699920654297,-49.979000091552734 5.2129998207092285,-54.88100051879883z"></path><path stroke-linecap="butt" stroke-linejoin="miter" fill-opacity="0" stroke-miterlimit="4" stroke="rgb(0,0,0)" stroke-opacity="1" stroke-width="4" d=" M5.2129998207092285,-54.88100051879883 C-34.00600051879883,-62.04600143432617 -68.32099914550781,-41.49399948120117 -71.33799743652344,-9.251999855041504 C-72.09200286865234,-1.7100000381469727 -70.96099853515625,5.644000053405762 -68.51000213623047,12.619999885559082 C-59.270999908447266,39.39400100708008 -29.479999542236328,63.90599822998047 21.429000854492188,54.10100173950195 C65.73799896240234,45.428001403808594 80.8219985961914,21.67099952697754 66.11499786376953,-10.760000228881836 C56.310001373291016,-32.255001068115234 33.30699920654297,-49.979000091552734 5.2129998207092285,-54.88100051879883z"></path></g><g opacity="1" transform="matrix(1,0,0,1,-11.256677627563477,-41.95940399169922)"><path stroke-linecap="butt" stroke-linejoin="miter" fill-opacity="0" stroke-miterlimit="4" stroke="rgb(0,0,0)" stroke-opacity="1" stroke-width="4" d=" M19.326000213623047,-8.6899995803833 C19.326000213623047,14.312999725341797 -8.20199966430664,12.23900032043457 -19.326000213623047,-1.9019999504089355"></path></g><g opacity="1" transform="matrix(1,0,0,1,0,0)"><path fill="rgb(233,204,255)" fill-opacity="1" d=" M-2.75,55.25 C-2.75,55.25 -0.25,86.625 -0.25,86.625 C-0.25,86.625 0.375,87.125 0.375,87.125 C0.375,87.125 -2.75,55.25 -2.75,55.25z"></path><path stroke-linecap="butt" stroke-linejoin="bevel" fill-opacity="0" stroke="rgb(0,0,0)" stroke-opacity="1" stroke-width="4" d=" M-2.75,55.25 C-2.75,55.25 -0.25,86.625 -0.25,86.625 C-0.25,86.625 0.375,87.125 0.375,87.125 C0.375,87.125 -2.75,55.25 -2.75,55.25z"></path></g><g opacity="1" transform="matrix(0.8415107727050781,-0.5402403473854065,0.5402403473854065,0.8415107727050781,30.86400032043457,0.2840000092983246)"><path fill="rgb(233,204,255)" fill-opacity="1" d=" M-0.5440000295639038,49.439998626708984 C-0.5440000295639038,49.439998626708984 1.6540000438690186,87.24700164794922 1.6540000438690186,87.24700164794922 C1.6540000438690186,87.24700164794922 2.7190001010894775,87.05599975585938 2.7190001010894775,87.05599975585938 C2.7190001010894775,87.05599975585938 -0.5440000295639038,49.439998626708984 -0.5440000295639038,49.439998626708984z"></path><path stroke-linecap="butt" stroke-linejoin="bevel" fill-opacity="0" stroke="rgb(0,0,0)" stroke-opacity="1" stroke-width="4" d=" M-0.5440000295639038,49.439998626708984 C-0.5440000295639038,49.439998626708984 1.6540000438690186,87.24700164794922 1.6540000438690186,87.24700164794922 C1.6540000438690186,87.24700164794922 2.7190001010894775,87.05599975585938 2.7190001010894775,87.05599975585938 C2.7190001010894775,87.05599975585938 -0.5440000295639038,49.439998626708984 -0.5440000295639038,49.439998626708984z"></path></g><g opacity="1" transform="matrix(1,0,0,1,-1.668000340461731,67.27200317382812)"><path stroke-linecap="butt" stroke-linejoin="miter" fill-opacity="0" stroke-miterlimit="4" stroke="rgb(0,0,0)" stroke-opacity="1" stroke-width="4" d=" M-1.6319999694824219,-14.517999649047852 C-1.6319999694824219,-5.090000152587891 2.140000104904175,5.656000137329102 1.5740000009536743,14.517999649047852"></path></g><g opacity="1" transform="matrix(1,-0.0000055157661336124875,0.0000055157661336124875,1,65.61599731445312,53.79100036621094)"><path stroke-linecap="butt" stroke-linejoin="miter" fill-opacity="0" stroke-miterlimit="4" stroke="rgb(0,0,0)" stroke-opacity="1" stroke-width="4" d=" M-10.086999893188477,-12.538999557495117 C-9.333000183105469,-10.654000282287598 10.086999893188477,12.538999557495117 10.086999893188477,12.538999557495117"></path></g></g></g><g transform="matrix(0.9998178482055664,-0.019085973501205444,0.019085973501205444,0.9998178482055664,203.85699462890625,180.8187713623047)" opacity="1" style="display: block;"><g opacity="1" transform="matrix(1,0,0,1,0,0)"><path stroke-linecap="butt" stroke-linejoin="miter" fill-opacity="0" stroke-miterlimit="4" stroke="rgb(0,0,0)" stroke-opacity="1" stroke-width="4" d=" M-85.88500213623047,56.1879997253418 C-129.81700134277344,11.6899995803833 -127.1780014038086,-49.400001525878906 -79.66300201416016,-80.51100158691406 C-32.33700180053711,-111.43299865722656 41.763999938964844,-100.49700164794922 85.88500213623047,-56.1879997253418 C129.81700134277344,-11.6899995803833 127.1780014038086,49.400001525878906 79.66300201416016,80.51100158691406 C32.33700180053711,111.43299865722656 -41.763999938964844,100.49700164794922 -85.88500213623047,56.1879997253418z"></path></g></g></g></svg>