<svg xmlns="http://www.w3.org/2000/svg" xmlns:xlink="http://www.w3.org/1999/xlink" viewBox="0 0 500 500" width="500" height="500" preserveAspectRatio="xMidYMid meet" style="width: 100%; height: 100%; transform: translate3d(0px, 0px, 0px); content-visibility: visible;"><defs><clipPath id="__lottie_element_8"><rect width="500" height="500" x="0" y="0"></rect></clipPath></defs><g clip-path="url(#__lottie_element_8)"><g transform="matrix(0.9999897480010986,-0.004528670106083155,0.004528670106083155,0.9999897480010986,297.0183410644531,300.35821533203125)" opacity="1" style="display: block;"><g opacity="1" transform="matrix(1,0,0,1,0,0)"><path fill="rgb(204,204,204)" fill-opacity="1" d=" M8.012999534606934,12.609000205993652 C8.012999534606934,12.609000205993652 17.91200065612793,-33.82099914550781 17.91200065612793,-33.82099914550781 C17.91200065612793,-33.82099914550781 17.677000045776367,-33.82099914550781 17.677000045776367,-33.82099914550781 C17.677000045776367,-33.82099914550781 17.44099998474121,-33.58599853515625 17.44099998474121,-33.58599853515625 C17.44099998474121,-33.58599853515625 16.969999313354492,-33.58599853515625 16.969999313354492,-33.58599853515625 C16.969999313354492,-33.58599853515625 16.261999130249023,-33.349998474121094 16.261999130249023,-33.349998474121094 C16.261999130249023,-33.349998474121094 15.555000305175781,-33.11399841308594 15.555000305175781,-33.11399841308594 C-14.61299991607666,-23.21500015258789 -11.54800033569336,4.360000133514404 -17.91200065612793,33.82099914550781 C-17.91200065612793,33.82099914550781 -17.44099998474121,32.17100143432617 -17.44099998474121,32.17100143432617 C-13.906000137329102,21.801000595092773 -3.299999952316284,16.145000457763672 6.598999977111816,13.081000328063965 C6.598999977111816,13.081000328063965 7.071000099182129,12.845000267028809 7.071000099182129,12.845000267028809 C7.071000099182129,12.845000267028809 7.541999816894531,12.845000267028809 7.541999816894531,12.845000267028809 C7.541999816894531,12.845000267028809 8.012999534606934,12.845000267028809 8.012999534606934,12.845000267028809 C8.012999534606934,12.845000267028809 8.012999534606934,12.609000205993652 8.012999534606934,12.609000205993652z"></path><path stroke-linecap="butt" stroke-linejoin="bevel" fill-opacity="0" stroke="rgb(0,0,0)" stroke-opacity="1" stroke-width="5" d=" M8.012999534606934,12.609000205993652 C8.012999534606934,12.609000205993652 17.91200065612793,-33.82099914550781 17.91200065612793,-33.82099914550781 C17.91200065612793,-33.82099914550781 17.677000045776367,-33.82099914550781 17.677000045776367,-33.82099914550781 C17.677000045776367,-33.82099914550781 17.44099998474121,-33.58599853515625 17.44099998474121,-33.58599853515625 C17.44099998474121,-33.58599853515625 16.969999313354492,-33.58599853515625 16.969999313354492,-33.58599853515625 C16.969999313354492,-33.58599853515625 16.261999130249023,-33.349998474121094 16.261999130249023,-33.349998474121094 C16.261999130249023,-33.349998474121094 15.555000305175781,-33.11399841308594 15.555000305175781,-33.11399841308594 C-14.61299991607666,-23.21500015258789 -11.54800033569336,4.360000133514404 -17.91200065612793,33.82099914550781 C-17.91200065612793,33.82099914550781 -17.44099998474121,32.17100143432617 -17.44099998474121,32.17100143432617 C-13.906000137329102,21.801000595092773 -3.299999952316284,16.145000457763672 6.598999977111816,13.081000328063965 C6.598999977111816,13.081000328063965 7.071000099182129,12.845000267028809 7.071000099182129,12.845000267028809 C7.071000099182129,12.845000267028809 7.541999816894531,12.845000267028809 7.541999816894531,12.845000267028809 C7.541999816894531,12.845000267028809 8.012999534606934,12.845000267028809 8.012999534606934,12.845000267028809 C8.012999534606934,12.845000267028809 8.012999534606934,12.609000205993652 8.012999534606934,12.609000205993652z"></path></g></g><g transform="matrix(0.9999897480010986,-0.004528670106083155,0.004528670106083155,0.9999897480010986,219.02366638183594,330.8557434082031)" opacity="1" style="display: block;"><g opacity="1" transform="matrix(1,0,0,1,0,0)"><path fill="rgb(204,204,204)" fill-opacity="1" d=" M20.150999069213867,30.7810001373291 C20.150999069213867,30.7810001373291 30.049999237060547,-15.649999618530273 30.049999237060547,-15.649999618530273 C30.049999237060547,-15.649999618530273 30.049999237060547,-15.885000228881836 30.049999237060547,-15.885000228881836 C30.049999237060547,-15.885000228881836 30.049999237060547,-16.121000289916992 30.049999237060547,-16.121000289916992 C30.049999237060547,-16.121000289916992 29.815000534057617,-16.35700035095215 29.815000534057617,-16.35700035095215 C29.815000534057617,-16.35700035095215 29.815000534057617,-16.591999053955078 29.815000534057617,-16.591999053955078 C29.815000534057617,-16.591999053955078 29.57900047302246,-16.827999114990234 29.57900047302246,-16.827999114990234 C16.851999282836914,-34.505001068115234 -1.7669999599456787,-32.38399887084961 -20.150999069213867,-26.726999282836914 C-20.150999069213867,-26.726999282836914 -30.049999237060547,19.93899917602539 -30.049999237060547,19.93899917602539 C-30.049999237060547,19.93899917602539 -28.399999618530273,19.23200035095215 -28.399999618530273,19.23200035095215 C-11.194999694824219,14.282999992370605 6.011000156402588,12.633000373840332 18.50200080871582,27.952999114990234 C18.50200080871582,27.952999114990234 19.68000030517578,29.601999282836914 19.68000030517578,29.601999282836914 C19.68000030517578,29.601999282836914 19.68000030517578,29.83799934387207 19.68000030517578,29.83799934387207 C19.68000030517578,29.83799934387207 19.916000366210938,29.83799934387207 19.916000366210938,29.83799934387207 C19.916000366210938,29.83799934387207 19.916000366210938,30.073999404907227 19.916000366210938,30.073999404907227 C19.916000366210938,30.073999404907227 20.150999069213867,30.073999404907227 20.150999069213867,30.073999404907227 C20.150999069213867,30.073999404907227 20.150999069213867,30.309999465942383 20.150999069213867,30.309999465942383 C20.150999069213867,30.309999465942383 20.150999069213867,30.545000076293945 20.150999069213867,30.545000076293945 C20.150999069213867,30.545000076293945 20.150999069213867,30.7810001373291 20.150999069213867,30.7810001373291z"></path><path stroke-linecap="butt" stroke-linejoin="bevel" fill-opacity="0" stroke="rgb(0,0,0)" stroke-opacity="1" stroke-width="5" d=" M20.150999069213867,30.7810001373291 C20.150999069213867,30.7810001373291 30.049999237060547,-15.649999618530273 30.049999237060547,-15.649999618530273 C30.049999237060547,-15.649999618530273 30.049999237060547,-15.885000228881836 30.049999237060547,-15.885000228881836 C30.049999237060547,-15.885000228881836 30.049999237060547,-16.121000289916992 30.049999237060547,-16.121000289916992 C30.049999237060547,-16.121000289916992 29.815000534057617,-16.35700035095215 29.815000534057617,-16.35700035095215 C29.815000534057617,-16.35700035095215 29.815000534057617,-16.591999053955078 29.815000534057617,-16.591999053955078 C29.815000534057617,-16.591999053955078 29.57900047302246,-16.827999114990234 29.57900047302246,-16.827999114990234 C16.851999282836914,-34.505001068115234 -1.7669999599456787,-32.38399887084961 -20.150999069213867,-26.726999282836914 C-20.150999069213867,-26.726999282836914 -30.049999237060547,19.93899917602539 -30.049999237060547,19.93899917602539 C-30.049999237060547,19.93899917602539 -28.399999618530273,19.23200035095215 -28.399999618530273,19.23200035095215 C-11.194999694824219,14.282999992370605 6.011000156402588,12.633000373840332 18.50200080871582,27.952999114990234 C18.50200080871582,27.952999114990234 19.68000030517578,29.601999282836914 19.68000030517578,29.601999282836914 C19.68000030517578,29.601999282836914 19.68000030517578,29.83799934387207 19.68000030517578,29.83799934387207 C19.68000030517578,29.83799934387207 19.916000366210938,29.83799934387207 19.916000366210938,29.83799934387207 C19.916000366210938,29.83799934387207 19.916000366210938,30.073999404907227 19.916000366210938,30.073999404907227 C19.916000366210938,30.073999404907227 20.150999069213867,30.073999404907227 20.150999069213867,30.073999404907227 C20.150999069213867,30.073999404907227 20.150999069213867,30.309999465942383 20.150999069213867,30.309999465942383 C20.150999069213867,30.309999465942383 20.150999069213867,30.545000076293945 20.150999069213867,30.545000076293945 C20.150999069213867,30.545000076293945 20.150999069213867,30.7810001373291 20.150999069213867,30.7810001373291z"></path></g></g><g transform="matrix(0.9999897480010986,-0.004528670106083155,0.004528670106083155,0.9999897480010986,257.5070495605469,292.8760681152344)" opacity="1" style="display: block;"><g opacity="1" transform="matrix(1,0,0,1,0,0)"><path fill="rgb(204,204,204)" fill-opacity="1" d=" M-3.181999921798706,-6.363999843597412 C-3.181999921798706,-6.363999843597412 2.946000099182129,-8.24899959564209 2.946000099182129,-8.24899959564209 C2.946000099182129,-8.24899959564209 46.3129997253418,-22.155000686645508 46.3129997253418,-22.155000686645508 C31.93600082397461,-13.199000358581543 28.400999069213867,-3.5350000858306885 33.349998474121094,7.541999816894531 C33.58599853515625,8.012999534606934 33.82099914550781,8.484999656677246 33.82099914550781,8.484999656677246 C19.444000244140625,13.199000358581543 5.77400016784668,17.44099998474121 -8.602999687194824,22.155000686645508 C-8.602999687194824,22.155000686645508 -8.838000297546387,21.683000564575195 -9.074000358581543,21.211999893188477 C-16.145000457763672,10.842000007629395 -27.929000854492188,5.892000198364258 -46.3129997253418,7.541999816894531 C-46.3129997253418,7.541999816894531 -3.181999921798706,-6.363999843597412 -3.181999921798706,-6.363999843597412z"></path><path stroke-linecap="butt" stroke-linejoin="miter" fill-opacity="0" stroke-miterlimit="4" stroke="rgb(0,0,0)" stroke-opacity="1" stroke-width="5" d=" M-3.181999921798706,-6.363999843597412 C-3.181999921798706,-6.363999843597412 2.946000099182129,-8.24899959564209 2.946000099182129,-8.24899959564209 C2.946000099182129,-8.24899959564209 46.3129997253418,-22.155000686645508 46.3129997253418,-22.155000686645508 C31.93600082397461,-13.199000358581543 28.400999069213867,-3.5350000858306885 33.349998474121094,7.541999816894531 C33.58599853515625,8.012999534606934 33.82099914550781,8.484999656677246 33.82099914550781,8.484999656677246 C19.444000244140625,13.199000358581543 5.77400016784668,17.44099998474121 -8.602999687194824,22.155000686645508 C-8.602999687194824,22.155000686645508 -8.838000297546387,21.683000564575195 -9.074000358581543,21.211999893188477 C-16.145000457763672,10.842000007629395 -27.929000854492188,5.892000198364258 -46.3129997253418,7.541999816894531 C-46.3129997253418,7.541999816894531 -3.181999921798706,-6.363999843597412 -3.181999921798706,-6.363999843597412z"></path></g></g><g transform="matrix(0.9999897480010986,-0.004528670106083155,0.004528670106083155,0.9999897480010986,120.43659210205078,201.22389221191406)" opacity="1" style="display: block;"><g opacity="1" transform="matrix(1,0,0,1,0,0)"><path fill="rgb(255,255,255)" fill-opacity="1" d=" M-15.248000144958496,35 C-15.248000144958496,35 -12.420000076293945,39.7130012512207 -12.420000076293945,39.7130012512207 C-12.420000076293945,39.7130012512207 -11.711999893188477,40.891998291015625 -11.711999893188477,40.891998291015625 C-11.711999893188477,40.891998291015625 -11.005000114440918,42.06999969482422 -11.005000114440918,42.06999969482422 C-11.005000114440918,42.06999969482422 -10.062999725341797,43.249000549316406 -10.062999725341797,43.249000549316406 C-10.062999725341797,43.249000549316406 -9.355999946594238,44.426998138427734 -9.355999946594238,44.426998138427734 C-9.355999946594238,44.426998138427734 -8.413000106811523,45.60599899291992 -8.413000106811523,45.60599899291992 C-1.5779999494552612,55.505001068115234 5.493000030517578,65.40299987792969 12.798999786376953,75.302001953125 C12.798999786376953,75.302001953125 13.741999626159668,76.48100280761719 13.741999626159668,76.48100280761719 C13.741999626159668,76.48100280761719 14.6850004196167,77.65899658203125 14.6850004196167,77.65899658203125 C14.6850004196167,77.65899658203125 15.626999855041504,79.072998046875 15.626999855041504,79.072998046875 C15.626999855041504,79.072998046875 25.291000366210938,32.643001556396484 25.291000366210938,32.643001556396484 C25.291000366210938,32.643001556396484 24.347999572753906,31.229000091552734 24.347999572753906,31.229000091552734 C24.347999572753906,31.229000091552734 23.405000686645508,30.049999237060547 23.405000686645508,30.049999237060547 C15.156000137329102,18.73699951171875 6.9070000648498535,7.189000129699707 -1.1059999465942383,-4.360000133514404 C-1.1059999465942383,-4.360000133514404 -1.8140000104904175,-5.539000034332275 -1.8140000104904175,-5.539000034332275 C-1.8140000104904175,-5.539000034332275 -2.75600004196167,-6.7170000076293945 -2.75600004196167,-6.7170000076293945 C-15.718999862670898,-28.165000915527344 -17.368999481201172,-48.433998107910156 -13.833999633789062,-73.88800048828125 C-13.833999633789062,-73.88800048828125 -13.126999855041504,-79.072998046875 -13.126999855041504,-79.072998046875 C-16.898000717163086,-60.45399856567383 -21.847000122070312,-41.12799835205078 -24.440000534057617,-22.273000717163086 C-26.56100082397461,-0.824999988079071 -25.14699935913086,15.437999725341797 -15.248000144958496,35z"></path><path stroke-linecap="butt" stroke-linejoin="bevel" fill-opacity="0" stroke="rgb(0,0,0)" stroke-opacity="1" stroke-width="5" d=" M-15.248000144958496,35 C-15.248000144958496,35 -12.420000076293945,39.7130012512207 -12.420000076293945,39.7130012512207 C-12.420000076293945,39.7130012512207 -11.711999893188477,40.891998291015625 -11.711999893188477,40.891998291015625 C-11.711999893188477,40.891998291015625 -11.005000114440918,42.06999969482422 -11.005000114440918,42.06999969482422 C-11.005000114440918,42.06999969482422 -10.062999725341797,43.249000549316406 -10.062999725341797,43.249000549316406 C-10.062999725341797,43.249000549316406 -9.355999946594238,44.426998138427734 -9.355999946594238,44.426998138427734 C-9.355999946594238,44.426998138427734 -8.413000106811523,45.60599899291992 -8.413000106811523,45.60599899291992 C-1.5779999494552612,55.505001068115234 5.493000030517578,65.40299987792969 12.798999786376953,75.302001953125 C12.798999786376953,75.302001953125 13.741999626159668,76.48100280761719 13.741999626159668,76.48100280761719 C13.741999626159668,76.48100280761719 14.6850004196167,77.65899658203125 14.6850004196167,77.65899658203125 C14.6850004196167,77.65899658203125 15.626999855041504,79.072998046875 15.626999855041504,79.072998046875 C15.626999855041504,79.072998046875 25.291000366210938,32.643001556396484 25.291000366210938,32.643001556396484 C25.291000366210938,32.643001556396484 24.347999572753906,31.229000091552734 24.347999572753906,31.229000091552734 C24.347999572753906,31.229000091552734 23.405000686645508,30.049999237060547 23.405000686645508,30.049999237060547 C15.156000137329102,18.73699951171875 6.9070000648498535,7.189000129699707 -1.1059999465942383,-4.360000133514404 C-1.1059999465942383,-4.360000133514404 -1.8140000104904175,-5.539000034332275 -1.8140000104904175,-5.539000034332275 C-1.8140000104904175,-5.539000034332275 -2.75600004196167,-6.7170000076293945 -2.75600004196167,-6.7170000076293945 C-15.718999862670898,-28.165000915527344 -17.368999481201172,-48.433998107910156 -13.833999633789062,-73.88800048828125 C-13.833999633789062,-73.88800048828125 -13.126999855041504,-79.072998046875 -13.126999855041504,-79.072998046875 C-16.898000717163086,-60.45399856567383 -21.847000122070312,-41.12799835205078 -24.440000534057617,-22.273000717163086 C-26.56100082397461,-0.824999988079071 -25.14699935913086,15.437999725341797 -15.248000144958496,35z"></path></g></g><g transform="matrix(0.9999897480010986,-0.004528670106083155,0.004528670106083155,0.9999897480010986,209.59555053710938,183.7889404296875)" opacity="1" style="display: block;"><g opacity="1" transform="matrix(1,0,0,1,0,0)"><path fill="rgb(255,255,255)" fill-opacity="1" d=" M-74.78800201416016,-120.49299621582031 C-86.80799865722656,-116.72200012207031 -124.28199768066406,-38.23699951171875 -91.99299621582031,10.550000190734863 C-62.29600143432617,54.152000427246094 -16.101999282836914,112.60299682617188 -11.387999534606934,120.85199737548828 C-11.387999534606934,120.85199737548828 104.80599975585938,83.61299896240234 104.80599975585938,83.61299896240234 C104.80599975585938,83.61299896240234 56.96200180053711,-35.88100051879883 56.96200180053711,-35.88100051879883 C33.15700149536133,-91.03199768066406 -61.82500076293945,-124.73500061035156 -74.78800201416016,-120.49299621582031z"></path><path stroke-linecap="butt" stroke-linejoin="miter" fill-opacity="0" stroke-miterlimit="4" stroke="rgb(0,0,0)" stroke-opacity="1" stroke-width="5" d=" M-74.78800201416016,-120.49299621582031 C-86.80799865722656,-116.72200012207031 -124.28199768066406,-38.23699951171875 -91.99299621582031,10.550000190734863 C-62.29600143432617,54.152000427246094 -16.101999282836914,112.60299682617188 -11.387999534606934,120.85199737548828 C-11.387999534606934,120.85199737548828 104.80599975585938,83.61299896240234 104.80599975585938,83.61299896240234 C104.80599975585938,83.61299896240234 56.96200180053711,-35.88100051879883 56.96200180053711,-35.88100051879883 C33.15700149536133,-91.03199768066406 -61.82500076293945,-124.73500061035156 -74.78800201416016,-120.49299621582031z"></path></g></g><g transform="matrix(0.9999897480010986,-0.004528670106083155,0.004528670106083155,0.9999897480010986,107.57508087158203,207.76519775390625)" opacity="1" style="display: block;"><g opacity="1" transform="matrix(1,0,0,1,0,0)"><path stroke-linecap="butt" stroke-linejoin="miter" fill-opacity="0" stroke-miterlimit="4" stroke="rgb(0,0,0)" stroke-opacity="1" stroke-width="5" d=" M-4.948999881744385,22.625999450683594 C-4.948999881744385,22.625999450683594 4.948999881744385,-22.625999450683594 4.948999881744385,-22.625999450683594"></path></g></g><g transform="matrix(0.9999897480010986,-0.004528670106083155,0.004528670106083155,0.9999897480010986,162.94126892089844,99.26034545898438)" opacity="1" style="display: block;"><g opacity="1" transform="matrix(1,0,0,1,0,0)"><path fill="rgb(251,73,3)" fill-opacity="1" d=" M-28.51799964904785,-35.75400161743164 C-36.29600143432617,-33.39699935913086 -54.444000244140625,-0.16500000655651093 -57.74399948120117,36.13100051879883 C-23.569000244140625,6.906000137329102 15.791999816894531,-0.164000004529953 57.74399948120117,-1.1069999933242798 C22.155000686645508,-25.382999420166016 -20.268999099731445,-38.582000732421875 -28.51799964904785,-35.75400161743164z"></path><path stroke-linecap="butt" stroke-linejoin="miter" fill-opacity="0" stroke-miterlimit="4" stroke="rgb(0,0,0)" stroke-opacity="1" stroke-width="5" d=" M-28.51799964904785,-35.75400161743164 C-36.29600143432617,-33.39699935913086 -54.444000244140625,-0.16500000655651093 -57.74399948120117,36.13100051879883 C-23.569000244140625,6.906000137329102 15.791999816894531,-0.164000004529953 57.74399948120117,-1.1069999933242798 C22.155000686645508,-25.382999420166016 -20.268999099731445,-38.582000732421875 -28.51799964904785,-35.75400161743164z"></path></g></g><g transform="matrix(0.9999897480010986,-0.004528670106083155,0.004528670106083155,0.9999897480010986,192.13783264160156,171.0838623046875)" opacity="1" style="display: block;"><g opacity="1" transform="matrix(1,0,0,1,0,0)"><path fill="rgb(247,247,247)" fill-opacity="1" d=" M38.064998626708984,-12.255999565124512 C29.81599998474121,-26.868999481201172 6.011000156402588,-33.231998443603516 -14.96500015258789,-26.39699935913086 C-35.941001892089844,-19.79800033569336 -46.31100082397461,-2.3570001125335693 -38.0620002746582,12.255999565124512 C-29.812999725341797,26.868999481201172 -6.24399995803833,33.231998443603516 14.732000350952148,26.39699935913086 C35.944000244140625,19.79800033569336 46.31399917602539,2.3570001125335693 38.064998626708984,-12.255999565124512z"></path><path stroke-linecap="butt" stroke-linejoin="miter" fill-opacity="0" stroke-miterlimit="4" stroke="rgb(0,0,0)" stroke-opacity="1" stroke-width="5" d=" M38.064998626708984,-12.255999565124512 C29.81599998474121,-26.868999481201172 6.011000156402588,-33.231998443603516 -14.96500015258789,-26.39699935913086 C-35.941001892089844,-19.79800033569336 -46.31100082397461,-2.3570001125335693 -38.0620002746582,12.255999565124512 C-29.812999725341797,26.868999481201172 -6.24399995803833,33.231998443603516 14.732000350952148,26.39699935913086 C35.944000244140625,19.79800033569336 46.31399917602539,2.3570001125335693 38.064998626708984,-12.255999565124512z"></path></g></g><g transform="matrix(0.9999897480010986,-0.004528670106083155,0.004528670106083155,0.9999897480010986,191.98939514160156,163.91946411132812)" opacity="1" style="display: block;"><g opacity="1" transform="matrix(1,0,0,1,0,0)"><path fill="rgb(77,162,255)" fill-opacity="1" d=" M28.753999710083008,-9.095999717712402 C22.625999450683594,-20.17300033569336 4.714000225067139,-25.121999740600586 -11.312999725341797,-19.937000274658203 C-27.104000091552734,-14.751999855041504 -34.88199996948242,-1.7890000343322754 -28.753999710083008,9.288000106811523 C-22.389999389648438,20.364999771118164 -4.478000164031982,25.07900047302246 11.312999725341797,19.893999099731445 C27.104000091552734,14.944999694824219 34.88199996948242,1.746000051498413 28.753999710083008,-9.095999717712402z"></path><path stroke-linecap="butt" stroke-linejoin="miter" fill-opacity="0" stroke-miterlimit="4" stroke="rgb(0,0,0)" stroke-opacity="1" stroke-width="5" d=" M28.753999710083008,-9.095999717712402 C22.625999450683594,-20.17300033569336 4.714000225067139,-25.121999740600586 -11.312999725341797,-19.937000274658203 C-27.104000091552734,-14.751999855041504 -34.88199996948242,-1.7890000343322754 -28.753999710083008,9.288000106811523 C-22.389999389648438,20.364999771118164 -4.478000164031982,25.07900047302246 11.312999725341797,19.893999099731445 C27.104000091552734,14.944999694824219 34.88199996948242,1.746000051498413 28.753999710083008,-9.095999717712402z"></path></g></g><g transform="matrix(0.9999897480010986,-0.004528670106083155,0.004528670106083155,0.9999897480010986,191.47093200683594,335.8355712890625)" opacity="1" style="display: block;"><g opacity="1" transform="matrix(1,0,0,1,0,0)"><path fill="rgb(255,255,255)" fill-opacity="1" d=" M-2.4749999046325684,15.083999633789062 C-2.4749999046325684,15.083999633789062 7.423999786376953,-31.582000732421875 7.423999786376953,-31.582000732421875 C7.423999786376953,-31.582000732421875 7.188000202178955,-30.638999938964844 7.188000202178955,-30.638999938964844 C7.188000202178955,-30.638999938964844 6.953000068664551,-29.93199920654297 6.953000068664551,-29.93199920654297 C6.953000068664551,-29.93199920654297 6.7170000076293945,-28.989999771118164 6.7170000076293945,-28.989999771118164 C6.7170000076293945,-28.989999771118164 6.245999813079834,-28.047000885009766 6.245999813079834,-28.047000885009766 C6.245999813079834,-28.047000885009766 5.77400016784668,-26.868000030517578 5.77400016784668,-26.868000030517578 C5.77400016784668,-26.868000030517578 5.539000034332275,-25.690000534057617 5.539000034332275,-25.690000534057617 C5.539000034332275,-25.690000534057617 5.066999912261963,-24.511999130249023 5.066999912261963,-24.511999130249023 C5.066999912261963,-24.511999130249023 4.5960001945495605,-23.097000122070312 4.5960001945495605,-23.097000122070312 C4.5960001945495605,-23.097000122070312 4.125,-21.683000564575195 4.125,-21.683000564575195 C4.125,-21.683000564575195 3.6530001163482666,-20.268999099731445 3.6530001163482666,-20.268999099731445 C3.6530001163482666,-20.268999099731445 3.181999921798706,-18.618999481201172 3.181999921798706,-18.618999481201172 C3.181999921798706,-18.618999481201172 2.946000099182129,-16.733999252319336 2.946000099182129,-16.733999252319336 C2.946000099182129,-16.733999252319336 2.4749999046325684,-15.083999633789062 2.4749999046325684,-15.083999633789062 C2.4749999046325684,-15.083999633789062 -7.423999786376953,31.582000732421875 -7.423999786376953,31.582000732421875 C-7.423999786376953,31.582000732421875 -6.953000068664551,29.69700050354004 -6.953000068664551,29.69700050354004 C-6.953000068664551,29.69700050354004 -6.480999946594238,27.81100082397461 -6.480999946594238,27.81100082397461 C-6.480999946594238,27.81100082397461 -6.010000228881836,26.160999298095703 -6.010000228881836,26.160999298095703 C-6.010000228881836,26.160999298095703 -5.77400016784668,24.746999740600586 -5.77400016784668,24.746999740600586 C-5.77400016784668,24.746999740600586 -5.302999973297119,23.33300018310547 -5.302999973297119,23.33300018310547 C-5.302999973297119,23.33300018310547 -4.831999778747559,21.91900062561035 -4.831999778747559,21.91900062561035 C-4.831999778747559,21.91900062561035 -4.360000133514404,20.740999221801758 -4.360000133514404,20.740999221801758 C-4.360000133514404,20.740999221801758 -3.8889999389648438,19.562000274658203 -3.8889999389648438,19.562000274658203 C-3.8889999389648438,19.562000274658203 -3.6530001163482666,18.384000778198242 -3.6530001163482666,18.384000778198242 C-3.6530001163482666,18.384000778198242 -3.181999921798706,17.44099998474121 -3.181999921798706,17.44099998474121 C-3.181999921798706,17.44099998474121 -2.946000099182129,16.49799919128418 -2.946000099182129,16.49799919128418 C-2.946000099182129,16.49799919128418 -2.7100000381469727,15.791000366210938 -2.7100000381469727,15.791000366210938 C-2.7100000381469727,15.791000366210938 -2.4749999046325684,15.083999633789062 -2.4749999046325684,15.083999633789062z"></path><path stroke-linecap="butt" stroke-linejoin="bevel" fill-opacity="0" stroke="rgb(0,0,0)" stroke-opacity="1" stroke-width="5" d=" M-2.4749999046325684,15.083999633789062 C-2.4749999046325684,15.083999633789062 7.423999786376953,-31.582000732421875 7.423999786376953,-31.582000732421875 C7.423999786376953,-31.582000732421875 7.188000202178955,-30.638999938964844 7.188000202178955,-30.638999938964844 C7.188000202178955,-30.638999938964844 6.953000068664551,-29.93199920654297 6.953000068664551,-29.93199920654297 C6.953000068664551,-29.93199920654297 6.7170000076293945,-28.989999771118164 6.7170000076293945,-28.989999771118164 C6.7170000076293945,-28.989999771118164 6.245999813079834,-28.047000885009766 6.245999813079834,-28.047000885009766 C6.245999813079834,-28.047000885009766 5.77400016784668,-26.868000030517578 5.77400016784668,-26.868000030517578 C5.77400016784668,-26.868000030517578 5.539000034332275,-25.690000534057617 5.539000034332275,-25.690000534057617 C5.539000034332275,-25.690000534057617 5.066999912261963,-24.511999130249023 5.066999912261963,-24.511999130249023 C5.066999912261963,-24.511999130249023 4.5960001945495605,-23.097000122070312 4.5960001945495605,-23.097000122070312 C4.5960001945495605,-23.097000122070312 4.125,-21.683000564575195 4.125,-21.683000564575195 C4.125,-21.683000564575195 3.6530001163482666,-20.268999099731445 3.6530001163482666,-20.268999099731445 C3.6530001163482666,-20.268999099731445 3.181999921798706,-18.618999481201172 3.181999921798706,-18.618999481201172 C3.181999921798706,-18.618999481201172 2.946000099182129,-16.733999252319336 2.946000099182129,-16.733999252319336 C2.946000099182129,-16.733999252319336 2.4749999046325684,-15.083999633789062 2.4749999046325684,-15.083999633789062 C2.4749999046325684,-15.083999633789062 -7.423999786376953,31.582000732421875 -7.423999786376953,31.582000732421875 C-7.423999786376953,31.582000732421875 -6.953000068664551,29.69700050354004 -6.953000068664551,29.69700050354004 C-6.953000068664551,29.69700050354004 -6.480999946594238,27.81100082397461 -6.480999946594238,27.81100082397461 C-6.480999946594238,27.81100082397461 -6.010000228881836,26.160999298095703 -6.010000228881836,26.160999298095703 C-6.010000228881836,26.160999298095703 -5.77400016784668,24.746999740600586 -5.77400016784668,24.746999740600586 C-5.77400016784668,24.746999740600586 -5.302999973297119,23.33300018310547 -5.302999973297119,23.33300018310547 C-5.302999973297119,23.33300018310547 -4.831999778747559,21.91900062561035 -4.831999778747559,21.91900062561035 C-4.831999778747559,21.91900062561035 -4.360000133514404,20.740999221801758 -4.360000133514404,20.740999221801758 C-4.360000133514404,20.740999221801758 -3.8889999389648438,19.562000274658203 -3.8889999389648438,19.562000274658203 C-3.8889999389648438,19.562000274658203 -3.6530001163482666,18.384000778198242 -3.6530001163482666,18.384000778198242 C-3.6530001163482666,18.384000778198242 -3.181999921798706,17.44099998474121 -3.181999921798706,17.44099998474121 C-3.181999921798706,17.44099998474121 -2.946000099182129,16.49799919128418 -2.946000099182129,16.49799919128418 C-2.946000099182129,16.49799919128418 -2.7100000381469727,15.791000366210938 -2.7100000381469727,15.791000366210938 C-2.7100000381469727,15.791000366210938 -2.4749999046325684,15.083999633789062 -2.4749999046325684,15.083999633789062z"></path></g></g><g transform="matrix(0.9999897480010986,-0.004528670106083155,0.004528670106083155,0.9999897480010986,156.47085571289062,361.73333740234375)" opacity="1" style="display: block;"><g opacity="1" transform="matrix(1,0,0,1,0,0)"><path fill="rgb(251,73,3)" fill-opacity="1" d=" M34.763999938964844,70.18599700927734 C34.763999938964844,70.18599700927734 44.66299819946289,23.756000518798828 44.66299819946289,23.756000518798828 C44.66299819946289,23.756000518798828 44.19200134277344,25.4060001373291 44.19200134277344,25.4060001373291 C44.19200134277344,25.4060001373291 43.48400115966797,26.81999969482422 43.48400115966797,26.81999969482422 C43.48400115966797,26.81999969482422 42.54199981689453,27.99799919128418 42.54199981689453,27.99799919128418 C42.54199981689453,27.99799919128418 41.362998962402344,28.94099998474121 41.362998962402344,28.94099998474121 C41.362998962402344,28.94099998474121 39.7130012512207,29.648000717163086 39.7130012512207,29.648000717163086 C31.22800064086914,30.826000213623047 23.68600082397461,24.698999404907227 17.79400062561035,19.513999938964844 C17.79400062561035,19.513999938964844 15.67300033569336,17.628000259399414 15.67300033569336,17.628000259399414 C15.67300033569336,17.628000259399414 13.788000106811523,15.741999626159668 13.788000106811523,15.741999626159668 C-3.181999921798706,-0.9919999837875366 -23.451000213623047,-26.68199920654297 -31.93600082397461,-49.071998596191406 C-31.93600082397461,-49.071998596191406 -32.87799835205078,-51.19300079345703 -32.87799835205078,-51.19300079345703 C-32.87799835205078,-51.19300079345703 -33.349998474121094,-53.31399917602539 -33.349998474121094,-53.31399917602539 C-33.349998474121094,-53.31399917602539 -33.82099914550781,-55.20000076293945 -33.82099914550781,-55.20000076293945 C-33.82099914550781,-55.20000076293945 -34.292999267578125,-57.79199981689453 -34.292999267578125,-57.79199981689453 C-34.292999267578125,-57.79199981689453 -34.52799987792969,-60.14899826049805 -34.52799987792969,-60.14899826049805 C-34.52799987792969,-60.14899826049805 -34.763999938964844,-62.742000579833984 -34.763999938964844,-62.742000579833984 C-34.763999938964844,-62.742000579833984 -35,-65.0989990234375 -35,-65.0989990234375 C-35,-65.0989990234375 -35,-67.22000122070312 -35,-67.22000122070312 C-35,-67.22000122070312 -34.763999938964844,-69.5770034790039 -34.763999938964844,-69.5770034790039 C-34.763999938964844,-69.5770034790039 -34.52799987792969,-71.93399810791016 -34.52799987792969,-71.93399810791016 C-34.52799987792969,-71.93399810791016 -34.292999267578125,-74.05500030517578 -34.292999267578125,-74.05500030517578 C-34.292999267578125,-74.05500030517578 -34.05699920654297,-76.1760025024414 -34.05699920654297,-76.1760025024414 C-34.05699920654297,-76.1760025024414 -43.720001220703125,-29.7450008392334 -43.720001220703125,-29.7450008392334 C-43.720001220703125,-29.7450008392334 -44.19200134277344,-27.624000549316406 -44.19200134277344,-27.624000549316406 C-44.19200134277344,-27.624000549316406 -44.426998138427734,-25.267000198364258 -44.426998138427734,-25.267000198364258 C-44.426998138427734,-25.267000198364258 -44.66299819946289,-23.145999908447266 -44.66299819946289,-23.145999908447266 C-44.66299819946289,-23.145999908447266 -44.66299819946289,-20.788999557495117 -44.66299819946289,-20.788999557495117 C-44.66299819946289,7.49399995803833 -13.788000106811523,47.0890007019043 9.781000137329102,67.59400177001953 C15.67300033569336,72.0719985961914 23.68600082397461,78.43599700927734 31.464000701904297,75.37200164794922 C31.464000701904297,75.37200164794922 32.643001556396484,74.66500091552734 32.643001556396484,74.66500091552734 C32.643001556396484,74.66500091552734 33.82099914550781,73.48600006103516 33.82099914550781,73.48600006103516 C33.82099914550781,73.48600006103516 34.52799987792969,71.83599853515625 34.52799987792969,71.83599853515625 C34.52799987792969,71.83599853515625 34.763999938964844,70.18599700927734 34.763999938964844,70.18599700927734z"></path><path stroke-linecap="butt" stroke-linejoin="bevel" fill-opacity="0" stroke="rgb(0,0,0)" stroke-opacity="1" stroke-width="5" d=" M34.763999938964844,70.18599700927734 C34.763999938964844,70.18599700927734 44.66299819946289,23.756000518798828 44.66299819946289,23.756000518798828 C44.66299819946289,23.756000518798828 44.19200134277344,25.4060001373291 44.19200134277344,25.4060001373291 C44.19200134277344,25.4060001373291 43.48400115966797,26.81999969482422 43.48400115966797,26.81999969482422 C43.48400115966797,26.81999969482422 42.54199981689453,27.99799919128418 42.54199981689453,27.99799919128418 C42.54199981689453,27.99799919128418 41.362998962402344,28.94099998474121 41.362998962402344,28.94099998474121 C41.362998962402344,28.94099998474121 39.7130012512207,29.648000717163086 39.7130012512207,29.648000717163086 C31.22800064086914,30.826000213623047 23.68600082397461,24.698999404907227 17.79400062561035,19.513999938964844 C17.79400062561035,19.513999938964844 15.67300033569336,17.628000259399414 15.67300033569336,17.628000259399414 C15.67300033569336,17.628000259399414 13.788000106811523,15.741999626159668 13.788000106811523,15.741999626159668 C-3.181999921798706,-0.9919999837875366 -23.451000213623047,-26.68199920654297 -31.93600082397461,-49.071998596191406 C-31.93600082397461,-49.071998596191406 -32.87799835205078,-51.19300079345703 -32.87799835205078,-51.19300079345703 C-32.87799835205078,-51.19300079345703 -33.349998474121094,-53.31399917602539 -33.349998474121094,-53.31399917602539 C-33.349998474121094,-53.31399917602539 -33.82099914550781,-55.20000076293945 -33.82099914550781,-55.20000076293945 C-33.82099914550781,-55.20000076293945 -34.292999267578125,-57.79199981689453 -34.292999267578125,-57.79199981689453 C-34.292999267578125,-57.79199981689453 -34.52799987792969,-60.14899826049805 -34.52799987792969,-60.14899826049805 C-34.52799987792969,-60.14899826049805 -34.763999938964844,-62.742000579833984 -34.763999938964844,-62.742000579833984 C-34.763999938964844,-62.742000579833984 -35,-65.0989990234375 -35,-65.0989990234375 C-35,-65.0989990234375 -35,-67.22000122070312 -35,-67.22000122070312 C-35,-67.22000122070312 -34.763999938964844,-69.5770034790039 -34.763999938964844,-69.5770034790039 C-34.763999938964844,-69.5770034790039 -34.52799987792969,-71.93399810791016 -34.52799987792969,-71.93399810791016 C-34.52799987792969,-71.93399810791016 -34.292999267578125,-74.05500030517578 -34.292999267578125,-74.05500030517578 C-34.292999267578125,-74.05500030517578 -34.05699920654297,-76.1760025024414 -34.05699920654297,-76.1760025024414 C-34.05699920654297,-76.1760025024414 -43.720001220703125,-29.7450008392334 -43.720001220703125,-29.7450008392334 C-43.720001220703125,-29.7450008392334 -44.19200134277344,-27.624000549316406 -44.19200134277344,-27.624000549316406 C-44.19200134277344,-27.624000549316406 -44.426998138427734,-25.267000198364258 -44.426998138427734,-25.267000198364258 C-44.426998138427734,-25.267000198364258 -44.66299819946289,-23.145999908447266 -44.66299819946289,-23.145999908447266 C-44.66299819946289,-23.145999908447266 -44.66299819946289,-20.788999557495117 -44.66299819946289,-20.788999557495117 C-44.66299819946289,7.49399995803833 -13.788000106811523,47.0890007019043 9.781000137329102,67.59400177001953 C15.67300033569336,72.0719985961914 23.68600082397461,78.43599700927734 31.464000701904297,75.37200164794922 C31.464000701904297,75.37200164794922 32.643001556396484,74.66500091552734 32.643001556396484,74.66500091552734 C32.643001556396484,74.66500091552734 33.82099914550781,73.48600006103516 33.82099914550781,73.48600006103516 C33.82099914550781,73.48600006103516 34.52799987792969,71.83599853515625 34.52799987792969,71.83599853515625 C34.52799987792969,71.83599853515625 34.763999938964844,70.18599700927734 34.763999938964844,70.18599700927734z"></path></g></g><g transform="matrix(0.9999897480010986,-0.004528670106083155,0.004528670106083155,0.9999897480010986,188.51507568359375,411.61175537109375)" opacity="1" style="display: block;"><g opacity="1" transform="matrix(1,0,0,1,0,0)"><path fill="rgb(251,73,3)" fill-opacity="1" d=" M2.946000099182129,20.163000106811523 C2.946000099182129,20.163000106811523 12.845000267028809,-26.267000198364258 12.845000267028809,-26.267000198364258 C12.845000267028809,-26.267000198364258 12.37399959564209,-24.617000579833984 12.37399959564209,-24.617000579833984 C12.37399959564209,-24.617000579833984 11.666999816894531,-23.202999114990234 11.666999816894531,-23.202999114990234 C8.131999969482422,-18.961000442504883 3.8889999389648438,-19.902999877929688 -0.5889999866485596,-21.55299949645996 C-0.5889999866485596,-21.55299949645996 -3.181999921798706,-22.73200035095215 -3.181999921798706,-22.73200035095215 C-3.181999921798706,-22.73200035095215 -3.6530001163482666,-22.966999053955078 -3.6530001163482666,-22.966999053955078 C-3.6530001163482666,-22.966999053955078 -12.845000267028809,24.170000076293945 -12.845000267028809,24.170000076293945 C-7.188000202178955,25.81999969482422 -0.5899999737739563,28.884000778198242 2.7100000381469727,21.812999725341797 C2.7100000381469727,21.812999725341797 2.946000099182129,20.163000106811523 2.946000099182129,20.163000106811523z"></path><path stroke-linecap="butt" stroke-linejoin="bevel" fill-opacity="0" stroke="rgb(0,0,0)" stroke-opacity="1" stroke-width="5" d=" M2.946000099182129,20.163000106811523 C2.946000099182129,20.163000106811523 12.845000267028809,-26.267000198364258 12.845000267028809,-26.267000198364258 C12.845000267028809,-26.267000198364258 12.37399959564209,-24.617000579833984 12.37399959564209,-24.617000579833984 C12.37399959564209,-24.617000579833984 11.666999816894531,-23.202999114990234 11.666999816894531,-23.202999114990234 C8.131999969482422,-18.961000442504883 3.8889999389648438,-19.902999877929688 -0.5889999866485596,-21.55299949645996 C-0.5889999866485596,-21.55299949645996 -3.181999921798706,-22.73200035095215 -3.181999921798706,-22.73200035095215 C-3.181999921798706,-22.73200035095215 -3.6530001163482666,-22.966999053955078 -3.6530001163482666,-22.966999053955078 C-3.6530001163482666,-22.966999053955078 -12.845000267028809,24.170000076293945 -12.845000267028809,24.170000076293945 C-7.188000202178955,25.81999969482422 -0.5899999737739563,28.884000778198242 2.7100000381469727,21.812999725341797 C2.7100000381469727,21.812999725341797 2.946000099182129,20.163000106811523 2.946000099182129,20.163000106811523z"></path></g></g><g transform="matrix(0.9999897480010986,-0.004528670106083155,0.004528670106083155,0.9999897480010986,161.13026428222656,313.0147399902344)" opacity="1" style="display: block;"><g opacity="1" transform="matrix(1,0,0,1,0,0)"><path fill="rgb(251,73,3)" fill-opacity="1" d=" M-15.604000091552734,-78.85900115966797 C-15.604000091552734,-78.85900115966797 37.6609992980957,-8.152999877929688 37.6609992980957,-8.152999877929688 C35.540000915527344,-0.6110000014305115 23.756000518798828,20.1299991607666 38.84000015258789,66.08899688720703 C43.31800079345703,79.75900268554688 31.770000457763672,84.4729995727539 14.800000190734863,70.09600067138672 C-5.468999862670898,52.89099884033203 -34.45899963378906,14.473999977111816 -38.70100021362305,-6.267000198364258 C-44.12200164794922,-33.606998443603516 -28.566999435424805,-49.86899948120117 -15.604000091552734,-78.85900115966797z"></path><path stroke-linecap="butt" stroke-linejoin="miter" fill-opacity="0" stroke-miterlimit="4" stroke="rgb(0,0,0)" stroke-opacity="1" stroke-width="5" d=" M-15.604000091552734,-78.85900115966797 C-15.604000091552734,-78.85900115966797 37.6609992980957,-8.152999877929688 37.6609992980957,-8.152999877929688 C35.540000915527344,-0.6110000014305115 23.756000518798828,20.1299991607666 38.84000015258789,66.08899688720703 C43.31800079345703,79.75900268554688 31.770000457763672,84.4729995727539 14.800000190734863,70.09600067138672 C-5.468999862670898,52.89099884033203 -34.45899963378906,14.473999977111816 -38.70100021362305,-6.267000198364258 C-44.12200164794922,-33.606998443603516 -28.566999435424805,-49.86899948120117 -15.604000091552734,-78.85900115966797z"></path></g></g><g transform="matrix(0.9999897480010986,-0.004528670106083155,0.004528670106083155,0.9999897480010986,355.2000427246094,319.15191650390625)" opacity="1" style="display: block;"><g opacity="1" transform="matrix(1,0,0,1,0,0)"><path fill="rgb(251,73,3)" fill-opacity="1" d=" M40.185001373291016,44.696998596191406 C40.185001373291016,44.696998596191406 50.08399963378906,-1.7339999675750732 50.08399963378906,-1.7339999675750732 C50.08399963378906,-1.7339999675750732 49.37699890136719,0.3869999945163727 49.37699890136719,0.3869999945163727 C49.37699890136719,0.3869999945163727 48.433998107910156,2.2730000019073486 48.433998107910156,2.2730000019073486 C42.54199981689453,10.28600025177002 35,5.1020002365112305 29.815000534057617,-0.5550000071525574 C29.815000534057617,-0.5550000071525574 26.750999450683594,-4.326000213623047 26.750999450683594,-4.326000213623047 C7.895999908447266,-25.538000106811523 -10.017000198364258,-40.1510009765625 -36.178001403808594,-50.99300003051758 C-36.178001403808594,-50.99300003051758 -37.356998443603516,-51.4640007019043 -37.356998443603516,-51.4640007019043 C-37.356998443603516,-51.4640007019043 -38.29899978637695,-51.935001373291016 -38.29899978637695,-51.935001373291016 C-38.29899978637695,-51.935001373291016 -39.47800064086914,-52.40700149536133 -39.47800064086914,-52.40700149536133 C-39.47800064086914,-52.40700149536133 -40.185001373291016,-52.87799835205078 -40.185001373291016,-52.87799835205078 C-40.185001373291016,-52.87799835205078 -50.08399963378906,-6.447999954223633 -50.08399963378906,-6.447999954223633 C-50.08399963378906,-6.447999954223633 -49.14099884033203,-5.97599983215332 -49.14099884033203,-5.97599983215332 C-49.14099884033203,-5.97599983215332 -48.198001861572266,-5.505000114440918 -48.198001861572266,-5.505000114440918 C-48.198001861572266,-5.505000114440918 -47.255001068115234,-5.0329999923706055 -47.255001068115234,-5.0329999923706055 C-47.255001068115234,-5.0329999923706055 -46.07699966430664,-4.561999797821045 -46.07699966430664,-4.561999797821045 C-46.07699966430664,-4.561999797821045 -44.66299819946289,-4.091000080108643 -44.66299819946289,-4.091000080108643 C-44.66299819946289,-4.091000080108643 -43.249000549316406,-3.384000062942505 -43.249000549316406,-3.384000062942505 C-43.249000549316406,-3.384000062942505 -41.834999084472656,-2.9119999408721924 -41.834999084472656,-2.9119999408721924 C-17.795000076293945,7.693999767303467 -0.3529999852180481,22.54199981689453 16.851999282836914,42.104000091552734 C16.851999282836914,42.104000091552734 19.916000366210938,45.875 19.916000366210938,45.875 C19.916000366210938,45.875 21.801000595092773,47.99599838256836 21.801000595092773,47.99599838256836 C27.222000122070312,52.709999084472656 33.58599853515625,55.77399826049805 38.53499984741211,48.702999114990234 C38.53499984741211,48.702999114990234 39.47800064086914,46.81800079345703 39.47800064086914,46.81800079345703 C39.47800064086914,46.81800079345703 40.185001373291016,44.696998596191406 40.185001373291016,44.696998596191406z"></path><path stroke-linecap="butt" stroke-linejoin="bevel" fill-opacity="0" stroke="rgb(0,0,0)" stroke-opacity="1" stroke-width="5" d=" M40.185001373291016,44.696998596191406 C40.185001373291016,44.696998596191406 50.08399963378906,-1.7339999675750732 50.08399963378906,-1.7339999675750732 C50.08399963378906,-1.7339999675750732 49.37699890136719,0.3869999945163727 49.37699890136719,0.3869999945163727 C49.37699890136719,0.3869999945163727 48.433998107910156,2.2730000019073486 48.433998107910156,2.2730000019073486 C42.54199981689453,10.28600025177002 35,5.1020002365112305 29.815000534057617,-0.5550000071525574 C29.815000534057617,-0.5550000071525574 26.750999450683594,-4.326000213623047 26.750999450683594,-4.326000213623047 C7.895999908447266,-25.538000106811523 -10.017000198364258,-40.1510009765625 -36.178001403808594,-50.99300003051758 C-36.178001403808594,-50.99300003051758 -37.356998443603516,-51.4640007019043 -37.356998443603516,-51.4640007019043 C-37.356998443603516,-51.4640007019043 -38.29899978637695,-51.935001373291016 -38.29899978637695,-51.935001373291016 C-38.29899978637695,-51.935001373291016 -39.47800064086914,-52.40700149536133 -39.47800064086914,-52.40700149536133 C-39.47800064086914,-52.40700149536133 -40.185001373291016,-52.87799835205078 -40.185001373291016,-52.87799835205078 C-40.185001373291016,-52.87799835205078 -50.08399963378906,-6.447999954223633 -50.08399963378906,-6.447999954223633 C-50.08399963378906,-6.447999954223633 -49.14099884033203,-5.97599983215332 -49.14099884033203,-5.97599983215332 C-49.14099884033203,-5.97599983215332 -48.198001861572266,-5.505000114440918 -48.198001861572266,-5.505000114440918 C-48.198001861572266,-5.505000114440918 -47.255001068115234,-5.0329999923706055 -47.255001068115234,-5.0329999923706055 C-47.255001068115234,-5.0329999923706055 -46.07699966430664,-4.561999797821045 -46.07699966430664,-4.561999797821045 C-46.07699966430664,-4.561999797821045 -44.66299819946289,-4.091000080108643 -44.66299819946289,-4.091000080108643 C-44.66299819946289,-4.091000080108643 -43.249000549316406,-3.384000062942505 -43.249000549316406,-3.384000062942505 C-43.249000549316406,-3.384000062942505 -41.834999084472656,-2.9119999408721924 -41.834999084472656,-2.9119999408721924 C-17.795000076293945,7.693999767303467 -0.3529999852180481,22.54199981689453 16.851999282836914,42.104000091552734 C16.851999282836914,42.104000091552734 19.916000366210938,45.875 19.916000366210938,45.875 C19.916000366210938,45.875 21.801000595092773,47.99599838256836 21.801000595092773,47.99599838256836 C27.222000122070312,52.709999084472656 33.58599853515625,55.77399826049805 38.53499984741211,48.702999114990234 C38.53499984741211,48.702999114990234 39.47800064086914,46.81800079345703 39.47800064086914,46.81800079345703 C39.47800064086914,46.81800079345703 40.185001373291016,44.696998596191406 40.185001373291016,44.696998596191406z"></path></g></g><g transform="matrix(0.9999897480010986,-0.004528670106083155,0.004528670106083155,0.9999897480010986,393.14447021484375,344.54833984375)" opacity="1" style="display: block;"><g opacity="1" transform="matrix(1,0,0,1,0,0)"><path fill="rgb(251,73,3)" fill-opacity="1" d=" M2.3570001125335693,19.128000259399414 C2.3570001125335693,19.128000259399414 12.255999565124512,-27.302000045776367 12.255999565124512,-27.302000045776367 C12.255999565124512,-27.302000045776367 11.548999786376953,-25.180999755859375 11.548999786376953,-25.180999755859375 C11.548999786376953,-25.180999755859375 10.605999946594238,-23.295000076293945 10.605999946594238,-23.295000076293945 C6.598999977111816,-17.874000549316406 1.649999976158142,-18.34600067138672 -3.5350000858306885,-21.881000518798828 C-3.5350000858306885,-21.881000518798828 -12.255999565124512,25.256000518798828 -12.255999565124512,25.256000518798828 C-12.255999565124512,25.256000518798828 -12.020000457763672,25.492000579833984 -12.020000457763672,25.492000579833984 C-4.714000225067139,29.26300048828125 0,27.141000747680664 2.3570001125335693,19.128000259399414z"></path><path stroke-linecap="butt" stroke-linejoin="bevel" fill-opacity="0" stroke="rgb(0,0,0)" stroke-opacity="1" stroke-width="5" d=" M2.3570001125335693,19.128000259399414 C2.3570001125335693,19.128000259399414 12.255999565124512,-27.302000045776367 12.255999565124512,-27.302000045776367 C12.255999565124512,-27.302000045776367 11.548999786376953,-25.180999755859375 11.548999786376953,-25.180999755859375 C11.548999786376953,-25.180999755859375 10.605999946594238,-23.295000076293945 10.605999946594238,-23.295000076293945 C6.598999977111816,-17.874000549316406 1.649999976158142,-18.34600067138672 -3.5350000858306885,-21.881000518798828 C-3.5350000858306885,-21.881000518798828 -12.255999565124512,25.256000518798828 -12.255999565124512,25.256000518798828 C-12.255999565124512,25.256000518798828 -12.020000457763672,25.492000579833984 -12.020000457763672,25.492000579833984 C-4.714000225067139,29.26300048828125 0,27.141000747680664 2.3570001125335693,19.128000259399414z"></path></g></g><g transform="matrix(0.9999897480010986,-0.004528670106083155,0.004528670106083155,0.9999897480010986,344.99822998046875,257.38250732421875)" opacity="1" style="display: block;"><g opacity="1" transform="matrix(1,0,0,1,0,0)"><path fill="rgb(251,73,3)" fill-opacity="1" d=" M-60.66600036621094,-68.6050033569336 C-60.66600036621094,-68.6050033569336 -30.261999130249023,9.406999588012695 -30.261999130249023,9.406999588012695 C-21.777000427246094,13.413999557495117 6.50600004196167,21.427000045776367 39.737998962402344,61.49399948120117 C49.637001037597656,73.51399993896484 62.362998962402344,70.44999694824219 60.47800064086914,51.124000549316406 C58.12099838256836,28.261999130249023 41.38800048828125,-14.161999702453613 24.65399932861328,-30.65999984741211 C2.2639999389648438,-52.814998626708984 -24.134000778198242,-55.641998291015625 -60.66600036621094,-68.6050033569336z"></path><path stroke-linecap="butt" stroke-linejoin="miter" fill-opacity="0" stroke-miterlimit="4" stroke="rgb(0,0,0)" stroke-opacity="1" stroke-width="5" d=" M-60.66600036621094,-68.6050033569336 C-60.66600036621094,-68.6050033569336 -30.261999130249023,9.406999588012695 -30.261999130249023,9.406999588012695 C-21.777000427246094,13.413999557495117 6.50600004196167,21.427000045776367 39.737998962402344,61.49399948120117 C49.637001037597656,73.51399993896484 62.362998962402344,70.44999694824219 60.47800064086914,51.124000549316406 C58.12099838256836,28.261999130249023 41.38800048828125,-14.161999702453613 24.65399932861328,-30.65999984741211 C2.2639999389648438,-52.814998626708984 -24.134000778198242,-55.641998291015625 -60.66600036621094,-68.6050033569336z"></path></g></g><g transform="matrix(0.9999897480010986,-0.004528670106083155,0.004528670106083155,0.9999897480010986,300.4164733886719,374.3486022949219)" opacity="1" style="display: block;"><g opacity="1" transform="matrix(1,0,0,1,0,0)"><path fill="rgb(233,204,255)" fill-opacity="1" d=" M0.6980581879615784,13.53918170928955 C0.6980581879615784,13.53918170928955 10.596428871154785,-32.894493103027344 10.596428871154785,-32.894493103027344 C10.596428871154785,-32.894493103027344 9.88942813873291,-30.77349090576172 9.88942813873291,-30.77349090576172 C7.534181594848633,-23.46546173095703 4.704780101776123,-18.985576629638672 -0.7125720977783203,-13.564529418945312 C-0.7125720977783203,-13.564529418945312 -10.611572265625,32.86547088623047 -10.611572265625,32.86547088623047 C-4.719572067260742,26.973472595214844 -1.42294180393219,21.552181243896484 0.6980581879615784,13.53918170928955z"></path><path stroke-linecap="butt" stroke-linejoin="bevel" fill-opacity="0" stroke="rgb(0,0,0)" stroke-opacity="1" stroke-width="5" d=" M0.6980581879615784,13.53918170928955 C0.6980581879615784,13.53918170928955 10.596428871154785,-32.894493103027344 10.596428871154785,-32.894493103027344 C10.596428871154785,-32.894493103027344 9.88942813873291,-30.77349090576172 9.88942813873291,-30.77349090576172 C7.534181594848633,-23.46546173095703 4.704780101776123,-18.985576629638672 -0.7125720977783203,-13.564529418945312 C-0.7125720977783203,-13.564529418945312 -10.611572265625,32.86547088623047 -10.611572265625,32.86547088623047 C-4.719572067260742,26.973472595214844 -1.42294180393219,21.552181243896484 0.6980581879615784,13.53918170928955z"></path></g></g><g transform="matrix(0.9999897480010986,-0.004528670106083155,0.004528670106083155,0.9999897480010986,269.3650207519531,361.29107666015625)" opacity="1" style="display: block;"><g opacity="1" transform="matrix(1,0,0,1,0,0)"><path fill="rgb(233,204,255)" fill-opacity="1" d=" M20.380813598632812,46.06386184692383 C20.380813598632812,46.06386184692383 30.279813766479492,-0.3671383261680603 30.279813766479492,-0.3671383261680603 C30.279813766479492,-0.3671383261680603 30.043813705444336,-0.3671383261680603 30.043813705444336,-0.3671383261680603 C30.043813705444336,-0.3671383261680603 29.33681297302246,-0.3671383261680603 29.33681297302246,-0.3671383261680603 C29.33681297302246,-0.3671383261680603 28.629812240600586,-0.3671383261680603 28.629812240600586,-0.3671383261680603 C28.629812240600586,-0.3671383261680603 27.451812744140625,-0.3671383261680603 27.451812744140625,-0.3671383261680603 C4.597642421722412,-3.667205810546875 -19.197200775146484,-16.381895065307617 -20.386999130249023,-42.54199981689453 C-20.386999130249023,-42.54199981689453 -20.150999069213867,-46.3129997253418 -20.150999069213867,-46.3129997253418 C-20.150999069213867,-46.3129997253418 -30.049999237060547,0.11800000071525574 -30.049999237060547,0.11800000071525574 C-30.049999237060547,0.11800000071525574 -30.285999298095703,3.8889999389648438 -30.285999298095703,3.8889999389648438 C-30.285999298095703,3.8889999389648438 -30.049999237060547,7.188000202178955 -30.049999237060547,7.188000202178955 C-26.74124526977539,31.461822509765625 -3.4074792861938477,43.70909881591797 18.730812072753906,46.06386184692383 C18.730812072753906,46.06386184692383 19.43781280517578,46.299861907958984 19.43781280517578,46.299861907958984 C19.43781280517578,46.299861907958984 20.144813537597656,46.299861907958984 20.144813537597656,46.299861907958984 C20.144813537597656,46.299861907958984 20.380813598632812,46.06386184692383 20.380813598632812,46.06386184692383z"></path><path stroke-linecap="butt" stroke-linejoin="bevel" fill-opacity="0" stroke="rgb(0,0,0)" stroke-opacity="1" stroke-width="5" d=" M20.380813598632812,46.06386184692383 C20.380813598632812,46.06386184692383 30.279813766479492,-0.3671383261680603 30.279813766479492,-0.3671383261680603 C30.279813766479492,-0.3671383261680603 30.043813705444336,-0.3671383261680603 30.043813705444336,-0.3671383261680603 C30.043813705444336,-0.3671383261680603 29.33681297302246,-0.3671383261680603 29.33681297302246,-0.3671383261680603 C29.33681297302246,-0.3671383261680603 28.629812240600586,-0.3671383261680603 28.629812240600586,-0.3671383261680603 C28.629812240600586,-0.3671383261680603 27.451812744140625,-0.3671383261680603 27.451812744140625,-0.3671383261680603 C4.597642421722412,-3.667205810546875 -19.197200775146484,-16.381895065307617 -20.386999130249023,-42.54199981689453 C-20.386999130249023,-42.54199981689453 -20.150999069213867,-46.3129997253418 -20.150999069213867,-46.3129997253418 C-20.150999069213867,-46.3129997253418 -30.049999237060547,0.11800000071525574 -30.049999237060547,0.11800000071525574 C-30.049999237060547,0.11800000071525574 -30.285999298095703,3.8889999389648438 -30.285999298095703,3.8889999389648438 C-30.285999298095703,3.8889999389648438 -30.049999237060547,7.188000202178955 -30.049999237060547,7.188000202178955 C-26.74124526977539,31.461822509765625 -3.4074792861938477,43.70909881591797 18.730812072753906,46.06386184692383 C18.730812072753906,46.06386184692383 19.43781280517578,46.299861907958984 19.43781280517578,46.299861907958984 C19.43781280517578,46.299861907958984 20.144813537597656,46.299861907958984 20.144813537597656,46.299861907958984 C20.144813537597656,46.299861907958984 20.380813598632812,46.06386184692383 20.380813598632812,46.06386184692383z"></path></g></g><g transform="matrix(0.9999897480010986,-0.004528670106083155,0.004528670106083155,0.9999897480010986,280.5149841308594,331.4502868652344)" opacity="1" style="display: block;"><g opacity="1" transform="matrix(1,0,0,1,0,0)"><path fill="rgb(233,204,255)" fill-opacity="1" d=" M-31.437999725341797,-16.049999237060547 C-31.437999725341797,-16.049999237060547 11.222000122070312,-29.95599937438965 11.222000122070312,-29.95599937438965 C43.02407455444336,-11.803718566894531 31.006643295288086,18.346677780151367 18.99411964416504,29.895858764648438 C17.344120025634766,30.602859497070312 -34.722496032714844,23.77506446838379 -31.437999725341797,-16.049999237060547z"></path><path stroke-linecap="butt" stroke-linejoin="miter" fill-opacity="0" stroke-miterlimit="4" stroke="rgb(0,0,0)" stroke-opacity="1" stroke-width="5" d=" M-31.437999725341797,-16.049999237060547 C-31.437999725341797,-16.049999237060547 11.222000122070312,-29.95599937438965 11.222000122070312,-29.95599937438965 C43.02407455444336,-11.803718566894531 31.006643295288086,18.346677780151367 18.99411964416504,29.895858764648438 C17.344120025634766,30.602859497070312 -34.722496032714844,23.77506446838379 -31.437999725341797,-16.049999237060547z"></path></g></g><g transform="matrix(0.9999897480010986,-0.004528670106083155,0.004528670106083155,0.9999897480010986,276.3561096191406,321.3290100097656)" opacity="1" style="display: block;"><g opacity="1" transform="matrix(1,0,0,1,0,0)"><path fill="rgb(255,215,49)" fill-opacity="1" d=" M-18.131999969482422,-9.210000038146973 C-18.131999969482422,-9.210000038146973 6.614999771118164,-17.224000930786133 6.614999771118164,-17.224000930786133 C24.747323989868164,-6.859161853790283 17.92303466796875,10.574243545532227 10.852035522460938,17.173242568969727 C9.909035682678223,17.644243240356445 -20.01111602783203,13.874659538269043 -18.131999969482422,-9.210000038146973z"></path><path stroke-linecap="butt" stroke-linejoin="miter" fill-opacity="0" stroke-miterlimit="4" stroke="rgb(0,0,0)" stroke-opacity="1" stroke-width="5" d=" M-18.131999969482422,-9.210000038146973 C-18.131999969482422,-9.210000038146973 6.614999771118164,-17.224000930786133 6.614999771118164,-17.224000930786133 C24.747323989868164,-6.859161853790283 17.92303466796875,10.574243545532227 10.852035522460938,17.173242568969727 C9.909035682678223,17.644243240356445 -20.01111602783203,13.874659538269043 -18.131999969482422,-9.210000038146973z"></path></g></g></g></svg>