<svg xmlns="http://www.w3.org/2000/svg" xmlns:xlink="http://www.w3.org/1999/xlink" viewBox="0 0 500 500" width="500" height="500" preserveAspectRatio="xMidYMid meet" style="width: 100%; height: 100%; transform: translate3d(0px, 0px, 0px); content-visibility: visible;"><defs><clipPath id="__lottie_element_1480"><rect width="500" height="500" x="0" y="0"></rect></clipPath><g id="__lottie_element_1484"><g transform="matrix(1,0,0,1,235.38720703125,235.05979919433594)" opacity="1" style="display: block;"><g opacity="1" transform="matrix(1,0,0,1,0,0)"><path fill="rgb(204,204,204)" fill-opacity="1" d=" M28.606000900268555,-97.4280014038086 C28.606000900268555,-97.4280014038086 -109.41300201416016,-43.691001892089844 -109.41300201416016,-43.691001892089844 C-115.4469985961914,-41.2400016784668 -118.2750015258789,-35.39500045776367 -115.4469985961914,-30.680999755859375 C-115.4469985961914,-30.680999755859375 -44.551998138427734,93.00800323486328 -44.551998138427734,93.00800323486328 C-41.9119987487793,97.72200012207031 -34.558998107910156,99.7959976196289 -28.524999618530273,97.34500122070312 C-28.524999618530273,97.34500122070312 109.49400329589844,43.608001708984375 109.49400329589844,43.608001708984375 C115.52799987792969,41.15700149536133 118.16799926757812,35.3120002746582 115.52799987792969,30.597999572753906 C115.52799987792969,30.597999572753906 44.444000244140625,-93.09100341796875 44.444000244140625,-93.09100341796875 C41.80400085449219,-97.80500030517578 34.63999938964844,-99.69100189208984 28.606000900268555,-97.4280014038086z"></path><path stroke-linecap="butt" stroke-linejoin="miter" fill-opacity="0" stroke-miterlimit="4" stroke="rgb(0,0,0)" stroke-opacity="1" stroke-width="4" d=" M28.606000900268555,-97.4280014038086 C28.606000900268555,-97.4280014038086 -109.41300201416016,-43.691001892089844 -109.41300201416016,-43.691001892089844 C-115.4469985961914,-41.2400016784668 -118.2750015258789,-35.39500045776367 -115.4469985961914,-30.680999755859375 C-115.4469985961914,-30.680999755859375 -44.551998138427734,93.00800323486328 -44.551998138427734,93.00800323486328 C-41.9119987487793,97.72200012207031 -34.558998107910156,99.7959976196289 -28.524999618530273,97.34500122070312 C-28.524999618530273,97.34500122070312 109.49400329589844,43.608001708984375 109.49400329589844,43.608001708984375 C115.52799987792969,41.15700149536133 118.16799926757812,35.3120002746582 115.52799987792969,30.597999572753906 C115.52799987792969,30.597999572753906 44.444000244140625,-93.09100341796875 44.444000244140625,-93.09100341796875 C41.80400085449219,-97.80500030517578 34.63999938964844,-99.69100189208984 28.606000900268555,-97.4280014038086z"></path></g></g></g><mask id="__lottie_element_1484_1" mask-type="alpha"><use xlink:href="#__lottie_element_1484"></use></mask><g id="__lottie_element_1493"><g transform="matrix(1,0,0,1,235.38720703125,235.05979919433594)" opacity="1" style="display: block;"><g opacity="1" transform="matrix(1,0,0,1,0,0)"><path fill="rgb(204,204,204)" fill-opacity="1" d=" M28.606000900268555,-97.4280014038086 C28.606000900268555,-97.4280014038086 -109.41300201416016,-43.691001892089844 -109.41300201416016,-43.691001892089844 C-115.4469985961914,-41.2400016784668 -118.2750015258789,-35.39500045776367 -115.4469985961914,-30.680999755859375 C-115.4469985961914,-30.680999755859375 -44.551998138427734,93.00800323486328 -44.551998138427734,93.00800323486328 C-41.9119987487793,97.72200012207031 -34.558998107910156,99.7959976196289 -28.524999618530273,97.34500122070312 C-28.524999618530273,97.34500122070312 109.49400329589844,43.608001708984375 109.49400329589844,43.608001708984375 C115.52799987792969,41.15700149536133 118.16799926757812,35.3120002746582 115.52799987792969,30.597999572753906 C115.52799987792969,30.597999572753906 44.444000244140625,-93.09100341796875 44.444000244140625,-93.09100341796875 C41.80400085449219,-97.80500030517578 34.63999938964844,-99.69100189208984 28.606000900268555,-97.4280014038086z"></path><path stroke-linecap="butt" stroke-linejoin="miter" fill-opacity="0" stroke-miterlimit="4" stroke="rgb(0,0,0)" stroke-opacity="1" stroke-width="4" d=" M28.606000900268555,-97.4280014038086 C28.606000900268555,-97.4280014038086 -109.41300201416016,-43.691001892089844 -109.41300201416016,-43.691001892089844 C-115.4469985961914,-41.2400016784668 -118.2750015258789,-35.39500045776367 -115.4469985961914,-30.680999755859375 C-115.4469985961914,-30.680999755859375 -44.551998138427734,93.00800323486328 -44.551998138427734,93.00800323486328 C-41.9119987487793,97.72200012207031 -34.558998107910156,99.7959976196289 -28.524999618530273,97.34500122070312 C-28.524999618530273,97.34500122070312 109.49400329589844,43.608001708984375 109.49400329589844,43.608001708984375 C115.52799987792969,41.15700149536133 118.16799926757812,35.3120002746582 115.52799987792969,30.597999572753906 C115.52799987792969,30.597999572753906 44.444000244140625,-93.09100341796875 44.444000244140625,-93.09100341796875 C41.80400085449219,-97.80500030517578 34.63999938964844,-99.69100189208984 28.606000900268555,-97.4280014038086z"></path></g></g></g><mask id="__lottie_element_1493_1" mask-type="alpha"><use xlink:href="#__lottie_element_1493"></use></mask></defs><g clip-path="url(#__lottie_element_1480)"><g transform="matrix(1,0,0,1,239.6232147216797,250.1907958984375)" opacity="1" style="display: block;"><g opacity="1" transform="matrix(1,0,0,1,-0.1589999943971634,38.47800064086914)"><path fill="rgb(255,255,255)" fill-opacity="1" d=" M143.1269989013672,17.339000701904297 C143.1269989013672,17.339000701904297 145.5780029296875,4.705999851226807 145.5780029296875,4.705999851226807 C145.5780029296875,4.705999851226807 145.2010040283203,5.64900016784668 145.2010040283203,5.64900016784668 C145.2010040283203,5.64900016784668 145.01300048828125,6.5920000076293945 145.01300048828125,6.5920000076293945 C142.75,12.24899959564209 138.7899932861328,16.018999099731445 132.94500732421875,18.659000396728516 C132.94500732421875,18.659000396728516 131.81399536132812,19.035999298095703 131.81399536132812,19.035999298095703 C131.81399536132812,19.035999298095703 -21.666000366210938,78.99500274658203 -21.666000366210938,78.99500274658203 C-21.666000366210938,78.99500274658203 -22.797000885009766,79.37200164794922 -22.797000885009766,79.37200164794922 C-33.16699981689453,82.76599884033203 -45.79999923706055,80.69200134277344 -52.21099853515625,71.4530029296875 C-52.21099853515625,71.4530029296875 -52.777000427246094,70.51000213623047 -52.777000427246094,70.51000213623047 C-52.777000427246094,70.51000213623047 -141.20700073242188,-83.53500366210938 -141.20700073242188,-83.53500366210938 C-142.9040069580078,-86.552001953125 -143.468994140625,-89.19200134277344 -143.0919952392578,-92.58599853515625 C-143.0919952392578,-92.58599853515625 -143.0919952392578,-93.52799987792969 -143.0919952392578,-93.52799987792969 C-143.0919952392578,-93.52799987792969 -145.35499572753906,-80.70700073242188 -145.35499572753906,-80.70700073242188 C-145.35499572753906,-80.70700073242188 -145.54400634765625,-79.9530029296875 -145.54400634765625,-79.9530029296875 C-145.73300170898438,-76.37100219726562 -145.16700744628906,-73.91899871826172 -143.47000122070312,-70.9020004272461 C-143.47000122070312,-70.9020004272461 -55.22800064086914,83.14299774169922 -55.22800064086914,83.14299774169922 C-55.22800064086914,83.14299774169922 -54.6619987487793,84.08599853515625 -54.6619987487793,84.08599853515625 C-47.68600082397461,93.89099884033203 -34.487998962402344,95.39900207519531 -23.929000854492188,91.62799835205078 C-23.929000854492188,91.62799835205078 129.552001953125,31.857999801635742 129.552001953125,31.857999801635742 C129.552001953125,31.857999801635742 130.68299865722656,31.29199981689453 130.68299865722656,31.29199981689453 C137.093994140625,28.274999618530273 141.42999267578125,23.937999725341797 143.1269989013672,17.339000701904297z"></path><path stroke-linecap="butt" stroke-linejoin="bevel" fill-opacity="0" stroke="rgb(0,0,0)" stroke-opacity="1" stroke-width="4" d=" M143.1269989013672,17.339000701904297 C143.1269989013672,17.339000701904297 145.5780029296875,4.705999851226807 145.5780029296875,4.705999851226807 C145.5780029296875,4.705999851226807 145.2010040283203,5.64900016784668 145.2010040283203,5.64900016784668 C145.2010040283203,5.64900016784668 145.01300048828125,6.5920000076293945 145.01300048828125,6.5920000076293945 C142.75,12.24899959564209 138.7899932861328,16.018999099731445 132.94500732421875,18.659000396728516 C132.94500732421875,18.659000396728516 131.81399536132812,19.035999298095703 131.81399536132812,19.035999298095703 C131.81399536132812,19.035999298095703 -21.666000366210938,78.99500274658203 -21.666000366210938,78.99500274658203 C-21.666000366210938,78.99500274658203 -22.797000885009766,79.37200164794922 -22.797000885009766,79.37200164794922 C-33.16699981689453,82.76599884033203 -45.79999923706055,80.69200134277344 -52.21099853515625,71.4530029296875 C-52.21099853515625,71.4530029296875 -52.777000427246094,70.51000213623047 -52.777000427246094,70.51000213623047 C-52.777000427246094,70.51000213623047 -141.20700073242188,-83.53500366210938 -141.20700073242188,-83.53500366210938 C-142.9040069580078,-86.552001953125 -143.468994140625,-89.19200134277344 -143.0919952392578,-92.58599853515625 C-143.0919952392578,-92.58599853515625 -143.0919952392578,-93.52799987792969 -143.0919952392578,-93.52799987792969 C-143.0919952392578,-93.52799987792969 -145.35499572753906,-80.70700073242188 -145.35499572753906,-80.70700073242188 C-145.35499572753906,-80.70700073242188 -145.54400634765625,-79.9530029296875 -145.54400634765625,-79.9530029296875 C-145.73300170898438,-76.37100219726562 -145.16700744628906,-73.91899871826172 -143.47000122070312,-70.9020004272461 C-143.47000122070312,-70.9020004272461 -55.22800064086914,83.14299774169922 -55.22800064086914,83.14299774169922 C-55.22800064086914,83.14299774169922 -54.6619987487793,84.08599853515625 -54.6619987487793,84.08599853515625 C-47.68600082397461,93.89099884033203 -34.487998962402344,95.39900207519531 -23.929000854492188,91.62799835205078 C-23.929000854492188,91.62799835205078 129.552001953125,31.857999801635742 129.552001953125,31.857999801635742 C129.552001953125,31.857999801635742 130.68299865722656,31.29199981689453 130.68299865722656,31.29199981689453 C137.093994140625,28.274999618530273 141.42999267578125,23.937999725341797 143.1269989013672,17.339000701904297z"></path></g><g opacity="1" transform="matrix(1,0,0,1,52.18199920654297,87.59500122070312)"><path fill="rgb(255,255,255)" fill-opacity="1" d=" M90.78700256347656,-31.777999877929688 C90.78700256347656,-31.777999877929688 93.23799896240234,-44.4109992980957 93.23799896240234,-44.4109992980957 C93.23799896240234,-44.4109992980957 92.86100006103516,-43.46799850463867 92.86100006103516,-43.46799850463867 C92.86100006103516,-43.46799850463867 92.6729965209961,-42.5260009765625 92.6729965209961,-42.5260009765625 C90.41000366210938,-36.86899948120117 86.44999694824219,-33.097999572753906 80.6050033569336,-30.45800018310547 C80.6050033569336,-30.45800018310547 79.4739990234375,-30.08099937438965 79.4739990234375,-30.08099937438965 C79.4739990234375,-30.08099937438965 -74.00599670410156,29.878000259399414 -74.00599670410156,29.878000259399414 C-74.00599670410156,29.878000259399414 -75.13700103759766,30.2549991607666 -75.13700103759766,30.2549991607666 C-80.03900146484375,31.76300048828125 -85.6969985961914,32.13999938964844 -90.97599792480469,31.009000778198242 C-90.97599792480469,31.009000778198242 -93.23799896240234,43.83100128173828 -93.23799896240234,43.83100128173828 C-87.7699966430664,44.96200180053711 -81.73699951171875,44.395999908447266 -76.26899719238281,42.51100158691406 C-76.26899719238281,42.51100158691406 77.21099853515625,-17.260000228881836 77.21099853515625,-17.260000228881836 C77.21099853515625,-17.260000228881836 78.34300231933594,-17.825000762939453 78.34300231933594,-17.825000762939453 C84.75399780273438,-20.841999053955078 89.08999633789062,-25.179000854492188 90.78700256347656,-31.777999877929688z"></path><path stroke-linecap="butt" stroke-linejoin="bevel" fill-opacity="0" stroke="rgb(0,0,0)" stroke-opacity="1" stroke-width="4" d=" M90.78700256347656,-31.777999877929688 C90.78700256347656,-31.777999877929688 93.23799896240234,-44.4109992980957 93.23799896240234,-44.4109992980957 C93.23799896240234,-44.4109992980957 92.86100006103516,-43.46799850463867 92.86100006103516,-43.46799850463867 C92.86100006103516,-43.46799850463867 92.6729965209961,-42.5260009765625 92.6729965209961,-42.5260009765625 C90.41000366210938,-36.86899948120117 86.44999694824219,-33.097999572753906 80.6050033569336,-30.45800018310547 C80.6050033569336,-30.45800018310547 79.4739990234375,-30.08099937438965 79.4739990234375,-30.08099937438965 C79.4739990234375,-30.08099937438965 -74.00599670410156,29.878000259399414 -74.00599670410156,29.878000259399414 C-74.00599670410156,29.878000259399414 -75.13700103759766,30.2549991607666 -75.13700103759766,30.2549991607666 C-80.03900146484375,31.76300048828125 -85.6969985961914,32.13999938964844 -90.97599792480469,31.009000778198242 C-90.97599792480469,31.009000778198242 -93.23799896240234,43.83100128173828 -93.23799896240234,43.83100128173828 C-87.7699966430664,44.96200180053711 -81.73699951171875,44.395999908447266 -76.26899719238281,42.51100158691406 C-76.26899719238281,42.51100158691406 77.21099853515625,-17.260000228881836 77.21099853515625,-17.260000228881836 C77.21099853515625,-17.260000228881836 78.34300231933594,-17.825000762939453 78.34300231933594,-17.825000762939453 C84.75399780273438,-20.841999053955078 89.08999633789062,-25.179000854492188 90.78700256347656,-31.777999877929688z"></path></g><g opacity="1" transform="matrix(1,0,0,1,1.1619999408721924,-6.309999942779541)"><path fill="rgb(255,255,255)" fill-opacity="1" d=" M22.83099937438965,-123.78299713134766 C22.83099937438965,-123.78299713134766 -130.64999389648438,-64.01300048828125 -130.64999389648438,-64.01300048828125 C-142.5290069580078,-59.29899978637695 -147.8070068359375,-47.986000061035156 -142.5279998779297,-38.74700164794922 C-142.5279998779297,-38.74700164794922 -54.097999572753906,115.29900360107422 -54.097999572753906,115.29900360107422 C-48.819000244140625,124.53800201416016 -34.676998138427734,128.30799865722656 -22.98699951171875,123.78299713134766 C-22.98699951171875,123.78299713134766 130.4929962158203,63.82400131225586 130.4929962158203,63.82400131225586 C142.3719940185547,59.29899978637695 147.83900451660156,47.986000061035156 142.55999755859375,38.74700164794922 C142.55999755859375,38.74700164794922 54.130001068115234,-115.29900360107422 54.130001068115234,-115.29900360107422 C48.85100173950195,-124.53800201416016 34.709999084472656,-128.30799865722656 22.83099937438965,-123.78299713134766z"></path><path stroke-linecap="butt" stroke-linejoin="miter" fill-opacity="0" stroke-miterlimit="4" stroke="rgb(0,0,0)" stroke-opacity="1" stroke-width="4" d=" M22.83099937438965,-123.78299713134766 C22.83099937438965,-123.78299713134766 -130.64999389648438,-64.01300048828125 -130.64999389648438,-64.01300048828125 C-142.5290069580078,-59.29899978637695 -147.8070068359375,-47.986000061035156 -142.5279998779297,-38.74700164794922 C-142.5279998779297,-38.74700164794922 -54.097999572753906,115.29900360107422 -54.097999572753906,115.29900360107422 C-48.819000244140625,124.53800201416016 -34.676998138427734,128.30799865722656 -22.98699951171875,123.78299713134766 C-22.98699951171875,123.78299713134766 130.4929962158203,63.82400131225586 130.4929962158203,63.82400131225586 C142.3719940185547,59.29899978637695 147.83900451660156,47.986000061035156 142.55999755859375,38.74700164794922 C142.55999755859375,38.74700164794922 54.130001068115234,-115.29900360107422 54.130001068115234,-115.29900360107422 C48.85100173950195,-124.53800201416016 34.709999084472656,-128.30799865722656 22.83099937438965,-123.78299713134766z"></path></g></g><g transform="matrix(1,0,0,1,235.38720703125,235.05979919433594)" opacity="1" style="display: block;"><g opacity="1" transform="matrix(1,0,0,1,0,0)"><path fill="rgb(204,204,204)" fill-opacity="1" d=" M28.606000900268555,-97.4280014038086 C28.606000900268555,-97.4280014038086 -109.41300201416016,-43.691001892089844 -109.41300201416016,-43.691001892089844 C-115.4469985961914,-41.2400016784668 -118.2750015258789,-35.39500045776367 -115.4469985961914,-30.680999755859375 C-115.4469985961914,-30.680999755859375 -44.551998138427734,93.00800323486328 -44.551998138427734,93.00800323486328 C-41.9119987487793,97.72200012207031 -34.558998107910156,99.7959976196289 -28.524999618530273,97.34500122070312 C-28.524999618530273,97.34500122070312 109.49400329589844,43.608001708984375 109.49400329589844,43.608001708984375 C115.52799987792969,41.15700149536133 118.16799926757812,35.3120002746582 115.52799987792969,30.597999572753906 C115.52799987792969,30.597999572753906 44.444000244140625,-93.09100341796875 44.444000244140625,-93.09100341796875 C41.80400085449219,-97.80500030517578 34.63999938964844,-99.69100189208984 28.606000900268555,-97.4280014038086z"></path><path stroke-linecap="butt" stroke-linejoin="miter" fill-opacity="0" stroke-miterlimit="4" stroke="rgb(0,0,0)" stroke-opacity="1" stroke-width="4" d=" M28.606000900268555,-97.4280014038086 C28.606000900268555,-97.4280014038086 -109.41300201416016,-43.691001892089844 -109.41300201416016,-43.691001892089844 C-115.4469985961914,-41.2400016784668 -118.2750015258789,-35.39500045776367 -115.4469985961914,-30.680999755859375 C-115.4469985961914,-30.680999755859375 -44.551998138427734,93.00800323486328 -44.551998138427734,93.00800323486328 C-41.9119987487793,97.72200012207031 -34.558998107910156,99.7959976196289 -28.524999618530273,97.34500122070312 C-28.524999618530273,97.34500122070312 109.49400329589844,43.608001708984375 109.49400329589844,43.608001708984375 C115.52799987792969,41.15700149536133 118.16799926757812,35.3120002746582 115.52799987792969,30.597999572753906 C115.52799987792969,30.597999572753906 44.444000244140625,-93.09100341796875 44.444000244140625,-93.09100341796875 C41.80400085449219,-97.80500030517578 34.63999938964844,-99.69100189208984 28.606000900268555,-97.4280014038086z"></path></g></g><g mask="url(#__lottie_element_1493_1)" style="display: none;"><g transform="matrix(1,0,0,1,89.68055725097656,291.56695556640625)" opacity="1"><g opacity="1" transform="matrix(1,0,0,1,0,0)"><path stroke-linecap="round" stroke-linejoin="miter" fill-opacity="0" stroke-miterlimit="4" stroke="rgb(0,0,0)" stroke-opacity="1" stroke-width="4" d=" M-17.246999740600586,36.082000732421875 C-17.246999740600586,36.082000732421875 -33.27399826049805,42.30400085449219 -33.27399826049805,42.30400085449219 C-33.27399826049805,42.30400085449219 -51.56399917602539,12.13599967956543 -51.56399917602539,12.13599967956543 C-66.08200073242188,-11.621000289916992 -57.220001220703125,-38.96099853515625 -31.95400047302246,-48.76599884033203 C-6.688000202178955,-58.57099914550781 25.742000579833984,-47.25699996948242 40.071998596191406,-23.5 C40.071998596191406,-23.5 58.54999923706055,6.668000221252441 58.54999923706055,6.668000221252441 C58.54999923706055,6.668000221252441 44.03200149536133,12.324000358581543 44.03200149536133,12.324000358581543 C44.03200149536133,12.324000358581543 53.83599853515625,28.540000915527344 53.83599853515625,28.540000915527344 C53.83599853515625,28.540000915527344 24.798999786376953,39.85300064086914 24.798999786376953,39.85300064086914 C24.798999786376953,39.85300064086914 -7.254000186920166,52.297000885009766 -7.254000186920166,52.297000885009766 C-7.254000186920166,52.297000885009766 -17.246999740600586,36.082000732421875 -17.246999740600586,36.082000732421875z"></path></g><g opacity="1" transform="matrix(1,0,0,1,0.2879999876022339,37.49700164794922)"><path stroke-linecap="round" stroke-linejoin="miter" fill-opacity="0" stroke-miterlimit="4" stroke="rgb(0,0,0)" stroke-opacity="1" stroke-width="4" d=" M-5.2789998054504395,-8.579000473022461 C-5.2789998054504395,-8.579000473022461 5.2789998054504395,8.579000473022461 5.2789998054504395,8.579000473022461"></path></g><g opacity="1" transform="matrix(1,0,0,1,16.974000930786133,30.89699935913086)"><path stroke-linecap="round" stroke-linejoin="miter" fill-opacity="0" stroke-miterlimit="4" stroke="rgb(0,0,0)" stroke-opacity="1" stroke-width="4" d=" M-5.184999942779541,-8.579000473022461 C-5.184999942779541,-8.579000473022461 5.184999942779541,8.579000473022461 5.184999942779541,8.579000473022461"></path></g><g opacity="1" transform="matrix(1,0,0,1,33.6609992980957,24.486000061035156)"><path stroke-linecap="round" stroke-linejoin="miter" fill-opacity="0" stroke-miterlimit="4" stroke="rgb(0,0,0)" stroke-opacity="1" stroke-width="4" d=" M-5.2789998054504395,-8.579000473022461 C-5.2789998054504395,-8.579000473022461 5.2789998054504395,8.579000473022461 5.2789998054504395,8.579000473022461"></path></g><g opacity="1" transform="matrix(1,0,0,1,-20.805999755859375,4.607999801635742)"><path fill="rgb(0,0,0)" fill-opacity="1" d=" M11.288999557495117,-4.349999904632568 C7.706999778747559,-10.194999694824219 -0.21199999749660492,-13.02299976348877 -6.434000015258789,-10.571999549865723 C-12.656000137329102,-8.121000289916992 -14.918999671936035,-1.5210000276565552 -11.336999893188477,4.323999881744385 C-7.755000114440918,10.357999801635742 0.16500000655651093,12.996999740600586 6.576000213623047,10.545999526977539 C12.79800033569336,8.282999992370605 14.871000289916992,1.4950000047683716 11.288999557495117,-4.349999904632568z"></path><path stroke-linecap="round" stroke-linejoin="miter" fill-opacity="0" stroke-miterlimit="4" stroke="rgb(0,0,0)" stroke-opacity="1" stroke-width="4" d=" M11.288999557495117,-4.349999904632568 C7.706999778747559,-10.194999694824219 -0.21199999749660492,-13.02299976348877 -6.434000015258789,-10.571999549865723 C-12.656000137329102,-8.121000289916992 -14.918999671936035,-1.5210000276565552 -11.336999893188477,4.323999881744385 C-7.755000114440918,10.357999801635742 0.16500000655651093,12.996999740600586 6.576000213623047,10.545999526977539 C12.79800033569336,8.282999992370605 14.871000289916992,1.4950000047683716 11.288999557495117,-4.349999904632568z"></path></g><g opacity="1" transform="matrix(1,0,0,1,16.90399932861328,-9.829999923706055)"><path fill="rgb(0,0,0)" fill-opacity="1" d=" M11.288999557495117,-4.431000232696533 C7.706999778747559,-10.276000022888184 -0.21199999749660492,-13.104000091552734 -6.434000015258789,-10.652999877929688 C-12.656000137329102,-8.20199966430664 -14.918999671936035,-1.4140000343322754 -11.336999893188477,4.431000232696533 C-7.755000114440918,10.276000022888184 0.16500000655651093,13.104000091552734 6.576000213623047,10.652999877929688 C12.79800033569336,8.20199966430664 14.871000289916992,1.4140000343322754 11.288999557495117,-4.431000232696533z"></path><path stroke-linecap="round" stroke-linejoin="miter" fill-opacity="0" stroke-miterlimit="4" stroke="rgb(0,0,0)" stroke-opacity="1" stroke-width="4" d=" M11.288999557495117,-4.431000232696533 C7.706999778747559,-10.276000022888184 -0.21199999749660492,-13.104000091552734 -6.434000015258789,-10.652999877929688 C-12.656000137329102,-8.20199966430664 -14.918999671936035,-1.4140000343322754 -11.336999893188477,4.431000232696533 C-7.755000114440918,10.276000022888184 0.16500000655651093,13.104000091552734 6.576000213623047,10.652999877929688 C12.79800033569336,8.20199966430664 14.871000289916992,1.4140000343322754 11.288999557495117,-4.431000232696533z"></path></g></g></g><g mask="url(#__lottie_element_1484_1)" style="display: block;"><g transform="matrix(1,0,0,1,241.26821899414062,238.24879455566406)" opacity="1"><g opacity="1" transform="matrix(1,0,0,1,0,0)"><path stroke-linecap="round" stroke-linejoin="miter" fill-opacity="0" stroke-miterlimit="4" stroke="rgb(0,0,0)" stroke-opacity="1" stroke-width="4" d=" M-17.246999740600586,36.082000732421875 C-17.246999740600586,36.082000732421875 -33.27399826049805,42.30400085449219 -33.27399826049805,42.30400085449219 C-33.27399826049805,42.30400085449219 -51.56399917602539,12.13599967956543 -51.56399917602539,12.13599967956543 C-66.08200073242188,-11.621000289916992 -57.220001220703125,-38.96099853515625 -31.95400047302246,-48.76599884033203 C-6.688000202178955,-58.57099914550781 25.742000579833984,-47.25699996948242 40.071998596191406,-23.5 C40.071998596191406,-23.5 58.54999923706055,6.668000221252441 58.54999923706055,6.668000221252441 C58.54999923706055,6.668000221252441 44.03200149536133,12.324000358581543 44.03200149536133,12.324000358581543 C44.03200149536133,12.324000358581543 53.83599853515625,28.540000915527344 53.83599853515625,28.540000915527344 C53.83599853515625,28.540000915527344 24.798999786376953,39.85300064086914 24.798999786376953,39.85300064086914 C24.798999786376953,39.85300064086914 -7.254000186920166,52.297000885009766 -7.254000186920166,52.297000885009766 C-7.254000186920166,52.297000885009766 -17.246999740600586,36.082000732421875 -17.246999740600586,36.082000732421875z"></path></g><g opacity="1" transform="matrix(1,0,0,1,0.2879999876022339,37.49700164794922)"><path stroke-linecap="round" stroke-linejoin="miter" fill-opacity="0" stroke-miterlimit="4" stroke="rgb(0,0,0)" stroke-opacity="1" stroke-width="4" d=" M-5.2789998054504395,-8.579000473022461 C-5.2789998054504395,-8.579000473022461 5.2789998054504395,8.579000473022461 5.2789998054504395,8.579000473022461"></path></g><g opacity="1" transform="matrix(1,0,0,1,16.974000930786133,30.89699935913086)"><path stroke-linecap="round" stroke-linejoin="miter" fill-opacity="0" stroke-miterlimit="4" stroke="rgb(0,0,0)" stroke-opacity="1" stroke-width="4" d=" M-5.184999942779541,-8.579000473022461 C-5.184999942779541,-8.579000473022461 5.184999942779541,8.579000473022461 5.184999942779541,8.579000473022461"></path></g><g opacity="1" transform="matrix(1,0,0,1,33.6609992980957,24.486000061035156)"><path stroke-linecap="round" stroke-linejoin="miter" fill-opacity="0" stroke-miterlimit="4" stroke="rgb(0,0,0)" stroke-opacity="1" stroke-width="4" d=" M-5.2789998054504395,-8.579000473022461 C-5.2789998054504395,-8.579000473022461 5.2789998054504395,8.579000473022461 5.2789998054504395,8.579000473022461"></path></g><g opacity="1" transform="matrix(1,0,0,1,-20.805999755859375,4.607999801635742)"><path fill="rgb(0,0,0)" fill-opacity="1" d=" M11.288999557495117,-4.349999904632568 C7.706999778747559,-10.194999694824219 -0.21199999749660492,-13.02299976348877 -6.434000015258789,-10.571999549865723 C-12.656000137329102,-8.121000289916992 -14.918999671936035,-1.5210000276565552 -11.336999893188477,4.323999881744385 C-7.755000114440918,10.357999801635742 0.16500000655651093,12.996999740600586 6.576000213623047,10.545999526977539 C12.79800033569336,8.282999992370605 14.871000289916992,1.4950000047683716 11.288999557495117,-4.349999904632568z"></path><path stroke-linecap="round" stroke-linejoin="miter" fill-opacity="0" stroke-miterlimit="4" stroke="rgb(0,0,0)" stroke-opacity="1" stroke-width="4" d=" M11.288999557495117,-4.349999904632568 C7.706999778747559,-10.194999694824219 -0.21199999749660492,-13.02299976348877 -6.434000015258789,-10.571999549865723 C-12.656000137329102,-8.121000289916992 -14.918999671936035,-1.5210000276565552 -11.336999893188477,4.323999881744385 C-7.755000114440918,10.357999801635742 0.16500000655651093,12.996999740600586 6.576000213623047,10.545999526977539 C12.79800033569336,8.282999992370605 14.871000289916992,1.4950000047683716 11.288999557495117,-4.349999904632568z"></path></g><g opacity="1" transform="matrix(1,0,0,1,16.90399932861328,-9.829999923706055)"><path fill="rgb(0,0,0)" fill-opacity="1" d=" M11.288999557495117,-4.431000232696533 C7.706999778747559,-10.276000022888184 -0.21199999749660492,-13.104000091552734 -6.434000015258789,-10.652999877929688 C-12.656000137329102,-8.20199966430664 -14.918999671936035,-1.4140000343322754 -11.336999893188477,4.431000232696533 C-7.755000114440918,10.276000022888184 0.16500000655651093,13.104000091552734 6.576000213623047,10.652999877929688 C12.79800033569336,8.20199966430664 14.871000289916992,1.4140000343322754 11.288999557495117,-4.431000232696533z"></path><path stroke-linecap="round" stroke-linejoin="miter" fill-opacity="0" stroke-miterlimit="4" stroke="rgb(0,0,0)" stroke-opacity="1" stroke-width="4" d=" M11.288999557495117,-4.431000232696533 C7.706999778747559,-10.276000022888184 -0.21199999749660492,-13.104000091552734 -6.434000015258789,-10.652999877929688 C-12.656000137329102,-8.20199966430664 -14.918999671936035,-1.4140000343322754 -11.336999893188477,4.431000232696533 C-7.755000114440918,10.276000022888184 0.16500000655651093,13.104000091552734 6.576000213623047,10.652999877929688 C12.79800033569336,8.20199966430664 14.871000289916992,1.4140000343322754 11.288999557495117,-4.431000232696533z"></path></g></g></g><g transform="matrix(1,0,0,1,340.02484130859375,244.44680786132812)" opacity="1" style="display: block;"><g opacity="1" transform="matrix(1,0,0,1,-1.0160000324249268,16.406999588012695)"><path fill="rgb(251,73,3)" fill-opacity="1" d=" M-56.37699890136719,-25.926000595092773 C-56.37699890136719,-25.926000595092773 -52.983001708984375,-37.80400085449219 -52.983001708984375,-37.80400085449219 C-52.983001708984375,-37.80400085449219 -53.54800033569336,-35.54199981689453 -53.54800033569336,-35.54199981689453 C-53.54800033569336,-35.54199981689453 -53.92499923706055,-33.27899932861328 -53.92499923706055,-33.27899932861328 C-53.92499923706055,-33.27899932861328 -54.303001403808594,-31.017000198364258 -54.303001403808594,-31.017000198364258 C-54.303001403808594,-31.017000198364258 -54.303001403808594,-28.753999710083008 -54.303001403808594,-28.753999710083008 C-54.303001403808594,-28.753999710083008 -54.49100112915039,-26.30299949645996 -54.49100112915039,-26.30299949645996 C-54.49100112915039,-26.30299949645996 -54.303001403808594,-24.040000915527344 -54.303001403808594,-24.040000915527344 C-54.303001403808594,-24.040000915527344 -54.11399841308594,-21.589000701904297 -54.11399841308594,-21.589000701904297 C-54.11399841308594,-21.589000701904297 -53.54800033569336,-19.326000213623047 -53.54800033569336,-19.326000213623047 C-53.54800033569336,-19.326000213623047 -53.17100143432617,-16.875 -53.17100143432617,-16.875 C-53.17100143432617,-16.875 -52.41699981689453,-14.423999786376953 -52.41699981689453,-14.423999786376953 C-52.41699981689453,-14.423999786376953 -51.4739990234375,-11.972999572753906 -51.4739990234375,-11.972999572753906 C-51.4739990234375,-11.972999572753906 -50.53200149536133,-9.710000038146973 -50.53200149536133,-9.710000038146973 C-50.53200149536133,-9.710000038146973 -49.400001525878906,-7.258999824523926 -49.400001525878906,-7.258999824523926 C-49.400001525878906,-7.258999824523926 -48.26900100708008,-4.997000217437744 -48.26900100708008,-4.997000217437744 C-48.26900100708008,-4.997000217437744 -46.76100158691406,-2.7339999675750732 -46.76100158691406,-2.7339999675750732 C-46.76100158691406,-2.7339999675750732 -45.25199890136719,-0.47099998593330383 -45.25199890136719,-0.47099998593330383 C-45.25199890136719,-0.47099998593330383 -43.74399948120117,1.6030000448226929 -43.74399948120117,1.6030000448226929 C-43.74399948120117,1.6030000448226929 -42.047000885009766,3.677000045776367 -42.047000885009766,3.677000045776367 C-42.047000885009766,3.677000045776367 -40.1609992980957,5.561999797821045 -40.1609992980957,5.561999797821045 C-40.1609992980957,5.561999797821045 -38.2760009765625,7.447999954223633 -38.2760009765625,7.447999954223633 C-38.2760009765625,7.447999954223633 -36.38999938964844,9.333000183105469 -36.38999938964844,9.333000183105469 C-36.38999938964844,9.333000183105469 -34.316001892089844,11.029999732971191 -34.316001892089844,11.029999732971191 C-34.316001892089844,11.029999732971191 -32.242000579833984,12.72700023651123 -32.242000579833984,12.72700023651123 C-32.242000579833984,12.72700023651123 -29.979999542236328,14.236000061035156 -29.979999542236328,14.236000061035156 C-29.979999542236328,14.236000061035156 -27.716999053955078,15.744000434875488 -27.716999053955078,15.744000434875488 C-27.716999053955078,15.744000434875488 -25.266000747680664,17.06399917602539 -25.266000747680664,17.06399917602539 C-25.266000747680664,17.06399917602539 -22.815000534057617,18.384000778198242 -22.815000534057617,18.384000778198242 C-22.815000534057617,18.384000778198242 -20.363000869750977,19.514999389648438 -20.363000869750977,19.514999389648438 C-20.363000869750977,19.514999389648438 -17.91200065612793,20.645999908447266 -17.91200065612793,20.645999908447266 C-17.91200065612793,20.645999908447266 -15.27299976348877,21.589000701904297 -15.27299976348877,21.589000701904297 C-15.27299976348877,21.589000701904297 -12.633000373840332,22.531999588012695 -12.633000373840332,22.531999588012695 C-12.633000373840332,22.531999588012695 -9.993000030517578,23.285999298095703 -9.993000030517578,23.285999298095703 C-9.993000030517578,23.285999298095703 -7.353000164031982,24.040000915527344 -7.353000164031982,24.040000915527344 C-7.353000164031982,24.040000915527344 -4.525000095367432,24.606000900268555 -4.525000095367432,24.606000900268555 C-4.525000095367432,24.606000900268555 -1.8849999904632568,24.982999801635742 -1.8849999904632568,24.982999801635742 C-1.8849999904632568,24.982999801635742 0.9430000185966492,25.360000610351562 0.9430000185966492,25.360000610351562 C0.9430000185966492,25.360000610351562 3.7709999084472656,25.73699951171875 3.7709999084472656,25.73699951171875 C3.7709999084472656,25.73699951171875 6.598999977111816,25.926000595092773 6.598999977111816,25.926000595092773 C6.598999977111816,25.926000595092773 9.428000450134277,25.926000595092773 9.428000450134277,25.926000595092773 C9.428000450134277,25.926000595092773 12.255999565124512,25.73699951171875 12.255999565124512,25.73699951171875 C12.255999565124512,25.73699951171875 15.083999633789062,25.548999786376953 15.083999633789062,25.548999786376953 C15.083999633789062,25.548999786376953 17.724000930786133,25.17099952697754 17.724000930786133,25.17099952697754 C17.724000930786133,25.17099952697754 20.552000045776367,24.79400062561035 20.552000045776367,24.79400062561035 C20.552000045776367,24.79400062561035 23.3799991607666,24.229000091552734 23.3799991607666,24.229000091552734 C23.3799991607666,24.229000091552734 26.020000457763672,23.475000381469727 26.020000457763672,23.475000381469727 C26.020000457763672,23.475000381469727 28.65999984741211,22.531999588012695 28.65999984741211,22.531999588012695 C28.65999984741211,22.531999588012695 31.298999786376953,21.589000701904297 31.298999786376953,21.589000701904297 C31.298999786376953,21.589000701904297 33.750999450683594,20.645999908447266 33.750999450683594,20.645999908447266 C33.750999450683594,20.645999908447266 36.01300048828125,19.514999389648438 36.01300048828125,19.514999389648438 C36.01300048828125,19.514999389648438 38.2760009765625,18.19499969482422 38.2760009765625,18.19499969482422 C38.2760009765625,18.19499969482422 40.349998474121094,16.875 40.349998474121094,16.875 C40.349998474121094,16.875 42.42399978637695,15.555000305175781 42.42399978637695,15.555000305175781 C42.42399978637695,15.555000305175781 44.49800109863281,14.04699993133545 44.49800109863281,14.04699993133545 C44.49800109863281,14.04699993133545 46.19499969482422,12.538999557495117 46.19499969482422,12.538999557495117 C46.19499969482422,12.538999557495117 48.08000183105469,10.842000007629395 48.08000183105469,10.842000007629395 C48.08000183105469,10.842000007629395 49.5890007019043,9.145000457763672 49.5890007019043,9.145000457763672 C49.5890007019043,9.145000457763672 51.09700012207031,7.258999824523926 51.09700012207031,7.258999824523926 C51.09700012207031,7.258999824523926 52.60599899291992,5.374000072479248 52.60599899291992,5.374000072479248 C52.60599899291992,5.374000072479248 53.92499923706055,3.48799991607666 53.92499923706055,3.48799991607666 C53.92499923706055,3.48799991607666 55.05699920654297,1.6030000448226929 55.05699920654297,1.6030000448226929 C55.05699920654297,1.6030000448226929 55.999000549316406,-0.47099998593330383 55.999000549316406,-0.47099998593330383 C55.999000549316406,-0.47099998593330383 56.94200134277344,-2.5450000762939453 56.94200134277344,-2.5450000762939453 C56.94200134277344,-2.5450000762939453 57.8849983215332,-4.808000087738037 57.8849983215332,-4.808000087738037 C57.8849983215332,-4.808000087738037 54.49100112915039,7.071000099182129 54.49100112915039,7.071000099182129 C54.49100112915039,7.071000099182129 53.54800033569336,9.333000183105469 53.54800033569336,9.333000183105469 C53.54800033569336,9.333000183105469 52.60599899291992,11.406999588012695 52.60599899291992,11.406999588012695 C52.60599899291992,11.406999588012695 51.66299819946289,13.293000221252441 51.66299819946289,13.293000221252441 C51.66299819946289,13.293000221252441 50.53200149536133,15.366999626159668 50.53200149536133,15.366999626159668 C50.53200149536133,15.366999626159668 49.21200180053711,17.25200080871582 49.21200180053711,17.25200080871582 C49.21200180053711,17.25200080871582 47.702999114990234,19.13800048828125 47.702999114990234,19.13800048828125 C47.702999114990234,19.13800048828125 46.19499969482422,21.023000717163086 46.19499969482422,21.023000717163086 C46.19499969482422,21.023000717163086 44.68600082397461,22.719999313354492 44.68600082397461,22.719999313354492 C44.68600082397461,22.719999313354492 42.80099868774414,24.229000091552734 42.80099868774414,24.229000091552734 C42.80099868774414,24.229000091552734 41.104000091552734,25.926000595092773 41.104000091552734,25.926000595092773 C41.104000091552734,25.926000595092773 39.029998779296875,27.43400001525879 39.029998779296875,27.43400001525879 C39.029998779296875,27.43400001525879 36.95600128173828,28.753999710083008 36.95600128173828,28.753999710083008 C36.95600128173828,28.753999710083008 34.88199996948242,30.073999404907227 34.88199996948242,30.073999404907227 C34.88199996948242,30.073999404907227 32.61899948120117,31.393999099731445 32.61899948120117,31.393999099731445 C32.61899948120117,31.393999099731445 30.35700035095215,32.525001525878906 30.35700035095215,32.525001525878906 C30.35700035095215,32.525001525878906 27.905000686645508,33.46799850463867 27.905000686645508,33.46799850463867 C27.905000686645508,33.46799850463867 25.266000747680664,34.40999984741211 25.266000747680664,34.40999984741211 C25.266000747680664,34.40999984741211 22.625999450683594,35.35300064086914 22.625999450683594,35.35300064086914 C22.625999450683594,35.35300064086914 19.986000061035156,35.91899871826172 19.986000061035156,35.91899871826172 C19.986000061035156,35.91899871826172 17.158000946044922,36.67300033569336 17.158000946044922,36.67300033569336 C17.158000946044922,36.67300033569336 14.329999923706055,37.04999923706055 14.329999923706055,37.04999923706055 C14.329999923706055,37.04999923706055 11.501999855041504,37.426998138427734 11.501999855041504,37.426998138427734 C11.501999855041504,37.426998138427734 8.862000465393066,37.61600112915039 8.862000465393066,37.61600112915039 C8.862000465393066,37.61600112915039 6.033999919891357,37.80400085449219 6.033999919891357,37.80400085449219 C6.033999919891357,37.80400085449219 3.2049999237060547,37.61600112915039 3.2049999237060547,37.61600112915039 C3.2049999237060547,37.61600112915039 0.37700000405311584,37.61600112915039 0.37700000405311584,37.61600112915039 C0.37700000405311584,37.61600112915039 -2.4509999752044678,37.23899841308594 -2.4509999752044678,37.23899841308594 C-2.4509999752044678,37.23899841308594 -5.2789998054504395,36.86199951171875 -5.2789998054504395,36.86199951171875 C-5.2789998054504395,36.86199951171875 -7.919000148773193,36.48500061035156 -7.919000148773193,36.48500061035156 C-7.919000148773193,36.48500061035156 -10.746999740600586,35.91899871826172 -10.746999740600586,35.91899871826172 C-10.746999740600586,35.91899871826172 -13.38700008392334,35.165000915527344 -13.38700008392334,35.165000915527344 C-13.38700008392334,35.165000915527344 -16.027000427246094,34.40999984741211 -16.027000427246094,34.40999984741211 C-16.027000427246094,34.40999984741211 -18.66699981689453,33.46799850463867 -18.66699981689453,33.46799850463867 C-18.66699981689453,33.46799850463867 -21.305999755859375,32.525001525878906 -21.305999755859375,32.525001525878906 C-21.305999755859375,32.525001525878906 -23.756999969482422,31.393999099731445 -23.756999969482422,31.393999099731445 C-23.756999969482422,31.393999099731445 -26.208999633789062,30.261999130249023 -26.208999633789062,30.261999130249023 C-26.208999633789062,30.261999130249023 -28.65999984741211,28.94300079345703 -28.65999984741211,28.94300079345703 C-28.65999984741211,28.94300079345703 -31.111000061035156,27.43400001525879 -31.111000061035156,27.43400001525879 C-31.111000061035156,27.43400001525879 -33.37300109863281,26.11400032043457 -33.37300109863281,26.11400032043457 C-33.37300109863281,26.11400032043457 -35.63600158691406,24.41699981689453 -35.63600158691406,24.41699981689453 C-35.63600158691406,24.41699981689453 -37.709999084472656,22.909000396728516 -37.709999084472656,22.909000396728516 C-37.709999084472656,22.909000396728516 -39.784000396728516,21.211999893188477 -39.784000396728516,21.211999893188477 C-39.784000396728516,21.211999893188477 -41.66999816894531,19.326000213623047 -41.66999816894531,19.326000213623047 C-41.66999816894531,19.326000213623047 -43.55500030517578,17.44099998474121 -43.55500030517578,17.44099998474121 C-43.55500030517578,17.44099998474121 -45.441001892089844,15.555000305175781 -45.441001892089844,15.555000305175781 C-45.441001892089844,15.555000305175781 -47.13800048828125,13.480999946594238 -47.13800048828125,13.480999946594238 C-47.13800048828125,13.480999946594238 -48.645999908447266,11.406999588012695 -48.645999908447266,11.406999588012695 C-48.645999908447266,11.406999588012695 -50.15399932861328,9.145000457763672 -50.15399932861328,9.145000457763672 C-50.15399932861328,9.145000457763672 -51.66299819946289,6.881999969482422 -51.66299819946289,6.881999969482422 C-51.66299819946289,6.881999969482422 -52.79399871826172,4.61899995803833 -52.79399871826172,4.61899995803833 C-52.79399871826172,4.61899995803833 -53.92499923706055,2.1679999828338623 -53.92499923706055,2.1679999828338623 C-53.92499923706055,2.1679999828338623 -54.86800003051758,-0.09399999678134918 -54.86800003051758,-0.09399999678134918 C-54.86800003051758,-0.09399999678134918 -55.81100082397461,-2.5450000762939453 -55.81100082397461,-2.5450000762939453 C-55.81100082397461,-2.5450000762939453 -56.564998626708984,-4.997000217437744 -56.564998626708984,-4.997000217437744 C-56.564998626708984,-4.997000217437744 -56.94200134277344,-7.447999954223633 -56.94200134277344,-7.447999954223633 C-56.94200134277344,-7.447999954223633 -57.507999420166016,-9.710000038146973 -57.507999420166016,-9.710000038146973 C-57.507999420166016,-9.710000038146973 -57.69599914550781,-12.161999702453613 -57.69599914550781,-12.161999702453613 C-57.69599914550781,-12.161999702453613 -57.8849983215332,-14.61299991607666 -57.8849983215332,-14.61299991607666 C-57.8849983215332,-14.61299991607666 -57.69599914550781,-16.875 -57.69599914550781,-16.875 C-57.69599914550781,-16.875 -57.69599914550781,-19.13800048828125 -57.69599914550781,-19.13800048828125 C-57.69599914550781,-19.13800048828125 -57.319000244140625,-21.399999618530273 -57.319000244140625,-21.399999618530273 C-57.319000244140625,-21.399999618530273 -56.94200134277344,-23.663000106811523 -56.94200134277344,-23.663000106811523 C-56.94200134277344,-23.663000106811523 -56.37699890136719,-25.926000595092773 -56.37699890136719,-25.926000595092773z"></path><path stroke-linecap="butt" stroke-linejoin="bevel" fill-opacity="0" stroke="rgb(0,0,0)" stroke-opacity="1" stroke-width="4" d=" M-56.37699890136719,-25.926000595092773 C-56.37699890136719,-25.926000595092773 -52.983001708984375,-37.80400085449219 -52.983001708984375,-37.80400085449219 C-52.983001708984375,-37.80400085449219 -53.54800033569336,-35.54199981689453 -53.54800033569336,-35.54199981689453 C-53.54800033569336,-35.54199981689453 -53.92499923706055,-33.27899932861328 -53.92499923706055,-33.27899932861328 C-53.92499923706055,-33.27899932861328 -54.303001403808594,-31.017000198364258 -54.303001403808594,-31.017000198364258 C-54.303001403808594,-31.017000198364258 -54.303001403808594,-28.753999710083008 -54.303001403808594,-28.753999710083008 C-54.303001403808594,-28.753999710083008 -54.49100112915039,-26.30299949645996 -54.49100112915039,-26.30299949645996 C-54.49100112915039,-26.30299949645996 -54.303001403808594,-24.040000915527344 -54.303001403808594,-24.040000915527344 C-54.303001403808594,-24.040000915527344 -54.11399841308594,-21.589000701904297 -54.11399841308594,-21.589000701904297 C-54.11399841308594,-21.589000701904297 -53.54800033569336,-19.326000213623047 -53.54800033569336,-19.326000213623047 C-53.54800033569336,-19.326000213623047 -53.17100143432617,-16.875 -53.17100143432617,-16.875 C-53.17100143432617,-16.875 -52.41699981689453,-14.423999786376953 -52.41699981689453,-14.423999786376953 C-52.41699981689453,-14.423999786376953 -51.4739990234375,-11.972999572753906 -51.4739990234375,-11.972999572753906 C-51.4739990234375,-11.972999572753906 -50.53200149536133,-9.710000038146973 -50.53200149536133,-9.710000038146973 C-50.53200149536133,-9.710000038146973 -49.400001525878906,-7.258999824523926 -49.400001525878906,-7.258999824523926 C-49.400001525878906,-7.258999824523926 -48.26900100708008,-4.997000217437744 -48.26900100708008,-4.997000217437744 C-48.26900100708008,-4.997000217437744 -46.76100158691406,-2.7339999675750732 -46.76100158691406,-2.7339999675750732 C-46.76100158691406,-2.7339999675750732 -45.25199890136719,-0.47099998593330383 -45.25199890136719,-0.47099998593330383 C-45.25199890136719,-0.47099998593330383 -43.74399948120117,1.6030000448226929 -43.74399948120117,1.6030000448226929 C-43.74399948120117,1.6030000448226929 -42.047000885009766,3.677000045776367 -42.047000885009766,3.677000045776367 C-42.047000885009766,3.677000045776367 -40.1609992980957,5.561999797821045 -40.1609992980957,5.561999797821045 C-40.1609992980957,5.561999797821045 -38.2760009765625,7.447999954223633 -38.2760009765625,7.447999954223633 C-38.2760009765625,7.447999954223633 -36.38999938964844,9.333000183105469 -36.38999938964844,9.333000183105469 C-36.38999938964844,9.333000183105469 -34.316001892089844,11.029999732971191 -34.316001892089844,11.029999732971191 C-34.316001892089844,11.029999732971191 -32.242000579833984,12.72700023651123 -32.242000579833984,12.72700023651123 C-32.242000579833984,12.72700023651123 -29.979999542236328,14.236000061035156 -29.979999542236328,14.236000061035156 C-29.979999542236328,14.236000061035156 -27.716999053955078,15.744000434875488 -27.716999053955078,15.744000434875488 C-27.716999053955078,15.744000434875488 -25.266000747680664,17.06399917602539 -25.266000747680664,17.06399917602539 C-25.266000747680664,17.06399917602539 -22.815000534057617,18.384000778198242 -22.815000534057617,18.384000778198242 C-22.815000534057617,18.384000778198242 -20.363000869750977,19.514999389648438 -20.363000869750977,19.514999389648438 C-20.363000869750977,19.514999389648438 -17.91200065612793,20.645999908447266 -17.91200065612793,20.645999908447266 C-17.91200065612793,20.645999908447266 -15.27299976348877,21.589000701904297 -15.27299976348877,21.589000701904297 C-15.27299976348877,21.589000701904297 -12.633000373840332,22.531999588012695 -12.633000373840332,22.531999588012695 C-12.633000373840332,22.531999588012695 -9.993000030517578,23.285999298095703 -9.993000030517578,23.285999298095703 C-9.993000030517578,23.285999298095703 -7.353000164031982,24.040000915527344 -7.353000164031982,24.040000915527344 C-7.353000164031982,24.040000915527344 -4.525000095367432,24.606000900268555 -4.525000095367432,24.606000900268555 C-4.525000095367432,24.606000900268555 -1.8849999904632568,24.982999801635742 -1.8849999904632568,24.982999801635742 C-1.8849999904632568,24.982999801635742 0.9430000185966492,25.360000610351562 0.9430000185966492,25.360000610351562 C0.9430000185966492,25.360000610351562 3.7709999084472656,25.73699951171875 3.7709999084472656,25.73699951171875 C3.7709999084472656,25.73699951171875 6.598999977111816,25.926000595092773 6.598999977111816,25.926000595092773 C6.598999977111816,25.926000595092773 9.428000450134277,25.926000595092773 9.428000450134277,25.926000595092773 C9.428000450134277,25.926000595092773 12.255999565124512,25.73699951171875 12.255999565124512,25.73699951171875 C12.255999565124512,25.73699951171875 15.083999633789062,25.548999786376953 15.083999633789062,25.548999786376953 C15.083999633789062,25.548999786376953 17.724000930786133,25.17099952697754 17.724000930786133,25.17099952697754 C17.724000930786133,25.17099952697754 20.552000045776367,24.79400062561035 20.552000045776367,24.79400062561035 C20.552000045776367,24.79400062561035 23.3799991607666,24.229000091552734 23.3799991607666,24.229000091552734 C23.3799991607666,24.229000091552734 26.020000457763672,23.475000381469727 26.020000457763672,23.475000381469727 C26.020000457763672,23.475000381469727 28.65999984741211,22.531999588012695 28.65999984741211,22.531999588012695 C28.65999984741211,22.531999588012695 31.298999786376953,21.589000701904297 31.298999786376953,21.589000701904297 C31.298999786376953,21.589000701904297 33.750999450683594,20.645999908447266 33.750999450683594,20.645999908447266 C33.750999450683594,20.645999908447266 36.01300048828125,19.514999389648438 36.01300048828125,19.514999389648438 C36.01300048828125,19.514999389648438 38.2760009765625,18.19499969482422 38.2760009765625,18.19499969482422 C38.2760009765625,18.19499969482422 40.349998474121094,16.875 40.349998474121094,16.875 C40.349998474121094,16.875 42.42399978637695,15.555000305175781 42.42399978637695,15.555000305175781 C42.42399978637695,15.555000305175781 44.49800109863281,14.04699993133545 44.49800109863281,14.04699993133545 C44.49800109863281,14.04699993133545 46.19499969482422,12.538999557495117 46.19499969482422,12.538999557495117 C46.19499969482422,12.538999557495117 48.08000183105469,10.842000007629395 48.08000183105469,10.842000007629395 C48.08000183105469,10.842000007629395 49.5890007019043,9.145000457763672 49.5890007019043,9.145000457763672 C49.5890007019043,9.145000457763672 51.09700012207031,7.258999824523926 51.09700012207031,7.258999824523926 C51.09700012207031,7.258999824523926 52.60599899291992,5.374000072479248 52.60599899291992,5.374000072479248 C52.60599899291992,5.374000072479248 53.92499923706055,3.48799991607666 53.92499923706055,3.48799991607666 C53.92499923706055,3.48799991607666 55.05699920654297,1.6030000448226929 55.05699920654297,1.6030000448226929 C55.05699920654297,1.6030000448226929 55.999000549316406,-0.47099998593330383 55.999000549316406,-0.47099998593330383 C55.999000549316406,-0.47099998593330383 56.94200134277344,-2.5450000762939453 56.94200134277344,-2.5450000762939453 C56.94200134277344,-2.5450000762939453 57.8849983215332,-4.808000087738037 57.8849983215332,-4.808000087738037 C57.8849983215332,-4.808000087738037 54.49100112915039,7.071000099182129 54.49100112915039,7.071000099182129 C54.49100112915039,7.071000099182129 53.54800033569336,9.333000183105469 53.54800033569336,9.333000183105469 C53.54800033569336,9.333000183105469 52.60599899291992,11.406999588012695 52.60599899291992,11.406999588012695 C52.60599899291992,11.406999588012695 51.66299819946289,13.293000221252441 51.66299819946289,13.293000221252441 C51.66299819946289,13.293000221252441 50.53200149536133,15.366999626159668 50.53200149536133,15.366999626159668 C50.53200149536133,15.366999626159668 49.21200180053711,17.25200080871582 49.21200180053711,17.25200080871582 C49.21200180053711,17.25200080871582 47.702999114990234,19.13800048828125 47.702999114990234,19.13800048828125 C47.702999114990234,19.13800048828125 46.19499969482422,21.023000717163086 46.19499969482422,21.023000717163086 C46.19499969482422,21.023000717163086 44.68600082397461,22.719999313354492 44.68600082397461,22.719999313354492 C44.68600082397461,22.719999313354492 42.80099868774414,24.229000091552734 42.80099868774414,24.229000091552734 C42.80099868774414,24.229000091552734 41.104000091552734,25.926000595092773 41.104000091552734,25.926000595092773 C41.104000091552734,25.926000595092773 39.029998779296875,27.43400001525879 39.029998779296875,27.43400001525879 C39.029998779296875,27.43400001525879 36.95600128173828,28.753999710083008 36.95600128173828,28.753999710083008 C36.95600128173828,28.753999710083008 34.88199996948242,30.073999404907227 34.88199996948242,30.073999404907227 C34.88199996948242,30.073999404907227 32.61899948120117,31.393999099731445 32.61899948120117,31.393999099731445 C32.61899948120117,31.393999099731445 30.35700035095215,32.525001525878906 30.35700035095215,32.525001525878906 C30.35700035095215,32.525001525878906 27.905000686645508,33.46799850463867 27.905000686645508,33.46799850463867 C27.905000686645508,33.46799850463867 25.266000747680664,34.40999984741211 25.266000747680664,34.40999984741211 C25.266000747680664,34.40999984741211 22.625999450683594,35.35300064086914 22.625999450683594,35.35300064086914 C22.625999450683594,35.35300064086914 19.986000061035156,35.91899871826172 19.986000061035156,35.91899871826172 C19.986000061035156,35.91899871826172 17.158000946044922,36.67300033569336 17.158000946044922,36.67300033569336 C17.158000946044922,36.67300033569336 14.329999923706055,37.04999923706055 14.329999923706055,37.04999923706055 C14.329999923706055,37.04999923706055 11.501999855041504,37.426998138427734 11.501999855041504,37.426998138427734 C11.501999855041504,37.426998138427734 8.862000465393066,37.61600112915039 8.862000465393066,37.61600112915039 C8.862000465393066,37.61600112915039 6.033999919891357,37.80400085449219 6.033999919891357,37.80400085449219 C6.033999919891357,37.80400085449219 3.2049999237060547,37.61600112915039 3.2049999237060547,37.61600112915039 C3.2049999237060547,37.61600112915039 0.37700000405311584,37.61600112915039 0.37700000405311584,37.61600112915039 C0.37700000405311584,37.61600112915039 -2.4509999752044678,37.23899841308594 -2.4509999752044678,37.23899841308594 C-2.4509999752044678,37.23899841308594 -5.2789998054504395,36.86199951171875 -5.2789998054504395,36.86199951171875 C-5.2789998054504395,36.86199951171875 -7.919000148773193,36.48500061035156 -7.919000148773193,36.48500061035156 C-7.919000148773193,36.48500061035156 -10.746999740600586,35.91899871826172 -10.746999740600586,35.91899871826172 C-10.746999740600586,35.91899871826172 -13.38700008392334,35.165000915527344 -13.38700008392334,35.165000915527344 C-13.38700008392334,35.165000915527344 -16.027000427246094,34.40999984741211 -16.027000427246094,34.40999984741211 C-16.027000427246094,34.40999984741211 -18.66699981689453,33.46799850463867 -18.66699981689453,33.46799850463867 C-18.66699981689453,33.46799850463867 -21.305999755859375,32.525001525878906 -21.305999755859375,32.525001525878906 C-21.305999755859375,32.525001525878906 -23.756999969482422,31.393999099731445 -23.756999969482422,31.393999099731445 C-23.756999969482422,31.393999099731445 -26.208999633789062,30.261999130249023 -26.208999633789062,30.261999130249023 C-26.208999633789062,30.261999130249023 -28.65999984741211,28.94300079345703 -28.65999984741211,28.94300079345703 C-28.65999984741211,28.94300079345703 -31.111000061035156,27.43400001525879 -31.111000061035156,27.43400001525879 C-31.111000061035156,27.43400001525879 -33.37300109863281,26.11400032043457 -33.37300109863281,26.11400032043457 C-33.37300109863281,26.11400032043457 -35.63600158691406,24.41699981689453 -35.63600158691406,24.41699981689453 C-35.63600158691406,24.41699981689453 -37.709999084472656,22.909000396728516 -37.709999084472656,22.909000396728516 C-37.709999084472656,22.909000396728516 -39.784000396728516,21.211999893188477 -39.784000396728516,21.211999893188477 C-39.784000396728516,21.211999893188477 -41.66999816894531,19.326000213623047 -41.66999816894531,19.326000213623047 C-41.66999816894531,19.326000213623047 -43.55500030517578,17.44099998474121 -43.55500030517578,17.44099998474121 C-43.55500030517578,17.44099998474121 -45.441001892089844,15.555000305175781 -45.441001892089844,15.555000305175781 C-45.441001892089844,15.555000305175781 -47.13800048828125,13.480999946594238 -47.13800048828125,13.480999946594238 C-47.13800048828125,13.480999946594238 -48.645999908447266,11.406999588012695 -48.645999908447266,11.406999588012695 C-48.645999908447266,11.406999588012695 -50.15399932861328,9.145000457763672 -50.15399932861328,9.145000457763672 C-50.15399932861328,9.145000457763672 -51.66299819946289,6.881999969482422 -51.66299819946289,6.881999969482422 C-51.66299819946289,6.881999969482422 -52.79399871826172,4.61899995803833 -52.79399871826172,4.61899995803833 C-52.79399871826172,4.61899995803833 -53.92499923706055,2.1679999828338623 -53.92499923706055,2.1679999828338623 C-53.92499923706055,2.1679999828338623 -54.86800003051758,-0.09399999678134918 -54.86800003051758,-0.09399999678134918 C-54.86800003051758,-0.09399999678134918 -55.81100082397461,-2.5450000762939453 -55.81100082397461,-2.5450000762939453 C-55.81100082397461,-2.5450000762939453 -56.564998626708984,-4.997000217437744 -56.564998626708984,-4.997000217437744 C-56.564998626708984,-4.997000217437744 -56.94200134277344,-7.447999954223633 -56.94200134277344,-7.447999954223633 C-56.94200134277344,-7.447999954223633 -57.507999420166016,-9.710000038146973 -57.507999420166016,-9.710000038146973 C-57.507999420166016,-9.710000038146973 -57.69599914550781,-12.161999702453613 -57.69599914550781,-12.161999702453613 C-57.69599914550781,-12.161999702453613 -57.8849983215332,-14.61299991607666 -57.8849983215332,-14.61299991607666 C-57.8849983215332,-14.61299991607666 -57.69599914550781,-16.875 -57.69599914550781,-16.875 C-57.69599914550781,-16.875 -57.69599914550781,-19.13800048828125 -57.69599914550781,-19.13800048828125 C-57.69599914550781,-19.13800048828125 -57.319000244140625,-21.399999618530273 -57.319000244140625,-21.399999618530273 C-57.319000244140625,-21.399999618530273 -56.94200134277344,-23.663000106811523 -56.94200134277344,-23.663000106811523 C-56.94200134277344,-23.663000106811523 -56.37699890136719,-25.926000595092773 -56.37699890136719,-25.926000595092773z"></path></g><g opacity="1" transform="matrix(1,0,0,1,1.7569999694824219,-5.936999797821045)"><path fill="rgb(251,73,3)" fill-opacity="1" d=" M-53.30400085449219,12.633000373840332 C-64.61699676513672,-13.010000228881836 -50.0989990234375,-39.40700149536133 -20.684999465942383,-46.571998596191406 C8.916999816894531,-53.54800033569336 41.91400146484375,-38.4640007019043 53.22700119018555,-12.821000099182129 C64.72899627685547,13.010000228881836 50.02199935913086,39.40700149536133 20.607999801635742,46.571998596191406 C-8.805999755859375,53.54800033569336 -41.99100112915039,38.4640007019043 -53.30400085449219,12.633000373840332z"></path><path stroke-linecap="butt" stroke-linejoin="miter" fill-opacity="0" stroke-miterlimit="4" stroke="rgb(0,0,0)" stroke-opacity="1" stroke-width="4" d=" M-53.30400085449219,12.633000373840332 C-64.61699676513672,-13.010000228881836 -50.0989990234375,-39.40700149536133 -20.684999465942383,-46.571998596191406 C8.916999816894531,-53.54800033569336 41.91400146484375,-38.4640007019043 53.22700119018555,-12.821000099182129 C64.72899627685547,13.010000228881836 50.02199935913086,39.40700149536133 20.607999801635742,46.571998596191406 C-8.805999755859375,53.54800033569336 -41.99100112915039,38.4640007019043 -53.30400085449219,12.633000373840332z"></path></g><g opacity="1" transform="matrix(1,0,0,1,0.9940000176429749,-6.501999855041504)"><path fill="rgb(255,255,255)" fill-opacity="1" d=" M12.885000228881836,-11.312999725341797 C12.885000228881836,-11.312999725341797 -19.35700035095215,1.5080000162124634 -19.35700035095215,1.5080000162124634 C-22.374000549316406,2.6389999389648438 -23.31599998474121,5.84499979019165 -21.430999755859375,8.484999656677246 C-19.733999252319336,11.312999725341797 -15.774999618530273,12.444000244140625 -12.758000373840332,11.312999725341797 C-12.758000373840332,11.312999725341797 19.485000610351562,-1.5080000162124634 19.485000610351562,-1.5080000162124634 C22.312999725341797,-2.6389999389648438 23.256000518798828,-5.84499979019165 21.55900001525879,-8.484999656677246 C19.673999786376953,-11.312999725341797 15.902000427246094,-12.444000244140625 12.885000228881836,-11.312999725341797z"></path><path stroke-linecap="butt" stroke-linejoin="miter" fill-opacity="0" stroke-miterlimit="4" stroke="rgb(0,0,0)" stroke-opacity="1" stroke-width="4" d=" M12.885000228881836,-11.312999725341797 C12.885000228881836,-11.312999725341797 -19.35700035095215,1.5080000162124634 -19.35700035095215,1.5080000162124634 C-22.374000549316406,2.6389999389648438 -23.31599998474121,5.84499979019165 -21.430999755859375,8.484999656677246 C-19.733999252319336,11.312999725341797 -15.774999618530273,12.444000244140625 -12.758000373840332,11.312999725341797 C-12.758000373840332,11.312999725341797 19.485000610351562,-1.5080000162124634 19.485000610351562,-1.5080000162124634 C22.312999725341797,-2.6389999389648438 23.256000518798828,-5.84499979019165 21.55900001525879,-8.484999656677246 C19.673999786376953,-11.312999725341797 15.902000427246094,-12.444000244140625 12.885000228881836,-11.312999725341797z"></path></g></g></g></svg>