<svg xmlns="http://www.w3.org/2000/svg" xmlns:xlink="http://www.w3.org/1999/xlink" viewBox="0 0 500 500" width="500" height="500" preserveAspectRatio="xMidYMid meet" style="width: 100%; height: 100%; transform: translate3d(0px, 0px, 0px); content-visibility: visible;"><defs><clipPath id="__lottie_element_137"><rect width="500" height="500" x="0" y="0"></rect></clipPath><g id="__lottie_element_142"><g transform="matrix(1,0,0,1,214.85299682617188,207.1110076904297)" opacity="1" style="display: block;"><g opacity="1" transform="matrix(1,0,0,1,0,0)"><path fill="rgb(255,255,255)" fill-opacity="1" d=" M51.82699966430664,-11.798999786376953 C40.64799880981445,-36.867000579833984 8.128000259399414,-52.111000061035156 -20.32699966430664,-45.33599853515625 C-49.12099838256836,-38.900001525878906 -63.0099983215332,-13.154000282287598 -51.83100128173828,11.913999557495117 C-40.652000427246094,36.981998443603516 -8.131999969482422,51.88600158691406 20.66200065612793,45.45000076293945 C49.117000579833984,38.67499923706055 63.00600051879883,13.269000053405762 51.82699966430664,-11.798999786376953z"></path></g></g></g><mask id="__lottie_element_142_1" mask-type="alpha"><use xlink:href="#__lottie_element_142"></use></mask><g id="__lottie_element_148"><g transform="matrix(1,0,0,1,289.64300537109375,189.88999938964844)" opacity="1" style="display: block;"><g opacity="1" transform="matrix(1,0,0,1,0,0)"><path fill="rgb(255,255,255)" fill-opacity="1" d=" M51.9010009765625,-11.855999946594238 C63.08000183105469,13.211999893188477 49.191001892089844,38.957000732421875 20.39699935913086,45.393001556396484 C-8.057999610900879,51.82899856567383 -40.577999114990234,36.92399978637695 -51.75699996948242,11.855999946594238 C-63.275001525878906,-13.211999893188477 -49.047000885009766,-38.957000732421875 -20.591999053955078,-45.393001556396484 C8.20199966430664,-51.82899856567383 40.382999420166016,-36.92399978637695 51.9010009765625,-11.855999946594238z"></path></g></g></g><mask id="__lottie_element_148_1" mask-type="alpha"><use xlink:href="#__lottie_element_148"></use></mask><g id="__lottie_element_166"><g transform="matrix(1,0,0,1,245.99099731445312,310.5920104980469)" opacity="1" style="display: block;"><g opacity="1" transform="matrix(1,0,0,1,0,0)"><path fill="rgb(255,215,49)" fill-opacity="1" d=" M-217.64500427246094,-73.33999633789062 C-214.5959930419922,-97.39099884033203 -207.14300537109375,-119.41000366210938 -200.70700073242188,-143.1230010986328 C-200.70700073242188,-143.1230010986328 -202.4010009765625,-134.6540069580078 -202.4010009765625,-134.6540069580078 C-202.4010009765625,-134.6540069580078 -204.09500122070312,-126.18499755859375 -204.09500122070312,-126.18499755859375 C-206.80499267578125,-103.1500015258789 -205.78900146484375,-86.88999938964844 -200.36900329589844,-64.19400024414062 C-188.1739959716797,-23.204999923706055 -168.86399841308594,4.9120001792907715 -136.343994140625,34.72200012207031 C-89.59600067138672,74.01699829101562 -38.44499969482422,94.68199920654297 25.917999267578125,98.40799713134766 C108.23500061035156,100.10199737548828 181.74400329589844,68.59700012207031 214.94200134277344,-6.605999946594238 C214.94200134277344,-6.605999946594238 217.99099731445312,-14.397000312805176 217.99099731445312,-14.397000312805176 C217.99099731445312,-14.397000312805176 205.45700073242188,29.979999542236328 205.45700073242188,29.979999542236328 C205.45700073242188,29.979999542236328 202.4080047607422,37.770999908447266 202.4080047607422,37.770999908447266 C170.9040069580078,109.58699798583984 102.81500244140625,141.08999633789062 23.88599967956543,143.1230010986328 C-65.20600128173828,141.4290008544922 -141.4250030517578,102.4729995727539 -188.51199340820312,33.70600128173828 C-210.19200134277344,-1.5240000486373901 -220.01600646972656,-32.012001037597656 -217.64500427246094,-73.33999633789062z"></path><path stroke-linecap="butt" stroke-linejoin="bevel" fill-opacity="0" stroke="rgb(0,0,0)" stroke-opacity="1" stroke-width="5.855" d=" M-217.64500427246094,-73.33999633789062 C-214.5959930419922,-97.39099884033203 -207.14300537109375,-119.41000366210938 -200.70700073242188,-143.1230010986328 C-200.70700073242188,-143.1230010986328 -202.4010009765625,-134.6540069580078 -202.4010009765625,-134.6540069580078 C-202.4010009765625,-134.6540069580078 -204.09500122070312,-126.18499755859375 -204.09500122070312,-126.18499755859375 C-206.80499267578125,-103.1500015258789 -205.78900146484375,-86.88999938964844 -200.36900329589844,-64.19400024414062 C-188.1739959716797,-23.204999923706055 -168.86399841308594,4.9120001792907715 -136.343994140625,34.72200012207031 C-89.59600067138672,74.01699829101562 -38.44499969482422,94.68199920654297 25.917999267578125,98.40799713134766 C108.23500061035156,100.10199737548828 181.74400329589844,68.59700012207031 214.94200134277344,-6.605999946594238 C214.94200134277344,-6.605999946594238 217.99099731445312,-14.397000312805176 217.99099731445312,-14.397000312805176 C217.99099731445312,-14.397000312805176 205.45700073242188,29.979999542236328 205.45700073242188,29.979999542236328 C205.45700073242188,29.979999542236328 202.4080047607422,37.770999908447266 202.4080047607422,37.770999908447266 C170.9040069580078,109.58699798583984 102.81500244140625,141.08999633789062 23.88599967956543,143.1230010986328 C-65.20600128173828,141.4290008544922 -141.4250030517578,102.4729995727539 -188.51199340820312,33.70600128173828 C-210.19200134277344,-1.5240000486373901 -220.01600646972656,-32.012001037597656 -217.64500427246094,-73.33999633789062z"></path></g></g></g><mask id="__lottie_element_166_1" mask-type="alpha"><use xlink:href="#__lottie_element_166"></use></mask></defs><g clip-path="url(#__lottie_element_137)"><g transform="matrix(1,0,0,1,245.99099731445312,310.5920104980469)" opacity="1" style="display: block;"><g opacity="1" transform="matrix(1,0,0,1,0,0)"><path fill="rgb(255,215,49)" fill-opacity="1" d=" M-217.64500427246094,-73.33999633789062 C-214.5959930419922,-97.39099884033203 -207.14300537109375,-119.41000366210938 -200.70700073242188,-143.1230010986328 C-200.70700073242188,-143.1230010986328 -202.4010009765625,-134.6540069580078 -202.4010009765625,-134.6540069580078 C-202.4010009765625,-134.6540069580078 -204.09500122070312,-126.18499755859375 -204.09500122070312,-126.18499755859375 C-206.80499267578125,-103.1500015258789 -205.78900146484375,-86.88999938964844 -200.36900329589844,-64.19400024414062 C-188.1739959716797,-23.204999923706055 -168.86399841308594,4.9120001792907715 -136.343994140625,34.72200012207031 C-89.59600067138672,74.01699829101562 -38.44499969482422,94.68199920654297 25.917999267578125,98.40799713134766 C108.23500061035156,100.10199737548828 181.74400329589844,68.59700012207031 214.94200134277344,-6.605999946594238 C214.94200134277344,-6.605999946594238 217.99099731445312,-14.397000312805176 217.99099731445312,-14.397000312805176 C217.99099731445312,-14.397000312805176 205.45700073242188,29.979999542236328 205.45700073242188,29.979999542236328 C205.45700073242188,29.979999542236328 202.4080047607422,37.770999908447266 202.4080047607422,37.770999908447266 C170.9040069580078,109.58699798583984 102.81500244140625,141.08999633789062 23.88599967956543,143.1230010986328 C-65.20600128173828,141.4290008544922 -141.4250030517578,102.4729995727539 -188.51199340820312,33.70600128173828 C-210.19200134277344,-1.5240000486373901 -220.01600646972656,-32.012001037597656 -217.64500427246094,-73.33999633789062z"></path><path stroke-linecap="butt" stroke-linejoin="bevel" fill-opacity="0" stroke="rgb(0,0,0)" stroke-opacity="1" stroke-width="5.855" d=" M-217.64500427246094,-73.33999633789062 C-214.5959930419922,-97.39099884033203 -207.14300537109375,-119.41000366210938 -200.70700073242188,-143.1230010986328 C-200.70700073242188,-143.1230010986328 -202.4010009765625,-134.6540069580078 -202.4010009765625,-134.6540069580078 C-202.4010009765625,-134.6540069580078 -204.09500122070312,-126.18499755859375 -204.09500122070312,-126.18499755859375 C-206.80499267578125,-103.1500015258789 -205.78900146484375,-86.88999938964844 -200.36900329589844,-64.19400024414062 C-188.1739959716797,-23.204999923706055 -168.86399841308594,4.9120001792907715 -136.343994140625,34.72200012207031 C-89.59600067138672,74.01699829101562 -38.44499969482422,94.68199920654297 25.917999267578125,98.40799713134766 C108.23500061035156,100.10199737548828 181.74400329589844,68.59700012207031 214.94200134277344,-6.605999946594238 C214.94200134277344,-6.605999946594238 217.99099731445312,-14.397000312805176 217.99099731445312,-14.397000312805176 C217.99099731445312,-14.397000312805176 205.45700073242188,29.979999542236328 205.45700073242188,29.979999542236328 C205.45700073242188,29.979999542236328 202.4080047607422,37.770999908447266 202.4080047607422,37.770999908447266 C170.9040069580078,109.58699798583984 102.81500244140625,141.08999633789062 23.88599967956543,143.1230010986328 C-65.20600128173828,141.4290008544922 -141.4250030517578,102.4729995727539 -188.51199340820312,33.70600128173828 C-210.19200134277344,-1.5240000486373901 -220.01600646972656,-32.012001037597656 -217.64500427246094,-73.33999633789062z"></path></g></g><g mask="url(#__lottie_element_166_1)" style="display: block;"><g transform="matrix(0.9914818406105042,0.13024482131004333,-0.13024482131004333,0.9914818406105042,289.6104736328125,346.8014831542969)" opacity="1"><g opacity="1" transform="matrix(1,0,0,1,206.8300018310547,64.15799713134766)"><path fill="rgb(0,0,0)" fill-opacity="1" d=" M154.1544952392578,-213.17750549316406 C154.1544952392578,-213.17750549316406 154.1544952392578,213.17750549316406 154.1544952392578,213.17750549316406 C154.1544952392578,213.17750549316406 -154.1544952392578,213.17750549316406 -154.1544952392578,213.17750549316406 C-154.1544952392578,213.17750549316406 -154.1544952392578,-213.17750549316406 -154.1544952392578,-213.17750549316406 C-154.1544952392578,-213.17750549316406 154.1544952392578,-213.17750549316406 154.1544952392578,-213.17750549316406z"></path></g></g></g><g transform="matrix(1,0,0,1,255.8179931640625,227.59800720214844)" opacity="1" style="display: block;"><g opacity="1" transform="matrix(1,0,0,1,0,0)"><path fill="rgb(255,215,49)" fill-opacity="1" d=" M-200.3719940185547,45.9010009765625 C-244.0709991455078,-50.981998443603516 -189.87100219726562,-150.23699951171875 -79.0989990234375,-175.64300537109375 C31.67300033569336,-201.0489959716797 156.67300415039062,-142.78399658203125 200.3719940185547,-45.9010009765625 C244.0709991455078,51.32099914550781 189.87100219726562,150.5749969482422 79.0989990234375,175.64300537109375 C-31.67300033569336,201.0489959716797 -156.67300415039062,142.78399658203125 -200.3719940185547,45.9010009765625z"></path><path stroke-linecap="butt" stroke-linejoin="miter" fill-opacity="0" stroke-miterlimit="4" stroke="rgb(0,0,0)" stroke-opacity="1" stroke-width="5.855" d=" M-200.3719940185547,45.9010009765625 C-244.0709991455078,-50.981998443603516 -189.87100219726562,-150.23699951171875 -79.0989990234375,-175.64300537109375 C31.67300033569336,-201.0489959716797 156.67300415039062,-142.78399658203125 200.3719940185547,-45.9010009765625 C244.0709991455078,51.32099914550781 189.87100219726562,150.5749969482422 79.0989990234375,175.64300537109375 C-31.67300033569336,201.0489959716797 -156.67300415039062,142.78399658203125 -200.3719940185547,45.9010009765625z"></path></g></g><g transform="matrix(0.9612616896629333,0.27563735842704773,-0.27563735842704773,0.9612616896629333,255.0240020751953,251.3090057373047)" opacity="1" style="display: block;"><g opacity="1" transform="matrix(1,0,0,1,-10.378999710083008,-39.62900161743164)"><path stroke-linecap="butt" stroke-linejoin="miter" fill-opacity="0" stroke-miterlimit="4" stroke="rgb(0,0,0)" stroke-opacity="1" stroke-width="5.855" d=" M85.7750015258789,-98.697998046875 C125.39600372314453,-77.08399963378906 151.38699340820312,-40.92399978637695 151.38699340820312,0 C151.3874969482422,66.11458587646484 83.5507583618164,119.79450225830078 0,119.79450225830078 C-29.882999420166016,119.79499816894531 -57.75600051879883,112.9280014038086 -81.23400115966797,101.08100128173828"></path></g></g><g transform="matrix(1,0,0,1,214.85299682617188,207.1110076904297)" opacity="1" style="display: block;"><g opacity="1" transform="matrix(1,0,0,1,0,0)"><path fill="rgb(255,255,255)" fill-opacity="1" d=" M51.82699966430664,-11.798999786376953 C40.64799880981445,-36.867000579833984 8.128000259399414,-52.111000061035156 -20.32699966430664,-45.33599853515625 C-49.12099838256836,-38.900001525878906 -63.0099983215332,-13.154000282287598 -51.83100128173828,11.913999557495117 C-40.652000427246094,36.981998443603516 -8.131999969482422,51.88600158691406 20.66200065612793,45.45000076293945 C49.117000579833984,38.67499923706055 63.00600051879883,13.269000053405762 51.82699966430664,-11.798999786376953z"></path></g></g><g transform="matrix(1,0,0,1,289.64300537109375,189.88999938964844)" opacity="1" style="display: block;"><g opacity="1" transform="matrix(1,0,0,1,0,0)"><path fill="rgb(255,255,255)" fill-opacity="1" d=" M51.9010009765625,-11.855999946594238 C63.08000183105469,13.211999893188477 49.191001892089844,38.957000732421875 20.39699935913086,45.393001556396484 C-8.057999610900879,51.82899856567383 -40.577999114990234,36.92399978637695 -51.75699996948242,11.855999946594238 C-63.275001525878906,-13.211999893188477 -49.047000885009766,-38.957000732421875 -20.591999053955078,-45.393001556396484 C8.20199966430664,-51.82899856567383 40.382999420166016,-36.92399978637695 51.9010009765625,-11.855999946594238z"></path></g></g><g mask="url(#__lottie_element_148_1)" style="display: block;"><g transform="matrix(1,0,0,1,305.6635437011719,164.95919799804688)" opacity="1"><g opacity="1" transform="matrix(1,0,0,1,0,0)"><path fill="rgb(0,0,0)" fill-opacity="1" d=" M28.211000442504883,-6.435999870300293 C18.72599983215332,-28.115999221801758 -1.937999963760376,-42.345001220703125 -17.520999908447266,-38.957000732421875 C-33.104000091552734,-35.23099899291992 -37.84600067138672,-14.904999732971191 -28.361000061035156,6.435999870300293 C-18.53700065612793,28.115999221801758 1.7879999876022339,42.345001220703125 17.371000289916992,38.957000732421875 C32.95399856567383,35.23099899291992 38.03499984741211,14.904999732971191 28.211000442504883,-6.435999870300293z"></path><path stroke-linecap="butt" stroke-linejoin="miter" fill-opacity="0" stroke-miterlimit="4" stroke="rgb(0,0,0)" stroke-opacity="1" stroke-width="5.855" d=" M28.211000442504883,-6.435999870300293 C18.72599983215332,-28.115999221801758 -1.937999963760376,-42.345001220703125 -17.520999908447266,-38.957000732421875 C-33.104000091552734,-35.23099899291992 -37.84600067138672,-14.904999732971191 -28.361000061035156,6.435999870300293 C-18.53700065612793,28.115999221801758 1.7879999876022339,42.345001220703125 17.371000289916992,38.957000732421875 C32.95399856567383,35.23099899291992 38.03499984741211,14.904999732971191 28.211000442504883,-6.435999870300293z"></path></g></g></g><g mask="url(#__lottie_element_142_1)" style="display: block;"><g transform="matrix(1,0,0,1,224.70907592773438,194.88792419433594)" opacity="1"><g opacity="1" transform="matrix(1,0,0,1,0,0)"><path fill="rgb(0,0,0)" fill-opacity="1" d=" M28.163000106811523,-6.440999984741211 C37.98699951171875,14.899999618530273 33.244998931884766,35.22600173950195 17.66200065612793,38.95199966430664 C1.7410000562667847,42.34000015258789 -18.584999084472656,28.11199951171875 -28.409000396728516,6.432000160217285 C-37.89400100708008,-14.909000396728516 -33.152000427246094,-35.23500061035156 -17.569000244140625,-38.96099853515625 C-1.9859999418258667,-42.3489990234375 18.67799949645996,-27.781999588012695 28.163000106811523,-6.440999984741211z"></path><path stroke-linecap="butt" stroke-linejoin="miter" fill-opacity="0" stroke-miterlimit="4" stroke="rgb(0,0,0)" stroke-opacity="1" stroke-width="5.855" d=" M28.163000106811523,-6.440999984741211 C37.98699951171875,14.899999618530273 33.244998931884766,35.22600173950195 17.66200065612793,38.95199966430664 C1.7410000562667847,42.34000015258789 -18.584999084472656,28.11199951171875 -28.409000396728516,6.432000160217285 C-37.89400100708008,-14.909000396728516 -33.152000427246094,-35.23500061035156 -17.569000244140625,-38.96099853515625 C-1.9859999418258667,-42.3489990234375 18.67799949645996,-27.781999588012695 28.163000106811523,-6.440999984741211z"></path></g></g></g><g transform="matrix(1,0,0,1,250,250)" opacity="1" style="display: block;"><g opacity="1" transform="matrix(1,0,0,1,0,0)"><path stroke-linecap="butt" stroke-linejoin="miter" fill-opacity="0" stroke-miterlimit="4" stroke="rgb(0,0,0)" stroke-opacity="1" stroke-width="6" d=" M37.125,-107.625 C1,-109.5 -9.75,-86.125 -11.375,-83 C-23.875,-87.75 -46.875,-96.375 -70.5,-82.5 C-94.125,-68.625 -94.375,-40.875 -85.25,-27.125 C-76.125,-13.375 -59.625,3.5 -28,3.875 C1.6239999532699585,4.22599983215332 11.25,-12.12399959564209 16.375,-19.812000274658203 C19.819000244140625,-18.134000778198242 34.25,-12.5 53.625,-13.75 C75.83799743652344,-15.182999610900879 98.17500305175781,-33.36600112915039 94.75,-60.875 C90.75,-93 65.625,-105.25 37.125,-107.625z"></path></g></g></g></svg>