<svg xmlns="http://www.w3.org/2000/svg" xmlns:xlink="http://www.w3.org/1999/xlink" viewBox="0 0 500 500" width="500" height="500" preserveAspectRatio="xMidYMid meet" style="width: 100%; height: 100%; transform: translate3d(0px, 0px, 0px); content-visibility: visible;"><defs><clipPath id="__lottie_element_606"><rect width="500" height="500" x="0" y="0"></rect></clipPath><clipPath id="__lottie_element_609"><path d="M0,0 L159,0 L159,144 L0,144z"></path></clipPath><clipPath id="__lottie_element_629"><path d="M0,0 L222,0 L222,250 L0,250z"></path></clipPath><clipPath id="__lottie_element_651"><path d="M0,0 L420,0 L420,335 L0,335z"></path></clipPath></defs><g clip-path="url(#__lottie_element_606)"><g clip-path="url(#__lottie_element_651)" transform="matrix(0.9981346726417542,-0.061050932854413986,0.061050932854413986,0.9981346726417542,19.920867919921875,120.5067138671875)" opacity="1" style="display: block;"><g transform="matrix(1,0,0,1,210,167.5)" opacity="1" style="display: block;"><g opacity="1" transform="matrix(1,0,0,1,0,0)"></g></g><g transform="matrix(1,0,0,1,209.86900329589844,219.8300018310547)" opacity="1" style="display: block;"><g opacity="1" transform="matrix(1,0,0,1,0,0)"><path fill="rgb(233,204,255)" fill-opacity="1" d=" M184.84800720214844,-4.4720001220703125 C184.84800720214844,-4.4720001220703125 188.61900329589844,-23.090999603271484 188.61900329589844,-23.090999603271484 C188.61900329589844,-23.090999603271484 188.38400268554688,-21.677000045776367 188.38400268554688,-21.677000045776367 C188.38400268554688,-21.677000045776367 187.91200256347656,-20.499000549316406 187.91200256347656,-20.499000549316406 C184.61199951171875,-12.013999938964844 178.48500061035156,-6.828999996185303 170,-3.058000087738037 C170,-3.058000087738037 168.35000610351562,-2.5859999656677246 168.35000610351562,-2.5859999656677246 C168.35000610351562,-2.5859999656677246 -58.145999908447266,77.78299713134766 -58.145999908447266,77.78299713134766 C-58.145999908447266,77.78299713134766 -59.79600143432617,78.48999786376953 -59.79600143432617,78.48999786376953 C-75.11599731445312,82.73200225830078 -93.4990005493164,79.1969985961914 -102.69100189208984,65.05599975585938 C-102.69100189208984,65.05599975585938 -103.63400268554688,63.641998291015625 -103.63400268554688,63.641998291015625 C-103.63400268554688,63.641998291015625 -182.1179962158203,-83.89900207519531 -182.1179962158203,-83.89900207519531 C-184.47500610351562,-88.61299896240234 -185.1820068359375,-92.38400268554688 -184.71099853515625,-97.33300018310547 C-184.71099853515625,-97.33300018310547 -184.47500610351562,-98.74700164794922 -184.47500610351562,-98.74700164794922 C-184.47500610351562,-98.74700164794922 -188.24600219726562,-80.12799835205078 -188.24600219726562,-80.12799835205078 C-188.24600219726562,-80.12799835205078 -188.48199462890625,-78.71399688720703 -188.48199462890625,-78.71399688720703 C-188.9530029296875,-73.52899932861328 -188.24600219726562,-69.99299621582031 -185.88900756835938,-65.27899932861328 C-185.88900756835938,-65.27899932861328 -107.40499877929688,82.26100158691406 -107.40499877929688,82.26100158691406 C-107.40499877929688,82.26100158691406 -106.697998046875,83.67500305175781 -106.697998046875,83.67500305175781 C-96.79900360107422,98.52300262451172 -77.47200012207031,101.58799743652344 -61.91699981689453,96.40299987792969 C-61.91699981689453,96.40299987792969 164.57899475097656,16.033000946044922 164.57899475097656,16.033000946044922 C164.57899475097656,16.033000946044922 165.9929962158203,15.562000274658203 165.9929962158203,15.562000274658203 C175.656005859375,11.319999694824219 182.2550048828125,5.190999984741211 184.84800720214844,-4.4720001220703125z"></path><path stroke-linecap="butt" stroke-linejoin="bevel" fill-opacity="0" stroke="rgb(0,0,0)" stroke-opacity="1" stroke-width="5" d=" M184.84800720214844,-4.4720001220703125 C184.84800720214844,-4.4720001220703125 188.61900329589844,-23.090999603271484 188.61900329589844,-23.090999603271484 C188.61900329589844,-23.090999603271484 188.38400268554688,-21.677000045776367 188.38400268554688,-21.677000045776367 C188.38400268554688,-21.677000045776367 187.91200256347656,-20.499000549316406 187.91200256347656,-20.499000549316406 C184.61199951171875,-12.013999938964844 178.48500061035156,-6.828999996185303 170,-3.058000087738037 C170,-3.058000087738037 168.35000610351562,-2.5859999656677246 168.35000610351562,-2.5859999656677246 C168.35000610351562,-2.5859999656677246 -58.145999908447266,77.78299713134766 -58.145999908447266,77.78299713134766 C-58.145999908447266,77.78299713134766 -59.79600143432617,78.48999786376953 -59.79600143432617,78.48999786376953 C-75.11599731445312,82.73200225830078 -93.4990005493164,79.1969985961914 -102.69100189208984,65.05599975585938 C-102.69100189208984,65.05599975585938 -103.63400268554688,63.641998291015625 -103.63400268554688,63.641998291015625 C-103.63400268554688,63.641998291015625 -182.1179962158203,-83.89900207519531 -182.1179962158203,-83.89900207519531 C-184.47500610351562,-88.61299896240234 -185.1820068359375,-92.38400268554688 -184.71099853515625,-97.33300018310547 C-184.71099853515625,-97.33300018310547 -184.47500610351562,-98.74700164794922 -184.47500610351562,-98.74700164794922 C-184.47500610351562,-98.74700164794922 -188.24600219726562,-80.12799835205078 -188.24600219726562,-80.12799835205078 C-188.24600219726562,-80.12799835205078 -188.48199462890625,-78.71399688720703 -188.48199462890625,-78.71399688720703 C-188.9530029296875,-73.52899932861328 -188.24600219726562,-69.99299621582031 -185.88900756835938,-65.27899932861328 C-185.88900756835938,-65.27899932861328 -107.40499877929688,82.26100158691406 -107.40499877929688,82.26100158691406 C-107.40499877929688,82.26100158691406 -106.697998046875,83.67500305175781 -106.697998046875,83.67500305175781 C-96.79900360107422,98.52300262451172 -77.47200012207031,101.58799743652344 -61.91699981689453,96.40299987792969 C-61.91699981689453,96.40299987792969 164.57899475097656,16.033000946044922 164.57899475097656,16.033000946044922 C164.57899475097656,16.033000946044922 165.9929962158203,15.562000274658203 165.9929962158203,15.562000274658203 C175.656005859375,11.319999694824219 182.2550048828125,5.190999984741211 184.84800720214844,-4.4720001220703125z"></path></g></g><g transform="matrix(1,0,0,1,260.72900390625,257.6990051269531)" opacity="1" style="display: block;"><g opacity="1" transform="matrix(1,0,0,1,0,0)"><path fill="rgb(233,204,255)" fill-opacity="1" d=" M133.98899841308594,-42.340999603271484 C133.98899841308594,-42.340999603271484 137.75999450683594,-60.959999084472656 137.75999450683594,-60.959999084472656 C137.75999450683594,-60.959999084472656 137.5240020751953,-59.54600143432617 137.5240020751953,-59.54600143432617 C137.5240020751953,-59.54600143432617 137.05299377441406,-58.36800003051758 137.05299377441406,-58.36800003051758 C133.7530059814453,-49.882999420166016 127.625,-44.698001861572266 119.13999938964844,-40.926998138427734 C119.13999938964844,-40.926998138427734 117.49099731445312,-40.45500183105469 117.49099731445312,-40.45500183105469 C117.49099731445312,-40.45500183105469 -109.00599670410156,39.91400146484375 -109.00599670410156,39.91400146484375 C-109.00599670410156,39.91400146484375 -110.65599822998047,40.62099838256836 -110.65599822998047,40.62099838256836 C-118.197998046875,42.742000579833984 -126.4469985961914,42.97800064086914 -133.98899841308594,40.856998443603516 C-133.98899841308594,40.856998443603516 -137.75999450683594,59.71200180053711 -137.75999450683594,59.71200180053711 C-129.7469940185547,61.83300018310547 -120.79000091552734,61.12699890136719 -112.7770004272461,58.534000396728516 C-112.7770004272461,58.534000396728516 113.72000122070312,-21.836000442504883 113.72000122070312,-21.836000442504883 C113.72000122070312,-21.836000442504883 115.13400268554688,-22.30699920654297 115.13400268554688,-22.30699920654297 C124.7969970703125,-26.548999786376953 131.39599609375,-32.678001403808594 133.98899841308594,-42.340999603271484z"></path><path stroke-linecap="butt" stroke-linejoin="bevel" fill-opacity="0" stroke="rgb(0,0,0)" stroke-opacity="1" stroke-width="5" d=" M133.98899841308594,-42.340999603271484 C133.98899841308594,-42.340999603271484 137.75999450683594,-60.959999084472656 137.75999450683594,-60.959999084472656 C137.75999450683594,-60.959999084472656 137.5240020751953,-59.54600143432617 137.5240020751953,-59.54600143432617 C137.5240020751953,-59.54600143432617 137.05299377441406,-58.36800003051758 137.05299377441406,-58.36800003051758 C133.7530059814453,-49.882999420166016 127.625,-44.698001861572266 119.13999938964844,-40.926998138427734 C119.13999938964844,-40.926998138427734 117.49099731445312,-40.45500183105469 117.49099731445312,-40.45500183105469 C117.49099731445312,-40.45500183105469 -109.00599670410156,39.91400146484375 -109.00599670410156,39.91400146484375 C-109.00599670410156,39.91400146484375 -110.65599822998047,40.62099838256836 -110.65599822998047,40.62099838256836 C-118.197998046875,42.742000579833984 -126.4469985961914,42.97800064086914 -133.98899841308594,40.856998443603516 C-133.98899841308594,40.856998443603516 -137.75999450683594,59.71200180053711 -137.75999450683594,59.71200180053711 C-129.7469940185547,61.83300018310547 -120.79000091552734,61.12699890136719 -112.7770004272461,58.534000396728516 C-112.7770004272461,58.534000396728516 113.72000122070312,-21.836000442504883 113.72000122070312,-21.836000442504883 C113.72000122070312,-21.836000442504883 115.13400268554688,-22.30699920654297 115.13400268554688,-22.30699920654297 C124.7969970703125,-26.548999786376953 131.39599609375,-32.678001403808594 133.98899841308594,-42.340999603271484z"></path></g></g><g transform="matrix(1,0,0,1,212.10899353027344,158.31900024414062)" opacity="1" style="display: block;"><g opacity="1" transform="matrix(1,0,0,1,0,0)"><path fill="rgb(233,204,255)" fill-opacity="1" d=" M60.2859992980957,-139.2899932861328 C60.2859992980957,-139.2899932861328 -166.2100067138672,-58.91999816894531 -166.2100067138672,-58.91999816894531 C-183.6510009765625,-52.79199981689453 -191.66400146484375,-36.29399871826172 -184.35800170898438,-22.38800048828125 C-184.35800170898438,-22.38800048828125 -105.8740005493164,125.15299987792969 -105.8740005493164,125.15299987792969 C-98.33200073242188,139.29400634765625 -77.8270034790039,145.6580047607422 -60.38600158691406,139.29400634765625 C-60.38600158691406,139.29400634765625 166.11000061035156,58.92399978637695 166.11000061035156,58.92399978637695 C183.55099487304688,52.79600143432617 191.8000030517578,36.29899978637695 184.25799560546875,22.39299964904785 C184.25799560546875,22.39299964904785 105.77400207519531,-125.38400268554688 105.77400207519531,-125.38400268554688 C98.23200225830078,-139.2899932861328 77.72699737548828,-145.6540069580078 60.2859992980957,-139.2899932861328z"></path><path stroke-linecap="butt" stroke-linejoin="miter" fill-opacity="0" stroke-miterlimit="4" stroke="rgb(0,0,0)" stroke-opacity="1" stroke-width="5" d=" M60.2859992980957,-139.2899932861328 C60.2859992980957,-139.2899932861328 -166.2100067138672,-58.91999816894531 -166.2100067138672,-58.91999816894531 C-183.6510009765625,-52.79199981689453 -191.66400146484375,-36.29399871826172 -184.35800170898438,-22.38800048828125 C-184.35800170898438,-22.38800048828125 -105.8740005493164,125.15299987792969 -105.8740005493164,125.15299987792969 C-98.33200073242188,139.29400634765625 -77.8270034790039,145.6580047607422 -60.38600158691406,139.29400634765625 C-60.38600158691406,139.29400634765625 166.11000061035156,58.92399978637695 166.11000061035156,58.92399978637695 C183.55099487304688,52.79600143432617 191.8000030517578,36.29899978637695 184.25799560546875,22.39299964904785 C184.25799560546875,22.39299964904785 105.77400207519531,-125.38400268554688 105.77400207519531,-125.38400268554688 C98.23200225830078,-139.2899932861328 77.72699737548828,-145.6540069580078 60.2859992980957,-139.2899932861328z"></path></g></g><g transform="matrix(1,0,0,1,173.94198608398438,80.95700073242188)" opacity="1" style="display: block;"><g opacity="1" transform="matrix(1,0,0,1,0,0)"><path fill="rgb(204,204,204)" fill-opacity="1" d=" M98.4530029296875,-61.926998138427734 C98.4530029296875,-61.926998138427734 -128.04299926757812,18.441999435424805 -128.04299926757812,18.441999435424805 C-145.48399353027344,24.56999969482422 -153.4969940185547,41.06800079345703 -146.1909942626953,54.9739990234375 C-146.1909942626953,54.9739990234375 -141.24200439453125,64.4020004272461 -141.24200439453125,64.4020004272461 C-141.24200439453125,64.4020004272461 148.88999938964844,-38.59400177001953 148.88999938964844,-38.59400177001953 C148.88999938964844,-38.59400177001953 143.9409942626953,-48.02199935913086 143.9409942626953,-48.02199935913086 C136.3990020751953,-61.928001403808594 115.89399719238281,-68.29100036621094 98.4530029296875,-61.926998138427734z"></path><path stroke-linecap="butt" stroke-linejoin="miter" fill-opacity="0" stroke-miterlimit="4" stroke="rgb(0,0,0)" stroke-opacity="1" stroke-width="5" d=" M98.4530029296875,-61.926998138427734 C98.4530029296875,-61.926998138427734 -128.04299926757812,18.441999435424805 -128.04299926757812,18.441999435424805 C-145.48399353027344,24.56999969482422 -153.4969940185547,41.06800079345703 -146.1909942626953,54.9739990234375 C-146.1909942626953,54.9739990234375 -141.24200439453125,64.4020004272461 -141.24200439453125,64.4020004272461 C-141.24200439453125,64.4020004272461 148.88999938964844,-38.59400177001953 148.88999938964844,-38.59400177001953 C148.88999938964844,-38.59400177001953 143.9409942626953,-48.02199935913086 143.9409942626953,-48.02199935913086 C136.3990020751953,-61.928001403808594 115.89399719238281,-68.29100036621094 98.4530029296875,-61.926998138427734z"></path></g></g></g><g clip-path="url(#__lottie_element_629)" style="display: block;" transform="matrix(0.9765161275863647,0.2154444456100464,-0.2154444456100464,0.9765161275863647,250.1834716796875,145.537109375)" opacity="1"><g transform="matrix(1,0,0,1,111,125)" opacity="1" style="display: block;"><g opacity="1" transform="matrix(1,0,0,1,0,0)"></g></g><g transform="matrix(1,0,0,1,110.67399597167969,146.56399536132812)" opacity="1" style="display: block;"><g opacity="1" transform="matrix(1,0,0,1,0,0)"><path fill="rgb(85,219,156)" fill-opacity="1" d=" M89.98400115966797,42.505001068115234 C89.98400115966797,42.505001068115234 93.99099731445312,23.179000854492188 93.99099731445312,23.179000854492188 C93.99099731445312,23.179000854492188 93.51899719238281,24.35700035095215 93.51899719238281,24.35700035095215 C93.51899719238281,24.35700035095215 93.0479965209961,25.770999908447266 93.0479965209961,25.770999908447266 C89.74800109863281,34.49100112915039 83.38500213623047,40.14799880981445 74.42900085449219,43.91899871826172 C74.42900085449219,43.91899871826172 72.77899932861328,44.625999450683594 72.77899932861328,44.625999450683594 C72.77899932861328,44.625999450683594 22.57699966430664,62.303001403808594 22.57699966430664,62.303001403808594 C22.57699966430664,62.303001403808594 20.691999435424805,63.0099983215332 20.691999435424805,63.0099983215332 C4.901000022888184,67.48799896240234 -14.425999641418457,63.71699905395508 -24.089000701904297,48.86899948120117 C-24.089000701904297,48.86899948120117 -24.79599952697754,47.689998626708984 -24.79599952697754,47.689998626708984 C-24.79599952697754,47.689998626708984 -87.25399780273438,-68.9749984741211 -87.25399780273438,-68.9749984741211 C-89.61100006103516,-73.68900299072266 -90.31700134277344,-77.69599914550781 -89.84600067138672,-82.88099670410156 C-89.84600067138672,-82.88099670410156 -89.61000061035156,-84.29499816894531 -89.61000061035156,-84.29499816894531 C-89.61000061035156,-84.29499816894531 -93.61699676513672,-64.96900177001953 -93.61699676513672,-64.96900177001953 C-93.61699676513672,-64.96900177001953 -93.85299682617188,-63.55500030517578 -93.85299682617188,-63.55500030517578 C-94.3239974975586,-58.13399887084961 -93.61699676513672,-54.36199951171875 -91.26000213623047,-49.41299819946289 C-91.26000213623047,-49.41299819946289 -28.80299949645996,67.01699829101562 -28.80299949645996,67.01699829101562 C-28.80299949645996,67.01699829101562 -28.09600067138672,68.43099975585938 -28.09600067138672,68.43099975585938 C-17.961000442504883,83.98600006103516 2.308000087738037,87.28600311279297 18.56999969482422,81.86499786376953 C18.56999969482422,81.86499786376953 68.77200317382812,63.952999114990234 68.77200317382812,63.952999114990234 C68.77200317382812,63.952999114990234 70.4219970703125,63.24599838256836 70.4219970703125,63.24599838256836 C80.32099914550781,59.00400161743164 87.15599822998047,52.63999938964844 89.98400115966797,42.505001068115234z"></path><path stroke-linecap="butt" stroke-linejoin="bevel" fill-opacity="0" stroke="rgb(0,0,0)" stroke-opacity="1" stroke-width="5" d=" M89.98400115966797,42.505001068115234 C89.98400115966797,42.505001068115234 93.99099731445312,23.179000854492188 93.99099731445312,23.179000854492188 C93.99099731445312,23.179000854492188 93.51899719238281,24.35700035095215 93.51899719238281,24.35700035095215 C93.51899719238281,24.35700035095215 93.0479965209961,25.770999908447266 93.0479965209961,25.770999908447266 C89.74800109863281,34.49100112915039 83.38500213623047,40.14799880981445 74.42900085449219,43.91899871826172 C74.42900085449219,43.91899871826172 72.77899932861328,44.625999450683594 72.77899932861328,44.625999450683594 C72.77899932861328,44.625999450683594 22.57699966430664,62.303001403808594 22.57699966430664,62.303001403808594 C22.57699966430664,62.303001403808594 20.691999435424805,63.0099983215332 20.691999435424805,63.0099983215332 C4.901000022888184,67.48799896240234 -14.425999641418457,63.71699905395508 -24.089000701904297,48.86899948120117 C-24.089000701904297,48.86899948120117 -24.79599952697754,47.689998626708984 -24.79599952697754,47.689998626708984 C-24.79599952697754,47.689998626708984 -87.25399780273438,-68.9749984741211 -87.25399780273438,-68.9749984741211 C-89.61100006103516,-73.68900299072266 -90.31700134277344,-77.69599914550781 -89.84600067138672,-82.88099670410156 C-89.84600067138672,-82.88099670410156 -89.61000061035156,-84.29499816894531 -89.61000061035156,-84.29499816894531 C-89.61000061035156,-84.29499816894531 -93.61699676513672,-64.96900177001953 -93.61699676513672,-64.96900177001953 C-93.61699676513672,-64.96900177001953 -93.85299682617188,-63.55500030517578 -93.85299682617188,-63.55500030517578 C-94.3239974975586,-58.13399887084961 -93.61699676513672,-54.36199951171875 -91.26000213623047,-49.41299819946289 C-91.26000213623047,-49.41299819946289 -28.80299949645996,67.01699829101562 -28.80299949645996,67.01699829101562 C-28.80299949645996,67.01699829101562 -28.09600067138672,68.43099975585938 -28.09600067138672,68.43099975585938 C-17.961000442504883,83.98600006103516 2.308000087738037,87.28600311279297 18.56999969482422,81.86499786376953 C18.56999969482422,81.86499786376953 68.77200317382812,63.952999114990234 68.77200317382812,63.952999114990234 C68.77200317382812,63.952999114990234 70.4219970703125,63.24599838256836 70.4219970703125,63.24599838256836 C80.32099914550781,59.00400161743164 87.15599822998047,52.63999938964844 89.98400115966797,42.505001068115234z"></path></g></g><g transform="matrix(1,0,0,1,153.8730010986328,200.27401733398438)" opacity="1" style="display: block;"><g opacity="1" transform="matrix(1,0,0,1,0,0)"><path fill="rgb(85,219,156)" fill-opacity="1" d=" M46.784000396728516,-11.206000328063965 C46.784000396728516,-11.206000328063965 50.79100036621094,-30.531999588012695 50.79100036621094,-30.531999588012695 C50.79100036621094,-30.531999588012695 50.319000244140625,-29.354000091552734 50.319000244140625,-29.354000091552734 C50.319000244140625,-29.354000091552734 49.847999572753906,-27.940000534057617 49.847999572753906,-27.940000534057617 C46.54800033569336,-19.219999313354492 40.185001373291016,-13.562999725341797 31.229000091552734,-9.791999816894531 C31.229000091552734,-9.791999816894531 29.57900047302246,-9.085000038146973 29.57900047302246,-9.085000038146973 C29.57900047302246,-9.085000038146973 -20.62299919128418,8.592000007629395 -20.62299919128418,8.592000007629395 C-20.62299919128418,8.592000007629395 -22.507999420166016,9.298999786376953 -22.507999420166016,9.298999786376953 C-30.285999298095703,11.420000076293945 -38.77000045776367,11.654999732971191 -46.54800033569336,9.770000457763672 C-46.54800033569336,9.770000457763672 -50.79100036621094,29.097000122070312 -50.79100036621094,29.097000122070312 C-42.305999755859375,31.45400047302246 -32.87799835205078,30.746999740600586 -24.628999710083008,28.15399932861328 C-24.628999710083008,28.15399932861328 25.57200050354004,10.241999626159668 25.57200050354004,10.241999626159668 C25.57200050354004,10.241999626159668 27.222000122070312,9.53499984741211 27.222000122070312,9.53499984741211 C37.12099838256836,5.293000221252441 43.95600128173828,-1.0709999799728394 46.784000396728516,-11.206000328063965z"></path><path stroke-linecap="butt" stroke-linejoin="bevel" fill-opacity="0" stroke="rgb(0,0,0)" stroke-opacity="1" stroke-width="5" d=" M46.784000396728516,-11.206000328063965 C46.784000396728516,-11.206000328063965 50.79100036621094,-30.531999588012695 50.79100036621094,-30.531999588012695 C50.79100036621094,-30.531999588012695 50.319000244140625,-29.354000091552734 50.319000244140625,-29.354000091552734 C50.319000244140625,-29.354000091552734 49.847999572753906,-27.940000534057617 49.847999572753906,-27.940000534057617 C46.54800033569336,-19.219999313354492 40.185001373291016,-13.562999725341797 31.229000091552734,-9.791999816894531 C31.229000091552734,-9.791999816894531 29.57900047302246,-9.085000038146973 29.57900047302246,-9.085000038146973 C29.57900047302246,-9.085000038146973 -20.62299919128418,8.592000007629395 -20.62299919128418,8.592000007629395 C-20.62299919128418,8.592000007629395 -22.507999420166016,9.298999786376953 -22.507999420166016,9.298999786376953 C-30.285999298095703,11.420000076293945 -38.77000045776367,11.654999732971191 -46.54800033569336,9.770000457763672 C-46.54800033569336,9.770000457763672 -50.79100036621094,29.097000122070312 -50.79100036621094,29.097000122070312 C-42.305999755859375,31.45400047302246 -32.87799835205078,30.746999740600586 -24.628999710083008,28.15399932861328 C-24.628999710083008,28.15399932861328 25.57200050354004,10.241999626159668 25.57200050354004,10.241999626159668 C25.57200050354004,10.241999626159668 27.222000122070312,9.53499984741211 27.222000122070312,9.53499984741211 C37.12099838256836,5.293000221252441 43.95600128173828,-1.0709999799728394 46.784000396728516,-11.206000328063965z"></path></g></g><g transform="matrix(1,0,0,1,112.91600036621094,115.2509994506836)" opacity="1" style="display: block;"><g opacity="1" transform="matrix(1,0,0,1,0,0)"><path fill="rgb(85,219,156)" fill-opacity="1" d=" M-20.202999114990234,-93.75599670410156 C-20.202999114990234,-93.75599670410156 -70.40499877929688,-75.84400177001953 -70.40499877929688,-75.84400177001953 C-88.78900146484375,-69.4800033569336 -97.27300262451172,-52.2760009765625 -89.49500274658203,-37.66299819946289 C-89.49500274658203,-37.66299819946289 -27.038000106811523,79.00299835205078 -27.038000106811523,79.00299835205078 C-19.260000228881836,93.61599731445312 1.9509999752044678,100.21499633789062 20.334999084472656,93.61599731445312 C20.334999084472656,93.61599731445312 70.53700256347656,75.93900299072266 70.53700256347656,75.93900299072266 C88.68499755859375,69.33999633789062 97.40499877929688,52.1349983215332 89.39199829101562,37.52199935913086 C89.39199829101562,37.52199935913086 27.170000076293945,-78.90799713134766 27.170000076293945,-78.90799713134766 C19.392000198364258,-93.52100372314453 -2.055000066757202,-100.12000274658203 -20.202999114990234,-93.75599670410156z"></path><path stroke-linecap="butt" stroke-linejoin="miter" fill-opacity="0" stroke-miterlimit="4" stroke="rgb(0,0,0)" stroke-opacity="1" stroke-width="5" d=" M-20.202999114990234,-93.75599670410156 C-20.202999114990234,-93.75599670410156 -70.40499877929688,-75.84400177001953 -70.40499877929688,-75.84400177001953 C-88.78900146484375,-69.4800033569336 -97.27300262451172,-52.2760009765625 -89.49500274658203,-37.66299819946289 C-89.49500274658203,-37.66299819946289 -27.038000106811523,79.00299835205078 -27.038000106811523,79.00299835205078 C-19.260000228881836,93.61599731445312 1.9509999752044678,100.21499633789062 20.334999084472656,93.61599731445312 C20.334999084472656,93.61599731445312 70.53700256347656,75.93900299072266 70.53700256347656,75.93900299072266 C88.68499755859375,69.33999633789062 97.40499877929688,52.1349983215332 89.39199829101562,37.52199935913086 C89.39199829101562,37.52199935913086 27.170000076293945,-78.90799713134766 27.170000076293945,-78.90799713134766 C19.392000198364258,-93.52100372314453 -2.055000066757202,-100.12000274658203 -20.202999114990234,-93.75599670410156z"></path></g></g><g transform="matrix(1,0,0,1,77.37699890136719,50.90899658203125)" opacity="1" style="display: block;"><g opacity="1" transform="matrix(1,0,0,1,0,0)"><path fill="rgb(0,0,0)" fill-opacity="1" d=" M4.730000019073486,-8.675000190734863 C4.730000019073486,-8.675000190734863 -10.824999809265137,-2.7820000648498535 -10.824999809265137,-2.7820000648498535 C-14.595999717712402,-1.3680000305175781 -16.010000228881836,1.930999994277954 -14.595999717712402,4.994999885559082 C-14.595999717712402,4.994999885559082 -14.361000061035156,5.702000141143799 -14.361000061035156,5.702000141143799 C-12.946999549865723,8.765999794006348 -8.468000411987305,9.944999694824219 -4.933000087738037,8.531000137329102 C-4.933000087738037,8.531000137329102 10.857999801635742,2.874000072479248 10.857999801635742,2.874000072479248 C14.392999649047852,1.4600000381469727 16.042999267578125,-1.840000033378601 14.628999710083008,-4.9039998054504395 C14.628999710083008,-4.9039998054504395 14.157999992370605,-5.611000061035156 14.157999992370605,-5.611000061035156 C12.744000434875488,-8.675000190734863 8.265000343322754,-9.852999687194824 4.730000019073486,-8.675000190734863z"></path><path stroke-linecap="butt" stroke-linejoin="miter" fill-opacity="0" stroke-miterlimit="4" stroke="rgb(0,0,0)" stroke-opacity="1" stroke-width="5" d=" M4.730000019073486,-8.675000190734863 C4.730000019073486,-8.675000190734863 -10.824999809265137,-2.7820000648498535 -10.824999809265137,-2.7820000648498535 C-14.595999717712402,-1.3680000305175781 -16.010000228881836,1.930999994277954 -14.595999717712402,4.994999885559082 C-14.595999717712402,4.994999885559082 -14.361000061035156,5.702000141143799 -14.361000061035156,5.702000141143799 C-12.946999549865723,8.765999794006348 -8.468000411987305,9.944999694824219 -4.933000087738037,8.531000137329102 C-4.933000087738037,8.531000137329102 10.857999801635742,2.874000072479248 10.857999801635742,2.874000072479248 C14.392999649047852,1.4600000381469727 16.042999267578125,-1.840000033378601 14.628999710083008,-4.9039998054504395 C14.628999710083008,-4.9039998054504395 14.157999992370605,-5.611000061035156 14.157999992370605,-5.611000061035156 C12.744000434875488,-8.675000190734863 8.265000343322754,-9.852999687194824 4.730000019073486,-8.675000190734863z"></path></g></g></g><g clip-path="url(#__lottie_element_609)" style="display: none;" transform="matrix(1,0,0,1,220.91444396972656,93.98394775390625)" opacity="1"><g transform="matrix(1,0,0,1,79.5,72)" opacity="1" style="display: block;"><g opacity="1" transform="matrix(1,0,0,1,0,0)"></g></g><g transform="matrix(1,0,0,1,78.76399993896484,92.68000030517578)" opacity="1" style="display: block;"><g opacity="1" transform="matrix(1,0,0,1,0,0)"><path fill="rgb(77,162,255)" fill-opacity="1" d=" M68.53600311279297,5.073999881744385 C68.53600311279297,5.073999881744385 69.98699951171875,-3.3949999809265137 69.98699951171875,-3.3949999809265137 C69.98699951171875,-3.3949999809265137 69.51599884033203,-2.2160000801086426 69.51599884033203,-2.2160000801086426 C69.51599884033203,-2.2160000801086426 69.27999877929688,-0.8019999861717224 69.27999877929688,-0.8019999861717224 C65.74500274658203,7.447000026702881 59.85300064086914,12.868000030517578 51.36800003051758,16.402999877929688 C51.36800003051758,16.402999877929688 49.71799850463867,17.110000610351562 49.71799850463867,17.110000610351562 C49.71799850463867,17.110000610351562 1.6380000114440918,34.08000183105469 1.6380000114440918,34.08000183105469 C1.6380000114440918,34.08000183105469 -0.012000000104308128,34.7869987487793 -0.012000000104308128,34.7869987487793 C-15.331999778747559,39.02899932861328 -33.71500015258789,35.49300003051758 -43.143001556396484,21.351999282836914 C-43.143001556396484,21.351999282836914 -43.849998474121094,19.937999725341797 -43.849998474121094,19.937999725341797 C-43.849998474121094,19.937999725341797 -68.1259994506836,-19.89299964904785 -68.1259994506836,-19.89299964904785 C-70.48300170898438,-24.60700035095215 -71.19000244140625,-28.378000259399414 -70.71900177001953,-33.32699966430664 C-70.71900177001953,-33.32699966430664 -70.48300170898438,-34.74100112915039 -70.48300170898438,-34.74100112915039 C-70.48300170898438,-34.74100112915039 -71.93399810791016,-26.273000717163086 -71.93399810791016,-26.273000717163086 C-71.93399810791016,-26.273000717163086 -72.16899871826172,-24.858999252319336 -72.16899871826172,-24.858999252319336 C-72.63999938964844,-19.673999786376953 -71.93399810791016,-16.138999938964844 -69.5770034790039,-11.425000190734863 C-69.5770034790039,-11.425000190734863 -45.30099868774414,28.406999588012695 -45.30099868774414,28.406999588012695 C-45.30099868774414,28.406999588012695 -44.59400177001953,29.820999145507812 -44.59400177001953,29.820999145507812 C-34.930999755859375,44.66899871826172 -15.604000091552734,47.733001708984375 -0.04899999871850014,42.54800033569336 C-0.04899999871850014,42.54800033569336 48.03099822998047,25.577999114990234 48.03099822998047,25.577999114990234 C48.03099822998047,25.577999114990234 49.680999755859375,24.871000289916992 49.680999755859375,24.871000289916992 C59.10900115966797,20.86400032043457 65.94300079345703,14.501999855041504 68.53600311279297,5.073999881744385z"></path><path stroke-linecap="butt" stroke-linejoin="bevel" fill-opacity="0" stroke="rgb(0,0,0)" stroke-opacity="1" stroke-width="5" d=" M68.53600311279297,5.073999881744385 C68.53600311279297,5.073999881744385 69.98699951171875,-3.3949999809265137 69.98699951171875,-3.3949999809265137 C69.98699951171875,-3.3949999809265137 69.51599884033203,-2.2160000801086426 69.51599884033203,-2.2160000801086426 C69.51599884033203,-2.2160000801086426 69.27999877929688,-0.8019999861717224 69.27999877929688,-0.8019999861717224 C65.74500274658203,7.447000026702881 59.85300064086914,12.868000030517578 51.36800003051758,16.402999877929688 C51.36800003051758,16.402999877929688 49.71799850463867,17.110000610351562 49.71799850463867,17.110000610351562 C49.71799850463867,17.110000610351562 1.6380000114440918,34.08000183105469 1.6380000114440918,34.08000183105469 C1.6380000114440918,34.08000183105469 -0.012000000104308128,34.7869987487793 -0.012000000104308128,34.7869987487793 C-15.331999778747559,39.02899932861328 -33.71500015258789,35.49300003051758 -43.143001556396484,21.351999282836914 C-43.143001556396484,21.351999282836914 -43.849998474121094,19.937999725341797 -43.849998474121094,19.937999725341797 C-43.849998474121094,19.937999725341797 -68.1259994506836,-19.89299964904785 -68.1259994506836,-19.89299964904785 C-70.48300170898438,-24.60700035095215 -71.19000244140625,-28.378000259399414 -70.71900177001953,-33.32699966430664 C-70.71900177001953,-33.32699966430664 -70.48300170898438,-34.74100112915039 -70.48300170898438,-34.74100112915039 C-70.48300170898438,-34.74100112915039 -71.93399810791016,-26.273000717163086 -71.93399810791016,-26.273000717163086 C-71.93399810791016,-26.273000717163086 -72.16899871826172,-24.858999252319336 -72.16899871826172,-24.858999252319336 C-72.63999938964844,-19.673999786376953 -71.93399810791016,-16.138999938964844 -69.5770034790039,-11.425000190734863 C-69.5770034790039,-11.425000190734863 -45.30099868774414,28.406999588012695 -45.30099868774414,28.406999588012695 C-45.30099868774414,28.406999588012695 -44.59400177001953,29.820999145507812 -44.59400177001953,29.820999145507812 C-34.930999755859375,44.66899871826172 -15.604000091552734,47.733001708984375 -0.04899999871850014,42.54800033569336 C-0.04899999871850014,42.54800033569336 48.03099822998047,25.577999114990234 48.03099822998047,25.577999114990234 C48.03099822998047,25.577999114990234 49.680999755859375,24.871000289916992 49.680999755859375,24.871000289916992 C59.10900115966797,20.86400032043457 65.94300079345703,14.501999855041504 68.53600311279297,5.073999881744385z"></path></g></g><g transform="matrix(1,0,0,1,102.5199966430664,108.34500122070312)" opacity="1" style="display: block;"><g opacity="1" transform="matrix(1,0,0,1,0,0)"><path fill="rgb(77,162,255)" fill-opacity="1" d=" M44.78099822998047,-10.59000015258789 C44.78099822998047,-10.59000015258789 46.37699890136719,-19.638999938964844 46.37699890136719,-19.638999938964844 C46.37699890136719,-19.638999938964844 45.904998779296875,-18.459999084472656 45.904998779296875,-18.459999084472656 C45.904998779296875,-18.459999084472656 45.66899871826172,-17.04599952697754 45.66899871826172,-17.04599952697754 C42.13399887084961,-8.79699993133545 36.242000579833984,-3.375999927520752 27.756999969482422,0.1589999943971634 C27.756999969482422,0.1589999943971634 26.10700035095215,0.8659999966621399 26.10700035095215,0.8659999966621399 C26.10700035095215,0.8659999966621399 -21.972999572753906,17.836000442504883 -21.972999572753906,17.836000442504883 C-21.972999572753906,17.836000442504883 -23.62299919128418,18.542999267578125 -23.62299919128418,18.542999267578125 C-31.165000915527344,20.663999557495117 -39.41400146484375,20.899999618530273 -46.95600128173828,18.77899932861328 C-46.95600128173828,18.77899932861328 -48.551998138427734,28.062999725341797 -48.551998138427734,28.062999725341797 C-40.53900146484375,29.947999954223633 -31.58300018310547,29.476999282836914 -23.80500030517578,26.884000778198242 C-23.80500030517578,26.884000778198242 24.275999069213867,9.914999961853027 24.275999069213867,9.914999961853027 C24.275999069213867,9.914999961853027 25.926000595092773,9.208000183105469 25.926000595092773,9.208000183105469 C35.354000091552734,5.201000213623047 42.1879997253418,-1.1619999408721924 44.78099822998047,-10.59000015258789z"></path><path stroke-linecap="butt" stroke-linejoin="bevel" fill-opacity="0" stroke="rgb(0,0,0)" stroke-opacity="1" stroke-width="5" d=" M44.78099822998047,-10.59000015258789 C44.78099822998047,-10.59000015258789 46.37699890136719,-19.638999938964844 46.37699890136719,-19.638999938964844 C46.37699890136719,-19.638999938964844 45.904998779296875,-18.459999084472656 45.904998779296875,-18.459999084472656 C45.904998779296875,-18.459999084472656 45.66899871826172,-17.04599952697754 45.66899871826172,-17.04599952697754 C42.13399887084961,-8.79699993133545 36.242000579833984,-3.375999927520752 27.756999969482422,0.1589999943971634 C27.756999969482422,0.1589999943971634 26.10700035095215,0.8659999966621399 26.10700035095215,0.8659999966621399 C26.10700035095215,0.8659999966621399 -21.972999572753906,17.836000442504883 -21.972999572753906,17.836000442504883 C-21.972999572753906,17.836000442504883 -23.62299919128418,18.542999267578125 -23.62299919128418,18.542999267578125 C-31.165000915527344,20.663999557495117 -39.41400146484375,20.899999618530273 -46.95600128173828,18.77899932861328 C-46.95600128173828,18.77899932861328 -48.551998138427734,28.062999725341797 -48.551998138427734,28.062999725341797 C-40.53900146484375,29.947999954223633 -31.58300018310547,29.476999282836914 -23.80500030517578,26.884000778198242 C-23.80500030517578,26.884000778198242 24.275999069213867,9.914999961853027 24.275999069213867,9.914999961853027 C24.275999069213867,9.914999961853027 25.926000595092773,9.208000183105469 25.926000595092773,9.208000183105469 C35.354000091552734,5.201000213623047 42.1879997253418,-1.1619999408721924 44.78099822998047,-10.59000015258789z"></path></g></g><g transform="matrix(1,0,0,1,77.63200378417969,80.48100280761719)" opacity="1" style="display: block;"><g opacity="1" transform="matrix(1,0,0,1,0,0)"><path fill="rgb(77,162,255)" fill-opacity="1" d=" M-1.531999945640564,-53.85499954223633 C-1.531999945640564,-53.85499954223633 -49.847999572753906,-36.8849983215332 -49.847999572753906,-36.8849983215332 C-67.28900146484375,-30.756999969482422 -76.24500274658203,-13.788000106811523 -67.99600219726562,-0.11800000071525574 C-67.99600219726562,-0.11800000071525574 -43.720001220703125,39.7130012512207 -43.720001220703125,39.7130012512207 C-35.47100067138672,53.382999420166016 -15.909000396728516,60.21900177001953 1.7680000066757202,53.85499954223633 C1.7680000066757202,53.85499954223633 49.847999572753906,36.8849983215332 49.847999572753906,36.8849983215332 C67.28900146484375,30.756999969482422 76.24500274658203,13.788000106811523 67.99600219726562,0.11800000071525574 C67.99600219726562,0.11800000071525574 43.720001220703125,-39.7130012512207 43.720001220703125,-39.7130012512207 C35.47100067138672,-53.382999420166016 15.909000396728516,-60.21900177001953 -1.531999945640564,-53.85499954223633z"></path><path stroke-linecap="butt" stroke-linejoin="miter" fill-opacity="0" stroke-miterlimit="4" stroke="rgb(0,0,0)" stroke-opacity="1" stroke-width="5" d=" M-1.531999945640564,-53.85499954223633 C-1.531999945640564,-53.85499954223633 -49.847999572753906,-36.8849983215332 -49.847999572753906,-36.8849983215332 C-67.28900146484375,-30.756999969482422 -76.24500274658203,-13.788000106811523 -67.99600219726562,-0.11800000071525574 C-67.99600219726562,-0.11800000071525574 -43.720001220703125,39.7130012512207 -43.720001220703125,39.7130012512207 C-35.47100067138672,53.382999420166016 -15.909000396728516,60.21900177001953 1.7680000066757202,53.85499954223633 C1.7680000066757202,53.85499954223633 49.847999572753906,36.8849983215332 49.847999572753906,36.8849983215332 C67.28900146484375,30.756999969482422 76.24500274658203,13.788000106811523 67.99600219726562,0.11800000071525574 C67.99600219726562,0.11800000071525574 43.720001220703125,-39.7130012512207 43.720001220703125,-39.7130012512207 C35.47100067138672,-53.382999420166016 15.909000396728516,-60.21900177001953 -1.531999945640564,-53.85499954223633z"></path></g></g><g transform="matrix(1,0,0,1,78.18400573730469,79.33399963378906)" opacity="1" style="display: block;"><g opacity="1" transform="matrix(1,0,0,1,0,0)"><path fill="rgb(0,0,0)" fill-opacity="1" d=" M-27.30299949645996,8.571999549865723 C-41.444000244140625,8.571999549865723 -53.70000076293945,-19.003000259399414 -17.639999389648438,-32.20199966430664 C-4.677000045776367,-36.91600036621094 7.578999996185303,-35.737998962402344 16.53499984741211,-29.138999938964844 C35.625999450683594,-14.998000144958496 14.178999900817871,-6.2769999504089355 10.17199993133545,-17.826000213623047 C9.229000091552734,-20.889999389648438 11.114999771118164,-31.02400016784668 4.750999927520752,-29.610000610351562 C1.687000036239624,-28.902999877929688 -25.180999755859375,-5.806000232696533 -28.2450008392334,-3.2130000591278076 C-34.37300109863281,1.7359999418258667 -31.309999465942383,5.979000091552734 -22.825000762939453,3.621999979019165 C-16.461000442504883,1.7369999885559082 -10.333999633789062,-0.14900000393390656 -3.9700000286102295,-2.0339999198913574 C1.9220000505447388,-3.9189999103546143 8.050000190734863,-5.806000232696533 14.413999557495117,-7.690999984741211 C20.070999145507812,-9.340999603271484 27.141000747680664,-12.640000343322754 32.5620002746582,-10.519000053405762 C37.74700164794922,-8.633999824523926 41.047000885009766,-2.50600004196167 41.28300094604492,2.678999900817871 C42.46099853515625,24.36199951171875 4.2789998054504395,46.04600143432617 -17.639999389648438,28.840999603271484 C-33.430999755859375,16.584999084472656 -18.81800079345703,6.685999870300293 -8.918999671936035,17.76300048828125 C-6.561999797821045,20.356000900268555 0.03700000047683716,28.3700008392334 2.3940000534057617,30.2549991607666 C8.28600025177002,34.733001708984375 12.293000221252441,26.24799919128418 13.706999778747559,24.363000869750977 C16.06399917602539,20.827999114990234 18.420000076293945,17.763999938964844 21.01300048828125,13.756999969482422 C22.898000717163086,10.928999900817871 30.44099998474121,0.5590000152587891 31.618999481201172,-2.0339999198913574 C32.5620002746582,-4.390999794006348 30.676000595092773,-7.21999979019165 27.847999572753906,-7.690999984741211 C23.606000900268555,-8.39799976348877 -16.933000564575195,8.336000442504883 -27.30299949645996,8.571999549865723z"></path></g></g></g></g></svg>