<svg xmlns="http://www.w3.org/2000/svg" xmlns:xlink="http://www.w3.org/1999/xlink" viewBox="0 0 500 500" width="500" height="500" preserveAspectRatio="xMidYMid meet" style="width: 100%; height: 100%; transform: translate3d(0px, 0px, 0px); content-visibility: visible;"><defs><clipPath id="__lottie_element_599"><rect width="500" height="500" x="0" y="0"></rect></clipPath></defs><g clip-path="url(#__lottie_element_599)"><g transform="matrix(0.9989635348320007,-0.0455181784927845,0.0455181784927845,0.9989635348320007,249.96800231933594,249.58900451660156)" opacity="1" style="display: block;"><g opacity="1" transform="matrix(1,0,0,1,-20.86400032043457,5.39300012588501)"><path fill="rgb(255,204,153)" fill-opacity="1" d=" M-90.56800079345703,26.695999145507812 C-93.58499908447266,25.187999725341797 -95.84700012207031,22.736000061035156 -97.54399871826172,19.7189998626709 C-99.61799621582031,15.381999969482422 -99.43000030517578,11.045999526977539 -98.11000061035156,7.085999965667725 C-96.60199737548828,1.9950000047683716 -89.81300354003906,-29.114999771118164 -87.9280014038086,-27.983999252319336 C-87.9280014038086,-27.983999252319336 -62.85100173950195,-11.769000053405762 -62.85100173950195,-11.769000053405762 C-62.09700012207031,-12.145999908447266 -49.275001525878906,-17.04800033569336 -48.520999908447266,-17.424999237060547 C-48.520999908447266,-17.424999237060547 -39.28200149536133,-21.007999420166016 -39.28200149536133,-21.007999420166016 C-46.82400131225586,-35.90299987792969 -54.93199920654297,-50.04399871826172 -62.4739990234375,-64.7509994506836 C-65.302001953125,-70.02999877929688 -62.85100173950195,-77.38500213623047 -61.53099822998047,-82.66400146484375 C-59.83399963378906,-90.77200317382812 -54.55500030517578,-111.88899993896484 -54.55500030517578,-111.88899993896484 C-45.12699890136719,-115.47100067138672 -33.24800109863281,-86.62300109863281 -28.722999572753906,-77.94999694824219 C-28.722999572753906,-77.94999694824219 -21.934999465942383,-64.7509994506836 -21.934999465942383,-64.7509994506836 C-19.483999252319336,-59.8489990234375 17.094999313354492,-43.06800079345703 17.094999313354492,-43.06800079345703 C21.996999740600586,-44.952999114990234 16.340999603271484,-42.691001892089844 21.243000030517578,-44.57600021362305 C37.27000045776367,-50.98699951171875 56.689998626708984,-43.821998596191406 64.60900115966797,-28.738000869750977 C64.60900115966797,-28.738000869750977 95.90899658203125,31.597999572753906 95.90899658203125,31.597999572753906 C103.63999938964844,46.49300003051758 96.85199737548828,64.02899932861328 80.82499694824219,70.2509994506836 C80.82499694824219,70.2509994506836 38.4010009765625,86.84300231933594 38.4010009765625,86.84300231933594 C38.21200180053711,86.84300231933594 37.834999084472656,87.03099822998047 37.45800018310547,87.22000122070312 C37.45800018310547,87.22000122070312 -23.2549991607666,110.97799682617188 -23.2549991607666,110.97799682617188 C-31.92799949645996,114.37200164794922 -42.48699951171875,110.41200256347656 -46.82400131225586,102.30400085449219 C-49.08700180053711,97.77899932861328 -48.89799880981445,92.87699890136719 -46.82400131225586,88.72899627685547 C-46.82400131225586,88.72899627685547 -46.06999969482422,85.71199798583984 -46.06999969482422,85.71199798583984 C-46.06999969482422,85.71199798583984 -47.766998291015625,86.27799987792969 -47.766998291015625,86.27799987792969 C-56.439998626708984,89.6719970703125 -66.9990005493164,85.9000015258789 -71.14700317382812,77.60399627685547 C-73.5979995727539,73.26699829101562 -73.40899658203125,68.55400085449219 -71.52400207519531,64.40599822998047 C-71.52400207519531,64.40599822998047 -70.7699966430664,61.012001037597656 -70.7699966430664,61.012001037597656 C-79.25499725341797,63.84000015258789 -89.24700164794922,59.88100051879883 -93.20700073242188,52.150001525878906 C-95.47000122070312,48.00199890136719 -95.47000122070312,43.47700119018555 -93.96199798583984,39.70600128173828 C-93.96199798583984,39.70600128173828 -90.56800079345703,26.695999145507812 -90.56800079345703,26.695999145507812z"></path><path stroke-linecap="butt" stroke-linejoin="miter" fill-opacity="0" stroke-miterlimit="4" stroke="rgb(0,0,0)" stroke-opacity="1" stroke-width="4" d=" M-90.56800079345703,26.695999145507812 C-93.58499908447266,25.187999725341797 -95.84700012207031,22.736000061035156 -97.54399871826172,19.7189998626709 C-99.61799621582031,15.381999969482422 -99.43000030517578,11.045999526977539 -98.11000061035156,7.085999965667725 C-96.60199737548828,1.9950000047683716 -89.81300354003906,-29.114999771118164 -87.9280014038086,-27.983999252319336 C-87.9280014038086,-27.983999252319336 -62.85100173950195,-11.769000053405762 -62.85100173950195,-11.769000053405762 C-62.09700012207031,-12.145999908447266 -49.275001525878906,-17.04800033569336 -48.520999908447266,-17.424999237060547 C-48.520999908447266,-17.424999237060547 -39.28200149536133,-21.007999420166016 -39.28200149536133,-21.007999420166016 C-46.82400131225586,-35.90299987792969 -54.93199920654297,-50.04399871826172 -62.4739990234375,-64.7509994506836 C-65.302001953125,-70.02999877929688 -62.85100173950195,-77.38500213623047 -61.53099822998047,-82.66400146484375 C-59.83399963378906,-90.77200317382812 -54.55500030517578,-111.88899993896484 -54.55500030517578,-111.88899993896484 C-45.12699890136719,-115.47100067138672 -33.24800109863281,-86.62300109863281 -28.722999572753906,-77.94999694824219 C-28.722999572753906,-77.94999694824219 -21.934999465942383,-64.7509994506836 -21.934999465942383,-64.7509994506836 C-19.483999252319336,-59.8489990234375 17.094999313354492,-43.06800079345703 17.094999313354492,-43.06800079345703 C21.996999740600586,-44.952999114990234 16.340999603271484,-42.691001892089844 21.243000030517578,-44.57600021362305 C37.27000045776367,-50.98699951171875 56.689998626708984,-43.821998596191406 64.60900115966797,-28.738000869750977 C64.60900115966797,-28.738000869750977 95.90899658203125,31.597999572753906 95.90899658203125,31.597999572753906 C103.63999938964844,46.49300003051758 96.85199737548828,64.02899932861328 80.82499694824219,70.2509994506836 C80.82499694824219,70.2509994506836 38.4010009765625,86.84300231933594 38.4010009765625,86.84300231933594 C38.21200180053711,86.84300231933594 37.834999084472656,87.03099822998047 37.45800018310547,87.22000122070312 C37.45800018310547,87.22000122070312 -23.2549991607666,110.97799682617188 -23.2549991607666,110.97799682617188 C-31.92799949645996,114.37200164794922 -42.48699951171875,110.41200256347656 -46.82400131225586,102.30400085449219 C-49.08700180053711,97.77899932861328 -48.89799880981445,92.87699890136719 -46.82400131225586,88.72899627685547 C-46.82400131225586,88.72899627685547 -46.06999969482422,85.71199798583984 -46.06999969482422,85.71199798583984 C-46.06999969482422,85.71199798583984 -47.766998291015625,86.27799987792969 -47.766998291015625,86.27799987792969 C-56.439998626708984,89.6719970703125 -66.9990005493164,85.9000015258789 -71.14700317382812,77.60399627685547 C-73.5979995727539,73.26699829101562 -73.40899658203125,68.55400085449219 -71.52400207519531,64.40599822998047 C-71.52400207519531,64.40599822998047 -70.7699966430664,61.012001037597656 -70.7699966430664,61.012001037597656 C-79.25499725341797,63.84000015258789 -89.24700164794922,59.88100051879883 -93.20700073242188,52.150001525878906 C-95.47000122070312,48.00199890136719 -95.47000122070312,43.47700119018555 -93.96199798583984,39.70600128173828 C-93.96199798583984,39.70600128173828 -90.56800079345703,26.695999145507812 -90.56800079345703,26.695999145507812z"></path></g><g opacity="1" transform="matrix(1,0,0,1,63.849998474121094,6.629000186920166)"><path fill="rgb(77,162,255)" fill-opacity="1" d=" M-49.51900100708008,-57.3129997253418 C-49.51900100708008,-57.3129997253418 -23.687000274658203,-67.30599975585938 -23.687000274658203,-67.30599975585938 C-18.030000686645508,-69.56900024414062 -11.998000144958496,-66.17500305175781 -8.038000106811523,-61.46099853515625 C-8.038000106811523,-61.46099853515625 56.069000244140625,14.147000312805176 56.069000244140625,14.147000312805176 C56.6349983215332,14.901000022888184 47.20800018310547,46.766998291015625 47.01900100708008,48.652000427246094 C46.83000183105469,52.42300033569336 44.37900161743164,55.62900161743164 40.608001708984375,57.137001037597656 C40.608001708984375,57.137001037597656 14.777000427246094,67.31900024414062 14.777000427246094,67.31900024414062 C8.932000160217285,69.39299774169922 1.9550000429153442,66.75299835205078 -0.8730000257492065,61.28499984741211 C-0.8730000257492065,61.28499984741211 -54.79800033569336,-43.172000885009766 -54.79800033569336,-43.172000885009766 C-57.814998626708984,-48.63999938964844 -55.36399841308594,-55.04999923706055 -49.51900100708008,-57.3129997253418z"></path><path stroke-linecap="butt" stroke-linejoin="miter" fill-opacity="0" stroke-miterlimit="4" stroke="rgb(0,0,0)" stroke-opacity="1" stroke-width="4" d=" M-49.51900100708008,-57.3129997253418 C-49.51900100708008,-57.3129997253418 -23.687000274658203,-67.30599975585938 -23.687000274658203,-67.30599975585938 C-18.030000686645508,-69.56900024414062 -11.998000144958496,-66.17500305175781 -8.038000106811523,-61.46099853515625 C-8.038000106811523,-61.46099853515625 56.069000244140625,14.147000312805176 56.069000244140625,14.147000312805176 C56.6349983215332,14.901000022888184 47.20800018310547,46.766998291015625 47.01900100708008,48.652000427246094 C46.83000183105469,52.42300033569336 44.37900161743164,55.62900161743164 40.608001708984375,57.137001037597656 C40.608001708984375,57.137001037597656 14.777000427246094,67.31900024414062 14.777000427246094,67.31900024414062 C8.932000160217285,69.39299774169922 1.9550000429153442,66.75299835205078 -0.8730000257492065,61.28499984741211 C-0.8730000257492065,61.28499984741211 -54.79800033569336,-43.172000885009766 -54.79800033569336,-43.172000885009766 C-57.814998626708984,-48.63999938964844 -55.36399841308594,-55.04999923706055 -49.51900100708008,-57.3129997253418z"></path></g><g opacity="1" transform="matrix(1,0,0,1,14.911999702453613,42.33599853515625)"><path fill="rgb(255,204,153)" fill-opacity="1" d=" M-52.24300003051758,40.284000396728516 C-45.266998291015625,19.542999267578125 -64.12200164794922,34.0620002746582 -52.619998931884766,12.755999565124512 C-22.639999389648438,-43.62099838256836 13.371999740600586,-95.47200012207031 28.83300018310547,-65.68099975585938 C28.83300018310547,-65.68099975585938 60.132999420166016,-5.34499979019165 60.132999420166016,-5.34499979019165 C61.64099884033203,-2.5169999599456787 61.263999938964844,-0.2540000081062317 60.5099983215332,3.5169999599456787 C59.75600051879883,7.664999961853027 57.87099838256836,15.206999778747559 57.30500030517578,18.224000930786133 C55.608001708984375,27.086000442504883 54.665000915527344,29.53700065612793 45.04899978637695,33.30799865722656 C45.04899978637695,33.30799865722656 2.625,49.900001525878906 2.625,49.900001525878906 C2.436000108718872,49.900001525878906 2.059000015258789,50.0880012512207 1.6820000410079956,50.277000427246094 C1.6820000410079956,50.277000427246094 -59.03099822998047,74.03500366210938 -59.03099822998047,74.03500366210938 C-61.10499954223633,74.78900146484375 -61.67100143432617,74.60099792480469 -60.72800064086914,70.26399993896484 C-59.220001220703125,64.41899871826172 -55.07099914550781,48.76900100708008 -52.24300003051758,40.284000396728516z"></path><path stroke-linecap="butt" stroke-linejoin="miter" fill-opacity="0" stroke-miterlimit="4" stroke="rgb(0,0,0)" stroke-opacity="1" stroke-width="4" d=" M-52.24300003051758,40.284000396728516 C-45.266998291015625,19.542999267578125 -64.12200164794922,34.0620002746582 -52.619998931884766,12.755999565124512 C-22.639999389648438,-43.62099838256836 13.371999740600586,-95.47200012207031 28.83300018310547,-65.68099975585938 C28.83300018310547,-65.68099975585938 60.132999420166016,-5.34499979019165 60.132999420166016,-5.34499979019165 C61.64099884033203,-2.5169999599456787 61.263999938964844,-0.2540000081062317 60.5099983215332,3.5169999599456787 C59.75600051879883,7.664999961853027 57.87099838256836,15.206999778747559 57.30500030517578,18.224000930786133 C55.608001708984375,27.086000442504883 54.665000915527344,29.53700065612793 45.04899978637695,33.30799865722656 C45.04899978637695,33.30799865722656 2.625,49.900001525878906 2.625,49.900001525878906 C2.436000108718872,49.900001525878906 2.059000015258789,50.0880012512207 1.6820000410079956,50.277000427246094 C1.6820000410079956,50.277000427246094 -59.03099822998047,74.03500366210938 -59.03099822998047,74.03500366210938 C-61.10499954223633,74.78900146484375 -61.67100143432617,74.60099792480469 -60.72800064086914,70.26399993896484 C-59.220001220703125,64.41899871826172 -55.07099914550781,48.76900100708008 -52.24300003051758,40.284000396728516z"></path></g><g opacity="1" transform="matrix(1,0,0,1,-61.0890007019043,-15.142999649047852)"><path stroke-linecap="butt" stroke-linejoin="miter" fill-opacity="0" stroke-miterlimit="4" stroke="rgb(0,0,0)" stroke-opacity="1" stroke-width="4" d=" M10.935999870300293,-4.242000102996826 C10.935999870300293,-4.242000102996826 -10.935999870300293,4.242000102996826 -10.935999870300293,4.242000102996826"></path></g><g opacity="1" transform="matrix(1,0,0,1,-11.972999572753906,-17.23900032043457)"><path fill="rgb(255,204,153)" fill-opacity="1" d=" M-80.98200225830078,17.652000427246094 C-87.58100128173828,17.46299934387207 -94.36900329589844,13.880999565124512 -97.38600158691406,7.8470001220703125 C-101.7229995727539,-0.26100000739097595 -97.95099639892578,-9.687999725341797 -89.27799987792969,-13.081999778747559 C-89.27799987792969,-13.081999778747559 -62.69200134277344,-23.641000747680664 -62.69200134277344,-23.641000747680664 C-61.9379997253418,-24.01799964904785 -49.117000579833984,-28.920000076293945 -48.362998962402344,-29.297000885009766 C-48.362998962402344,-29.297000885009766 -39.124000549316406,-32.880001068115234 -39.124000549316406,-32.880001068115234 C-46.66600036621094,-47.58700180053711 -54.77299880981445,-61.91600036621094 -62.314998626708984,-76.62300109863281 C-66.83999633789062,-85.2959976196289 -62.88100051879883,-95.29000091552734 -53.641998291015625,-99.06099700927734 C-44.40299987792969,-102.64299774169922 -33.09000015258789,-98.49500274658203 -28.753000259399414,-89.8219985961914 C-28.753000259399414,-89.8219985961914 -21.965999603271484,-76.62300109863281 -21.965999603271484,-76.62300109863281 C-19.326000213623047,-71.72100067138672 17.06399917602539,-54.939998626708984 17.06399917602539,-54.939998626708984 C21.965999603271484,-56.82500076293945 16.499000549316406,-54.5629997253418 21.400999069213867,-56.448001861572266 C37.428001403808594,-62.66999816894531 56.847999572753906,-55.694000244140625 64.5790023803711,-40.61000061035156 C64.5790023803711,-40.61000061035156 95.87899780273438,19.72599983215332 95.87899780273438,19.72599983215332 C103.7979965209961,34.810001373291016 97.01000213623047,52.15700149536133 80.98300170898438,58.37900161743164 C80.98300170898438,58.37900161743164 38.558998107910156,74.97100067138672 38.558998107910156,74.97100067138672 C38.18199920654297,75.16000366210938 37.99300003051758,75.15899658203125 37.61600112915039,75.3479995727539 C37.61600112915039,75.3479995727539 -23.097000122070312,99.10600280761719 -23.097000122070312,99.10600280761719 C-31.770000457763672,102.5 -42.32899856567383,98.72799682617188 -46.66600036621094,90.43199920654297 C-49.87099838256836,84.39800262451172 -48.55099868774414,77.4229965209961 -44.0260009765625,73.08599853515625 C-44.0260009765625,73.08599853515625 -47.608001708984375,74.40599822998047 -47.608001708984375,74.40599822998047 C-56.28099822998047,77.80000305175781 -66.83999633789062,74.02899932861328 -71.177001953125,65.9209976196289 C-74.38200378417969,59.69900131225586 -73.06300354003906,52.9109992980957 -68.53800201416016,48.38600158691406 C-68.53800201416016,48.38600158691406 -69.66899871826172,48.95100021362305 -69.66899871826172,48.95100021362305 C-78.34200286865234,52.345001220703125 -88.9010009765625,48.38600158691406 -93.23799896240234,40.27799987792969 C-97.38600158691406,32.16999816894531 -93.8030014038086,22.743000030517578 -85.12999725341797,19.349000930786133 C-85.12999725341797,19.349000930786133 -80.98200225830078,17.652000427246094 -80.98200225830078,17.652000427246094z"></path><path stroke-linecap="butt" stroke-linejoin="miter" fill-opacity="0" stroke-miterlimit="4" stroke="rgb(0,0,0)" stroke-opacity="1" stroke-width="4" d=" M-80.98200225830078,17.652000427246094 C-87.58100128173828,17.46299934387207 -94.36900329589844,13.880999565124512 -97.38600158691406,7.8470001220703125 C-101.7229995727539,-0.26100000739097595 -97.95099639892578,-9.687999725341797 -89.27799987792969,-13.081999778747559 C-89.27799987792969,-13.081999778747559 -62.69200134277344,-23.641000747680664 -62.69200134277344,-23.641000747680664 C-61.9379997253418,-24.01799964904785 -49.117000579833984,-28.920000076293945 -48.362998962402344,-29.297000885009766 C-48.362998962402344,-29.297000885009766 -39.124000549316406,-32.880001068115234 -39.124000549316406,-32.880001068115234 C-46.66600036621094,-47.58700180053711 -54.77299880981445,-61.91600036621094 -62.314998626708984,-76.62300109863281 C-66.83999633789062,-85.2959976196289 -62.88100051879883,-95.29000091552734 -53.641998291015625,-99.06099700927734 C-44.40299987792969,-102.64299774169922 -33.09000015258789,-98.49500274658203 -28.753000259399414,-89.8219985961914 C-28.753000259399414,-89.8219985961914 -21.965999603271484,-76.62300109863281 -21.965999603271484,-76.62300109863281 C-19.326000213623047,-71.72100067138672 17.06399917602539,-54.939998626708984 17.06399917602539,-54.939998626708984 C21.965999603271484,-56.82500076293945 16.499000549316406,-54.5629997253418 21.400999069213867,-56.448001861572266 C37.428001403808594,-62.66999816894531 56.847999572753906,-55.694000244140625 64.5790023803711,-40.61000061035156 C64.5790023803711,-40.61000061035156 95.87899780273438,19.72599983215332 95.87899780273438,19.72599983215332 C103.7979965209961,34.810001373291016 97.01000213623047,52.15700149536133 80.98300170898438,58.37900161743164 C80.98300170898438,58.37900161743164 38.558998107910156,74.97100067138672 38.558998107910156,74.97100067138672 C38.18199920654297,75.16000366210938 37.99300003051758,75.15899658203125 37.61600112915039,75.3479995727539 C37.61600112915039,75.3479995727539 -23.097000122070312,99.10600280761719 -23.097000122070312,99.10600280761719 C-31.770000457763672,102.5 -42.32899856567383,98.72799682617188 -46.66600036621094,90.43199920654297 C-49.87099838256836,84.39800262451172 -48.55099868774414,77.4229965209961 -44.0260009765625,73.08599853515625 C-44.0260009765625,73.08599853515625 -47.608001708984375,74.40599822998047 -47.608001708984375,74.40599822998047 C-56.28099822998047,77.80000305175781 -66.83999633789062,74.02899932861328 -71.177001953125,65.9209976196289 C-74.38200378417969,59.69900131225586 -73.06300354003906,52.9109992980957 -68.53800201416016,48.38600158691406 C-68.53800201416016,48.38600158691406 -69.66899871826172,48.95100021362305 -69.66899871826172,48.95100021362305 C-78.34200286865234,52.345001220703125 -88.9010009765625,48.38600158691406 -93.23799896240234,40.27799987792969 C-97.38600158691406,32.16999816894531 -93.8030014038086,22.743000030517578 -85.12999725341797,19.349000930786133 C-85.12999725341797,19.349000930786133 -80.98200225830078,17.652000427246094 -80.98200225830078,17.652000427246094z"></path></g><g opacity="1" transform="matrix(1,0,0,1,68.35099792480469,-27.882999420166016)"><path fill="rgb(77,162,255)" fill-opacity="1" d=" M-45.15800094604492,-57.30699920654297 C-45.15800094604492,-57.30699920654297 -19.326000213623047,-67.30000305175781 -19.326000213623047,-67.30000305175781 C-13.480999946594238,-69.56300354003906 -6.315999984741211,-66.92400360107422 -3.48799991607666,-61.266998291015625 C-3.48799991607666,-61.266998291015625 50.4370002746582,43.00199890136719 50.4370002746582,43.00199890136719 C53.26499938964844,48.659000396728516 50.814998626708984,55.069000244140625 45.15800094604492,57.143001556396484 C45.15800094604492,57.143001556396484 19.326000213623047,67.32499694824219 19.326000213623047,67.32499694824219 C13.480999946594238,69.58799743652344 6.505000114440918,66.75900268554688 3.48799991607666,61.29100036621094 C3.48799991607666,61.29100036621094 -50.4370002746582,-43.16600036621094 -50.4370002746582,-43.16600036621094 C-53.26499938964844,-48.63399887084961 -50.814998626708984,-55.04399871826172 -45.15800094604492,-57.30699920654297z"></path><path stroke-linecap="butt" stroke-linejoin="miter" fill-opacity="0" stroke-miterlimit="4" stroke="rgb(0,0,0)" stroke-opacity="1" stroke-width="4" d=" M-45.15800094604492,-57.30699920654297 C-45.15800094604492,-57.30699920654297 -19.326000213623047,-67.30000305175781 -19.326000213623047,-67.30000305175781 C-13.480999946594238,-69.56300354003906 -6.315999984741211,-66.92400360107422 -3.48799991607666,-61.266998291015625 C-3.48799991607666,-61.266998291015625 50.4370002746582,43.00199890136719 50.4370002746582,43.00199890136719 C53.26499938964844,48.659000396728516 50.814998626708984,55.069000244140625 45.15800094604492,57.143001556396484 C45.15800094604492,57.143001556396484 19.326000213623047,67.32499694824219 19.326000213623047,67.32499694824219 C13.480999946594238,69.58799743652344 6.505000114440918,66.75900268554688 3.48799991607666,61.29100036621094 C3.48799991607666,61.29100036621094 -50.4370002746582,-43.16600036621094 -50.4370002746582,-43.16600036621094 C-53.26499938964844,-48.63399887084961 -50.814998626708984,-55.04399871826172 -45.15800094604492,-57.30699920654297z"></path></g><g opacity="1" transform="matrix(1,0,0,1,-52.22700119018555,-49.64799880981445)"><path stroke-linecap="butt" stroke-linejoin="miter" fill-opacity="0" stroke-miterlimit="4" stroke="rgb(0,0,0)" stroke-opacity="1" stroke-width="4" d=" M10.935999870300293,-4.242000102996826 C10.935999870300293,-4.242000102996826 -10.935999870300293,4.242000102996826 -10.935999870300293,4.242000102996826"></path></g><g opacity="1" transform="matrix(1,0,0,1,-63.63399887084961,77.71800231933594)"><path stroke-linecap="butt" stroke-linejoin="miter" fill-opacity="0" stroke-miterlimit="4" stroke="rgb(0,0,0)" stroke-opacity="1" stroke-width="4" d=" M3.677000045776367,-14.895000457763672 C3.677000045776367,-14.895000457763672 -3.677000045776367,14.895000457763672 -3.677000045776367,14.895000457763672"></path></g><g opacity="1" transform="matrix(1,0,0,1,-87.95800018310547,52.16999816894531)"><path stroke-linecap="butt" stroke-linejoin="miter" fill-opacity="0" stroke-miterlimit="4" stroke="rgb(0,0,0)" stroke-opacity="1" stroke-width="4" d=" M3.677000045776367,-14.989999771118164 C3.677000045776367,-14.989999771118164 -3.677000045776367,14.989999771118164 -3.677000045776367,14.989999771118164"></path></g><g opacity="1" transform="matrix(1,0,0,1,-110.58399963378906,28.69499969482422)"><path stroke-linecap="butt" stroke-linejoin="miter" fill-opacity="0" stroke-miterlimit="4" stroke="rgb(0,0,0)" stroke-opacity="1" stroke-width="4" d=" M3.677000045776367,-14.895000457763672 C3.677000045776367,-14.895000457763672 -3.677000045776367,14.895000457763672 -3.677000045776367,14.895000457763672"></path></g></g></g></svg>