<svg xmlns="http://www.w3.org/2000/svg" xmlns:xlink="http://www.w3.org/1999/xlink" viewBox="0 0 1000 1000" width="1000" height="1000" preserveAspectRatio="xMidYMid meet" style="width: 100%; height: 100%; transform: translate3d(0px, 0px, 0px); content-visibility: visible;"><defs><clipPath id="__lottie_element_175"><rect width="1000" height="1000" x="0" y="0"></rect></clipPath></defs><g clip-path="url(#__lottie_element_175)"><g transform="matrix(1,0.000003969311364926398,-0.000003969311364926398,1,438.9355163574219,464.7857360839844)" opacity="1" style="display: block;"><g opacity="1" transform="matrix(1,0,0,1,0,0)"><path fill="rgb(247,247,247)" fill-opacity="1" d=" M-12.460000038146973,-165.81900024414062 C-12.460000038146973,-165.81900024414062 -135.76600646972656,-62.5 -135.76600646972656,-62.5 C-156.09100341796875,-45.5620002746582 -160.83399963378906,-13.380999565124512 -146.26800537109375,8.637999534606934 C-146.26800537109375,8.637999534606934 -50.4010009765625,155.99600219726562 -50.4010009765625,155.99600219726562 C-35.834999084472656,178.35400390625 -7.7179999351501465,182.7570037841797 12.607000350952148,165.81900024414062 C12.607000350952148,165.81900024414062 135.91299438476562,62.5 135.91299438476562,62.5 C156.23800659179688,45.5620002746582 160.64300537109375,13.380999565124512 146.4149932861328,-8.637999534606934 C146.4149932861328,-8.637999534606934 50.54800033569336,-155.99600219726562 50.54800033569336,-155.99600219726562 C35.981998443603516,-178.35400390625 7.526000022888184,-182.7570037841797 -12.460000038146973,-165.81900024414062z"></path><path stroke-linecap="butt" stroke-linejoin="miter" fill-opacity="0" stroke-miterlimit="4" stroke="rgb(0,0,0)" stroke-opacity="1" stroke-width="5.855" d=" M-12.460000038146973,-165.81900024414062 C-12.460000038146973,-165.81900024414062 -135.76600646972656,-62.5 -135.76600646972656,-62.5 C-156.09100341796875,-45.5620002746582 -160.83399963378906,-13.380999565124512 -146.26800537109375,8.637999534606934 C-146.26800537109375,8.637999534606934 -50.4010009765625,155.99600219726562 -50.4010009765625,155.99600219726562 C-35.834999084472656,178.35400390625 -7.7179999351501465,182.7570037841797 12.607000350952148,165.81900024414062 C12.607000350952148,165.81900024414062 135.91299438476562,62.5 135.91299438476562,62.5 C156.23800659179688,45.5620002746582 160.64300537109375,13.380999565124512 146.4149932861328,-8.637999534606934 C146.4149932861328,-8.637999534606934 50.54800033569336,-155.99600219726562 50.54800033569336,-155.99600219726562 C35.981998443603516,-178.35400390625 7.526000022888184,-182.7570037841797 -12.460000038146973,-165.81900024414062z"></path></g></g><g transform="matrix(1,0.000007484908110200195,-0.000007484908110200195,1,474.4153747558594,469.6515197753906)" opacity="1" style="display: block;"><g opacity="1" transform="matrix(1,0,0,1,0,0)"><path fill="rgb(85,219,156)" fill-opacity="1" d=" M23.19700050354004,-173.73300170898438 C23.19700050354004,-173.73300170898438 -167.52000427246094,-56.862998962402344 -167.52000427246094,-56.862998962402344 C-191.5709991455078,-42.297000885009766 -199.0240020751953,-11.131999969482422 -184.11900329589844,12.581000328063965 C-184.11900329589844,12.581000328063965 -93.33399963378906,157.22900390625 -93.33399963378906,157.22900390625 C-78.42900085449219,180.94200134277344 -46.92399978637695,188.39300537109375 -22.87299919128418,173.82699584960938 C-22.87299919128418,173.82699584960938 167.84500122070312,56.95800018310547 167.84500122070312,56.95800018310547 C191.55799865722656,42.391998291015625 199.00999450683594,10.887999534606934 184.10499572753906,-12.824999809265137 C184.10499572753906,-12.824999809265137 93.65799713134766,-157.47300720214844 93.65799713134766,-157.47300720214844 C78.75299835205078,-181.18600463867188 47.24800109863281,-188.2989959716797 23.19700050354004,-173.73300170898438z"></path><path stroke-linecap="butt" stroke-linejoin="miter" fill-opacity="0" stroke-miterlimit="4" stroke="rgb(0,0,0)" stroke-opacity="1" stroke-width="5.855" d=" M23.19700050354004,-173.73300170898438 C23.19700050354004,-173.73300170898438 -167.52000427246094,-56.862998962402344 -167.52000427246094,-56.862998962402344 C-191.5709991455078,-42.297000885009766 -199.0240020751953,-11.131999969482422 -184.11900329589844,12.581000328063965 C-184.11900329589844,12.581000328063965 -93.33399963378906,157.22900390625 -93.33399963378906,157.22900390625 C-78.42900085449219,180.94200134277344 -46.92399978637695,188.39300537109375 -22.87299919128418,173.82699584960938 C-22.87299919128418,173.82699584960938 167.84500122070312,56.95800018310547 167.84500122070312,56.95800018310547 C191.55799865722656,42.391998291015625 199.00999450683594,10.887999534606934 184.10499572753906,-12.824999809265137 C184.10499572753906,-12.824999809265137 93.65799713134766,-157.47300720214844 93.65799713134766,-157.47300720214844 C78.75299835205078,-181.18600463867188 47.24800109863281,-188.2989959716797 23.19700050354004,-173.73300170898438z"></path></g></g><g transform="matrix(1,0.00000824095059215324,-0.00000824095059215324,1,499.59503173828125,509.27288818359375)" opacity="1" style="display: block;"><g opacity="1" transform="matrix(1,0,0,1,0,0)"><path fill="rgb(92,74,222)" fill-opacity="1" d=" M219.22300720214844,28.516000747680664 C216.8520050048828,30.886999130249023 214.47999572753906,33.257999420166016 212.10899353027344,35.29100036621094 M212.447998046875,68.8280029296875 C212.447998046875,68.8280029296875 228.70799255371094,11.579000473022461 228.70799255371094,11.579000473022461 C232.0959930419922,0.7390000224113464 231.41799926757812,-10.779000282287598 225.65899658203125,-21.618999481201172 C225.65899658203125,-21.618999481201172 147.40699768066406,-173.3800048828125 147.40699768066406,-173.3800048828125 C134.53399658203125,-198.10899353027344 100.65899658203125,-209.6269989013672 72.54299926757812,-198.78700256347656 C72.54299926757812,-198.78700256347656 -181.52099609375,-100.20999908447266 -181.52099609375,-100.20999908447266 C-198.45899963378906,-93.77400207519531 -209.63800048828125,-80.9000015258789 -213.36399841308594,-66.33399963378906 C-213.36399841308594,-66.33399963378906 -229.62399291992188,-9.085000038146973 -229.62399291992188,-9.085000038146973 C-229.62399291992188,-9.085000038146973 -229.96299743652344,-6.714000225067139 -229.96299743652344,-6.714000225067139 C-231.65699768066406,3.4489998817443848 -230.63999938964844,10.562999725341797 -226.91400146484375,19.708999633789062 C-226.91400146484375,19.708999633789062 -225.8979949951172,22.079999923706055 -225.8979949951172,22.079999923706055 C-225.8979949951172,22.079999923706055 -147.3070068359375,173.5030059814453 -147.3070068359375,173.5030059814453 C-147.3070068359375,173.5030059814453 -146.29100036621094,175.87399291992188 -146.29100036621094,175.87399291992188 C-146.29100036621094,175.87399291992188 -144.93600463867188,177.906005859375 -144.93600463867188,177.906005859375 C-130.031005859375,198.90899658203125 -102.93099975585938,208.05499267578125 -75.49199676513672,199.9250030517578 C-75.49199676513672,199.9250030517578 -72.78199768066406,198.90899658203125 -72.78199768066406,198.90899658203125 C-72.78199768066406,198.90899658203125 181.6219940185547,100.6709976196289 181.6219940185547,100.6709976196289 C181.6219940185547,100.6709976196289 183.9929962158203,99.31600189208984 183.9929962158203,99.31600189208984 C197.54299926757812,93.21800231933594 206.3509979248047,84.7490005493164 211.77099609375,71.1989974975586 C211.77099609375,71.1989974975586 212.447998046875,68.8280029296875 212.447998046875,68.8280029296875z"></path><path stroke-linecap="butt" stroke-linejoin="bevel" fill-opacity="0" stroke="rgb(0,0,0)" stroke-opacity="1" stroke-width="5.855" d=" M219.22300720214844,28.516000747680664 C216.8520050048828,30.886999130249023 214.47999572753906,33.257999420166016 212.10899353027344,35.29100036621094 M212.447998046875,68.8280029296875 C212.447998046875,68.8280029296875 228.70799255371094,11.579000473022461 228.70799255371094,11.579000473022461 C232.0959930419922,0.7390000224113464 231.41799926757812,-10.779000282287598 225.65899658203125,-21.618999481201172 C225.65899658203125,-21.618999481201172 147.40699768066406,-173.3800048828125 147.40699768066406,-173.3800048828125 C134.53399658203125,-198.10899353027344 100.65899658203125,-209.6269989013672 72.54299926757812,-198.78700256347656 C72.54299926757812,-198.78700256347656 -181.52099609375,-100.20999908447266 -181.52099609375,-100.20999908447266 C-198.45899963378906,-93.77400207519531 -209.63800048828125,-80.9000015258789 -213.36399841308594,-66.33399963378906 C-213.36399841308594,-66.33399963378906 -229.62399291992188,-9.085000038146973 -229.62399291992188,-9.085000038146973 C-229.62399291992188,-9.085000038146973 -229.96299743652344,-6.714000225067139 -229.96299743652344,-6.714000225067139 C-231.65699768066406,3.4489998817443848 -230.63999938964844,10.562999725341797 -226.91400146484375,19.708999633789062 C-226.91400146484375,19.708999633789062 -225.8979949951172,22.079999923706055 -225.8979949951172,22.079999923706055 C-225.8979949951172,22.079999923706055 -147.3070068359375,173.5030059814453 -147.3070068359375,173.5030059814453 C-147.3070068359375,173.5030059814453 -146.29100036621094,175.87399291992188 -146.29100036621094,175.87399291992188 C-146.29100036621094,175.87399291992188 -144.93600463867188,177.906005859375 -144.93600463867188,177.906005859375 C-130.031005859375,198.90899658203125 -102.93099975585938,208.05499267578125 -75.49199676513672,199.9250030517578 C-75.49199676513672,199.9250030517578 -72.78199768066406,198.90899658203125 -72.78199768066406,198.90899658203125 C-72.78199768066406,198.90899658203125 181.6219940185547,100.6709976196289 181.6219940185547,100.6709976196289 C181.6219940185547,100.6709976196289 183.9929962158203,99.31600189208984 183.9929962158203,99.31600189208984 C197.54299926757812,93.21800231933594 206.3509979248047,84.7490005493164 211.77099609375,71.1989974975586 C211.77099609375,71.1989974975586 212.447998046875,68.8280029296875 212.447998046875,68.8280029296875z"></path></g></g><g transform="matrix(1,0.00000824095059215324,-0.00000824095059215324,1,653.3887939453125,415.5911560058594)" opacity="1" style="display: block;"><g opacity="1" transform="matrix(1,0,0,1,0,0)"><path fill="rgb(92,74,222)" fill-opacity="1" d=" M11.229000091552734,-34.305999755859375 C11.229000091552734,-34.305999755859375 -31.452999114990234,-17.707000732421875 -31.452999114990234,-17.707000732421875 C-44.32600021362305,-12.62600040435791 -49.74599838256836,1.6019999980926514 -43.310001373291016,13.79699993133545 C-43.310001373291016,13.79699993133545 -40.26100158691406,20.232999801635742 -40.26100158691406,20.232999801635742 C-33.82500076293945,32.428001403808594 -17.902999877929688,38.5260009765625 -4.691999912261963,33.44499969482422 C-4.691999912261963,33.44499969482422 37.99100112915039,17.18400001525879 37.99100112915039,17.18400001525879 C45.10499954223633,14.135000228881836 48.15299987792969,6.343999862670898 44.426998138427734,-0.7699999809265137 C44.426998138427734,-0.7699999809265137 30.87700080871582,-26.85300064086914 30.87700080871582,-26.85300064086914 C27.48900032043457,-33.62799835205078 18.343000411987305,-37.01599884033203 11.229000091552734,-34.305999755859375z"></path><path stroke-linecap="butt" stroke-linejoin="miter" fill-opacity="0" stroke-miterlimit="4" stroke="rgb(0,0,0)" stroke-opacity="1" stroke-width="5.855" d=" M11.229000091552734,-34.305999755859375 C11.229000091552734,-34.305999755859375 -31.452999114990234,-17.707000732421875 -31.452999114990234,-17.707000732421875 C-44.32600021362305,-12.62600040435791 -49.74599838256836,1.6019999980926514 -43.310001373291016,13.79699993133545 C-43.310001373291016,13.79699993133545 -40.26100158691406,20.232999801635742 -40.26100158691406,20.232999801635742 C-33.82500076293945,32.428001403808594 -17.902999877929688,38.5260009765625 -4.691999912261963,33.44499969482422 C-4.691999912261963,33.44499969482422 37.99100112915039,17.18400001525879 37.99100112915039,17.18400001525879 C45.10499954223633,14.135000228881836 48.15299987792969,6.343999862670898 44.426998138427734,-0.7699999809265137 C44.426998138427734,-0.7699999809265137 30.87700080871582,-26.85300064086914 30.87700080871582,-26.85300064086914 C27.48900032043457,-33.62799835205078 18.343000411987305,-37.01599884033203 11.229000091552734,-34.305999755859375z"></path></g></g><g transform="matrix(1,0.00000824095059215324,-0.00000824095059215324,1,568.22216796875,614.346435546875)" opacity="1" style="display: block;"><g opacity="1" transform="matrix(1,0,0,1,0,0)"><path fill="rgb(0,0,0)" fill-opacity="1" d=" M143.82000732421875,-36.24700164794922 C143.82000732421875,-36.24700164794922 160.0800018310547,-93.49600219726562 160.0800018310547,-93.49600219726562 C160.0800018310547,-93.49600219726562 159.4029998779297,-91.46299743652344 159.4029998779297,-91.46299743652344 C159.4029998779297,-91.46299743652344 158.38600158691406,-89.09200286865234 158.38600158691406,-89.09200286865234 C152.28799438476562,-75.54199981689453 142.8040008544922,-67.41200256347656 129.25399780273438,-61.992000579833984 C129.25399780273438,-61.992000579833984 -125.1500015258789,36.584999084472656 -125.1500015258789,36.584999084472656 C-125.1500015258789,36.584999084472656 -127.86000061035156,37.26300048828125 -127.86000061035156,37.26300048828125 C-160.718994140625,47.42599868774414 -173.92999267578125,86.72100067138672 -141.0709991455078,93.49600219726562 C-141.0709991455078,93.49600219726562 112.99400329589844,-4.4039998054504395 112.99400329589844,-4.4039998054504395 C112.99400329589844,-4.4039998054504395 115.36499786376953,-5.758999824523926 115.36499786376953,-5.758999824523926 C128.9149932861328,-11.857000350952148 137.72300720214844,-20.325000762939453 143.14300537109375,-33.875 C143.14300537109375,-33.875 143.82000732421875,-36.24700164794922 143.82000732421875,-36.24700164794922z"></path><path stroke-linecap="butt" stroke-linejoin="bevel" fill-opacity="0" stroke="rgb(0,0,0)" stroke-opacity="1" stroke-width="5.855" d=" M143.82000732421875,-36.24700164794922 C143.82000732421875,-36.24700164794922 160.0800018310547,-93.49600219726562 160.0800018310547,-93.49600219726562 C160.0800018310547,-93.49600219726562 159.4029998779297,-91.46299743652344 159.4029998779297,-91.46299743652344 C159.4029998779297,-91.46299743652344 158.38600158691406,-89.09200286865234 158.38600158691406,-89.09200286865234 C152.28799438476562,-75.54199981689453 142.8040008544922,-67.41200256347656 129.25399780273438,-61.992000579833984 C129.25399780273438,-61.992000579833984 -125.1500015258789,36.584999084472656 -125.1500015258789,36.584999084472656 C-125.1500015258789,36.584999084472656 -127.86000061035156,37.26300048828125 -127.86000061035156,37.26300048828125 C-160.718994140625,47.42599868774414 -173.92999267578125,86.72100067138672 -141.0709991455078,93.49600219726562 C-141.0709991455078,93.49600219726562 112.99400329589844,-4.4039998054504395 112.99400329589844,-4.4039998054504395 C112.99400329589844,-4.4039998054504395 115.36499786376953,-5.758999824523926 115.36499786376953,-5.758999824523926 C128.9149932861328,-11.857000350952148 137.72300720214844,-20.325000762939453 143.14300537109375,-33.875 C143.14300537109375,-33.875 143.82000732421875,-36.24700164794922 143.82000732421875,-36.24700164794922z"></path></g></g><g transform="matrix(1,0.00000824095059215324,-0.00000824095059215324,1,345.00457763671875,566.0746459960938)" opacity="1" style="display: block;"><g opacity="1" transform="matrix(1,0,0,1,0,0)"><path stroke-linecap="butt" stroke-linejoin="miter" fill-opacity="0" stroke-miterlimit="4" stroke="rgb(0,0,0)" stroke-opacity="1" stroke-width="5.855" d=" M48.95000076293945,83.84100341796875 C38.11000061035156,79.0979995727539 32.012001037597656,72.66200256347656 25.576000213623047,60.46699905395508 C25.576000213623047,60.46699905395508 -48.95000076293945,-83.84100341796875 -48.95000076293945,-83.84100341796875"></path></g></g></g></svg>